#N canvas 0 22 450 300 10;
#X obj 33 103 counter;
#X msg 73 42 0;
#X obj 73 16 loadbang;
#X obj 33 135 sel 15;
#X obj 134 17 r \$0-countDivision;
#X obj 33 40 inlet;
#X obj 33 166 outlet;
#X obj 33 62 t b;
#X obj 101 101 cnv 15 248 33 empty empty empty 20 12 0 12 -118201 -66577
0;
#X obj 104 116 hradio 15 1 0 16 \$0-countDivision empty divide_by_1_through_16
0 -8 0 10 -262144 -1 -1 0;
#X connect 0 0 3 0;
#X connect 1 0 0 1;
#X connect 1 0 0 2;
#X connect 1 0 0 3;
#X connect 1 0 0 4;
#X connect 1 0 9 0;
#X connect 2 0 1 0;
#X connect 3 0 6 0;
#X connect 4 0 0 4;
#X connect 4 0 3 1;
#X connect 5 0 7 0;
#X connect 7 0 0 0;
#X coords 0 -1 1 1 250 35 1 100 100;
