#N canvas 107 76 928 658 10;
#X obj 14 -190 tgl 20 0 empty empty empty 17 7 0 10 -4034 -1 -1 0 1
;
#X obj 407 90 mrpeach/binfile;
#X msg 477 43 clear;
#N canvas 185 200 668 300 randomnumbers 0;
#X obj 45 -237 random 255;
#X floatatom 45 -217 5 0 0 0 - - -;
#X obj 115 -237 random 255;
#X floatatom 115 -217 5 0 0 0 - - -;
#X obj 45 -107 outlet;
#X obj 44 -337 inlet;
#X obj 185 -237 random 255;
#X floatatom 185 -217 5 0 0 0 - - -;
#X obj 255 -237 random 255;
#X floatatom 255 -217 5 0 0 0 - - -;
#X obj 44 -257 metro 1;
#X obj 114 -257 metro 1;
#X obj 184 -257 metro 1;
#X obj 254 -257 metro 1;
#X obj 345 -237 random 255;
#X floatatom 345 -217 5 0 0 0 - - -;
#X obj 415 -237 random 255;
#X floatatom 415 -217 5 0 0 0 - - -;
#X obj 485 -237 random 255;
#X floatatom 485 -217 5 0 0 0 - - -;
#X obj 555 -237 random 255;
#X floatatom 555 -217 5 0 0 0 - - -;
#X obj 344 -257 metro 1;
#X obj 414 -257 metro 1;
#X obj 484 -257 metro 1;
#X obj 554 -257 metro 1;
#X floatatom 217 111 10 0 0 0 - - -;
#X text 177 109 bytes:;
#X obj 219 -39 f;
#X obj 250 -39 + 1;
#X obj 219 -59 bng 15 250 50 0 empty empty empty 17 7 0 10 -262144
-1 -1;
#X obj 284 112 bng 15 250 50 0 empty empty empty 17 7 0 10 -262144
-1 -1;
#X text 280 98 clr;
#X msg 320 14 0;
#X connect 0 0 1 0;
#X connect 1 0 4 0;
#X connect 1 0 30 0;
#X connect 2 0 3 0;
#X connect 3 0 4 0;
#X connect 3 0 30 0;
#X connect 5 0 10 0;
#X connect 5 0 11 0;
#X connect 5 0 12 0;
#X connect 5 0 13 0;
#X connect 5 0 22 0;
#X connect 5 0 23 0;
#X connect 5 0 24 0;
#X connect 5 0 25 0;
#X connect 6 0 7 0;
#X connect 7 0 4 0;
#X connect 7 0 30 0;
#X connect 8 0 9 0;
#X connect 9 0 4 0;
#X connect 9 0 30 0;
#X connect 10 0 0 0;
#X connect 11 0 2 0;
#X connect 12 0 6 0;
#X connect 13 0 8 0;
#X connect 14 0 15 0;
#X connect 15 0 4 0;
#X connect 15 0 30 0;
#X connect 16 0 17 0;
#X connect 17 0 4 0;
#X connect 17 0 30 0;
#X connect 18 0 19 0;
#X connect 19 0 4 0;
#X connect 19 0 30 0;
#X connect 20 0 21 0;
#X connect 21 0 4 0;
#X connect 21 0 30 0;
#X connect 22 0 14 0;
#X connect 23 0 16 0;
#X connect 24 0 18 0;
#X connect 25 0 20 0;
#X connect 28 0 29 0;
#X connect 28 0 26 0;
#X connect 29 0 28 1;
#X connect 30 0 28 0;
#X connect 31 0 33 0;
#X connect 33 0 28 1;
#X connect 33 0 26 0;
#X coords 0 -1 1 1 200 27 1 100 100;
#X restore 14 -160 pd randomnumbers;
#X msg 478 -27 writeat 0;
#N canvas 527 82 452 685 640x480 0;
#X msg 64 -208 255 216 255 219 0 132 0 3 2 2 3 2 2 3 3 3 3 4 3 3 4
5 8 5 5 4 4 5 10 7 7 6 8 12 10 12 12 11 10 11 11 13 14 18 16 13 14
17 14 11 11 16 22 16 17 19 20 21 21 21 12 15 23 24 22 20 24 18 20 21
20 1 3 4 4 5 4 5 9 5 5 9 20 13 11 13 20 20 20 20 20 20 20 20 20 20
20 20 20 20 20 20 20 20 20 20 20 20 20 20 20 20 20 20 20 20 20 20 20
20 20 20 20 20 20 20 20 20 20 20 20 20 20 20 20 20 255 192 0 17 8;
#X msg 44 -68 1 224 2 128;
#X msg 25 -8 3 1 17 0 2 17 1 3 17 1 255 196 1 162 0 0 1 5 1 1 1 1 1
1 0 0 0 0 0 0 0 0 1 2 3 4 5 6 7 8 9 10 11 16 0 2 1 3 3 2 4 3 5 5 4
4 0 0 1 125 1 2 3 0 4 17 5 18 33 49 65 6 19 81 97 7 34 113 20 50 129
145 161 8 35 66 177 193 21 82 209 240 36 51 98 114 130 9 10 22 23 24
25 26 37 38 39 40 41 42 52 53 54 55 56 57 58 67 68 69 70 71 72 73 74
83 84 85 86 87 88 89 90 99 100 101 102 103 104 105 106 115 116 117
118 119 120 121 122 131 132 133 134 135 136 137 138 146 147 148 149
150 151 152 153 154 162 163 164 165 166 167 168 169 170 178 179 180
181 182 183 184 185 186 194 195 196 197 198 199 200 201 202 210 211
212 213 214 215 216 217 218 225 226 227 228 229 230 231 232 233 234
241 242 243 244 245 246 247 248 249 250 1 0 3 1 1 1 1 1 1 1 1 1 0 0
0 0 0 0 1 2 3 4 5 6 7 8 9 10 11 17 0 2 1 2 4 4 3 4 7 5 4 4 0 1 2 119
0 1 2 3 17 4 5 33 49 6 18 65 81 7 97 113 19 34 50 129 8 20 66 145 161
177 193 9 35 51 82 240 21 98 114 209 10 22 36 52 225 37 241 23 24 25
26 38 39 40 41 42 53 54 55 56 57 58 67 68 69 70 71 72 73 74 83 84 85
86 87 88 89 90 99 100 101 102 103 104 105 106 115 116 117 118 119 120
121 122 130 131 132 133 134 135 136 137 138 146 147 148 149 150 151
152 153 154 162 163 164 165 166 167 168 169 170 178 179 180 181 182
183 184 185 186 194 195 196 197 198 199 200 201 202 210 211 212 213
214 215 216 217 218 226 227 228 229 230 231 232 233 234 242 243 244
245 246 247 248 249 250 255 218 0 12 3 1 0 2 17 3 17 0 63;
#X text 124 -69 640 x 480;
#X obj 25 -238 t b b b;
#X obj 25 -268 inlet;
#X obj 25 332 outlet;
#X msg 77 -38 2 128 1 224;
#X text 157 -39 480 x 640;
#X obj 44 -98 gate 2;
#X obj 115 -268 inlet;
#X connect 0 0 6 0;
#X connect 1 0 6 0;
#X connect 2 0 6 0;
#X connect 4 0 2 0;
#X connect 4 1 9 1;
#X connect 4 2 0 0;
#X connect 5 0 4 0;
#X connect 7 0 6 0;
#X connect 9 0 1 0;
#X connect 9 1 7 0;
#X connect 10 0 9 0;
#X restore 14 -259 pd 640x480;
#N canvas 439 82 466 685 3648x2736 0;
#X msg 64 -208 255 216 255 219 0 132 0 3 2 2 3 2 2 3 3 3 3 4 3 3 4
5 8 5 5 4 4 5 10 7 7 6 8 12 10 12 12 11 10 11 11 13 14 18 16 13 14
17 14 11 11 16 22 16 17 19 20 21 21 21 12 15 23 24 22 20 24 18 20 21
20 1 3 4 4 5 4 5 9 5 5 9 20 13 11 13 20 20 20 20 20 20 20 20 20 20
20 20 20 20 20 20 20 20 20 20 20 20 20 20 20 20 20 20 20 20 20 20 20
20 20 20 20 20 20 20 20 20 20 20 20 20 20 20 20 20 255 192 0 17 8;
#X msg 25 2 3 1 17 0 2 17 1 3 17 1 255 196 1 162 0 0 1 5 1 1 1 1 1
1 0 0 0 0 0 0 0 0 1 2 3 4 5 6 7 8 9 10 11 16 0 2 1 3 3 2 4 3 5 5 4
4 0 0 1 125 1 2 3 0 4 17 5 18 33 49 65 6 19 81 97 7 34 113 20 50 129
145 161 8 35 66 177 193 21 82 209 240 36 51 98 114 130 9 10 22 23 24
25 26 37 38 39 40 41 42 52 53 54 55 56 57 58 67 68 69 70 71 72 73 74
83 84 85 86 87 88 89 90 99 100 101 102 103 104 105 106 115 116 117
118 119 120 121 122 131 132 133 134 135 136 137 138 146 147 148 149
150 151 152 153 154 162 163 164 165 166 167 168 169 170 178 179 180
181 182 183 184 185 186 194 195 196 197 198 199 200 201 202 210 211
212 213 214 215 216 217 218 225 226 227 228 229 230 231 232 233 234
241 242 243 244 245 246 247 248 249 250 1 0 3 1 1 1 1 1 1 1 1 1 0 0
0 0 0 0 1 2 3 4 5 6 7 8 9 10 11 17 0 2 1 2 4 4 3 4 7 5 4 4 0 1 2 119
0 1 2 3 17 4 5 33 49 6 18 65 81 7 97 113 19 34 50 129 8 20 66 145 161
177 193 9 35 51 82 240 21 98 114 209 10 22 36 52 225 37 241 23 24 25
26 38 39 40 41 42 53 54 55 56 57 58 67 68 69 70 71 72 73 74 83 84 85
86 87 88 89 90 99 100 101 102 103 104 105 106 115 116 117 118 119 120
121 122 130 131 132 133 134 135 136 137 138 146 147 148 149 150 151
152 153 154 162 163 164 165 166 167 168 169 170 178 179 180 181 182
183 184 185 186 194 195 196 197 198 199 200 201 202 210 211 212 213
214 215 216 217 218 226 227 228 229 230 231 232 233 234 242 243 244
245 246 247 248 249 250 255 218 0 12 3 1 0 2 17 3 17 0 63;
#X obj 25 -238 t b b b;
#X obj 25 -268 inlet;
#X obj 25 342 outlet;
#X text 133 -69 3648 x 2736;
#X msg 44 -68 10 176 14 64;
#X obj 44 -98 gate 2;
#X obj 115 -268 inlet;
#X text 165 -39 2736 x 3648;
#X msg 77 -38 14 64 10 176;
#X connect 0 0 4 0;
#X connect 1 0 4 0;
#X connect 2 0 1 0;
#X connect 2 1 7 1;
#X connect 2 2 0 0;
#X connect 3 0 2 0;
#X connect 6 0 4 0;
#X connect 7 0 6 0;
#X connect 7 1 10 0;
#X connect 8 0 7 0;
#X connect 10 0 4 0;
#X restore 634 -259 pd 3648x2736;
#X obj 14 -339 bng 20 250 50 0 empty empty empty 17 7 0 10 -258113
-1 -1;
#X obj 634 -339 bng 20 250 50 0 empty empty empty 17 7 0 10 -258113
-1 -1;
#N canvas 1431 54 1375 846 random_size 0;
#X obj 54 -101 until;
#X msg 54 -1 2 34 17 27;
#X msg 54 -41 add2 \$1;
#X msg 124 -41 set;
#X msg 54 -128 4;
#X obj 54 -71 random 50;
#X msg 74 -278 255 216 255 219 0 132 0 3 2 2 3 2 2 3 3 3 3 4 3 3 4
5 8 5 5 4 4 5 10 7 7 6 8 12 10 12 12 11 10 11 11 13 14 18 16 13 14
17 14 11 11 16 22 16 17 19 20 21 21 21 12 15 23 24 22 20 24 18 20 21
20 1 3 4 4 5 4 5 9 5 5 9 20 13 11 13 20 20 20 20 20 20 20 20 20 20
20 20 20 20 20 20 20 20 20 20 20 20 20 20 20 20 20 20 20 20 20 20 20
20 20 20 20 20 20 20 20 20 20 20 20 20 20 20 20 20 255 192 0 17 8;
#X msg 35 39 3 1 17 0 2 17 1 3 17 1 255 196 1 162 0 0 1 5 1 1 1 1 1
1 0 0 0 0 0 0 0 0 1 2 3 4 5 6 7 8 9 10 11 16 0 2 1 3 3 2 4 3 5 5 4
4 0 0 1 125 1 2 3 0 4 17 5 18 33 49 65 6 19 81 97 7 34 113 20 50 129
145 161 8 35 66 177 193 21 82 209 240 36 51 98 114 130 9 10 22 23 24
25 26 37 38 39 40 41 42 52 53 54 55 56 57 58 67 68 69 70 71 72 73 74
83 84 85 86 87 88 89 90 99 100 101 102 103 104 105 106 115 116 117
118 119 120 121 122 131 132 133 134 135 136 137 138 146 147 148 149
150 151 152 153 154 162 163 164 165 166 167 168 169 170 178 179 180
181 182 183 184 185 186 194 195 196 197 198 199 200 201 202 210 211
212 213 214 215 216 217 218 225 226 227 228 229 230 231 232 233 234
241 242 243 244 245 246 247 248 249 250 1 0 3 1 1 1 1 1 1 1 1 1 0 0
0 0 0 0 1 2 3 4 5 6 7 8 9 10 11 17 0 2 1 2 4 4 3 4 7 5 4 4 0 1 2 119
0 1 2 3 17 4 5 33 49 6 18 65 81 7 97 113 19 34 50 129 8 20 66 145 161
177 193 9 35 51 82 240 21 98 114 209 10 22 36 52 225 37 241 23 24 25
26 38 39 40 41 42 53 54 55 56 57 58 67 68 69 70 71 72 73 74 83 84 85
86 87 88 89 90 99 100 101 102 103 104 105 106 115 116 117 118 119 120
121 122 130 131 132 133 134 135 136 137 138 146 147 148 149 150 151
152 153 154 162 163 164 165 166 167 168 169 170 178 179 180 181 182
183 184 185 186 194 195 196 197 198 199 200 201 202 210 211 212 213
214 215 216 217 218 226 227 228 229 230 231 232 233 234 242 243 244
245 246 247 248 249 250 255 218 0 12 3 1 0 2 17 3 17 0 63;
#X obj 35 -308 t b b b;
#X obj 35 -338 inlet;
#X obj 35 379 outlet;
#X text 144 -2 Random size;
#X obj 54 -158 t b b b;
#X connect 0 0 5 0;
#X connect 1 0 10 0;
#X connect 2 0 1 0;
#X connect 3 0 1 0;
#X connect 4 0 0 0;
#X connect 5 0 2 0;
#X connect 6 0 10 0;
#X connect 7 0 10 0;
#X connect 8 0 7 0;
#X connect 8 1 12 0;
#X connect 8 2 6 0;
#X connect 9 0 8 0;
#X connect 12 0 1 0;
#X connect 12 1 4 0;
#X connect 12 2 3 0;
#X restore 634 -395 pd random_size;
#X obj 634 -475 bng 20 250 50 0 empty empty empty 17 7 0 10 -258113
-1 -1;
#X text 544 -29 write bytes to the beginning of a file;
#X obj 94 -339 bng 20 250 50 0 empty empty empty 17 7 0 10 -258113
-1 -1;
#X obj 274 -339 bng 20 250 50 0 empty empty empty 17 7 0 10 -258113
-1 -1;
#X obj 364 -339 bng 20 250 50 0 empty empty empty 17 7 0 10 -258113
-1 -1;
#X obj 454 -339 bng 20 250 50 0 empty empty empty 17 7 0 10 -258113
-1 -1;
#N canvas 348 98 457 817 1600x1200 0;
#X msg 64 -208 255 216 255 219 0 132 0 3 2 2 3 2 2 3 3 3 3 4 3 3 4
5 8 5 5 4 4 5 10 7 7 6 8 12 10 12 12 11 10 11 11 13 14 18 16 13 14
17 14 11 11 16 22 16 17 19 20 21 21 21 12 15 23 24 22 20 24 18 20 21
20 1 3 4 4 5 4 5 9 5 5 9 20 13 11 13 20 20 20 20 20 20 20 20 20 20
20 20 20 20 20 20 20 20 20 20 20 20 20 20 20 20 20 20 20 20 20 20 20
20 20 20 20 20 20 20 20 20 20 20 20 20 20 20 20 20 255 192 0 17 8;
#X msg 25 12 3 1 17 0 2 17 1 3 17 1 255 196 1 162 0 0 1 5 1 1 1 1 1
1 0 0 0 0 0 0 0 0 1 2 3 4 5 6 7 8 9 10 11 16 0 2 1 3 3 2 4 3 5 5 4
4 0 0 1 125 1 2 3 0 4 17 5 18 33 49 65 6 19 81 97 7 34 113 20 50 129
145 161 8 35 66 177 193 21 82 209 240 36 51 98 114 130 9 10 22 23 24
25 26 37 38 39 40 41 42 52 53 54 55 56 57 58 67 68 69 70 71 72 73 74
83 84 85 86 87 88 89 90 99 100 101 102 103 104 105 106 115 116 117
118 119 120 121 122 131 132 133 134 135 136 137 138 146 147 148 149
150 151 152 153 154 162 163 164 165 166 167 168 169 170 178 179 180
181 182 183 184 185 186 194 195 196 197 198 199 200 201 202 210 211
212 213 214 215 216 217 218 225 226 227 228 229 230 231 232 233 234
241 242 243 244 245 246 247 248 249 250 1 0 3 1 1 1 1 1 1 1 1 1 0 0
0 0 0 0 1 2 3 4 5 6 7 8 9 10 11 17 0 2 1 2 4 4 3 4 7 5 4 4 0 1 2 119
0 1 2 3 17 4 5 33 49 6 18 65 81 7 97 113 19 34 50 129 8 20 66 145 161
177 193 9 35 51 82 240 21 98 114 209 10 22 36 52 225 37 241 23 24 25
26 38 39 40 41 42 53 54 55 56 57 58 67 68 69 70 71 72 73 74 83 84 85
86 87 88 89 90 99 100 101 102 103 104 105 106 115 116 117 118 119 120
121 122 130 131 132 133 134 135 136 137 138 146 147 148 149 150 151
152 153 154 162 163 164 165 166 167 168 169 170 178 179 180 181 182
183 184 185 186 194 195 196 197 198 199 200 201 202 210 211 212 213
214 215 216 217 218 226 227 228 229 230 231 232 233 234 242 243 244
245 246 247 248 249 250 255 218 0 12 3 1 0 2 17 3 17 0 63;
#X obj 25 -238 t b b b;
#X obj 25 -268 inlet;
#X obj 25 352 outlet;
#X msg 44 -68 4 176 6 64;
#X obj 44 -98 gate 2;
#X obj 115 -268 inlet;
#X msg 77 -38 6 64 4 176;
#X text 167 -39 1200 x 1600;
#X text 134 -69 1600 x 1200;
#X connect 0 0 4 0;
#X connect 1 0 4 0;
#X connect 2 0 1 0;
#X connect 2 1 6 1;
#X connect 2 2 0 0;
#X connect 3 0 2 0;
#X connect 5 0 4 0;
#X connect 6 0 5 0;
#X connect 6 1 8 0;
#X connect 7 0 6 0;
#X connect 8 0 4 0;
#X restore 274 -259 pd 1600x1200;
#N canvas 143 82 447 685 2048x1536 0;
#X msg 64 -208 255 216 255 219 0 132 0 3 2 2 3 2 2 3 3 3 3 4 3 3 4
5 8 5 5 4 4 5 10 7 7 6 8 12 10 12 12 11 10 11 11 13 14 18 16 13 14
17 14 11 11 16 22 16 17 19 20 21 21 21 12 15 23 24 22 20 24 18 20 21
20 1 3 4 4 5 4 5 9 5 5 9 20 13 11 13 20 20 20 20 20 20 20 20 20 20
20 20 20 20 20 20 20 20 20 20 20 20 20 20 20 20 20 20 20 20 20 20 20
20 20 20 20 20 20 20 20 20 20 20 20 20 20 20 20 20 255 192 0 17 8;
#X msg 25 -8 3 1 17 0 2 17 1 3 17 1 255 196 1 162 0 0 1 5 1 1 1 1 1
1 0 0 0 0 0 0 0 0 1 2 3 4 5 6 7 8 9 10 11 16 0 2 1 3 3 2 4 3 5 5 4
4 0 0 1 125 1 2 3 0 4 17 5 18 33 49 65 6 19 81 97 7 34 113 20 50 129
145 161 8 35 66 177 193 21 82 209 240 36 51 98 114 130 9 10 22 23 24
25 26 37 38 39 40 41 42 52 53 54 55 56 57 58 67 68 69 70 71 72 73 74
83 84 85 86 87 88 89 90 99 100 101 102 103 104 105 106 115 116 117
118 119 120 121 122 131 132 133 134 135 136 137 138 146 147 148 149
150 151 152 153 154 162 163 164 165 166 167 168 169 170 178 179 180
181 182 183 184 185 186 194 195 196 197 198 199 200 201 202 210 211
212 213 214 215 216 217 218 225 226 227 228 229 230 231 232 233 234
241 242 243 244 245 246 247 248 249 250 1 0 3 1 1 1 1 1 1 1 1 1 0 0
0 0 0 0 1 2 3 4 5 6 7 8 9 10 11 17 0 2 1 2 4 4 3 4 7 5 4 4 0 1 2 119
0 1 2 3 17 4 5 33 49 6 18 65 81 7 97 113 19 34 50 129 8 20 66 145 161
177 193 9 35 51 82 240 21 98 114 209 10 22 36 52 225 37 241 23 24 25
26 38 39 40 41 42 53 54 55 56 57 58 67 68 69 70 71 72 73 74 83 84 85
86 87 88 89 90 99 100 101 102 103 104 105 106 115 116 117 118 119 120
121 122 130 131 132 133 134 135 136 137 138 146 147 148 149 150 151
152 153 154 162 163 164 165 166 167 168 169 170 178 179 180 181 182
183 184 185 186 194 195 196 197 198 199 200 201 202 210 211 212 213
214 215 216 217 218 226 227 228 229 230 231 232 233 234 242 243 244
245 246 247 248 249 250 255 218 0 12 3 1 0 2 17 3 17 0 63;
#X obj 25 -238 t b b b;
#X obj 25 -268 inlet;
#X obj 25 332 outlet;
#X msg 45 -68 6 0 8 0;
#X text 115 -69 2048 x 1536;
#X obj 45 -98 gate 2;
#X obj 115 -268 inlet;
#X text 148 -39 1536 x 2048;
#X msg 78 -38 8 0 6 0;
#X connect 0 0 4 0;
#X connect 1 0 4 0;
#X connect 2 0 1 0;
#X connect 2 1 7 1;
#X connect 2 2 0 0;
#X connect 3 0 2 0;
#X connect 5 0 4 0;
#X connect 7 0 5 0;
#X connect 7 1 10 0;
#X connect 8 0 7 0;
#X connect 10 0 4 0;
#X restore 364 -259 pd 2048x1536;
#N canvas 472 82 455 685 2592x1944 0;
#X msg 64 -208 255 216 255 219 0 132 0 3 2 2 3 2 2 3 3 3 3 4 3 3 4
5 8 5 5 4 4 5 10 7 7 6 8 12 10 12 12 11 10 11 11 13 14 18 16 13 14
17 14 11 11 16 22 16 17 19 20 21 21 21 12 15 23 24 22 20 24 18 20 21
20 1 3 4 4 5 4 5 9 5 5 9 20 13 11 13 20 20 20 20 20 20 20 20 20 20
20 20 20 20 20 20 20 20 20 20 20 20 20 20 20 20 20 20 20 20 20 20 20
20 20 20 20 20 20 20 20 20 20 20 20 20 20 20 20 20 255 192 0 17 8;
#X msg 25 12 3 1 17 0 2 17 1 3 17 1 255 196 1 162 0 0 1 5 1 1 1 1 1
1 0 0 0 0 0 0 0 0 1 2 3 4 5 6 7 8 9 10 11 16 0 2 1 3 3 2 4 3 5 5 4
4 0 0 1 125 1 2 3 0 4 17 5 18 33 49 65 6 19 81 97 7 34 113 20 50 129
145 161 8 35 66 177 193 21 82 209 240 36 51 98 114 130 9 10 22 23 24
25 26 37 38 39 40 41 42 52 53 54 55 56 57 58 67 68 69 70 71 72 73 74
83 84 85 86 87 88 89 90 99 100 101 102 103 104 105 106 115 116 117
118 119 120 121 122 131 132 133 134 135 136 137 138 146 147 148 149
150 151 152 153 154 162 163 164 165 166 167 168 169 170 178 179 180
181 182 183 184 185 186 194 195 196 197 198 199 200 201 202 210 211
212 213 214 215 216 217 218 225 226 227 228 229 230 231 232 233 234
241 242 243 244 245 246 247 248 249 250 1 0 3 1 1 1 1 1 1 1 1 1 0 0
0 0 0 0 1 2 3 4 5 6 7 8 9 10 11 17 0 2 1 2 4 4 3 4 7 5 4 4 0 1 2 119
0 1 2 3 17 4 5 33 49 6 18 65 81 7 97 113 19 34 50 129 8 20 66 145 161
177 193 9 35 51 82 240 21 98 114 209 10 22 36 52 225 37 241 23 24 25
26 38 39 40 41 42 53 54 55 56 57 58 67 68 69 70 71 72 73 74 83 84 85
86 87 88 89 90 99 100 101 102 103 104 105 106 115 116 117 118 119 120
121 122 130 131 132 133 134 135 136 137 138 146 147 148 149 150 151
152 153 154 162 163 164 165 166 167 168 169 170 178 179 180 181 182
183 184 185 186 194 195 196 197 198 199 200 201 202 210 211 212 213
214 215 216 217 218 226 227 228 229 230 231 232 233 234 242 243 244
245 246 247 248 249 250 255 218 0 12 3 1 0 2 17 3 17 0 63;
#X obj 25 -238 t b b b;
#X obj 25 -268 inlet;
#X obj 25 352 outlet;
#X msg 44 -58 7 152 10 32;
#X obj 44 -98 gate 2;
#X obj 115 -268 inlet;
#X text 167 -29 1944 x 2592;
#X text 134 -59 2592 x 1944;
#X msg 77 -28 10 32 7 152;
#X connect 0 0 4 0;
#X connect 1 0 4 0;
#X connect 2 0 1 0;
#X connect 2 1 6 1;
#X connect 2 2 0 0;
#X connect 3 0 2 0;
#X connect 5 0 4 0;
#X connect 6 0 5 0;
#X connect 6 1 10 0;
#X connect 7 0 6 0;
#X connect 10 0 4 0;
#X restore 454 -259 pd 2592x1944;
#N canvas 244 82 458 817 1024x768 0;
#X msg 64 -408 255 216 255 219 0 132 0 3 2 2 3 2 2 3 3 3 3 4 3 3 4
5 8 5 5 4 4 5 10 7 7 6 8 12 10 12 12 11 10 11 11 13 14 18 16 13 14
17 14 11 11 16 22 16 17 19 20 21 21 21 12 15 23 24 22 20 24 18 20 21
20 1 3 4 4 5 4 5 9 5 5 9 20 13 11 13 20 20 20 20 20 20 20 20 20 20
20 20 20 20 20 20 20 20 20 20 20 20 20 20 20 20 20 20 20 20 20 20 20
20 20 20 20 20 20 20 20 20 20 20 20 20 20 20 20 20 255 192 0 17 8;
#X msg 25 -178 3 1 17 0 2 17 1 3 17 1 255 196 1 162 0 0 1 5 1 1 1 1
1 1 0 0 0 0 0 0 0 0 1 2 3 4 5 6 7 8 9 10 11 16 0 2 1 3 3 2 4 3 5 5
4 4 0 0 1 125 1 2 3 0 4 17 5 18 33 49 65 6 19 81 97 7 34 113 20 50
129 145 161 8 35 66 177 193 21 82 209 240 36 51 98 114 130 9 10 22
23 24 25 26 37 38 39 40 41 42 52 53 54 55 56 57 58 67 68 69 70 71 72
73 74 83 84 85 86 87 88 89 90 99 100 101 102 103 104 105 106 115 116
117 118 119 120 121 122 131 132 133 134 135 136 137 138 146 147 148
149 150 151 152 153 154 162 163 164 165 166 167 168 169 170 178 179
180 181 182 183 184 185 186 194 195 196 197 198 199 200 201 202 210
211 212 213 214 215 216 217 218 225 226 227 228 229 230 231 232 233
234 241 242 243 244 245 246 247 248 249 250 1 0 3 1 1 1 1 1 1 1 1 1
0 0 0 0 0 0 1 2 3 4 5 6 7 8 9 10 11 17 0 2 1 2 4 4 3 4 7 5 4 4 0 1
2 119 0 1 2 3 17 4 5 33 49 6 18 65 81 7 97 113 19 34 50 129 8 20 66
145 161 177 193 9 35 51 82 240 21 98 114 209 10 22 36 52 225 37 241
23 24 25 26 38 39 40 41 42 53 54 55 56 57 58 67 68 69 70 71 72 73 74
83 84 85 86 87 88 89 90 99 100 101 102 103 104 105 106 115 116 117
118 119 120 121 122 130 131 132 133 134 135 136 137 138 146 147 148
149 150 151 152 153 154 162 163 164 165 166 167 168 169 170 178 179
180 181 182 183 184 185 186 194 195 196 197 198 199 200 201 202 210
211 212 213 214 215 216 217 218 226 227 228 229 230 231 232 233 234
242 243 244 245 246 247 248 249 250 255 218 0 12 3 1 0 2 17 3 17 0
63;
#X obj 25 -438 t b b b;
#X obj 25 -468 inlet;
#X obj 25 162 outlet;
#X msg 44 -258 3 0 4 0;
#X text 101 -259 1024 x 768;
#X obj 44 -288 gate 2;
#X msg 77 -218 4 0 3 0;
#X text 134 -219 768 x 1024;
#X obj 105 -468 inlet;
#X connect 0 0 4 0;
#X connect 1 0 4 0;
#X connect 2 0 1 0;
#X connect 2 1 7 1;
#X connect 2 2 0 0;
#X connect 3 0 2 0;
#X connect 5 0 4 0;
#X connect 7 0 5 0;
#X connect 7 1 8 0;
#X connect 8 0 4 0;
#X connect 10 0 7 0;
#X restore 94 -259 pd 1024x768;
#X obj 184 -339 bng 20 250 50 0 empty empty empty 17 7 0 10 -258113
-1 -1;
#N canvas 460 236 453 817 1280x960 0;
#X msg 64 -408 255 216 255 219 0 132 0 3 2 2 3 2 2 3 3 3 3 4 3 3 4
5 8 5 5 4 4 5 10 7 7 6 8 12 10 12 12 11 10 11 11 13 14 18 16 13 14
17 14 11 11 16 22 16 17 19 20 21 21 21 12 15 23 24 22 20 24 18 20 21
20 1 3 4 4 5 4 5 9 5 5 9 20 13 11 13 20 20 20 20 20 20 20 20 20 20
20 20 20 20 20 20 20 20 20 20 20 20 20 20 20 20 20 20 20 20 20 20 20
20 20 20 20 20 20 20 20 20 20 20 20 20 20 20 20 20 255 192 0 17 8;
#X msg 25 -168 3 1 17 0 2 17 1 3 17 1 255 196 1 162 0 0 1 5 1 1 1 1
1 1 0 0 0 0 0 0 0 0 1 2 3 4 5 6 7 8 9 10 11 16 0 2 1 3 3 2 4 3 5 5
4 4 0 0 1 125 1 2 3 0 4 17 5 18 33 49 65 6 19 81 97 7 34 113 20 50
129 145 161 8 35 66 177 193 21 82 209 240 36 51 98 114 130 9 10 22
23 24 25 26 37 38 39 40 41 42 52 53 54 55 56 57 58 67 68 69 70 71 72
73 74 83 84 85 86 87 88 89 90 99 100 101 102 103 104 105 106 115 116
117 118 119 120 121 122 131 132 133 134 135 136 137 138 146 147 148
149 150 151 152 153 154 162 163 164 165 166 167 168 169 170 178 179
180 181 182 183 184 185 186 194 195 196 197 198 199 200 201 202 210
211 212 213 214 215 216 217 218 225 226 227 228 229 230 231 232 233
234 241 242 243 244 245 246 247 248 249 250 1 0 3 1 1 1 1 1 1 1 1 1
0 0 0 0 0 0 1 2 3 4 5 6 7 8 9 10 11 17 0 2 1 2 4 4 3 4 7 5 4 4 0 1
2 119 0 1 2 3 17 4 5 33 49 6 18 65 81 7 97 113 19 34 50 129 8 20 66
145 161 177 193 9 35 51 82 240 21 98 114 209 10 22 36 52 225 37 241
23 24 25 26 38 39 40 41 42 53 54 55 56 57 58 67 68 69 70 71 72 73 74
83 84 85 86 87 88 89 90 99 100 101 102 103 104 105 106 115 116 117
118 119 120 121 122 130 131 132 133 134 135 136 137 138 146 147 148
149 150 151 152 153 154 162 163 164 165 166 167 168 169 170 178 179
180 181 182 183 184 185 186 194 195 196 197 198 199 200 201 202 210
211 212 213 214 215 216 217 218 226 227 228 229 230 231 232 233 234
242 243 244 245 246 247 248 249 250 255 218 0 12 3 1 0 2 17 3 17 0
63;
#X obj 25 -438 t b b b;
#X obj 25 -468 inlet;
#X obj 25 172 outlet;
#X msg 44 -258 3 192 5 0;
#X text 141 -259 1280 x 960;
#X obj 44 -298 gate 2;
#X msg 77 -228 5 0 3 192;
#X text 161 -229 960 x 1280;
#X obj 115 -468 inlet;
#X connect 0 0 4 0;
#X connect 1 0 4 0;
#X connect 2 0 1 0;
#X connect 2 1 7 1;
#X connect 2 2 0 0;
#X connect 3 0 2 0;
#X connect 5 0 4 0;
#X connect 7 0 5 0;
#X connect 7 1 8 0;
#X connect 8 0 4 0;
#X connect 10 0 7 0;
#X restore 184 -259 pd 1280x960;
#X obj 544 -339 bng 20 250 50 0 empty empty empty 17 7 0 10 -258113
-1 -1;
#N canvas 521 82 449 685 3264x2448 0;
#X msg 64 -208 255 216 255 219 0 132 0 3 2 2 3 2 2 3 3 3 3 4 3 3 4
5 8 5 5 4 4 5 10 7 7 6 8 12 10 12 12 11 10 11 11 13 14 18 16 13 14
17 14 11 11 16 22 16 17 19 20 21 21 21 12 15 23 24 22 20 24 18 20 21
20 1 3 4 4 5 4 5 9 5 5 9 20 13 11 13 20 20 20 20 20 20 20 20 20 20
20 20 20 20 20 20 20 20 20 20 20 20 20 20 20 20 20 20 20 20 20 20 20
20 20 20 20 20 20 20 20 20 20 20 20 20 20 20 20 20 255 192 0 17 8;
#X msg 25 -8 3 1 17 0 2 17 1 3 17 1 255 196 1 162 0 0 1 5 1 1 1 1 1
1 0 0 0 0 0 0 0 0 1 2 3 4 5 6 7 8 9 10 11 16 0 2 1 3 3 2 4 3 5 5 4
4 0 0 1 125 1 2 3 0 4 17 5 18 33 49 65 6 19 81 97 7 34 113 20 50 129
145 161 8 35 66 177 193 21 82 209 240 36 51 98 114 130 9 10 22 23 24
25 26 37 38 39 40 41 42 52 53 54 55 56 57 58 67 68 69 70 71 72 73 74
83 84 85 86 87 88 89 90 99 100 101 102 103 104 105 106 115 116 117
118 119 120 121 122 131 132 133 134 135 136 137 138 146 147 148 149
150 151 152 153 154 162 163 164 165 166 167 168 169 170 178 179 180
181 182 183 184 185 186 194 195 196 197 198 199 200 201 202 210 211
212 213 214 215 216 217 218 225 226 227 228 229 230 231 232 233 234
241 242 243 244 245 246 247 248 249 250 1 0 3 1 1 1 1 1 1 1 1 1 0 0
0 0 0 0 1 2 3 4 5 6 7 8 9 10 11 17 0 2 1 2 4 4 3 4 7 5 4 4 0 1 2 119
0 1 2 3 17 4 5 33 49 6 18 65 81 7 97 113 19 34 50 129 8 20 66 145 161
177 193 9 35 51 82 240 21 98 114 209 10 22 36 52 225 37 241 23 24 25
26 38 39 40 41 42 53 54 55 56 57 58 67 68 69 70 71 72 73 74 83 84 85
86 87 88 89 90 99 100 101 102 103 104 105 106 115 116 117 118 119 120
121 122 130 131 132 133 134 135 136 137 138 146 147 148 149 150 151
152 153 154 162 163 164 165 166 167 168 169 170 178 179 180 181 182
183 184 185 186 194 195 196 197 198 199 200 201 202 210 211 212 213
214 215 216 217 218 226 227 228 229 230 231 232 233 234 242 243 244
245 246 247 248 249 250 255 218 0 12 3 1 0 2 17 3 17 0 63;
#X obj 25 -238 t b b b;
#X obj 25 -268 inlet;
#X obj 25 332 outlet;
#X msg 44 -68 9 144 12 192;
#X obj 44 -98 gate 2;
#X obj 115 -268 inlet;
#X text 133 -69 3264 x 2448;
#X text 166 -39 2448 x 3264;
#X msg 77 -38 12 192 9 144;
#X connect 0 0 4 0;
#X connect 1 0 4 0;
#X connect 2 0 1 0;
#X connect 2 1 6 1;
#X connect 2 2 0 0;
#X connect 3 0 2 0;
#X connect 5 0 4 0;
#X connect 6 0 5 0;
#X connect 6 1 10 0;
#X connect 7 0 6 0;
#X connect 10 0 4 0;
#X restore 544 -259 pd 3264x2448;
#X obj 11 -435 vradio 15 1 0 2 empty empty empty 0 -8 0 10 -262144
-1 -1 0;
#X obj 11 -397 + 1;
#X text 30 -421 Portrait;
#X text 30 -438 Landscape;
#X obj 11 -482 loadbang;
#X msg 11 -460 0;
#X msg 479 -2 info;
#X obj 450 118 print info;
#X text 785 -377 www.hellocatfood.com;
#X text 785 -397 Antonio Roberts 2012;
#X obj 14 -94 audio-data;
#N canvas 15 112 1099 532 press_F12_to_save 0;
#X obj 28 264 outlet;
#X msg 143 152 255 217;
#X text 151 131 end of file marker - not always necessary;
#X msg 35 209 write \$1\$2\$3\$4.jpg;
#X obj 34 171 pack f f f f;
#X obj 46 143 time;
#X obj 22 78 bng 15 250 50 0 empty empty empty 17 7 0 10 -262144 -1
-1;
#X obj 47 110 t b b;
#X obj 28 -17 keyname;
#X obj 26 26 f;
#X obj 24 51 sel 1;
#X obj 67 4 sel F12;
#X obj 566 382 textfile;
#X obj 579 127 f;
#X obj 621 130 f;
#X obj 657 130 f;
#X obj 699 133 f;
#X msg 427 -8 \$1\$2\$3\$4;
#X obj 631 -14 r mod;
#X obj 678 49 r init;
#X obj 651 14 r lfo;
#X obj 735 -49 r mainfreq;
#X obj 843 -42 r data-range-lower;
#X obj 793 35 r bytes;
#X obj 779 5 r rand;
#X obj 930 14 r range-osc;
#X obj 967 39 r range-osc-freq;
#X obj 1001 79 r range-osc-amt;
#X obj 755 -21 r wave;
#X obj 882 -20 r data-range-higher;
#X obj 742 132 f;
#X obj 784 135 f;
#X obj 820 135 f;
#X obj 862 138 f;
#X obj 894 137 f;
#X obj 936 140 f;
#X obj 972 140 f;
#X obj 1014 143 f;
#X obj 552 83 t a b b b b b b b b b b b b;
#X obj 523 211 pack s f f f f f f f f f f f f;
#X obj 427 29 t b a b;
#X msg 361 239 read ./jpg-notes.txt;
#X msg 523 241 add **********FILE \$1 AUDIO SETTINGS mod \$2 lfo \$3
init \$4 mainfreq \$5 wave \$6 rand \$7 bytes \$8 data-range-lower
\$9 data-range-higher \$10 range-osc \$11 range-osc-freq \$12 range-osc-amt
\$13 **********;
#X msg 278 310 write ./jpg-notes.txt cr cr cr;
#X connect 1 0 0 0;
#X connect 3 0 0 0;
#X connect 4 0 3 0;
#X connect 4 0 17 0;
#X connect 5 0 4 0;
#X connect 5 1 4 1;
#X connect 5 2 4 2;
#X connect 5 3 4 3;
#X connect 6 0 7 0;
#X connect 7 0 5 0;
#X connect 7 1 1 0;
#X connect 8 0 9 1;
#X connect 8 1 11 0;
#X connect 9 0 10 0;
#X connect 10 0 6 0;
#X connect 11 0 9 0;
#X connect 13 0 39 1;
#X connect 14 0 39 2;
#X connect 15 0 39 3;
#X connect 16 0 39 4;
#X connect 17 0 40 0;
#X connect 18 0 13 1;
#X connect 19 0 15 1;
#X connect 20 0 14 1;
#X connect 21 0 16 1;
#X connect 22 0 33 1;
#X connect 23 0 32 1;
#X connect 24 0 31 1;
#X connect 25 0 35 1;
#X connect 26 0 36 1;
#X connect 27 0 37 1;
#X connect 28 0 30 1;
#X connect 29 0 34 1;
#X connect 30 0 39 5;
#X connect 31 0 39 6;
#X connect 32 0 39 7;
#X connect 33 0 39 8;
#X connect 34 0 39 9;
#X connect 35 0 39 10;
#X connect 36 0 39 11;
#X connect 37 0 39 12;
#X connect 38 0 39 0;
#X connect 38 1 13 0;
#X connect 38 2 14 0;
#X connect 38 3 15 0;
#X connect 38 4 16 0;
#X connect 38 5 30 0;
#X connect 38 6 31 0;
#X connect 38 7 32 0;
#X connect 38 8 33 0;
#X connect 38 9 34 0;
#X connect 38 10 35 0;
#X connect 38 11 36 0;
#X connect 38 12 37 0;
#X connect 39 0 42 0;
#X connect 40 0 43 0;
#X connect 40 1 38 0;
#X connect 40 2 41 0;
#X connect 41 0 12 0;
#X connect 42 0 12 0;
#X connect 43 0 12 0;
#X restore 407 -130 pd press_F12_to_save;
#X obj 14 -311 t b b;
#X obj 41 -285 s clear;
#X obj 477 21 r clear;
#X obj 94 -311 t b b;
#X obj 121 -285 s clear;
#X obj 184 -311 t b b;
#X obj 211 -285 s clear;
#X obj 274 -311 t b b;
#X obj 301 -285 s clear;
#X obj 364 -311 t b b;
#X obj 391 -285 s clear;
#X obj 454 -311 t b b;
#X obj 481 -285 s clear;
#X obj 544 -311 t b b;
#X obj 571 -285 s clear;
#X obj 634 -311 t b b;
#X obj 661 -285 s clear;
#X obj 476 65 r bfd;
#X obj 14 144 s bfd;
#X obj 14 -125 s bfd;
#X obj 634 -234 s bfd;
#X obj 544 -234 s bfd;
#X obj 454 -234 s bfd;
#X obj 364 -234 s bfd;
#X obj 274 -234 s bfd;
#X obj 184 -234 s bfd;
#X obj 94 -234 s bfd;
#X obj 14 -234 s bfd;
#X obj 11 -371 s p/l;
#X obj 673 -312 r p/l;
#X obj 583 -311 r p/l;
#X obj 493 -311 r p/l;
#X obj 403 -311 r p/l;
#X obj 313 -311 r p/l;
#X obj 223 -311 r p/l;
#X obj 133 -311 r p/l;
#X obj 53 -311 r p/l;
#X obj 634 -448 t b b;
#X obj 661 -422 s clear;
#X obj 634 -369 s bfd;
#X text 722 -260 <---image dimensions;
#X text 512 64 binfile data;
#X text 208 -487 STEP 1: select image dimensions;
#X text 667 -339 <clear buffer & send new header (STEP 1);
#X text 40 -191 fill the jpg with random data (STEP 2);
#X text 126 -115 ...or with signal data (STEP 2);
#X text 208 -461 STEP 2: fill the buffer either with random data or
with signal data (or both);
#X text 220 -427 -- if generating signal data \, turn on DSP \, adjust
any settings \, then select the "write data" button --;
#X text 208 -389 STEP 3: Press F12 to save to a jpg file.;
#X text 545 -131 (STEP 3);
#X text 784 -488 Joe Newlin 2013;
#X text 785 -472 www.joenewlin.net;
#X text 547 -111 NOTE: in case you like how a particular image turned
out and would like to re-create the process \, the audio data settings
are automatically saved to a text file in the patch directory.;
#X text 786 -453 based on original;
#X text 784 -433 JPEG-header-to-binary;
#X text 785 -416 method by;
#X connect 0 0 3 0;
#X connect 1 1 31 0;
#X connect 2 0 1 0;
#X connect 3 0 55 0;
#X connect 4 0 1 0;
#X connect 5 0 63 0;
#X connect 6 0 56 0;
#X connect 7 0 36 0;
#X connect 8 0 51 0;
#X connect 9 0 75 0;
#X connect 10 0 73 0;
#X connect 12 0 39 0;
#X connect 13 0 43 0;
#X connect 14 0 45 0;
#X connect 15 0 47 0;
#X connect 16 0 60 0;
#X connect 17 0 59 0;
#X connect 18 0 58 0;
#X connect 19 0 62 0;
#X connect 20 0 41 0;
#X connect 21 0 61 0;
#X connect 22 0 49 0;
#X connect 23 0 57 0;
#X connect 24 0 25 0;
#X connect 25 0 64 0;
#X connect 28 0 29 0;
#X connect 29 0 24 0;
#X connect 30 0 1 0;
#X connect 34 0 54 0;
#X connect 35 0 1 0;
#X connect 36 0 5 0;
#X connect 36 1 37 0;
#X connect 38 0 2 0;
#X connect 39 0 19 0;
#X connect 39 1 40 0;
#X connect 41 0 21 0;
#X connect 41 1 42 0;
#X connect 43 0 16 0;
#X connect 43 1 44 0;
#X connect 45 0 17 0;
#X connect 45 1 46 0;
#X connect 47 0 18 0;
#X connect 47 1 48 0;
#X connect 49 0 23 0;
#X connect 49 1 50 0;
#X connect 51 0 6 0;
#X connect 51 1 52 0;
#X connect 53 0 1 0;
#X connect 65 0 6 1;
#X connect 66 0 23 1;
#X connect 67 0 18 1;
#X connect 68 0 17 1;
#X connect 69 0 16 1;
#X connect 70 0 21 1;
#X connect 71 0 19 1;
#X connect 72 0 5 1;
#X connect 73 0 9 0;
#X connect 73 1 74 0;
