#N canvas 0 0 1024 692 10;
#X floatatom -342 359 5 0 0 0 - - -;
#X obj -213 466 spigot;
#X obj -152 436 tgl 15 0 empty empty empty 17 7 0 10 -262144 -1 -1
1 1;
#X obj -342 320 snapshot~;
#X obj -188 288 tgl 15 0 empty empty empty 17 7 0 10 -262144 -1 -1
1 1;
#X obj -77 531 f;
#X obj -39 530 + 1;
#X obj -126 519 bng 15 250 50 0 empty empty empty 17 7 0 10 -262144
-1 -1;
#X floatatom -74 571 0 0 0 0 - - -;
#X msg 55 335 0;
#X obj -12 354 until;
#X obj -79 323 t b f;
#X obj -3 387 f;
#X obj -193 324 metro 2;
#X obj -336 179 osc~ 1000;
#X obj -135 329 bng 15 250 50 0 empty empty empty 17 7 0 10 -262144
-1 -1;
#X obj -129 399 del 10;
#X floatatom -70 356 5 0 0 0 - - -;
#X obj -233 5 snapshot~;
#X obj -243 -32 metro 5;
#X obj -249 -60 tgl 15 0 empty empty empty 17 7 0 10 -262144 -1 -1
1 1;
#X floatatom -274 39 5 0 0 0 - - -;
#X obj -334 -38 osc~ 0.000625;
#X obj -319 72 + 1;
#X obj -319 99 / 2;
#X obj -306 133 * 1;
#X floatatom -228 85 5 0 0 0 - - -;
#X floatatom -327 -60 5 0 0 0 - - -;
#X floatatom -198 -68 5 0 0 0 - - -;
#X msg -62 -69 \; pd dsp \$1;
#X obj 180 10 tgl 15 0 empty empty empty 17 7 0 10 -262144 -1 -1 1
1;
#X text 97 2 turn on audio;
#X text 99 14 processing;
#X obj 6 30 tgl 15 0 mod empty empty 17 7 0 10 -262144 -1 -1 1 1;
#X text 24 29 modulate frequency;
#X floatatom 6 49 5 0 0 0 - - lfo;
#X text 39 48 LFO frequency;
#X floatatom 7 71 10 0 0 0 - - mainfreq;
#X text 71 70 oscillator frequency;
#X obj 8 151 bng 15 250 50 0 empty empty empty 17 7 0 10 -258113 -1
-1;
#X text 29 150 write data;
#X text 45 105 lower boundary;
#X text 49 132 higher boundary;
#X floatatom 9 101 5 5 255 0 - - data-range-lower;
#X floatatom 9 128 5 5 255 0 - - data-range-higher;
#X obj 0 201 cnv 15 200 30 empty empty empty 20 12 0 14 -204786 -66577
0;
#X floatatom 5 209 10 0 0 0 - - -;
#X text 67 200 # of bytes written;
#X obj 75 591 outlet;
#X floatatom 9 173 10 0 0 0 - - bytes;
#X text 81 170 # of times to;
#X text 80 181 repeat each byte;
#X obj -14 323 f 100000;
#X obj -21 570 *;
#X obj 182 211 bng 15 250 50 0 empty empty empty 17 7 0 10 -262144
-1 -1;
#X text 130 213 clear-->;
#X obj -259 179 phasor~ 1000;
#X floatatom -259 383 5 0 0 0 - - -;
#X obj -259 344 snapshot~;
#X obj -331 392 + 1;
#X obj -329 415 / 2;
#X obj -346 272 *~;
#X obj 166 101 hradio 15 1 0 3 wave empty empty 0 -8 0 10 -262144 -1
-1 0;
#X obj -327 236 == 0;
#X floatatom 153 49 7 0 0 0 - - init;
#X text 126 48 init;
#X obj 387 -69 loadbang;
#X msg 388 -45 1.5;
#X msg 389 -16 10;
#X msg 394 21 5;
#X msg 394 50 254;
#X msg 395 78 50000;
#X msg 82 261 0;
#X obj -266 263 +~ 0;
#X obj -266 237 *~ 1;
#X obj 221 235 route 1 2;
#X obj 243 286 - 3;
#X obj 239 312 * -1;
#X obj 210 270 - 1;
#X text 148 85 |cos|saw|rev/saw;
#X obj 172 503 -;
#X obj -218 498 * 245;
#X obj -237 556 + 5;
#X text 45 94 data range;
#X text 49 121 data range;
#X obj 74 526 +;
#X obj 72 448 random 0;
#X obj 37 424 t f b;
#X text 172 116 randomness;
#X floatatom 175 132 5 0 0 0 - - rand;
#X obj 74 497 -;
#X obj 100 472 / 2;
#X obj 77 554 i;
#X obj 124 558 clip 4 249;
#X text 227 413 range upper boundary;
#X text 128 359 range lower boundary;
#X obj 276 152 tgl 15 0 range-osc empty empty 17 7 0 10 -262144 -1
-1 1 1;
#X obj 198 413 - 0;
#X obj 103 359 + 0;
#X floatatom 263 210 5 0 50 0 - - range-osc-amt;
#X text 226 192 amt (0-50%);
#X text 238 155 range;
#X text 215 144 oscillate;
#X floatatom 258 175 5 0 0 0 - - range-osc-freq;
#X text 226 173 freq;
#X obj 441 236 metro 1;
#X obj 438 202 tgl 15 0 empty empty empty 17 7 0 10 -262144 -1 -1 1
1;
#X obj 446 302 snapshot~;
#X obj 380 274 osc~ 0.5;
#X obj 334 221 sel 0;
#X msg 334 249 0;
#X obj 446 333 + 1;
#X obj 446 360 / 2;
#X obj 378 553 *;
#X obj 264 543 f;
#X floatatom 412 577 5 0 0 0 - - -;
#X obj 396 460 / 100;
#X floatatom 446 491 5 0 0 0 - - -;
#X obj 446 401 *;
#X obj -130 105 f;
#X obj -70 153 f;
#X obj 269 346 t b f;
#X obj 183 385 f;
#X obj 102 330 f;
#N canvas 0 0 450 300 (subpatch) 0;
#X array range 100 float 3;
#A 0 6.36079 6.36079 6.36079 6.36079 6.36079 6.36079 6.36079 6.36079
6.36079 6.36079 6.36079 6.36079 6.36079 6.36079 6.36079 6.36079 6.36079
6.36079 6.36079 6.36079 6.36079 6.36079 6.36079 6.36079 6.36079 6.36079
6.36079 6.36079 6.36079 6.36079 6.36079 6.36079 6.36079 6.36079 6.36079
6.36079 6.36079 6.36079 6.36079 6.36079 6.36079 6.36079 6.36079 6.36079
6.36079 6.36079 6.36079 6.36079 6.36079 6.36079 6.36079 6.36079 6.36079
6.36079 6.36079 6.36079 6.36079 6.36079 6.36079 6.36079 6.36079 6.36079
6.36079 6.36079 8.80995 8.80995 8.80995 8.80995 8.80995 8.80995 8.80995
8.80995 8.80995 8.80995 8.80995 8.80995 8.80995 8.80995 8.80995 8.80995
8.80995 8.80995 8.80995 8.80995 8.80995 8.80995 8.80995 8.80995 8.80995
8.80995 8.80995 8.80995 8.80995 8.80995 8.80995 8.80995 8.80995 8.80995
8.80995 8.80995;
#X coords 0 255 99 0 75 50 1 0 0;
#X restore 202 22 graph;
#X floatatom 527 175 5 0 0 0 - - -;
#N canvas 0 0 450 300 (subpatch) 0;
#X array range-255 100 float 3;
#A 0 253.639 253.639 253.639 253.639 253.639 253.639 253.639 253.639
253.639 253.639 253.639 253.639 253.639 253.639 253.639 253.639 253.639
253.639 253.639 253.639 253.639 253.639 253.639 253.639 253.639 253.639
253.639 253.639 253.639 253.639 253.639 253.639 253.639 253.639 253.639
253.639 253.639 253.639 253.639 253.639 253.639 253.639 253.639 253.639
253.639 253.639 253.639 253.639 253.639 253.639 253.639 253.639 253.639
253.639 253.639 253.639 253.639 253.639 253.639 253.639 253.639 253.639
253.639 253.639 251.19 251.19 251.19 251.19 251.19 251.19 251.19 251.19
251.19 251.19 251.19 251.19 251.19 251.19 251.19 251.19 251.19 251.19
251.19 251.19 251.19 251.19 251.19 251.19 251.19 251.19 251.19 251.19
251.19 251.19 251.19 251.19 251.19 251.19 251.19 251.19;
#X coords 0 255 100 0 75 50 1 0 0;
#X restore 202 22 graph;
#X obj 537 224 sig~;
#X msg 557 263 bang;
#X obj 533 307 tabwrite~ range-255;
#X floatatom 512 375 5 0 0 0 - - -;
#X floatatom 481 456 5 0 0 0 - - -;
#X floatatom 254 583 5 0 0 0 - - -;
#X text 290 537 range-original;
#X obj 239 458 t b f;
#X obj 247 485 f;
#X obj 134 417 t b f;
#X obj 151 470 f;
#X obj 263 509 -;
#X obj 576 214 metro 100;
#X obj 544 524 tabwrite~ range;
#X obj 538 480 sig~;
#X text 278 61 0;
#X text 279 14 255;
#X obj -267 288 *~ 0;
#X obj -162 207 > 0;
#X obj -253 -84 r mod;
#X obj -198 48 r init;
#X obj -328 -83 r lfo;
#X obj -225 143 r mainfreq;
#X obj -159 -14 r data-range-lower;
#X obj -200 559 r data-range-lower;
#X obj 289 391 r data-range-lower;
#X obj -135 18 r data-range-higher;
#X obj 303 314 r data-range-higher;
#X obj 385 163 r range-osc-freq;
#X obj 287 468 r range-osc-amt;
#X obj 170 246 r wave;
#X obj -139 155 r wave;
#X obj 81 423 r rand;
#X obj 9 522 r bytes;
#X connect 0 0 59 0;
#X connect 1 0 7 0;
#X connect 1 0 81 0;
#X connect 2 0 1 1;
#X connect 3 0 0 0;
#X connect 4 0 13 0;
#X connect 5 0 6 0;
#X connect 5 0 8 0;
#X connect 6 0 5 1;
#X connect 7 0 5 0;
#X connect 8 0 53 0;
#X connect 9 0 5 0;
#X connect 10 0 12 0;
#X connect 11 0 52 0;
#X connect 11 1 12 1;
#X connect 12 0 87 0;
#X connect 13 0 3 0;
#X connect 13 0 58 0;
#X connect 14 0 61 0;
#X connect 15 0 2 0;
#X connect 15 0 16 0;
#X connect 16 0 2 0;
#X connect 17 0 16 1;
#X connect 18 0 21 0;
#X connect 19 0 18 0;
#X connect 20 0 19 0;
#X connect 21 0 23 0;
#X connect 22 0 18 0;
#X connect 23 0 24 0;
#X connect 24 0 25 0;
#X connect 25 0 37 0;
#X connect 26 0 25 1;
#X connect 27 0 22 0;
#X connect 28 0 19 1;
#X connect 30 0 29 0;
#X connect 30 0 4 0;
#X connect 39 0 15 0;
#X connect 52 0 10 0;
#X connect 53 0 46 0;
#X connect 54 0 9 0;
#X connect 54 0 72 0;
#X connect 56 0 74 0;
#X connect 57 0 1 0;
#X connect 58 0 57 0;
#X connect 59 0 60 0;
#X connect 60 0 1 0;
#X connect 61 0 3 0;
#X connect 63 0 61 1;
#X connect 66 0 67 0;
#X connect 67 0 35 0;
#X connect 67 0 68 0;
#X connect 68 0 64 0;
#X connect 68 0 37 0;
#X connect 68 0 69 0;
#X connect 69 0 43 0;
#X connect 69 0 70 0;
#X connect 70 0 44 0;
#X connect 70 0 71 0;
#X connect 71 0 49 0;
#X connect 72 0 2 0;
#X connect 73 0 144 0;
#X connect 74 0 73 0;
#X connect 75 0 78 0;
#X connect 75 1 76 0;
#X connect 76 0 74 1;
#X connect 76 0 77 0;
#X connect 77 0 73 1;
#X connect 78 0 73 1;
#X connect 80 0 81 1;
#X connect 81 0 82 0;
#X connect 82 0 11 0;
#X connect 85 0 92 0;
#X connect 86 0 90 0;
#X connect 87 0 85 0;
#X connect 87 1 86 0;
#X connect 90 0 85 1;
#X connect 91 0 90 1;
#X connect 92 0 93 0;
#X connect 93 0 48 0;
#X connect 96 0 106 0;
#X connect 96 0 109 0;
#X connect 97 0 125 0;
#X connect 97 0 137 0;
#X connect 98 0 136 0;
#X connect 98 0 141 0;
#X connect 105 0 107 0;
#X connect 106 0 105 0;
#X connect 106 0 139 0;
#X connect 107 0 111 0;
#X connect 108 0 107 0;
#X connect 109 0 110 0;
#X connect 109 0 119 0;
#X connect 109 0 120 0;
#X connect 110 0 98 1;
#X connect 110 0 97 1;
#X connect 111 0 112 0;
#X connect 112 0 118 0;
#X connect 112 0 130 0;
#X connect 113 0 115 0;
#X connect 113 0 118 1;
#X connect 114 0 113 1;
#X connect 114 0 132 0;
#X connect 116 0 117 0;
#X connect 116 0 113 0;
#X connect 118 0 121 0;
#X connect 118 0 131 0;
#X connect 119 0 43 0;
#X connect 120 0 44 0;
#X connect 121 0 122 0;
#X connect 121 0 123 0;
#X connect 121 1 97 1;
#X connect 121 1 98 1;
#X connect 122 0 97 0;
#X connect 123 0 98 0;
#X connect 125 0 127 0;
#X connect 127 0 129 0;
#X connect 128 0 129 0;
#X connect 128 0 140 0;
#X connect 134 0 135 0;
#X connect 134 1 138 1;
#X connect 135 0 138 0;
#X connect 136 0 137 0;
#X connect 136 1 80 1;
#X connect 137 0 80 0;
#X connect 138 0 114 0;
#X connect 139 0 128 0;
#X connect 141 0 140 0;
#X connect 144 0 58 0;
#X connect 145 0 74 1;
#X connect 145 0 144 1;
#X connect 146 0 20 0;
#X connect 147 0 26 0;
#X connect 148 0 27 0;
#X connect 149 0 14 0;
#X connect 149 0 56 0;
#X connect 150 0 119 1;
#X connect 151 0 82 1;
#X connect 152 0 134 0;
#X connect 152 0 123 0;
#X connect 153 0 120 1;
#X connect 154 0 122 0;
#X connect 154 0 135 0;
#X connect 155 0 108 0;
#X connect 156 0 116 0;
#X connect 157 0 75 0;
#X connect 158 0 145 0;
#X connect 158 0 63 0;
#X connect 159 0 91 0;
#X connect 159 0 86 1;
#X connect 160 0 53 1;
#X connect 160 0 52 1;
#X coords 0 -1 1 1 300 230 1 0 0;
