#N canvas 356 542 1280 752 10;
#X msg 12 -3 destroy;
#X obj 461 72 gemhead;
#X obj 504 95 t b;
#N canvas 375 125 450 300 gemwin 1;
#X obj 67 171 gemwin;
#X obj 67 101 outlet;
#X obj 67 20 inlet;
#X obj 67 41 route create;
#X msg 67 82 set destroy;
#X msg 110 101 set create;
#X msg 67 143 create \, 1;
#X msg 133 143 0 \, destroy \, reset;
#X obj 83 122 r \$0-setFrameRate;
#X obj 146 41 loadbang;
#N canvas 571 351 450 300 frameRateSelect 0;
#X obj 198 186 s \$0-setFrameRate;
#X msg 198 137 12;
#X msg 213 118 15;
#X msg 228 99 24;
#X msg 243 80 30;
#X msg 258 61 60;
#X msg 198 163 frame \$1;
#X obj 198 41 sel 0 1 2 3 4;
#X obj 198 20 r \$0-frameRateRadio;
#X connect 1 0 6 0;
#X connect 2 0 6 0;
#X connect 3 0 6 0;
#X connect 4 0 6 0;
#X connect 5 0 6 0;
#X connect 6 0 0 0;
#X connect 7 0 1 0;
#X connect 7 1 2 0;
#X connect 7 2 3 0;
#X connect 7 3 4 0;
#X connect 7 4 5 0;
#X connect 8 0 7 0;
#X restore 235 39 pd frameRateSelect;
#X connect 2 0 3 0;
#X connect 3 0 4 0;
#X connect 3 0 6 0;
#X connect 3 1 5 0;
#X connect 3 1 7 0;
#X connect 4 0 1 0;
#X connect 5 0 1 0;
#X connect 6 0 0 0;
#X connect 7 0 0 0;
#X connect 8 0 0 0;
#X connect 9 0 5 0;
#X connect 9 0 7 0;
#X restore 12 17 pd gemwin;
#X obj 73 20 hradio 15 1 0 5 \$0-frameRateRadio empty frameRateRadio
0 -8 0 10 -262144 -1 -1 3;
#X obj 461 429 pix_texture;
#X obj 486 297 unpack 0 0 0;
#X floatatom 525 320 5 0 0 3 width - -;
#X floatatom 575 320 5 0 0 3 height - -;
#X obj 530 278 bng 15 250 50 0 empty empty end_reached 20 7 0 10 -262144
-1 -1;
#X obj 461 451 rectangle 4 3;
#X obj 461 261 pix_film;
#X msg 27 349 open /Users/julianasteele/Desktop/Spectrum_Norwich_Video/\$1.mov
;
#X obj 598 475 counter;
#X obj 606 397 r \$0-playbackDirection;
#X obj 27 386 s \$0-pix_film_clip;
#X obj 473 201 r \$0-pix_film_clip;
#X obj 506 240 r \$0-pix_film_frame;
#X obj 461 50 tgl 15 0 empty empty empty 17 7 0 10 -262144 -1 -1 0
1;
#X obj 604 379 hradio 15 1 0 3 \$0-playbackDirection empty playbackDirection
0 -8 0 10 -262144 -1 -1 2;
#X floatatom 598 511 5 0 0 0 - - -;
#X obj 563 539 s \$0-pix_film_frame;
#X msg 60 323 102;
#X msg 95 323 103;
#X msg 27 323 101;
#X msg 38 278 401;
#X msg 71 278 402;
#X msg 106 278 403;
#X obj 637 446 - 1;
#X obj 238 454 pix_mix;
#X connect 0 0 3 0;
#X connect 1 0 2 0;
#X connect 1 0 11 0;
#X connect 2 0 13 0;
#X connect 3 0 0 0;
#X connect 5 0 10 0;
#X connect 6 0 28 0;
#X connect 6 1 7 0;
#X connect 6 2 8 0;
#X connect 11 0 5 0;
#X connect 11 1 6 0;
#X connect 11 2 9 0;
#X connect 12 0 15 0;
#X connect 13 0 20 0;
#X connect 13 0 21 0;
#X connect 14 0 13 1;
#X connect 16 0 11 0;
#X connect 17 0 11 1;
#X connect 18 0 1 0;
#X connect 22 0 12 0;
#X connect 23 0 12 0;
#X connect 24 0 12 0;
#X connect 25 0 12 0;
#X connect 26 0 12 0;
#X connect 27 0 12 0;
#X connect 28 0 13 4;
