#N canvas 379 35 667 709 10;
#N canvas 341 154 667 401 3d 0;
#X obj 48 315 translateXYZ;
#X obj 48 565 rotateXYZ;
#X obj 65 392 line 50;
#X obj 65 373 pack f f;
#X obj 82 469 line 50;
#X obj 82 450 pack f f;
#X obj 99 545 line 50;
#X obj 99 526 pack f f;
#X obj 99 507 * 360;
#X obj 82 431 * 180;
#X obj 65 353 * 180;
#X obj 63 584 r curve3d;
#X obj 48 603 curve3d 5 5;
#X obj 99 488 r rotateZ1;
#X obj 82 412 r rotateY;
#X obj 65 334 r rotateX;
#N canvas 450 204 450 300 curve3dRenderOptions 0;
#N canvas 397 177 691 493 forme2 0;
#N canvas 0 22 517 428 tripleRnd 0;
#X obj 12 277 pack 0 1000;
#X obj 12 298 line;
#X obj 12 380 outlet;
#X obj 92 278 pack 0 1000;
#X obj 92 298 line;
#X obj 170 278 pack 0 1000;
#X obj 170 298 line;
#X obj 12 358 pack f f f;
#X obj 13 33 r bang_forme2;
#X obj 233 230 r speed;
#X obj 12 145 / 100;
#X obj 92 146 / 100;
#X obj 170 146 / 100;
#X obj 12 257 *;
#X obj 22 216 t b;
#X obj 27 196 r xscale;
#X obj 170 318 t b;
#X obj 92 318 t b;
#X obj 92 258 *;
#X obj 99 215 t b;
#X obj 170 259 *;
#X obj 180 218 t b;
#X obj 185 196 r zscale;
#X obj 107 196 r yscale;
#X obj 170 239 f;
#X obj 92 238 f;
#X obj 12 237 f;
#X obj 12 118 random 200;
#X obj 92 119 random 200;
#X obj 170 119 random 200;
#X obj 12 175 - 1;
#X obj 92 176 - 1;
#X obj 170 176 - 1;
#X connect 0 0 1 0;
#X connect 1 0 7 0;
#X connect 3 0 4 0;
#X connect 4 0 7 1;
#X connect 4 0 17 0;
#X connect 5 0 6 0;
#X connect 6 0 7 2;
#X connect 6 0 16 0;
#X connect 7 0 2 0;
#X connect 8 0 27 0;
#X connect 8 0 28 0;
#X connect 8 0 29 0;
#X connect 9 0 0 1;
#X connect 9 0 3 1;
#X connect 9 0 5 1;
#X connect 10 0 30 0;
#X connect 11 0 31 0;
#X connect 12 0 32 0;
#X connect 13 0 0 0;
#X connect 14 0 26 0;
#X connect 15 0 13 1;
#X connect 15 0 14 0;
#X connect 16 0 7 0;
#X connect 17 0 7 0;
#X connect 18 0 3 0;
#X connect 19 0 25 0;
#X connect 20 0 5 0;
#X connect 21 0 24 0;
#X connect 22 0 20 1;
#X connect 22 0 21 0;
#X connect 23 0 18 1;
#X connect 23 0 19 0;
#X connect 24 0 20 0;
#X connect 25 0 18 0;
#X connect 26 0 13 0;
#X connect 27 0 10 0;
#X connect 28 0 11 0;
#X connect 29 0 12 0;
#X connect 30 0 26 0;
#X connect 31 0 25 0;
#X connect 32 0 24 0;
#X restore 28 93 pd tripleRnd;
#X msg 26 270 set 2 0 \$1 \$2 \$3;
#X msg 161 270 set 2 1 \$1 \$2 \$3;
#X msg 298 270 set 2 2 \$1 \$2 \$3;
#X msg 299 193 set 1 2 \$1 \$2 \$3;
#X msg 299 114 set 0 2 \$1 \$2 \$3;
#X msg 161 114 set 0 1 \$1 \$2 \$3;
#X msg 28 114 set 0 0 \$1 \$2 \$3;
#X msg 29 193 set 1 0 \$1 \$2 \$3;
#X msg 161 193 set 1 1 \$1 \$2 \$3;
#X msg 26 337 set 3 0 \$1 \$2 \$3;
#X msg 162 337 set 3 1 \$1 \$2 \$3;
#X msg 298 337 set 3 2 \$1 \$2 \$3;
#X msg 423 114 set 0 3 \$1 \$2 \$3;
#X msg 424 193 set 1 3 \$1 \$2 \$3;
#X msg 424 270 set 2 3 \$1 \$2 \$3;
#X msg 423 337 set 3 3 \$1 \$2 \$3;
#X msg 544 114 set 0 4 \$1 \$2 \$3;
#X msg 545 193 set 1 4 \$1 \$2 \$3;
#X msg 540 270 set 2 4 \$1 \$2 \$3;
#X msg 543 337 set 3 4 \$1 \$2 \$3;
#X msg 28 399 set 4 0 \$1 \$2 \$3;
#X msg 162 399 set 4 1 \$1 \$2 \$3;
#X msg 299 399 set 4 2 \$1 \$2 \$3;
#X msg 424 399 set 4 3 \$1 \$2 \$3;
#X msg 545 399 set 4 4 \$1 \$2 \$3;
#X obj 10 445 outlet;
#X obj 36 15 inlet;
#X obj 36 39 s bang_forme2;
#N canvas 0 22 517 428 tripleRnd 0;
#X obj 12 277 pack 0 1000;
#X obj 12 298 line;
#X obj 12 380 outlet;
#X obj 92 278 pack 0 1000;
#X obj 92 298 line;
#X obj 170 278 pack 0 1000;
#X obj 170 298 line;
#X obj 12 358 pack f f f;
#X obj 13 33 r bang_forme2;
#X obj 233 230 r speed;
#X obj 12 145 / 100;
#X obj 92 146 / 100;
#X obj 170 146 / 100;
#X obj 12 257 *;
#X obj 22 216 t b;
#X obj 27 196 r xscale;
#X obj 170 318 t b;
#X obj 92 318 t b;
#X obj 92 258 *;
#X obj 99 215 t b;
#X obj 170 259 *;
#X obj 180 218 t b;
#X obj 185 196 r zscale;
#X obj 107 196 r yscale;
#X obj 170 239 f;
#X obj 92 238 f;
#X obj 12 237 f;
#X obj 12 118 random 200;
#X obj 92 119 random 200;
#X obj 170 119 random 200;
#X obj 12 175 - 1;
#X obj 92 176 - 1;
#X obj 170 176 - 1;
#X connect 0 0 1 0;
#X connect 1 0 7 0;
#X connect 3 0 4 0;
#X connect 4 0 7 1;
#X connect 4 0 17 0;
#X connect 5 0 6 0;
#X connect 6 0 7 2;
#X connect 6 0 16 0;
#X connect 7 0 2 0;
#X connect 8 0 27 0;
#X connect 8 0 28 0;
#X connect 8 0 29 0;
#X connect 9 0 0 1;
#X connect 9 0 3 1;
#X connect 9 0 5 1;
#X connect 10 0 30 0;
#X connect 11 0 31 0;
#X connect 12 0 32 0;
#X connect 13 0 0 0;
#X connect 14 0 26 0;
#X connect 15 0 13 1;
#X connect 15 0 14 0;
#X connect 16 0 7 0;
#X connect 17 0 7 0;
#X connect 18 0 3 0;
#X connect 19 0 25 0;
#X connect 20 0 5 0;
#X connect 21 0 24 0;
#X connect 22 0 20 1;
#X connect 22 0 21 0;
#X connect 23 0 18 1;
#X connect 23 0 19 0;
#X connect 24 0 20 0;
#X connect 25 0 18 0;
#X connect 26 0 13 0;
#X connect 27 0 10 0;
#X connect 28 0 11 0;
#X connect 29 0 12 0;
#X connect 30 0 26 0;
#X connect 31 0 25 0;
#X connect 32 0 24 0;
#X restore 161 93 pd tripleRnd;
#N canvas 0 22 517 428 tripleRnd 0;
#X obj 12 277 pack 0 1000;
#X obj 12 298 line;
#X obj 12 380 outlet;
#X obj 92 278 pack 0 1000;
#X obj 92 298 line;
#X obj 170 278 pack 0 1000;
#X obj 170 298 line;
#X obj 12 358 pack f f f;
#X obj 13 33 r bang_forme2;
#X obj 233 230 r speed;
#X obj 12 145 / 100;
#X obj 92 146 / 100;
#X obj 170 146 / 100;
#X obj 12 257 *;
#X obj 22 216 t b;
#X obj 27 196 r xscale;
#X obj 170 318 t b;
#X obj 92 318 t b;
#X obj 92 258 *;
#X obj 99 215 t b;
#X obj 170 259 *;
#X obj 180 218 t b;
#X obj 185 196 r zscale;
#X obj 107 196 r yscale;
#X obj 170 239 f;
#X obj 92 238 f;
#X obj 12 237 f;
#X obj 12 118 random 200;
#X obj 92 119 random 200;
#X obj 170 119 random 200;
#X obj 12 175 - 1;
#X obj 92 176 - 1;
#X obj 170 176 - 1;
#X connect 0 0 1 0;
#X connect 1 0 7 0;
#X connect 3 0 4 0;
#X connect 4 0 7 1;
#X connect 4 0 17 0;
#X connect 5 0 6 0;
#X connect 6 0 7 2;
#X connect 6 0 16 0;
#X connect 7 0 2 0;
#X connect 8 0 27 0;
#X connect 8 0 28 0;
#X connect 8 0 29 0;
#X connect 9 0 0 1;
#X connect 9 0 3 1;
#X connect 9 0 5 1;
#X connect 10 0 30 0;
#X connect 11 0 31 0;
#X connect 12 0 32 0;
#X connect 13 0 0 0;
#X connect 14 0 26 0;
#X connect 15 0 13 1;
#X connect 15 0 14 0;
#X connect 16 0 7 0;
#X connect 17 0 7 0;
#X connect 18 0 3 0;
#X connect 19 0 25 0;
#X connect 20 0 5 0;
#X connect 21 0 24 0;
#X connect 22 0 20 1;
#X connect 22 0 21 0;
#X connect 23 0 18 1;
#X connect 23 0 19 0;
#X connect 24 0 20 0;
#X connect 25 0 18 0;
#X connect 26 0 13 0;
#X connect 27 0 10 0;
#X connect 28 0 11 0;
#X connect 29 0 12 0;
#X connect 30 0 26 0;
#X connect 31 0 25 0;
#X connect 32 0 24 0;
#X restore 299 93 pd tripleRnd;
#N canvas 0 22 517 428 tripleRnd 0;
#X obj 12 277 pack 0 1000;
#X obj 12 298 line;
#X obj 12 380 outlet;
#X obj 92 278 pack 0 1000;
#X obj 92 298 line;
#X obj 170 278 pack 0 1000;
#X obj 170 298 line;
#X obj 12 358 pack f f f;
#X obj 13 33 r bang_forme2;
#X obj 233 230 r speed;
#X obj 12 145 / 100;
#X obj 92 146 / 100;
#X obj 170 146 / 100;
#X obj 12 257 *;
#X obj 22 216 t b;
#X obj 27 196 r xscale;
#X obj 170 318 t b;
#X obj 92 318 t b;
#X obj 92 258 *;
#X obj 99 215 t b;
#X obj 170 259 *;
#X obj 180 218 t b;
#X obj 185 196 r zscale;
#X obj 107 196 r yscale;
#X obj 170 239 f;
#X obj 92 238 f;
#X obj 12 237 f;
#X obj 12 118 random 200;
#X obj 92 119 random 200;
#X obj 170 119 random 200;
#X obj 12 175 - 1;
#X obj 92 176 - 1;
#X obj 170 176 - 1;
#X connect 0 0 1 0;
#X connect 1 0 7 0;
#X connect 3 0 4 0;
#X connect 4 0 7 1;
#X connect 4 0 17 0;
#X connect 5 0 6 0;
#X connect 6 0 7 2;
#X connect 6 0 16 0;
#X connect 7 0 2 0;
#X connect 8 0 27 0;
#X connect 8 0 28 0;
#X connect 8 0 29 0;
#X connect 9 0 0 1;
#X connect 9 0 3 1;
#X connect 9 0 5 1;
#X connect 10 0 30 0;
#X connect 11 0 31 0;
#X connect 12 0 32 0;
#X connect 13 0 0 0;
#X connect 14 0 26 0;
#X connect 15 0 13 1;
#X connect 15 0 14 0;
#X connect 16 0 7 0;
#X connect 17 0 7 0;
#X connect 18 0 3 0;
#X connect 19 0 25 0;
#X connect 20 0 5 0;
#X connect 21 0 24 0;
#X connect 22 0 20 1;
#X connect 22 0 21 0;
#X connect 23 0 18 1;
#X connect 23 0 19 0;
#X connect 24 0 20 0;
#X connect 25 0 18 0;
#X connect 26 0 13 0;
#X connect 27 0 10 0;
#X connect 28 0 11 0;
#X connect 29 0 12 0;
#X connect 30 0 26 0;
#X connect 31 0 25 0;
#X connect 32 0 24 0;
#X restore 423 93 pd tripleRnd;
#N canvas 0 22 517 428 tripleRnd 0;
#X obj 12 277 pack 0 1000;
#X obj 12 298 line;
#X obj 12 380 outlet;
#X obj 92 278 pack 0 1000;
#X obj 92 298 line;
#X obj 170 278 pack 0 1000;
#X obj 170 298 line;
#X obj 12 358 pack f f f;
#X obj 13 33 r bang_forme2;
#X obj 233 230 r speed;
#X obj 12 145 / 100;
#X obj 92 146 / 100;
#X obj 170 146 / 100;
#X obj 12 257 *;
#X obj 22 216 t b;
#X obj 27 196 r xscale;
#X obj 170 318 t b;
#X obj 92 318 t b;
#X obj 92 258 *;
#X obj 99 215 t b;
#X obj 170 259 *;
#X obj 180 218 t b;
#X obj 185 196 r zscale;
#X obj 107 196 r yscale;
#X obj 170 239 f;
#X obj 92 238 f;
#X obj 12 237 f;
#X obj 12 118 random 200;
#X obj 92 119 random 200;
#X obj 170 119 random 200;
#X obj 12 175 - 1;
#X obj 92 176 - 1;
#X obj 170 176 - 1;
#X connect 0 0 1 0;
#X connect 1 0 7 0;
#X connect 3 0 4 0;
#X connect 4 0 7 1;
#X connect 4 0 17 0;
#X connect 5 0 6 0;
#X connect 6 0 7 2;
#X connect 6 0 16 0;
#X connect 7 0 2 0;
#X connect 8 0 27 0;
#X connect 8 0 28 0;
#X connect 8 0 29 0;
#X connect 9 0 0 1;
#X connect 9 0 3 1;
#X connect 9 0 5 1;
#X connect 10 0 30 0;
#X connect 11 0 31 0;
#X connect 12 0 32 0;
#X connect 13 0 0 0;
#X connect 14 0 26 0;
#X connect 15 0 13 1;
#X connect 15 0 14 0;
#X connect 16 0 7 0;
#X connect 17 0 7 0;
#X connect 18 0 3 0;
#X connect 19 0 25 0;
#X connect 20 0 5 0;
#X connect 21 0 24 0;
#X connect 22 0 20 1;
#X connect 22 0 21 0;
#X connect 23 0 18 1;
#X connect 23 0 19 0;
#X connect 24 0 20 0;
#X connect 25 0 18 0;
#X connect 26 0 13 0;
#X connect 27 0 10 0;
#X connect 28 0 11 0;
#X connect 29 0 12 0;
#X connect 30 0 26 0;
#X connect 31 0 25 0;
#X connect 32 0 24 0;
#X restore 543 94 pd tripleRnd;
#N canvas 0 22 517 428 tripleRnd 0;
#X obj 12 277 pack 0 1000;
#X obj 12 298 line;
#X obj 12 380 outlet;
#X obj 92 278 pack 0 1000;
#X obj 92 298 line;
#X obj 170 278 pack 0 1000;
#X obj 170 298 line;
#X obj 12 358 pack f f f;
#X obj 13 33 r bang_forme2;
#X obj 233 230 r speed;
#X obj 12 145 / 100;
#X obj 92 146 / 100;
#X obj 170 146 / 100;
#X obj 12 257 *;
#X obj 22 216 t b;
#X obj 27 196 r xscale;
#X obj 170 318 t b;
#X obj 92 318 t b;
#X obj 92 258 *;
#X obj 99 215 t b;
#X obj 170 259 *;
#X obj 180 218 t b;
#X obj 185 196 r zscale;
#X obj 107 196 r yscale;
#X obj 170 239 f;
#X obj 92 238 f;
#X obj 12 237 f;
#X obj 12 118 random 200;
#X obj 92 119 random 200;
#X obj 170 119 random 200;
#X obj 12 175 - 1;
#X obj 92 176 - 1;
#X obj 170 176 - 1;
#X connect 0 0 1 0;
#X connect 1 0 7 0;
#X connect 3 0 4 0;
#X connect 4 0 7 1;
#X connect 4 0 17 0;
#X connect 5 0 6 0;
#X connect 6 0 7 2;
#X connect 6 0 16 0;
#X connect 7 0 2 0;
#X connect 8 0 27 0;
#X connect 8 0 28 0;
#X connect 8 0 29 0;
#X connect 9 0 0 1;
#X connect 9 0 3 1;
#X connect 9 0 5 1;
#X connect 10 0 30 0;
#X connect 11 0 31 0;
#X connect 12 0 32 0;
#X connect 13 0 0 0;
#X connect 14 0 26 0;
#X connect 15 0 13 1;
#X connect 15 0 14 0;
#X connect 16 0 7 0;
#X connect 17 0 7 0;
#X connect 18 0 3 0;
#X connect 19 0 25 0;
#X connect 20 0 5 0;
#X connect 21 0 24 0;
#X connect 22 0 20 1;
#X connect 22 0 21 0;
#X connect 23 0 18 1;
#X connect 23 0 19 0;
#X connect 24 0 20 0;
#X connect 25 0 18 0;
#X connect 26 0 13 0;
#X connect 27 0 10 0;
#X connect 28 0 11 0;
#X connect 29 0 12 0;
#X connect 30 0 26 0;
#X connect 31 0 25 0;
#X connect 32 0 24 0;
#X restore 29 167 pd tripleRnd;
#N canvas 0 22 517 428 tripleRnd 0;
#X obj 12 277 pack 0 1000;
#X obj 12 298 line;
#X obj 12 380 outlet;
#X obj 92 278 pack 0 1000;
#X obj 92 298 line;
#X obj 170 278 pack 0 1000;
#X obj 170 298 line;
#X obj 12 358 pack f f f;
#X obj 13 33 r bang_forme2;
#X obj 233 230 r speed;
#X obj 12 145 / 100;
#X obj 92 146 / 100;
#X obj 170 146 / 100;
#X obj 12 257 *;
#X obj 22 216 t b;
#X obj 27 196 r xscale;
#X obj 170 318 t b;
#X obj 92 318 t b;
#X obj 92 258 *;
#X obj 99 215 t b;
#X obj 170 259 *;
#X obj 180 218 t b;
#X obj 185 196 r zscale;
#X obj 107 196 r yscale;
#X obj 170 239 f;
#X obj 92 238 f;
#X obj 12 237 f;
#X obj 12 118 random 200;
#X obj 92 119 random 200;
#X obj 170 119 random 200;
#X obj 12 175 - 1;
#X obj 92 176 - 1;
#X obj 170 176 - 1;
#X connect 0 0 1 0;
#X connect 1 0 7 0;
#X connect 3 0 4 0;
#X connect 4 0 7 1;
#X connect 4 0 17 0;
#X connect 5 0 6 0;
#X connect 6 0 7 2;
#X connect 6 0 16 0;
#X connect 7 0 2 0;
#X connect 8 0 27 0;
#X connect 8 0 28 0;
#X connect 8 0 29 0;
#X connect 9 0 0 1;
#X connect 9 0 3 1;
#X connect 9 0 5 1;
#X connect 10 0 30 0;
#X connect 11 0 31 0;
#X connect 12 0 32 0;
#X connect 13 0 0 0;
#X connect 14 0 26 0;
#X connect 15 0 13 1;
#X connect 15 0 14 0;
#X connect 16 0 7 0;
#X connect 17 0 7 0;
#X connect 18 0 3 0;
#X connect 19 0 25 0;
#X connect 20 0 5 0;
#X connect 21 0 24 0;
#X connect 22 0 20 1;
#X connect 22 0 21 0;
#X connect 23 0 18 1;
#X connect 23 0 19 0;
#X connect 24 0 20 0;
#X connect 25 0 18 0;
#X connect 26 0 13 0;
#X connect 27 0 10 0;
#X connect 28 0 11 0;
#X connect 29 0 12 0;
#X connect 30 0 26 0;
#X connect 31 0 25 0;
#X connect 32 0 24 0;
#X restore 162 167 pd tripleRnd;
#N canvas 0 22 517 428 tripleRnd 0;
#X obj 12 277 pack 0 1000;
#X obj 12 298 line;
#X obj 12 380 outlet;
#X obj 92 278 pack 0 1000;
#X obj 92 298 line;
#X obj 170 278 pack 0 1000;
#X obj 170 298 line;
#X obj 12 358 pack f f f;
#X obj 13 33 r bang_forme2;
#X obj 233 230 r speed;
#X obj 12 145 / 100;
#X obj 92 146 / 100;
#X obj 170 146 / 100;
#X obj 12 257 *;
#X obj 22 216 t b;
#X obj 27 196 r xscale;
#X obj 170 318 t b;
#X obj 92 318 t b;
#X obj 92 258 *;
#X obj 99 215 t b;
#X obj 170 259 *;
#X obj 180 218 t b;
#X obj 185 196 r zscale;
#X obj 107 196 r yscale;
#X obj 170 239 f;
#X obj 92 238 f;
#X obj 12 237 f;
#X obj 12 118 random 200;
#X obj 92 119 random 200;
#X obj 170 119 random 200;
#X obj 12 175 - 1;
#X obj 92 176 - 1;
#X obj 170 176 - 1;
#X connect 0 0 1 0;
#X connect 1 0 7 0;
#X connect 3 0 4 0;
#X connect 4 0 7 1;
#X connect 4 0 17 0;
#X connect 5 0 6 0;
#X connect 6 0 7 2;
#X connect 6 0 16 0;
#X connect 7 0 2 0;
#X connect 8 0 27 0;
#X connect 8 0 28 0;
#X connect 8 0 29 0;
#X connect 9 0 0 1;
#X connect 9 0 3 1;
#X connect 9 0 5 1;
#X connect 10 0 30 0;
#X connect 11 0 31 0;
#X connect 12 0 32 0;
#X connect 13 0 0 0;
#X connect 14 0 26 0;
#X connect 15 0 13 1;
#X connect 15 0 14 0;
#X connect 16 0 7 0;
#X connect 17 0 7 0;
#X connect 18 0 3 0;
#X connect 19 0 25 0;
#X connect 20 0 5 0;
#X connect 21 0 24 0;
#X connect 22 0 20 1;
#X connect 22 0 21 0;
#X connect 23 0 18 1;
#X connect 23 0 19 0;
#X connect 24 0 20 0;
#X connect 25 0 18 0;
#X connect 26 0 13 0;
#X connect 27 0 10 0;
#X connect 28 0 11 0;
#X connect 29 0 12 0;
#X connect 30 0 26 0;
#X connect 31 0 25 0;
#X connect 32 0 24 0;
#X restore 300 167 pd tripleRnd;
#N canvas 0 22 517 428 tripleRnd 0;
#X obj 12 277 pack 0 1000;
#X obj 12 298 line;
#X obj 12 380 outlet;
#X obj 92 278 pack 0 1000;
#X obj 92 298 line;
#X obj 170 278 pack 0 1000;
#X obj 170 298 line;
#X obj 12 358 pack f f f;
#X obj 13 33 r bang_forme2;
#X obj 233 230 r speed;
#X obj 12 145 / 100;
#X obj 92 146 / 100;
#X obj 170 146 / 100;
#X obj 12 257 *;
#X obj 22 216 t b;
#X obj 27 196 r xscale;
#X obj 170 318 t b;
#X obj 92 318 t b;
#X obj 92 258 *;
#X obj 99 215 t b;
#X obj 170 259 *;
#X obj 180 218 t b;
#X obj 185 196 r zscale;
#X obj 107 196 r yscale;
#X obj 170 239 f;
#X obj 92 238 f;
#X obj 12 237 f;
#X obj 12 118 random 200;
#X obj 92 119 random 200;
#X obj 170 119 random 200;
#X obj 12 175 - 1;
#X obj 92 176 - 1;
#X obj 170 176 - 1;
#X connect 0 0 1 0;
#X connect 1 0 7 0;
#X connect 3 0 4 0;
#X connect 4 0 7 1;
#X connect 4 0 17 0;
#X connect 5 0 6 0;
#X connect 6 0 7 2;
#X connect 6 0 16 0;
#X connect 7 0 2 0;
#X connect 8 0 27 0;
#X connect 8 0 28 0;
#X connect 8 0 29 0;
#X connect 9 0 0 1;
#X connect 9 0 3 1;
#X connect 9 0 5 1;
#X connect 10 0 30 0;
#X connect 11 0 31 0;
#X connect 12 0 32 0;
#X connect 13 0 0 0;
#X connect 14 0 26 0;
#X connect 15 0 13 1;
#X connect 15 0 14 0;
#X connect 16 0 7 0;
#X connect 17 0 7 0;
#X connect 18 0 3 0;
#X connect 19 0 25 0;
#X connect 20 0 5 0;
#X connect 21 0 24 0;
#X connect 22 0 20 1;
#X connect 22 0 21 0;
#X connect 23 0 18 1;
#X connect 23 0 19 0;
#X connect 24 0 20 0;
#X connect 25 0 18 0;
#X connect 26 0 13 0;
#X connect 27 0 10 0;
#X connect 28 0 11 0;
#X connect 29 0 12 0;
#X connect 30 0 26 0;
#X connect 31 0 25 0;
#X connect 32 0 24 0;
#X restore 424 167 pd tripleRnd;
#N canvas 0 22 517 428 tripleRnd 0;
#X obj 12 277 pack 0 1000;
#X obj 12 298 line;
#X obj 12 380 outlet;
#X obj 92 278 pack 0 1000;
#X obj 92 298 line;
#X obj 170 278 pack 0 1000;
#X obj 170 298 line;
#X obj 12 358 pack f f f;
#X obj 13 33 r bang_forme2;
#X obj 233 230 r speed;
#X obj 12 145 / 100;
#X obj 92 146 / 100;
#X obj 170 146 / 100;
#X obj 12 257 *;
#X obj 22 216 t b;
#X obj 27 196 r xscale;
#X obj 170 318 t b;
#X obj 92 318 t b;
#X obj 92 258 *;
#X obj 99 215 t b;
#X obj 170 259 *;
#X obj 180 218 t b;
#X obj 185 196 r zscale;
#X obj 107 196 r yscale;
#X obj 170 239 f;
#X obj 92 238 f;
#X obj 12 237 f;
#X obj 12 118 random 200;
#X obj 92 119 random 200;
#X obj 170 119 random 200;
#X obj 12 175 - 1;
#X obj 92 176 - 1;
#X obj 170 176 - 1;
#X connect 0 0 1 0;
#X connect 1 0 7 0;
#X connect 3 0 4 0;
#X connect 4 0 7 1;
#X connect 4 0 17 0;
#X connect 5 0 6 0;
#X connect 6 0 7 2;
#X connect 6 0 16 0;
#X connect 7 0 2 0;
#X connect 8 0 27 0;
#X connect 8 0 28 0;
#X connect 8 0 29 0;
#X connect 9 0 0 1;
#X connect 9 0 3 1;
#X connect 9 0 5 1;
#X connect 10 0 30 0;
#X connect 11 0 31 0;
#X connect 12 0 32 0;
#X connect 13 0 0 0;
#X connect 14 0 26 0;
#X connect 15 0 13 1;
#X connect 15 0 14 0;
#X connect 16 0 7 0;
#X connect 17 0 7 0;
#X connect 18 0 3 0;
#X connect 19 0 25 0;
#X connect 20 0 5 0;
#X connect 21 0 24 0;
#X connect 22 0 20 1;
#X connect 22 0 21 0;
#X connect 23 0 18 1;
#X connect 23 0 19 0;
#X connect 24 0 20 0;
#X connect 25 0 18 0;
#X connect 26 0 13 0;
#X connect 27 0 10 0;
#X connect 28 0 11 0;
#X connect 29 0 12 0;
#X connect 30 0 26 0;
#X connect 31 0 25 0;
#X connect 32 0 24 0;
#X restore 544 168 pd tripleRnd;
#N canvas 0 22 517 428 tripleRnd 0;
#X obj 12 277 pack 0 1000;
#X obj 12 298 line;
#X obj 12 380 outlet;
#X obj 92 278 pack 0 1000;
#X obj 92 298 line;
#X obj 170 278 pack 0 1000;
#X obj 170 298 line;
#X obj 12 358 pack f f f;
#X obj 13 33 r bang_forme2;
#X obj 233 230 r speed;
#X obj 12 145 / 100;
#X obj 92 146 / 100;
#X obj 170 146 / 100;
#X obj 12 257 *;
#X obj 22 216 t b;
#X obj 27 196 r xscale;
#X obj 170 318 t b;
#X obj 92 318 t b;
#X obj 92 258 *;
#X obj 99 215 t b;
#X obj 170 259 *;
#X obj 180 218 t b;
#X obj 185 196 r zscale;
#X obj 107 196 r yscale;
#X obj 170 239 f;
#X obj 92 238 f;
#X obj 12 237 f;
#X obj 12 118 random 200;
#X obj 92 119 random 200;
#X obj 170 119 random 200;
#X obj 12 175 - 1;
#X obj 92 176 - 1;
#X obj 170 176 - 1;
#X connect 0 0 1 0;
#X connect 1 0 7 0;
#X connect 3 0 4 0;
#X connect 4 0 7 1;
#X connect 4 0 17 0;
#X connect 5 0 6 0;
#X connect 6 0 7 2;
#X connect 6 0 16 0;
#X connect 7 0 2 0;
#X connect 8 0 27 0;
#X connect 8 0 28 0;
#X connect 8 0 29 0;
#X connect 9 0 0 1;
#X connect 9 0 3 1;
#X connect 9 0 5 1;
#X connect 10 0 30 0;
#X connect 11 0 31 0;
#X connect 12 0 32 0;
#X connect 13 0 0 0;
#X connect 14 0 26 0;
#X connect 15 0 13 1;
#X connect 15 0 14 0;
#X connect 16 0 7 0;
#X connect 17 0 7 0;
#X connect 18 0 3 0;
#X connect 19 0 25 0;
#X connect 20 0 5 0;
#X connect 21 0 24 0;
#X connect 22 0 20 1;
#X connect 22 0 21 0;
#X connect 23 0 18 1;
#X connect 23 0 19 0;
#X connect 24 0 20 0;
#X connect 25 0 18 0;
#X connect 26 0 13 0;
#X connect 27 0 10 0;
#X connect 28 0 11 0;
#X connect 29 0 12 0;
#X connect 30 0 26 0;
#X connect 31 0 25 0;
#X connect 32 0 24 0;
#X restore 31 243 pd tripleRnd;
#N canvas 0 22 517 428 tripleRnd 0;
#X obj 12 277 pack 0 1000;
#X obj 12 298 line;
#X obj 12 380 outlet;
#X obj 92 278 pack 0 1000;
#X obj 92 298 line;
#X obj 170 278 pack 0 1000;
#X obj 170 298 line;
#X obj 12 358 pack f f f;
#X obj 13 33 r bang_forme2;
#X obj 233 230 r speed;
#X obj 12 145 / 100;
#X obj 92 146 / 100;
#X obj 170 146 / 100;
#X obj 12 257 *;
#X obj 22 216 t b;
#X obj 27 196 r xscale;
#X obj 170 318 t b;
#X obj 92 318 t b;
#X obj 92 258 *;
#X obj 99 215 t b;
#X obj 170 259 *;
#X obj 180 218 t b;
#X obj 185 196 r zscale;
#X obj 107 196 r yscale;
#X obj 170 239 f;
#X obj 92 238 f;
#X obj 12 237 f;
#X obj 12 118 random 200;
#X obj 92 119 random 200;
#X obj 170 119 random 200;
#X obj 12 175 - 1;
#X obj 92 176 - 1;
#X obj 170 176 - 1;
#X connect 0 0 1 0;
#X connect 1 0 7 0;
#X connect 3 0 4 0;
#X connect 4 0 7 1;
#X connect 4 0 17 0;
#X connect 5 0 6 0;
#X connect 6 0 7 2;
#X connect 6 0 16 0;
#X connect 7 0 2 0;
#X connect 8 0 27 0;
#X connect 8 0 28 0;
#X connect 8 0 29 0;
#X connect 9 0 0 1;
#X connect 9 0 3 1;
#X connect 9 0 5 1;
#X connect 10 0 30 0;
#X connect 11 0 31 0;
#X connect 12 0 32 0;
#X connect 13 0 0 0;
#X connect 14 0 26 0;
#X connect 15 0 13 1;
#X connect 15 0 14 0;
#X connect 16 0 7 0;
#X connect 17 0 7 0;
#X connect 18 0 3 0;
#X connect 19 0 25 0;
#X connect 20 0 5 0;
#X connect 21 0 24 0;
#X connect 22 0 20 1;
#X connect 22 0 21 0;
#X connect 23 0 18 1;
#X connect 23 0 19 0;
#X connect 24 0 20 0;
#X connect 25 0 18 0;
#X connect 26 0 13 0;
#X connect 27 0 10 0;
#X connect 28 0 11 0;
#X connect 29 0 12 0;
#X connect 30 0 26 0;
#X connect 31 0 25 0;
#X connect 32 0 24 0;
#X restore 164 243 pd tripleRnd;
#N canvas 0 22 517 428 tripleRnd 0;
#X obj 12 277 pack 0 1000;
#X obj 12 298 line;
#X obj 12 380 outlet;
#X obj 92 278 pack 0 1000;
#X obj 92 298 line;
#X obj 170 278 pack 0 1000;
#X obj 170 298 line;
#X obj 12 358 pack f f f;
#X obj 13 33 r bang_forme2;
#X obj 233 230 r speed;
#X obj 12 145 / 100;
#X obj 92 146 / 100;
#X obj 170 146 / 100;
#X obj 12 257 *;
#X obj 22 216 t b;
#X obj 27 196 r xscale;
#X obj 170 318 t b;
#X obj 92 318 t b;
#X obj 92 258 *;
#X obj 99 215 t b;
#X obj 170 259 *;
#X obj 180 218 t b;
#X obj 185 196 r zscale;
#X obj 107 196 r yscale;
#X obj 170 239 f;
#X obj 92 238 f;
#X obj 12 237 f;
#X obj 12 118 random 200;
#X obj 92 119 random 200;
#X obj 170 119 random 200;
#X obj 12 175 - 1;
#X obj 92 176 - 1;
#X obj 170 176 - 1;
#X connect 0 0 1 0;
#X connect 1 0 7 0;
#X connect 3 0 4 0;
#X connect 4 0 7 1;
#X connect 4 0 17 0;
#X connect 5 0 6 0;
#X connect 6 0 7 2;
#X connect 6 0 16 0;
#X connect 7 0 2 0;
#X connect 8 0 27 0;
#X connect 8 0 28 0;
#X connect 8 0 29 0;
#X connect 9 0 0 1;
#X connect 9 0 3 1;
#X connect 9 0 5 1;
#X connect 10 0 30 0;
#X connect 11 0 31 0;
#X connect 12 0 32 0;
#X connect 13 0 0 0;
#X connect 14 0 26 0;
#X connect 15 0 13 1;
#X connect 15 0 14 0;
#X connect 16 0 7 0;
#X connect 17 0 7 0;
#X connect 18 0 3 0;
#X connect 19 0 25 0;
#X connect 20 0 5 0;
#X connect 21 0 24 0;
#X connect 22 0 20 1;
#X connect 22 0 21 0;
#X connect 23 0 18 1;
#X connect 23 0 19 0;
#X connect 24 0 20 0;
#X connect 25 0 18 0;
#X connect 26 0 13 0;
#X connect 27 0 10 0;
#X connect 28 0 11 0;
#X connect 29 0 12 0;
#X connect 30 0 26 0;
#X connect 31 0 25 0;
#X connect 32 0 24 0;
#X restore 302 243 pd tripleRnd;
#N canvas 0 22 517 428 tripleRnd 0;
#X obj 12 277 pack 0 1000;
#X obj 12 298 line;
#X obj 12 380 outlet;
#X obj 92 278 pack 0 1000;
#X obj 92 298 line;
#X obj 170 278 pack 0 1000;
#X obj 170 298 line;
#X obj 12 358 pack f f f;
#X obj 13 33 r bang_forme2;
#X obj 233 230 r speed;
#X obj 12 145 / 100;
#X obj 92 146 / 100;
#X obj 170 146 / 100;
#X obj 12 257 *;
#X obj 22 216 t b;
#X obj 27 196 r xscale;
#X obj 170 318 t b;
#X obj 92 318 t b;
#X obj 92 258 *;
#X obj 99 215 t b;
#X obj 170 259 *;
#X obj 180 218 t b;
#X obj 185 196 r zscale;
#X obj 107 196 r yscale;
#X obj 170 239 f;
#X obj 92 238 f;
#X obj 12 237 f;
#X obj 12 118 random 200;
#X obj 92 119 random 200;
#X obj 170 119 random 200;
#X obj 12 175 - 1;
#X obj 92 176 - 1;
#X obj 170 176 - 1;
#X connect 0 0 1 0;
#X connect 1 0 7 0;
#X connect 3 0 4 0;
#X connect 4 0 7 1;
#X connect 4 0 17 0;
#X connect 5 0 6 0;
#X connect 6 0 7 2;
#X connect 6 0 16 0;
#X connect 7 0 2 0;
#X connect 8 0 27 0;
#X connect 8 0 28 0;
#X connect 8 0 29 0;
#X connect 9 0 0 1;
#X connect 9 0 3 1;
#X connect 9 0 5 1;
#X connect 10 0 30 0;
#X connect 11 0 31 0;
#X connect 12 0 32 0;
#X connect 13 0 0 0;
#X connect 14 0 26 0;
#X connect 15 0 13 1;
#X connect 15 0 14 0;
#X connect 16 0 7 0;
#X connect 17 0 7 0;
#X connect 18 0 3 0;
#X connect 19 0 25 0;
#X connect 20 0 5 0;
#X connect 21 0 24 0;
#X connect 22 0 20 1;
#X connect 22 0 21 0;
#X connect 23 0 18 1;
#X connect 23 0 19 0;
#X connect 24 0 20 0;
#X connect 25 0 18 0;
#X connect 26 0 13 0;
#X connect 27 0 10 0;
#X connect 28 0 11 0;
#X connect 29 0 12 0;
#X connect 30 0 26 0;
#X connect 31 0 25 0;
#X connect 32 0 24 0;
#X restore 426 243 pd tripleRnd;
#N canvas 0 22 517 428 tripleRnd 0;
#X obj 12 277 pack 0 1000;
#X obj 12 298 line;
#X obj 12 380 outlet;
#X obj 92 278 pack 0 1000;
#X obj 92 298 line;
#X obj 170 278 pack 0 1000;
#X obj 170 298 line;
#X obj 12 358 pack f f f;
#X obj 13 33 r bang_forme2;
#X obj 233 230 r speed;
#X obj 12 145 / 100;
#X obj 92 146 / 100;
#X obj 170 146 / 100;
#X obj 12 257 *;
#X obj 22 216 t b;
#X obj 27 196 r xscale;
#X obj 170 318 t b;
#X obj 92 318 t b;
#X obj 92 258 *;
#X obj 99 215 t b;
#X obj 170 259 *;
#X obj 180 218 t b;
#X obj 185 196 r zscale;
#X obj 107 196 r yscale;
#X obj 170 239 f;
#X obj 92 238 f;
#X obj 12 237 f;
#X obj 12 118 random 200;
#X obj 92 119 random 200;
#X obj 170 119 random 200;
#X obj 12 175 - 1;
#X obj 92 176 - 1;
#X obj 170 176 - 1;
#X connect 0 0 1 0;
#X connect 1 0 7 0;
#X connect 3 0 4 0;
#X connect 4 0 7 1;
#X connect 4 0 17 0;
#X connect 5 0 6 0;
#X connect 6 0 7 2;
#X connect 6 0 16 0;
#X connect 7 0 2 0;
#X connect 8 0 27 0;
#X connect 8 0 28 0;
#X connect 8 0 29 0;
#X connect 9 0 0 1;
#X connect 9 0 3 1;
#X connect 9 0 5 1;
#X connect 10 0 30 0;
#X connect 11 0 31 0;
#X connect 12 0 32 0;
#X connect 13 0 0 0;
#X connect 14 0 26 0;
#X connect 15 0 13 1;
#X connect 15 0 14 0;
#X connect 16 0 7 0;
#X connect 17 0 7 0;
#X connect 18 0 3 0;
#X connect 19 0 25 0;
#X connect 20 0 5 0;
#X connect 21 0 24 0;
#X connect 22 0 20 1;
#X connect 22 0 21 0;
#X connect 23 0 18 1;
#X connect 23 0 19 0;
#X connect 24 0 20 0;
#X connect 25 0 18 0;
#X connect 26 0 13 0;
#X connect 27 0 10 0;
#X connect 28 0 11 0;
#X connect 29 0 12 0;
#X connect 30 0 26 0;
#X connect 31 0 25 0;
#X connect 32 0 24 0;
#X restore 546 244 pd tripleRnd;
#N canvas 0 22 517 428 tripleRnd 0;
#X obj 12 277 pack 0 1000;
#X obj 12 298 line;
#X obj 12 380 outlet;
#X obj 92 278 pack 0 1000;
#X obj 92 298 line;
#X obj 170 278 pack 0 1000;
#X obj 170 298 line;
#X obj 12 358 pack f f f;
#X obj 13 33 r bang_forme2;
#X obj 233 230 r speed;
#X obj 12 145 / 100;
#X obj 92 146 / 100;
#X obj 170 146 / 100;
#X obj 12 257 *;
#X obj 22 216 t b;
#X obj 27 196 r xscale;
#X obj 170 318 t b;
#X obj 92 318 t b;
#X obj 92 258 *;
#X obj 99 215 t b;
#X obj 170 259 *;
#X obj 180 218 t b;
#X obj 185 196 r zscale;
#X obj 107 196 r yscale;
#X obj 170 239 f;
#X obj 92 238 f;
#X obj 12 237 f;
#X obj 12 118 random 200;
#X obj 92 119 random 200;
#X obj 170 119 random 200;
#X obj 12 175 - 1;
#X obj 92 176 - 1;
#X obj 170 176 - 1;
#X connect 0 0 1 0;
#X connect 1 0 7 0;
#X connect 3 0 4 0;
#X connect 4 0 7 1;
#X connect 4 0 17 0;
#X connect 5 0 6 0;
#X connect 6 0 7 2;
#X connect 6 0 16 0;
#X connect 7 0 2 0;
#X connect 8 0 27 0;
#X connect 8 0 28 0;
#X connect 8 0 29 0;
#X connect 9 0 0 1;
#X connect 9 0 3 1;
#X connect 9 0 5 1;
#X connect 10 0 30 0;
#X connect 11 0 31 0;
#X connect 12 0 32 0;
#X connect 13 0 0 0;
#X connect 14 0 26 0;
#X connect 15 0 13 1;
#X connect 15 0 14 0;
#X connect 16 0 7 0;
#X connect 17 0 7 0;
#X connect 18 0 3 0;
#X connect 19 0 25 0;
#X connect 20 0 5 0;
#X connect 21 0 24 0;
#X connect 22 0 20 1;
#X connect 22 0 21 0;
#X connect 23 0 18 1;
#X connect 23 0 19 0;
#X connect 24 0 20 0;
#X connect 25 0 18 0;
#X connect 26 0 13 0;
#X connect 27 0 10 0;
#X connect 28 0 11 0;
#X connect 29 0 12 0;
#X connect 30 0 26 0;
#X connect 31 0 25 0;
#X connect 32 0 24 0;
#X restore 29 310 pd tripleRnd;
#N canvas 0 22 517 428 tripleRnd 0;
#X obj 12 277 pack 0 1000;
#X obj 12 298 line;
#X obj 12 380 outlet;
#X obj 92 278 pack 0 1000;
#X obj 92 298 line;
#X obj 170 278 pack 0 1000;
#X obj 170 298 line;
#X obj 12 358 pack f f f;
#X obj 13 33 r bang_forme2;
#X obj 233 230 r speed;
#X obj 12 145 / 100;
#X obj 92 146 / 100;
#X obj 170 146 / 100;
#X obj 12 257 *;
#X obj 22 216 t b;
#X obj 27 196 r xscale;
#X obj 170 318 t b;
#X obj 92 318 t b;
#X obj 92 258 *;
#X obj 99 215 t b;
#X obj 170 259 *;
#X obj 180 218 t b;
#X obj 185 196 r zscale;
#X obj 107 196 r yscale;
#X obj 170 239 f;
#X obj 92 238 f;
#X obj 12 237 f;
#X obj 12 118 random 200;
#X obj 92 119 random 200;
#X obj 170 119 random 200;
#X obj 12 175 - 1;
#X obj 92 176 - 1;
#X obj 170 176 - 1;
#X connect 0 0 1 0;
#X connect 1 0 7 0;
#X connect 3 0 4 0;
#X connect 4 0 7 1;
#X connect 4 0 17 0;
#X connect 5 0 6 0;
#X connect 6 0 7 2;
#X connect 6 0 16 0;
#X connect 7 0 2 0;
#X connect 8 0 27 0;
#X connect 8 0 28 0;
#X connect 8 0 29 0;
#X connect 9 0 0 1;
#X connect 9 0 3 1;
#X connect 9 0 5 1;
#X connect 10 0 30 0;
#X connect 11 0 31 0;
#X connect 12 0 32 0;
#X connect 13 0 0 0;
#X connect 14 0 26 0;
#X connect 15 0 13 1;
#X connect 15 0 14 0;
#X connect 16 0 7 0;
#X connect 17 0 7 0;
#X connect 18 0 3 0;
#X connect 19 0 25 0;
#X connect 20 0 5 0;
#X connect 21 0 24 0;
#X connect 22 0 20 1;
#X connect 22 0 21 0;
#X connect 23 0 18 1;
#X connect 23 0 19 0;
#X connect 24 0 20 0;
#X connect 25 0 18 0;
#X connect 26 0 13 0;
#X connect 27 0 10 0;
#X connect 28 0 11 0;
#X connect 29 0 12 0;
#X connect 30 0 26 0;
#X connect 31 0 25 0;
#X connect 32 0 24 0;
#X restore 162 310 pd tripleRnd;
#N canvas 0 22 517 428 tripleRnd 0;
#X obj 12 277 pack 0 1000;
#X obj 12 298 line;
#X obj 12 380 outlet;
#X obj 92 278 pack 0 1000;
#X obj 92 298 line;
#X obj 170 278 pack 0 1000;
#X obj 170 298 line;
#X obj 12 358 pack f f f;
#X obj 13 33 r bang_forme2;
#X obj 233 230 r speed;
#X obj 12 145 / 100;
#X obj 92 146 / 100;
#X obj 170 146 / 100;
#X obj 12 257 *;
#X obj 22 216 t b;
#X obj 27 196 r xscale;
#X obj 170 318 t b;
#X obj 92 318 t b;
#X obj 92 258 *;
#X obj 99 215 t b;
#X obj 170 259 *;
#X obj 180 218 t b;
#X obj 185 196 r zscale;
#X obj 107 196 r yscale;
#X obj 170 239 f;
#X obj 92 238 f;
#X obj 12 237 f;
#X obj 12 118 random 200;
#X obj 92 119 random 200;
#X obj 170 119 random 200;
#X obj 12 175 - 1;
#X obj 92 176 - 1;
#X obj 170 176 - 1;
#X connect 0 0 1 0;
#X connect 1 0 7 0;
#X connect 3 0 4 0;
#X connect 4 0 7 1;
#X connect 4 0 17 0;
#X connect 5 0 6 0;
#X connect 6 0 7 2;
#X connect 6 0 16 0;
#X connect 7 0 2 0;
#X connect 8 0 27 0;
#X connect 8 0 28 0;
#X connect 8 0 29 0;
#X connect 9 0 0 1;
#X connect 9 0 3 1;
#X connect 9 0 5 1;
#X connect 10 0 30 0;
#X connect 11 0 31 0;
#X connect 12 0 32 0;
#X connect 13 0 0 0;
#X connect 14 0 26 0;
#X connect 15 0 13 1;
#X connect 15 0 14 0;
#X connect 16 0 7 0;
#X connect 17 0 7 0;
#X connect 18 0 3 0;
#X connect 19 0 25 0;
#X connect 20 0 5 0;
#X connect 21 0 24 0;
#X connect 22 0 20 1;
#X connect 22 0 21 0;
#X connect 23 0 18 1;
#X connect 23 0 19 0;
#X connect 24 0 20 0;
#X connect 25 0 18 0;
#X connect 26 0 13 0;
#X connect 27 0 10 0;
#X connect 28 0 11 0;
#X connect 29 0 12 0;
#X connect 30 0 26 0;
#X connect 31 0 25 0;
#X connect 32 0 24 0;
#X restore 300 310 pd tripleRnd;
#N canvas 0 22 517 428 tripleRnd 0;
#X obj 12 277 pack 0 1000;
#X obj 12 298 line;
#X obj 12 380 outlet;
#X obj 92 278 pack 0 1000;
#X obj 92 298 line;
#X obj 170 278 pack 0 1000;
#X obj 170 298 line;
#X obj 12 358 pack f f f;
#X obj 13 33 r bang_forme2;
#X obj 233 230 r speed;
#X obj 12 145 / 100;
#X obj 92 146 / 100;
#X obj 170 146 / 100;
#X obj 12 257 *;
#X obj 22 216 t b;
#X obj 27 196 r xscale;
#X obj 170 318 t b;
#X obj 92 318 t b;
#X obj 92 258 *;
#X obj 99 215 t b;
#X obj 170 259 *;
#X obj 180 218 t b;
#X obj 185 196 r zscale;
#X obj 107 196 r yscale;
#X obj 170 239 f;
#X obj 92 238 f;
#X obj 12 237 f;
#X obj 12 118 random 200;
#X obj 92 119 random 200;
#X obj 170 119 random 200;
#X obj 12 175 - 1;
#X obj 92 176 - 1;
#X obj 170 176 - 1;
#X connect 0 0 1 0;
#X connect 1 0 7 0;
#X connect 3 0 4 0;
#X connect 4 0 7 1;
#X connect 4 0 17 0;
#X connect 5 0 6 0;
#X connect 6 0 7 2;
#X connect 6 0 16 0;
#X connect 7 0 2 0;
#X connect 8 0 27 0;
#X connect 8 0 28 0;
#X connect 8 0 29 0;
#X connect 9 0 0 1;
#X connect 9 0 3 1;
#X connect 9 0 5 1;
#X connect 10 0 30 0;
#X connect 11 0 31 0;
#X connect 12 0 32 0;
#X connect 13 0 0 0;
#X connect 14 0 26 0;
#X connect 15 0 13 1;
#X connect 15 0 14 0;
#X connect 16 0 7 0;
#X connect 17 0 7 0;
#X connect 18 0 3 0;
#X connect 19 0 25 0;
#X connect 20 0 5 0;
#X connect 21 0 24 0;
#X connect 22 0 20 1;
#X connect 22 0 21 0;
#X connect 23 0 18 1;
#X connect 23 0 19 0;
#X connect 24 0 20 0;
#X connect 25 0 18 0;
#X connect 26 0 13 0;
#X connect 27 0 10 0;
#X connect 28 0 11 0;
#X connect 29 0 12 0;
#X connect 30 0 26 0;
#X connect 31 0 25 0;
#X connect 32 0 24 0;
#X restore 424 310 pd tripleRnd;
#N canvas 0 22 517 428 tripleRnd 0;
#X obj 12 277 pack 0 1000;
#X obj 12 298 line;
#X obj 12 380 outlet;
#X obj 92 278 pack 0 1000;
#X obj 92 298 line;
#X obj 170 278 pack 0 1000;
#X obj 170 298 line;
#X obj 12 358 pack f f f;
#X obj 13 33 r bang_forme2;
#X obj 233 230 r speed;
#X obj 12 145 / 100;
#X obj 92 146 / 100;
#X obj 170 146 / 100;
#X obj 12 257 *;
#X obj 22 216 t b;
#X obj 27 196 r xscale;
#X obj 170 318 t b;
#X obj 92 318 t b;
#X obj 92 258 *;
#X obj 99 215 t b;
#X obj 170 259 *;
#X obj 180 218 t b;
#X obj 185 196 r zscale;
#X obj 107 196 r yscale;
#X obj 170 239 f;
#X obj 92 238 f;
#X obj 12 237 f;
#X obj 12 118 random 200;
#X obj 92 119 random 200;
#X obj 170 119 random 200;
#X obj 12 175 - 1;
#X obj 92 176 - 1;
#X obj 170 176 - 1;
#X connect 0 0 1 0;
#X connect 1 0 7 0;
#X connect 3 0 4 0;
#X connect 4 0 7 1;
#X connect 4 0 17 0;
#X connect 5 0 6 0;
#X connect 6 0 7 2;
#X connect 6 0 16 0;
#X connect 7 0 2 0;
#X connect 8 0 27 0;
#X connect 8 0 28 0;
#X connect 8 0 29 0;
#X connect 9 0 0 1;
#X connect 9 0 3 1;
#X connect 9 0 5 1;
#X connect 10 0 30 0;
#X connect 11 0 31 0;
#X connect 12 0 32 0;
#X connect 13 0 0 0;
#X connect 14 0 26 0;
#X connect 15 0 13 1;
#X connect 15 0 14 0;
#X connect 16 0 7 0;
#X connect 17 0 7 0;
#X connect 18 0 3 0;
#X connect 19 0 25 0;
#X connect 20 0 5 0;
#X connect 21 0 24 0;
#X connect 22 0 20 1;
#X connect 22 0 21 0;
#X connect 23 0 18 1;
#X connect 23 0 19 0;
#X connect 24 0 20 0;
#X connect 25 0 18 0;
#X connect 26 0 13 0;
#X connect 27 0 10 0;
#X connect 28 0 11 0;
#X connect 29 0 12 0;
#X connect 30 0 26 0;
#X connect 31 0 25 0;
#X connect 32 0 24 0;
#X restore 544 311 pd tripleRnd;
#N canvas 0 22 517 428 tripleRnd 0;
#X obj 12 277 pack 0 1000;
#X obj 12 298 line;
#X obj 12 380 outlet;
#X obj 92 278 pack 0 1000;
#X obj 92 298 line;
#X obj 170 278 pack 0 1000;
#X obj 170 298 line;
#X obj 12 358 pack f f f;
#X obj 13 33 r bang_forme2;
#X obj 233 230 r speed;
#X obj 12 145 / 100;
#X obj 92 146 / 100;
#X obj 170 146 / 100;
#X obj 12 257 *;
#X obj 22 216 t b;
#X obj 27 196 r xscale;
#X obj 170 318 t b;
#X obj 92 318 t b;
#X obj 92 258 *;
#X obj 99 215 t b;
#X obj 170 259 *;
#X obj 180 218 t b;
#X obj 185 196 r zscale;
#X obj 107 196 r yscale;
#X obj 170 239 f;
#X obj 92 238 f;
#X obj 12 237 f;
#X obj 12 118 random 200;
#X obj 92 119 random 200;
#X obj 170 119 random 200;
#X obj 12 175 - 1;
#X obj 92 176 - 1;
#X obj 170 176 - 1;
#X connect 0 0 1 0;
#X connect 1 0 7 0;
#X connect 3 0 4 0;
#X connect 4 0 7 1;
#X connect 4 0 17 0;
#X connect 5 0 6 0;
#X connect 6 0 7 2;
#X connect 6 0 16 0;
#X connect 7 0 2 0;
#X connect 8 0 27 0;
#X connect 8 0 28 0;
#X connect 8 0 29 0;
#X connect 9 0 0 1;
#X connect 9 0 3 1;
#X connect 9 0 5 1;
#X connect 10 0 30 0;
#X connect 11 0 31 0;
#X connect 12 0 32 0;
#X connect 13 0 0 0;
#X connect 14 0 26 0;
#X connect 15 0 13 1;
#X connect 15 0 14 0;
#X connect 16 0 7 0;
#X connect 17 0 7 0;
#X connect 18 0 3 0;
#X connect 19 0 25 0;
#X connect 20 0 5 0;
#X connect 21 0 24 0;
#X connect 22 0 20 1;
#X connect 22 0 21 0;
#X connect 23 0 18 1;
#X connect 23 0 19 0;
#X connect 24 0 20 0;
#X connect 25 0 18 0;
#X connect 26 0 13 0;
#X connect 27 0 10 0;
#X connect 28 0 11 0;
#X connect 29 0 12 0;
#X connect 30 0 26 0;
#X connect 31 0 25 0;
#X connect 32 0 24 0;
#X restore 29 371 pd tripleRnd;
#N canvas 0 22 517 428 tripleRnd 0;
#X obj 12 277 pack 0 1000;
#X obj 12 298 line;
#X obj 12 380 outlet;
#X obj 92 278 pack 0 1000;
#X obj 92 298 line;
#X obj 170 278 pack 0 1000;
#X obj 170 298 line;
#X obj 12 358 pack f f f;
#X obj 13 33 r bang_forme2;
#X obj 233 230 r speed;
#X obj 12 145 / 100;
#X obj 92 146 / 100;
#X obj 170 146 / 100;
#X obj 12 257 *;
#X obj 22 216 t b;
#X obj 27 196 r xscale;
#X obj 170 318 t b;
#X obj 92 318 t b;
#X obj 92 258 *;
#X obj 99 215 t b;
#X obj 170 259 *;
#X obj 180 218 t b;
#X obj 185 196 r zscale;
#X obj 107 196 r yscale;
#X obj 170 239 f;
#X obj 92 238 f;
#X obj 12 237 f;
#X obj 12 118 random 200;
#X obj 92 119 random 200;
#X obj 170 119 random 200;
#X obj 12 175 - 1;
#X obj 92 176 - 1;
#X obj 170 176 - 1;
#X connect 0 0 1 0;
#X connect 1 0 7 0;
#X connect 3 0 4 0;
#X connect 4 0 7 1;
#X connect 4 0 17 0;
#X connect 5 0 6 0;
#X connect 6 0 7 2;
#X connect 6 0 16 0;
#X connect 7 0 2 0;
#X connect 8 0 27 0;
#X connect 8 0 28 0;
#X connect 8 0 29 0;
#X connect 9 0 0 1;
#X connect 9 0 3 1;
#X connect 9 0 5 1;
#X connect 10 0 30 0;
#X connect 11 0 31 0;
#X connect 12 0 32 0;
#X connect 13 0 0 0;
#X connect 14 0 26 0;
#X connect 15 0 13 1;
#X connect 15 0 14 0;
#X connect 16 0 7 0;
#X connect 17 0 7 0;
#X connect 18 0 3 0;
#X connect 19 0 25 0;
#X connect 20 0 5 0;
#X connect 21 0 24 0;
#X connect 22 0 20 1;
#X connect 22 0 21 0;
#X connect 23 0 18 1;
#X connect 23 0 19 0;
#X connect 24 0 20 0;
#X connect 25 0 18 0;
#X connect 26 0 13 0;
#X connect 27 0 10 0;
#X connect 28 0 11 0;
#X connect 29 0 12 0;
#X connect 30 0 26 0;
#X connect 31 0 25 0;
#X connect 32 0 24 0;
#X restore 162 371 pd tripleRnd;
#N canvas 0 22 517 428 tripleRnd 0;
#X obj 12 277 pack 0 1000;
#X obj 12 298 line;
#X obj 12 380 outlet;
#X obj 92 278 pack 0 1000;
#X obj 92 298 line;
#X obj 170 278 pack 0 1000;
#X obj 170 298 line;
#X obj 12 358 pack f f f;
#X obj 13 33 r bang_forme2;
#X obj 233 230 r speed;
#X obj 12 145 / 100;
#X obj 92 146 / 100;
#X obj 170 146 / 100;
#X obj 12 257 *;
#X obj 22 216 t b;
#X obj 27 196 r xscale;
#X obj 170 318 t b;
#X obj 92 318 t b;
#X obj 92 258 *;
#X obj 99 215 t b;
#X obj 170 259 *;
#X obj 180 218 t b;
#X obj 185 196 r zscale;
#X obj 107 196 r yscale;
#X obj 170 239 f;
#X obj 92 238 f;
#X obj 12 237 f;
#X obj 12 118 random 200;
#X obj 92 119 random 200;
#X obj 170 119 random 200;
#X obj 12 175 - 1;
#X obj 92 176 - 1;
#X obj 170 176 - 1;
#X connect 0 0 1 0;
#X connect 1 0 7 0;
#X connect 3 0 4 0;
#X connect 4 0 7 1;
#X connect 4 0 17 0;
#X connect 5 0 6 0;
#X connect 6 0 7 2;
#X connect 6 0 16 0;
#X connect 7 0 2 0;
#X connect 8 0 27 0;
#X connect 8 0 28 0;
#X connect 8 0 29 0;
#X connect 9 0 0 1;
#X connect 9 0 3 1;
#X connect 9 0 5 1;
#X connect 10 0 30 0;
#X connect 11 0 31 0;
#X connect 12 0 32 0;
#X connect 13 0 0 0;
#X connect 14 0 26 0;
#X connect 15 0 13 1;
#X connect 15 0 14 0;
#X connect 16 0 7 0;
#X connect 17 0 7 0;
#X connect 18 0 3 0;
#X connect 19 0 25 0;
#X connect 20 0 5 0;
#X connect 21 0 24 0;
#X connect 22 0 20 1;
#X connect 22 0 21 0;
#X connect 23 0 18 1;
#X connect 23 0 19 0;
#X connect 24 0 20 0;
#X connect 25 0 18 0;
#X connect 26 0 13 0;
#X connect 27 0 10 0;
#X connect 28 0 11 0;
#X connect 29 0 12 0;
#X connect 30 0 26 0;
#X connect 31 0 25 0;
#X connect 32 0 24 0;
#X restore 300 371 pd tripleRnd;
#N canvas 0 22 517 428 tripleRnd 0;
#X obj 12 277 pack 0 1000;
#X obj 12 298 line;
#X obj 12 380 outlet;
#X obj 92 278 pack 0 1000;
#X obj 92 298 line;
#X obj 170 278 pack 0 1000;
#X obj 170 298 line;
#X obj 12 358 pack f f f;
#X obj 13 33 r bang_forme2;
#X obj 233 230 r speed;
#X obj 12 145 / 100;
#X obj 92 146 / 100;
#X obj 170 146 / 100;
#X obj 12 257 *;
#X obj 22 216 t b;
#X obj 27 196 r xscale;
#X obj 170 318 t b;
#X obj 92 318 t b;
#X obj 92 258 *;
#X obj 99 215 t b;
#X obj 170 259 *;
#X obj 180 218 t b;
#X obj 185 196 r zscale;
#X obj 107 196 r yscale;
#X obj 170 239 f;
#X obj 92 238 f;
#X obj 12 237 f;
#X obj 12 118 random 200;
#X obj 92 119 random 200;
#X obj 170 119 random 200;
#X obj 12 175 - 1;
#X obj 92 176 - 1;
#X obj 170 176 - 1;
#X connect 0 0 1 0;
#X connect 1 0 7 0;
#X connect 3 0 4 0;
#X connect 4 0 7 1;
#X connect 4 0 17 0;
#X connect 5 0 6 0;
#X connect 6 0 7 2;
#X connect 6 0 16 0;
#X connect 7 0 2 0;
#X connect 8 0 27 0;
#X connect 8 0 28 0;
#X connect 8 0 29 0;
#X connect 9 0 0 1;
#X connect 9 0 3 1;
#X connect 9 0 5 1;
#X connect 10 0 30 0;
#X connect 11 0 31 0;
#X connect 12 0 32 0;
#X connect 13 0 0 0;
#X connect 14 0 26 0;
#X connect 15 0 13 1;
#X connect 15 0 14 0;
#X connect 16 0 7 0;
#X connect 17 0 7 0;
#X connect 18 0 3 0;
#X connect 19 0 25 0;
#X connect 20 0 5 0;
#X connect 21 0 24 0;
#X connect 22 0 20 1;
#X connect 22 0 21 0;
#X connect 23 0 18 1;
#X connect 23 0 19 0;
#X connect 24 0 20 0;
#X connect 25 0 18 0;
#X connect 26 0 13 0;
#X connect 27 0 10 0;
#X connect 28 0 11 0;
#X connect 29 0 12 0;
#X connect 30 0 26 0;
#X connect 31 0 25 0;
#X connect 32 0 24 0;
#X restore 424 371 pd tripleRnd;
#N canvas 0 22 517 428 tripleRnd 0;
#X obj 12 277 pack 0 1000;
#X obj 12 298 line;
#X obj 12 380 outlet;
#X obj 92 278 pack 0 1000;
#X obj 92 298 line;
#X obj 170 278 pack 0 1000;
#X obj 170 298 line;
#X obj 12 358 pack f f f;
#X obj 13 33 r bang_forme2;
#X obj 233 230 r speed;
#X obj 12 145 / 100;
#X obj 92 146 / 100;
#X obj 170 146 / 100;
#X obj 12 257 *;
#X obj 22 216 t b;
#X obj 27 196 r xscale;
#X obj 170 318 t b;
#X obj 92 318 t b;
#X obj 92 258 *;
#X obj 99 215 t b;
#X obj 170 259 *;
#X obj 180 218 t b;
#X obj 185 196 r zscale;
#X obj 107 196 r yscale;
#X obj 170 239 f;
#X obj 92 238 f;
#X obj 12 237 f;
#X obj 12 118 random 200;
#X obj 92 119 random 200;
#X obj 170 119 random 200;
#X obj 12 175 - 1;
#X obj 92 176 - 1;
#X obj 170 176 - 1;
#X connect 0 0 1 0;
#X connect 1 0 7 0;
#X connect 3 0 4 0;
#X connect 4 0 7 1;
#X connect 4 0 17 0;
#X connect 5 0 6 0;
#X connect 6 0 7 2;
#X connect 6 0 16 0;
#X connect 7 0 2 0;
#X connect 8 0 27 0;
#X connect 8 0 28 0;
#X connect 8 0 29 0;
#X connect 9 0 0 1;
#X connect 9 0 3 1;
#X connect 9 0 5 1;
#X connect 10 0 30 0;
#X connect 11 0 31 0;
#X connect 12 0 32 0;
#X connect 13 0 0 0;
#X connect 14 0 26 0;
#X connect 15 0 13 1;
#X connect 15 0 14 0;
#X connect 16 0 7 0;
#X connect 17 0 7 0;
#X connect 18 0 3 0;
#X connect 19 0 25 0;
#X connect 20 0 5 0;
#X connect 21 0 24 0;
#X connect 22 0 20 1;
#X connect 22 0 21 0;
#X connect 23 0 18 1;
#X connect 23 0 19 0;
#X connect 24 0 20 0;
#X connect 25 0 18 0;
#X connect 26 0 13 0;
#X connect 27 0 10 0;
#X connect 28 0 11 0;
#X connect 29 0 12 0;
#X connect 30 0 26 0;
#X connect 31 0 25 0;
#X connect 32 0 24 0;
#X restore 544 372 pd tripleRnd;
#X connect 0 0 7 0;
#X connect 1 0 26 0;
#X connect 2 0 26 0;
#X connect 3 0 26 0;
#X connect 4 0 26 0;
#X connect 5 0 26 0;
#X connect 6 0 26 0;
#X connect 7 0 26 0;
#X connect 8 0 26 0;
#X connect 9 0 26 0;
#X connect 10 0 26 0;
#X connect 11 0 26 0;
#X connect 12 0 26 0;
#X connect 13 0 26 0;
#X connect 14 0 26 0;
#X connect 15 0 26 0;
#X connect 16 0 26 0;
#X connect 17 0 26 0;
#X connect 18 0 26 0;
#X connect 19 0 26 0;
#X connect 20 0 26 0;
#X connect 21 0 26 0;
#X connect 22 0 26 0;
#X connect 23 0 26 0;
#X connect 24 0 26 0;
#X connect 25 0 26 0;
#X connect 27 0 28 0;
#X connect 29 0 6 0;
#X connect 30 0 5 0;
#X connect 31 0 13 0;
#X connect 32 0 17 0;
#X connect 33 0 8 0;
#X connect 34 0 9 0;
#X connect 35 0 4 0;
#X connect 36 0 14 0;
#X connect 37 0 18 0;
#X connect 38 0 1 0;
#X connect 39 0 2 0;
#X connect 40 0 3 0;
#X connect 41 0 15 0;
#X connect 42 0 19 0;
#X connect 43 0 10 0;
#X connect 44 0 11 0;
#X connect 45 0 12 0;
#X connect 46 0 16 0;
#X connect 47 0 20 0;
#X connect 48 0 21 0;
#X connect 49 0 22 0;
#X connect 50 0 23 0;
#X connect 51 0 24 0;
#X connect 52 0 25 0;
#X restore -325 98 pd forme2;
#X msg -234 97 draw line;
#X msg -234 77 draw fill;
#X msg -234 117 draw point;
#X msg -234 138 draw line1;
#X msg -234 159 draw line2;
#X msg -234 180 draw line3;
#X msg -234 201 draw line4;
#X msg -96 91 draw control_line;
#X msg -96 112 draw control_line1;
#X msg -96 133 draw control_line2;
#X msg -96 154 draw control_fill;
#X msg -96 175 draw control_point;
#X obj -248 237 s curve3d;
#X obj -325 77 r \$0-randForm;
#X obj -234 42 sel 0 1 2 3 4 5 6 7 8 9 10 11;
#X obj -234 22 r \$0-renderStyle;
#X msg -96 239 width 1;
#X obj -96 216 loadbang;
#X obj -30 13 loadbang;
#X msg -30 33 grid 125 125;
#X connect 0 0 13 0;
#X connect 1 0 13 0;
#X connect 2 0 13 0;
#X connect 4 0 13 0;
#X connect 5 0 13 0;
#X connect 6 0 13 0;
#X connect 7 0 13 0;
#X connect 8 0 13 0;
#X connect 9 0 13 0;
#X connect 10 0 13 0;
#X connect 11 0 13 0;
#X connect 12 0 13 0;
#X connect 14 0 0 0;
#X connect 15 0 2 0;
#X connect 15 1 1 0;
#X connect 15 2 3 0;
#X connect 15 3 4 0;
#X connect 15 4 5 0;
#X connect 15 5 6 0;
#X connect 15 6 7 0;
#X connect 15 7 8 0;
#X connect 15 8 9 0;
#X connect 15 9 10 0;
#X connect 15 10 11 0;
#X connect 15 11 12 0;
#X connect 16 0 15 0;
#X connect 17 0 13 0;
#X connect 18 0 17 0;
#X connect 19 0 20 0;
#X connect 20 0 13 0;
#X restore 48 11 pd curve3dRenderOptions;
#X obj 144 356 r speed;
#X obj 48 35 gemhead;
#X obj 71 257 r translateX;
#X obj 94 276 r translateY;
#X obj 117 295 r translateZ;
#X msg 216 594 auto \$1;
#X obj 216 575 tgl 15 0 empty empty empty 0 -6 0 8 -262144 -1 -1 0
1;
#X obj 209 510 bng 15 250 50 0 empty empty empty 0 -6 0 8 -258699 -1
-1;
#N canvas 0 22 450 300 savepanel 0;
#X obj 114 62 inlet;
#X obj 114 254 outlet;
#X obj 114 199 t b a;
#X obj 114 125 savepanel;
#X msg 114 162 set file \$1 100;
#X connect 0 0 3 0;
#X connect 2 0 1 0;
#X connect 2 1 1 0;
#X connect 3 0 4 0;
#X connect 4 0 2 0;
#X restore 209 529 pd savepanel;
#X obj 209 616 pix_write;
#X msg 210 554 file /Users/julianasteele/Documents/2013 December/CYRUS_TEST_STILLS/2000x2000_
100;
#X obj 48 229 colorRGB;
#X floatatom 92 156 5 0 0 0 - - -;
#X floatatom 131 156 5 0 0 0 - - -;
#X floatatom 169 156 5 0 0 0 - - -;
#X floatatom 207 156 5 0 0 0 - - -;
#X obj 92 175 / 255;
#X obj 131 175 / 255;
#X obj 169 175 / 255;
#X obj 207 175 / 255;
#X obj 48 91 alpha;
#X obj 74 71 tgl 15 0 empty empty empty 17 7 0 10 -262144 -1 -1 1 1
;
#X obj 202 54 loadbang;
#X msg 74 50 1;
#X msg 220 111 255;
#N canvas 450 179 450 256 randomizer 0;
#X obj 14 39 random 360;
#X obj 14 82 line 30;
#X obj 14 60 pack f 500;
#X obj 14 3 inlet;
#X obj 14 102 outlet;
#X obj 71 5 inlet;
#X connect 0 0 2 0;
#X connect 1 0 4 0;
#X connect 2 0 1 0;
#X connect 3 0 0 0;
#X connect 5 0 0 1;
#X restore 299 100 pd randomizer;
#N canvas 450 179 450 256 randomizer 0;
#X obj 14 39 random 360;
#X obj 14 82 line 30;
#X obj 14 60 pack f 500;
#X obj 14 3 inlet;
#X obj 14 102 outlet;
#X obj 71 5 inlet;
#X connect 0 0 2 0;
#X connect 1 0 4 0;
#X connect 2 0 1 0;
#X connect 3 0 0 0;
#X connect 5 0 0 1;
#X restore 312 122 pd randomizer;
#N canvas 450 179 450 256 randomizer 0;
#X obj 14 39 random 360;
#X obj 14 82 line 30;
#X obj 14 60 pack f 500;
#X obj 14 3 inlet;
#X obj 14 102 outlet;
#X obj 71 5 inlet;
#X connect 0 0 2 0;
#X connect 1 0 4 0;
#X connect 2 0 1 0;
#X connect 3 0 0 0;
#X connect 5 0 0 1;
#X restore 326 145 pd randomizer;
#X obj 298 14 r renderClock;
#X obj 299 75 t b b b;
#X obj 467 134 spigot;
#X obj 500 106 r \$0-randColor;
#X connect 0 0 1 0;
#X connect 1 0 12 0;
#X connect 2 0 1 1;
#X connect 3 0 2 0;
#X connect 4 0 1 2;
#X connect 5 0 4 0;
#X connect 6 0 1 3;
#X connect 7 0 6 0;
#X connect 8 0 7 0;
#X connect 9 0 5 0;
#X connect 10 0 3 0;
#X connect 11 0 12 0;
#X connect 12 0 26 0;
#X connect 13 0 8 0;
#X connect 14 0 9 0;
#X connect 15 0 10 0;
#X connect 17 0 7 1;
#X connect 17 0 5 1;
#X connect 17 0 3 1;
#X connect 18 0 37 0;
#X connect 19 0 0 1;
#X connect 20 0 0 2;
#X connect 21 0 0 3;
#X connect 22 0 26 0;
#X connect 23 0 22 0;
#X connect 24 0 25 0;
#X connect 25 0 27 0;
#X connect 27 0 26 0;
#X connect 28 0 0 0;
#X connect 29 0 33 0;
#X connect 30 0 34 0;
#X connect 31 0 35 0;
#X connect 32 0 36 0;
#X connect 33 0 28 1;
#X connect 34 0 28 2;
#X connect 35 0 28 3;
#X connect 36 0 28 4;
#X connect 37 0 28 0;
#X connect 38 0 37 1;
#X connect 39 0 40 0;
#X connect 39 0 41 0;
#X connect 40 0 38 0;
#X connect 41 0 32 0;
#X connect 42 0 29 0;
#X connect 43 0 30 0;
#X connect 44 0 31 0;
#X connect 45 0 47 0;
#X connect 46 0 42 0;
#X connect 46 1 43 0;
#X connect 46 2 44 0;
#X connect 47 0 46 0;
#X connect 48 0 47 1;
#X restore -135 -169 pd 3d Surface;
#N canvas 675 336 450 300 divider 0;
#X obj 33 103 counter;
#X msg 73 42 0;
#X obj 73 16 loadbang;
#X obj 33 135 sel 15;
#X obj 33 40 inlet;
#X obj 33 166 outlet;
#X obj 33 62 t b;
#X obj 101 101 cnv 15 248 33 empty empty empty 20 12 0 12 -118201 -66577
0;
#X obj 104 116 hradio 15 1 0 16 \$0-countDivision empty divide_by_1_through_16
0 -8 0 10 -262144 -1 -1 6;
#X connect 0 0 3 0;
#X connect 1 0 0 1;
#X connect 1 0 0 2;
#X connect 1 0 0 3;
#X connect 1 0 0 4;
#X connect 1 0 8 0;
#X connect 2 0 1 0;
#X connect 3 0 5 0;
#X connect 4 0 6 0;
#X connect 6 0 0 0;
#X connect 8 0 0 4;
#X connect 8 0 3 1;
#X coords 0 -1 1 1 250 35 1 100 100;
#X restore 28 -299 pd divider;
#N canvas 43 22 1264 709 route1 0;
#X obj -74 216 * 0.001;
#X obj -74 193 counter;
#X msg 43 175 1000;
#X msg -14 175 0;
#X msg 15 175 0;
#X obj -74 309 s translateX_UI;
#X obj -19 328 s translateY_UI;
#X obj 35 347 s translateZ_UI;
#X obj 253 309 s rotateZ2_UI;
#X obj 198 347 s rotateZ1_UI;
#X obj 90 309 s rotateX_UI;
#X obj 144 328 s rotateY_UI;
#X obj -41 251 sel 0;
#X msg -41 270 1;
#X msg -14 270 0;
#X obj -74 290 spigot;
#X msg 14 270 1;
#X msg 41 270 0;
#X obj -19 290 spigot;
#X msg 68 270 1;
#X msg 95 270 0;
#X obj 35 290 spigot;
#X msg 123 270 1;
#X msg 150 270 0;
#X obj 90 290 spigot;
#X msg 177 270 1;
#X msg 204 270 0;
#X obj 144 290 spigot;
#X msg 231 270 1;
#X msg 258 270 0;
#X obj 198 290 spigot;
#X msg 286 270 1;
#X msg 313 270 0;
#X obj 253 290 spigot;
#X obj 14 251 sel 1;
#X obj 68 251 sel 2;
#X obj 123 251 sel 3;
#X obj 177 251 sel 4;
#X obj 231 251 sel 5;
#X obj 286 251 sel 6;
#X obj -74 135 inlet;
#X obj 1 142 loadbang;
#X obj 101 101 cnv 15 248 33 empty empty empty 20 12 0 14 -233017 -66577
0;
#X obj 243 117 hradio 15 1 0 7 empty empty routing 0 -6 0 10 -262144
-1 -1 0;
#X obj 103 115 hradio 15 1 0 3 empty empty counter_direction 0 -6 0
10 -262144 -1 -1 0;
#X floatatom 167 115 5 0 0 0 - - -;
#X obj 150 115 bng 15 250 50 0 empty empty empty 17 7 0 10 -262144
-1 -1;
#X obj 201 116 tgl 15 0 empty empty empty 17 7 0 10 -262144 -1 -1 0
1;
#X obj -74 163 spigot;
#X obj 222 102 bng 15 250 50 0 empty empty empty 17 7 0 10 -262144
-1 -1;
#X obj 222 118 bng 15 250 50 0 empty empty empty 17 7 0 10 -262144
-1 -1;
#X msg 151 157 inc;
#X msg 187 157 dec;
#X connect 0 0 15 0;
#X connect 0 0 18 0;
#X connect 0 0 21 0;
#X connect 0 0 24 0;
#X connect 0 0 27 0;
#X connect 0 0 30 0;
#X connect 0 0 33 0;
#X connect 1 0 0 0;
#X connect 1 0 45 0;
#X connect 2 0 1 4;
#X connect 3 0 1 2;
#X connect 4 0 1 3;
#X connect 12 0 13 0;
#X connect 12 1 14 0;
#X connect 13 0 15 1;
#X connect 14 0 15 1;
#X connect 15 0 5 0;
#X connect 16 0 18 1;
#X connect 17 0 18 1;
#X connect 18 0 6 0;
#X connect 19 0 21 1;
#X connect 20 0 21 1;
#X connect 21 0 7 0;
#X connect 22 0 24 1;
#X connect 23 0 24 1;
#X connect 24 0 10 0;
#X connect 25 0 27 1;
#X connect 26 0 27 1;
#X connect 27 0 11 0;
#X connect 28 0 30 1;
#X connect 29 0 30 1;
#X connect 30 0 9 0;
#X connect 31 0 33 1;
#X connect 32 0 33 1;
#X connect 33 0 8 0;
#X connect 34 0 16 0;
#X connect 34 1 17 0;
#X connect 35 0 19 0;
#X connect 35 1 20 0;
#X connect 36 0 22 0;
#X connect 36 1 23 0;
#X connect 37 0 25 0;
#X connect 37 1 26 0;
#X connect 38 0 28 0;
#X connect 38 1 29 0;
#X connect 39 0 31 0;
#X connect 39 1 32 0;
#X connect 40 0 48 0;
#X connect 41 0 3 0;
#X connect 41 0 4 0;
#X connect 41 0 2 0;
#X connect 43 0 12 0;
#X connect 43 0 34 0;
#X connect 43 0 35 0;
#X connect 43 0 36 0;
#X connect 43 0 37 0;
#X connect 43 0 38 0;
#X connect 43 0 39 0;
#X connect 44 0 1 1;
#X connect 46 0 4 0;
#X connect 47 0 48 1;
#X connect 48 0 1 0;
#X connect 49 0 51 0;
#X connect 50 0 52 0;
#X connect 51 0 1 0;
#X connect 52 0 1 0;
#X coords 0 -1 1 1 250 35 1 100 100;
#X restore 28 -171 pd route1;
#N canvas 675 336 450 300 divider 0;
#X obj 33 103 counter;
#X msg 73 42 0;
#X obj 73 16 loadbang;
#X obj 33 135 sel 15;
#X obj 33 40 inlet;
#X obj 33 166 outlet;
#X obj 33 62 t b;
#X obj 101 101 cnv 15 248 33 empty empty empty 20 12 0 12 -118201 -66577
0;
#X obj 104 116 hradio 15 1 0 16 \$0-countDivision empty divide_by_1_through_16
0 -8 0 10 -262144 -1 -1 4;
#X connect 0 0 3 0;
#X connect 1 0 0 1;
#X connect 1 0 0 2;
#X connect 1 0 0 3;
#X connect 1 0 0 4;
#X connect 1 0 8 0;
#X connect 2 0 1 0;
#X connect 3 0 5 0;
#X connect 4 0 6 0;
#X connect 6 0 0 0;
#X connect 8 0 0 4;
#X connect 8 0 3 1;
#X coords 0 -1 1 1 250 35 1 100 100;
#X restore 28 -206 pd divider;
#N canvas 142 119 737 526 gemwin 0;
#X obj 66 186 gemwin;
#X obj -14 122 outlet;
#X obj -14 43 inlet;
#X obj -14 74 route create;
#X msg -14 103 set destroy;
#X msg 61 101 set create;
#X msg 117 145 0 \, destroy;
#X obj 167 49 key;
#X obj 193 49 gemkeyboard;
#X obj 167 73 sel 96;
#X floatatom 224 74 5 0 0 0 - - -;
#N canvas 107 24 450 300 esc 0;
#X obj 65 20 gemkeyboard;
#X obj 65 167 outlet;
#X obj 89 71 keyname;
#X obj 128 96 sel Escape;
#X obj 65 41 sel 53;
#X obj 189 47 sel Escape;
#X obj 150 22 gemkeyname;
#X connect 0 0 4 0;
#X connect 2 1 3 0;
#X connect 3 0 1 0;
#X connect 4 0 1 0;
#X connect 5 0 1 0;
#X connect 6 1 5 0;
#X restore 116 48 pd esc;
#X obj -3 200 gemhead;
#N canvas 398 178 450 300 lightsource 0;
#X obj 163 286 world_light;
#X obj 27 196 rotateXYZ 0 0 0;
#X msg 163 95 1;
#X obj 163 74 loadbang;
#X obj 87 177 inlet;
#X obj 123 177 inlet;
#X obj 27 100 inlet;
#X obj 227 26 inlet;
#X obj 331 96 t b;
#X obj 255 45 inlet;
#X obj 284 65 inlet;
#X obj 324 37 inlet;
#X obj 331 73 del;
#X obj 226 260 pack f f f;
#X obj 27 119 i;
#X obj 27 138 min 1;
#X obj 27 157 max 0;
#X text 2 76 render on/off 1/0;
#X text 87 157 rotation x y;
#X text 193 5 RGB balance and Overall Brightness (0-1);
#X obj 226 151 f 1;
#X obj 254 151 f 1;
#X obj 283 151 f 1;
#X obj 226 175 * 1;
#X obj 254 175 * 1;
#X obj 283 175 * 1;
#X obj 315 222 t b;
#X obj 27 177 gemhead 1;
#X connect 1 0 0 0;
#X connect 2 0 0 0;
#X connect 2 0 27 0;
#X connect 3 0 2 0;
#X connect 4 0 1 1;
#X connect 5 0 1 2;
#X connect 6 0 14 0;
#X connect 7 0 20 0;
#X connect 8 0 20 0;
#X connect 8 0 21 0;
#X connect 8 0 22 0;
#X connect 9 0 21 0;
#X connect 10 0 22 0;
#X connect 11 0 12 0;
#X connect 11 0 23 1;
#X connect 11 0 24 1;
#X connect 11 0 25 1;
#X connect 12 0 8 0;
#X connect 13 0 0 1;
#X connect 14 0 15 0;
#X connect 15 0 16 0;
#X connect 16 0 27 0;
#X connect 20 0 23 0;
#X connect 21 0 24 0;
#X connect 22 0 25 0;
#X connect 23 0 13 0;
#X connect 24 0 13 1;
#X connect 24 0 26 0;
#X connect 25 0 13 2;
#X connect 25 0 26 0;
#X connect 26 0 20 0;
#X connect 27 0 1 0;
#X restore 76 469 pd lightsource;
#X obj -3 220 s renderClock;
#X floatatom 89 292 5 0 0 0 - - -;
#X floatatom 104 321 5 0 0 0 - - -;
#X floatatom 125 399 5 0 0 0 - - -;
#X floatatom 164 399 5 0 0 0 - - -;
#X floatatom 202 399 5 0 0 0 - - -;
#X msg 77 411 1;
#X obj 77 432 tgl 15 0 empty empty empty 17 7 0 10 -262144 -1 -1 1
1;
#X obj 125 418 / 255;
#X obj 164 418 / 255;
#X obj 202 418 / 255;
#X obj 240 418 / 255;
#X obj 77 391 loadbang;
#N canvas 398 178 450 300 lightsource 0;
#X obj 163 286 world_light;
#X obj 27 196 rotateXYZ 0 0 0;
#X msg 163 95 1;
#X obj 163 74 loadbang;
#X obj 87 177 inlet;
#X obj 123 177 inlet;
#X obj 27 100 inlet;
#X obj 227 26 inlet;
#X obj 331 96 t b;
#X obj 255 45 inlet;
#X obj 284 65 inlet;
#X obj 324 37 inlet;
#X obj 331 73 del;
#X obj 226 260 pack f f f;
#X obj 27 119 i;
#X obj 27 138 min 1;
#X obj 27 157 max 0;
#X text 2 76 render on/off 1/0;
#X text 87 157 rotation x y;
#X text 193 5 RGB balance and Overall Brightness (0-1);
#X obj 226 151 f 1;
#X obj 254 151 f 1;
#X obj 283 151 f 1;
#X obj 226 175 * 1;
#X obj 254 175 * 1;
#X obj 283 175 * 1;
#X obj 315 222 t b;
#X obj 27 177 gemhead 1;
#X connect 1 0 0 0;
#X connect 2 0 0 0;
#X connect 2 0 27 0;
#X connect 3 0 2 0;
#X connect 4 0 1 1;
#X connect 5 0 1 2;
#X connect 6 0 14 0;
#X connect 7 0 20 0;
#X connect 8 0 20 0;
#X connect 8 0 21 0;
#X connect 8 0 22 0;
#X connect 9 0 21 0;
#X connect 10 0 22 0;
#X connect 11 0 12 0;
#X connect 11 0 23 1;
#X connect 11 0 24 1;
#X connect 11 0 25 1;
#X connect 12 0 8 0;
#X connect 13 0 0 1;
#X connect 14 0 15 0;
#X connect 15 0 16 0;
#X connect 16 0 27 0;
#X connect 20 0 23 0;
#X connect 21 0 24 0;
#X connect 22 0 25 0;
#X connect 23 0 13 0;
#X connect 24 0 13 1;
#X connect 24 0 26 0;
#X connect 25 0 13 2;
#X connect 25 0 26 0;
#X connect 26 0 20 0;
#X connect 27 0 1 0;
#X restore 416 487 pd lightsource;
#X floatatom 429 360 5 0 0 0 - - -;
#X floatatom 443 382 5 0 0 0 - - -;
#X floatatom 465 417 5 0 0 0 - - -;
#X floatatom 504 417 5 0 0 0 - - -;
#X floatatom 542 417 5 0 0 0 - - -;
#X msg 417 429 1;
#X obj 417 450 tgl 15 0 empty empty empty 17 7 0 10 -262144 -1 -1 1
1;
#X obj 465 436 / 255;
#X obj 504 436 / 255;
#X obj 542 436 / 255;
#X obj 580 436 / 255;
#X obj 417 409 loadbang;
#X obj 213 94 r renderClock;
#X msg 55 120 reset \, frame 30 \, dimen 2000 2000 \, lighting 1 \,
fullscreen 0 \, create \, 1;
#X obj 213 184 t b b b b b b b b b b b b;
#N canvas 450 179 450 256 randomizer 0;
#X obj 14 39 random 360;
#X obj 14 82 line 30;
#X obj 14 60 pack f 500;
#X obj 14 3 inlet;
#X obj 14 102 outlet;
#X obj 71 5 inlet;
#X connect 0 0 2 0;
#X connect 1 0 4 0;
#X connect 2 0 1 0;
#X connect 3 0 0 0;
#X connect 5 0 0 1;
#X restore 213 222 pd randomizer;
#N canvas 450 179 450 256 randomizer 0;
#X obj 14 39 random 360;
#X obj 14 82 line 30;
#X obj 14 60 pack f 500;
#X obj 14 3 inlet;
#X obj 14 102 outlet;
#X obj 71 5 inlet;
#X connect 0 0 2 0;
#X connect 1 0 4 0;
#X connect 2 0 1 0;
#X connect 3 0 0 0;
#X connect 5 0 0 1;
#X restore 226 244 pd randomizer;
#N canvas 450 179 450 256 randomizer 0;
#X obj 14 39 random 360;
#X obj 14 82 line 30;
#X obj 14 60 pack f 500;
#X obj 14 3 inlet;
#X obj 14 102 outlet;
#X obj 71 5 inlet;
#X connect 0 0 2 0;
#X connect 1 0 4 0;
#X connect 2 0 1 0;
#X connect 3 0 0 0;
#X connect 5 0 0 1;
#X restore 259 302 pd randomizer;
#N canvas 450 179 450 256 randomizer 0;
#X obj 14 39 random 360;
#X obj 14 82 line 30;
#X obj 14 60 pack f 500;
#X obj 14 3 inlet;
#X obj 14 102 outlet;
#X obj 71 5 inlet;
#X connect 0 0 2 0;
#X connect 1 0 4 0;
#X connect 2 0 1 0;
#X connect 3 0 0 0;
#X connect 5 0 0 1;
#X restore 273 324 pd randomizer;
#N canvas 450 179 450 256 randomizer 0;
#X obj 14 39 random 360;
#X obj 14 82 line 30;
#X obj 14 60 pack f 500;
#X obj 14 3 inlet;
#X obj 14 102 outlet;
#X obj 71 5 inlet;
#X connect 0 0 2 0;
#X connect 1 0 4 0;
#X connect 2 0 1 0;
#X connect 3 0 0 0;
#X connect 5 0 0 1;
#X restore 242 276 pd randomizer;
#N canvas 450 179 450 256 randomizer 0;
#X obj 14 39 random 360;
#X obj 14 82 line 30;
#X obj 14 60 pack f 500;
#X obj 14 3 inlet;
#X obj 14 102 outlet;
#X obj 71 5 inlet;
#X connect 0 0 2 0;
#X connect 1 0 4 0;
#X connect 2 0 1 0;
#X connect 3 0 0 0;
#X connect 5 0 0 1;
#X restore 464 245 pd randomizer;
#N canvas 450 179 450 256 randomizer 0;
#X obj 14 39 random 360;
#X obj 14 82 line 30;
#X obj 14 60 pack f 500;
#X obj 14 3 inlet;
#X obj 14 102 outlet;
#X obj 71 5 inlet;
#X connect 0 0 2 0;
#X connect 1 0 4 0;
#X connect 2 0 1 0;
#X connect 3 0 0 0;
#X connect 5 0 0 1;
#X restore 477 267 pd randomizer;
#N canvas 450 179 450 256 randomizer 0;
#X obj 14 39 random 360;
#X obj 14 82 line 30;
#X obj 14 60 pack f 500;
#X obj 14 3 inlet;
#X obj 14 102 outlet;
#X obj 71 5 inlet;
#X connect 0 0 2 0;
#X connect 1 0 4 0;
#X connect 2 0 1 0;
#X connect 3 0 0 0;
#X connect 5 0 0 1;
#X restore 510 325 pd randomizer;
#N canvas 450 179 450 256 randomizer 0;
#X obj 14 39 random 360;
#X obj 14 82 line 30;
#X obj 14 60 pack f 500;
#X obj 14 3 inlet;
#X obj 14 102 outlet;
#X obj 71 5 inlet;
#X connect 0 0 2 0;
#X connect 1 0 4 0;
#X connect 2 0 1 0;
#X connect 3 0 0 0;
#X connect 5 0 0 1;
#X restore 524 347 pd randomizer;
#N canvas 450 179 450 256 randomizer 0;
#X obj 14 39 random 360;
#X obj 14 82 line 30;
#X obj 14 60 pack f 500;
#X obj 14 3 inlet;
#X obj 14 102 outlet;
#X obj 71 5 inlet;
#X connect 0 0 2 0;
#X connect 1 0 4 0;
#X connect 2 0 1 0;
#X connect 3 0 0 0;
#X connect 5 0 0 1;
#X restore 493 299 pd randomizer;
#X msg 316 400 1;
#X obj 457 124 spigot;
#X obj 490 91 r \$0-randLight;
#X connect 2 0 3 0;
#X connect 3 0 4 0;
#X connect 3 0 41 0;
#X connect 3 1 5 0;
#X connect 3 1 6 0;
#X connect 4 0 1 0;
#X connect 5 0 1 0;
#X connect 6 0 0 0;
#X connect 7 0 9 0;
#X connect 7 0 10 0;
#X connect 8 0 9 0;
#X connect 9 0 4 0;
#X connect 9 0 41 0;
#X connect 11 0 6 0;
#X connect 11 0 5 0;
#X connect 12 0 14 0;
#X connect 15 0 13 1;
#X connect 16 0 13 2;
#X connect 17 0 22 0;
#X connect 18 0 23 0;
#X connect 19 0 24 0;
#X connect 20 0 21 0;
#X connect 21 0 13 0;
#X connect 22 0 13 3;
#X connect 23 0 13 4;
#X connect 24 0 13 5;
#X connect 25 0 13 6;
#X connect 26 0 20 0;
#X connect 28 0 27 1;
#X connect 29 0 27 2;
#X connect 30 0 35 0;
#X connect 31 0 36 0;
#X connect 32 0 37 0;
#X connect 33 0 34 0;
#X connect 34 0 27 0;
#X connect 35 0 27 3;
#X connect 36 0 27 4;
#X connect 37 0 27 5;
#X connect 38 0 27 6;
#X connect 39 0 33 0;
#X connect 40 0 54 0;
#X connect 41 0 0 0;
#X connect 42 0 43 0;
#X connect 42 1 44 0;
#X connect 42 2 47 0;
#X connect 42 3 45 0;
#X connect 42 4 46 0;
#X connect 42 6 48 0;
#X connect 42 7 49 0;
#X connect 42 8 52 0;
#X connect 42 9 50 0;
#X connect 42 10 51 0;
#X connect 43 0 15 0;
#X connect 44 0 16 0;
#X connect 45 0 18 0;
#X connect 46 0 19 0;
#X connect 47 0 17 0;
#X connect 48 0 28 0;
#X connect 49 0 29 0;
#X connect 50 0 31 0;
#X connect 51 0 32 0;
#X connect 52 0 30 0;
#X connect 53 0 27 6;
#X connect 53 0 13 6;
#X connect 54 0 42 0;
#X connect 55 0 54 1;
#X restore -69 -283 pd gemwin;
#X msg -69 -302 destroy;
#X obj 64 -21 hsl 200 15 -1 1 0 0 rotateX rotateX_UI rotateX 0 8 0
10 -262144 -1 -1 10247 1;
#X obj 64 -4 hsl 200 15 -1 1 0 0 rotateY rotateY_UI rotateY 0 8 0 10
-262144 -1 -1 10402 1;
#X obj 64 13 hsl 200 15 0 1 0 0 rotateZ1 rotateZ1_UI rotateZ1 0 8 0
10 -262144 -1 -1 10268 1;
#X obj 64 -55 hsl 200 15 -1 1 0 0 translateY translateY_UI translateY
0 8 0 10 -262144 -1 -1 9600 1;
#X obj 59 -39 hsl 200 15 -1 1 0 0 translateZ translateZ_UI translateZ
0 8 0 10 -262144 -1 -1 19900 1;
#X msg 32 -72 0;
#X msg 32 -21 0;
#X obj 423 -81 bng 15 250 50 0 \$0-randForm empty randomize_mesh 0
-6 0 8 -262144 -1 -1;
#X obj 513 2 hsl 200 15 0 10 0 0 zscale zscale_UI zscale 0 8 0 10 -262144
-1 -1 0 1;
#X obj 513 -15 hsl 200 15 0 25 0 0 yscale yscale_UI yscale 0 8 0 10
-262144 -1 -1 3798 1;
#X obj 512 -31 hsl 200 15 0 25 0 0 xscale xscale_UI xscale 0 8 0 10
-262144 -1 -1 13956 1;
#X obj 64 30 hsl 200 15 0 1 0 0 rotateZ2 rotateZ2_UI rotateZ2 0 8 0
10 -262144 -1 -1 2070 1;
#X msg 32 13 0;
#X obj 510 -49 hradio 15 1 0 12 \$0-renderStyle empty \$0-renderStyle
0 -8 0 10 -262144 -1 -1 10;
#X obj 64 47 hsl 200 15 0 10000 0 0 speed speed_UI speed 0 8 0 10 -262144
-1 -1 2100 1;
#X obj 28 -316 r renderClock;
#X obj 28 -223 r renderClock;
#N canvas 675 336 450 300 divider 0;
#X obj 33 103 counter;
#X msg 73 42 0;
#X obj 73 16 loadbang;
#X obj 33 135 sel 15;
#X obj 33 40 inlet;
#X obj 33 166 outlet;
#X obj 33 62 t b;
#X obj 101 101 cnv 15 248 33 empty empty empty 20 12 0 12 -118201 -66577
0;
#X obj 104 116 hradio 15 1 0 16 \$0-countDivision empty divide_by_1_through_16
0 -8 0 10 -262144 -1 -1 0;
#X connect 0 0 3 0;
#X connect 1 0 0 1;
#X connect 1 0 0 2;
#X connect 1 0 0 3;
#X connect 1 0 0 4;
#X connect 1 0 8 0;
#X connect 2 0 1 0;
#X connect 3 0 5 0;
#X connect 4 0 6 0;
#X connect 6 0 0 0;
#X connect 8 0 0 4;
#X connect 8 0 3 1;
#X coords 0 -1 1 1 250 35 1 100 100;
#X restore 280 -299 pd divider;
#N canvas 675 336 450 300 divider 0;
#X obj 33 103 counter;
#X msg 73 42 0;
#X obj 73 16 loadbang;
#X obj 33 135 sel 15;
#X obj 33 40 inlet;
#X obj 33 166 outlet;
#X obj 33 62 t b;
#X obj 101 101 cnv 15 248 33 empty empty empty 20 12 0 12 -118201 -66577
0;
#X obj 104 116 hradio 15 1 0 16 \$0-countDivision empty divide_by_1_through_16
0 -8 0 10 -262144 -1 -1 0;
#X connect 0 0 3 0;
#X connect 1 0 0 1;
#X connect 1 0 0 2;
#X connect 1 0 0 3;
#X connect 1 0 0 4;
#X connect 1 0 8 0;
#X connect 2 0 1 0;
#X connect 3 0 5 0;
#X connect 4 0 6 0;
#X connect 6 0 0 0;
#X connect 8 0 0 4;
#X connect 8 0 3 1;
#X coords 0 -1 1 1 250 35 1 100 100;
#X restore 280 -206 pd divider;
#X obj 280 -316 r renderClock;
#X obj 280 -223 r renderClock;
#X obj 302 13 bng 15 250 50 0 randomRotateZ1 empty randomRotateZ1 17
7 0 10 -262144 -1 -1;
#X obj 302 30 bng 15 250 50 0 randomRotateZ2 empty randomRotateZ2 17
7 0 10 -262144 -1 -1;
#X obj 284 22 bng 15 250 50 0 empty empty empty 17 7 0 10 -262144 -1
-1;
#X msg 31 48 0;
#N canvas 43 22 1264 709 route1 0;
#X obj -74 216 * 0.001;
#X obj -74 193 counter;
#X msg 43 175 1000;
#X msg -14 175 0;
#X msg 15 175 0;
#X obj -74 309 s translateX_UI;
#X obj -19 328 s translateY_UI;
#X obj 35 347 s translateZ_UI;
#X obj 253 309 s rotateZ2_UI;
#X obj 198 347 s rotateZ1_UI;
#X obj 90 309 s rotateX_UI;
#X obj 144 328 s rotateY_UI;
#X obj -41 251 sel 0;
#X msg -41 270 1;
#X msg -14 270 0;
#X obj -74 290 spigot;
#X msg 14 270 1;
#X msg 41 270 0;
#X obj -19 290 spigot;
#X msg 68 270 1;
#X msg 95 270 0;
#X obj 35 290 spigot;
#X msg 123 270 1;
#X msg 150 270 0;
#X obj 90 290 spigot;
#X msg 177 270 1;
#X msg 204 270 0;
#X obj 144 290 spigot;
#X msg 231 270 1;
#X msg 258 270 0;
#X obj 198 290 spigot;
#X msg 286 270 1;
#X msg 313 270 0;
#X obj 253 290 spigot;
#X obj 14 251 sel 1;
#X obj 68 251 sel 2;
#X obj 123 251 sel 3;
#X obj 177 251 sel 4;
#X obj 231 251 sel 5;
#X obj 286 251 sel 6;
#X obj -74 135 inlet;
#X obj 1 142 loadbang;
#X obj 101 101 cnv 15 248 33 empty empty empty 20 12 0 14 -233017 -66577
0;
#X obj 243 117 hradio 15 1 0 7 empty empty routing 0 -6 0 10 -262144
-1 -1 3;
#X obj 103 115 hradio 15 1 0 3 empty empty counter_direction 0 -6 0
10 -262144 -1 -1 1;
#X floatatom 167 115 5 0 0 0 - - -;
#X obj 150 115 bng 15 250 50 0 empty empty empty 17 7 0 10 -262144
-1 -1;
#X obj 201 116 tgl 15 0 empty empty empty 17 7 0 10 -262144 -1 -1 0
1;
#X obj -74 163 spigot;
#X obj 222 102 bng 15 250 50 0 empty empty empty 17 7 0 10 -262144
-1 -1;
#X obj 222 118 bng 15 250 50 0 empty empty empty 17 7 0 10 -262144
-1 -1;
#X msg 151 157 inc;
#X msg 187 157 dec;
#X connect 0 0 15 0;
#X connect 0 0 18 0;
#X connect 0 0 21 0;
#X connect 0 0 24 0;
#X connect 0 0 27 0;
#X connect 0 0 30 0;
#X connect 0 0 33 0;
#X connect 1 0 0 0;
#X connect 1 0 45 0;
#X connect 2 0 1 4;
#X connect 3 0 1 2;
#X connect 4 0 1 3;
#X connect 12 0 13 0;
#X connect 12 1 14 0;
#X connect 13 0 15 1;
#X connect 14 0 15 1;
#X connect 15 0 5 0;
#X connect 16 0 18 1;
#X connect 17 0 18 1;
#X connect 18 0 6 0;
#X connect 19 0 21 1;
#X connect 20 0 21 1;
#X connect 21 0 7 0;
#X connect 22 0 24 1;
#X connect 23 0 24 1;
#X connect 24 0 10 0;
#X connect 25 0 27 1;
#X connect 26 0 27 1;
#X connect 27 0 11 0;
#X connect 28 0 30 1;
#X connect 29 0 30 1;
#X connect 30 0 9 0;
#X connect 31 0 33 1;
#X connect 32 0 33 1;
#X connect 33 0 8 0;
#X connect 34 0 16 0;
#X connect 34 1 17 0;
#X connect 35 0 19 0;
#X connect 35 1 20 0;
#X connect 36 0 22 0;
#X connect 36 1 23 0;
#X connect 37 0 25 0;
#X connect 37 1 26 0;
#X connect 38 0 28 0;
#X connect 38 1 29 0;
#X connect 39 0 31 0;
#X connect 39 1 32 0;
#X connect 40 0 48 0;
#X connect 41 0 3 0;
#X connect 41 0 4 0;
#X connect 41 0 2 0;
#X connect 43 0 12 0;
#X connect 43 0 34 0;
#X connect 43 0 35 0;
#X connect 43 0 36 0;
#X connect 43 0 37 0;
#X connect 43 0 38 0;
#X connect 43 0 39 0;
#X connect 44 0 1 1;
#X connect 46 0 4 0;
#X connect 47 0 48 1;
#X connect 48 0 1 0;
#X connect 49 0 51 0;
#X connect 50 0 52 0;
#X connect 51 0 1 0;
#X connect 52 0 1 0;
#X coords 0 -1 1 1 250 35 1 100 100;
#X restore 28 -264 pd route1;
#N canvas 43 22 1264 709 route1 0;
#X obj -74 216 * 0.001;
#X obj -74 193 counter;
#X msg 43 175 1000;
#X msg -14 175 0;
#X msg 15 175 0;
#X obj -74 309 s translateX_UI;
#X obj -19 328 s translateY_UI;
#X obj 35 347 s translateZ_UI;
#X obj 253 309 s rotateZ2_UI;
#X obj 198 347 s rotateZ1_UI;
#X obj 90 309 s rotateX_UI;
#X obj 144 328 s rotateY_UI;
#X obj -41 251 sel 0;
#X msg -41 270 1;
#X msg -14 270 0;
#X obj -74 290 spigot;
#X msg 14 270 1;
#X msg 41 270 0;
#X obj -19 290 spigot;
#X msg 68 270 1;
#X msg 95 270 0;
#X obj 35 290 spigot;
#X msg 123 270 1;
#X msg 150 270 0;
#X obj 90 290 spigot;
#X msg 177 270 1;
#X msg 204 270 0;
#X obj 144 290 spigot;
#X msg 231 270 1;
#X msg 258 270 0;
#X obj 198 290 spigot;
#X msg 286 270 1;
#X msg 313 270 0;
#X obj 253 290 spigot;
#X obj 14 251 sel 1;
#X obj 68 251 sel 2;
#X obj 123 251 sel 3;
#X obj 177 251 sel 4;
#X obj 231 251 sel 5;
#X obj 286 251 sel 6;
#X obj -74 135 inlet;
#X obj 1 142 loadbang;
#X obj 101 101 cnv 15 248 33 empty empty empty 20 12 0 14 -233017 -66577
0;
#X obj 243 117 hradio 15 1 0 7 empty empty routing 0 -6 0 10 -262144
-1 -1 0;
#X obj 103 115 hradio 15 1 0 3 empty empty counter_direction 0 -6 0
10 -262144 -1 -1 0;
#X floatatom 167 115 5 0 0 0 - - -;
#X obj 150 115 bng 15 250 50 0 empty empty empty 17 7 0 10 -262144
-1 -1;
#X obj 201 116 tgl 15 0 empty empty empty 17 7 0 10 -262144 -1 -1 0
1;
#X obj -74 163 spigot;
#X obj 222 102 bng 15 250 50 0 empty empty empty 17 7 0 10 -262144
-1 -1;
#X obj 222 118 bng 15 250 50 0 empty empty empty 17 7 0 10 -262144
-1 -1;
#X msg 151 157 inc;
#X msg 187 157 dec;
#X connect 0 0 15 0;
#X connect 0 0 18 0;
#X connect 0 0 21 0;
#X connect 0 0 24 0;
#X connect 0 0 27 0;
#X connect 0 0 30 0;
#X connect 0 0 33 0;
#X connect 1 0 0 0;
#X connect 1 0 45 0;
#X connect 2 0 1 4;
#X connect 3 0 1 2;
#X connect 4 0 1 3;
#X connect 12 0 13 0;
#X connect 12 1 14 0;
#X connect 13 0 15 1;
#X connect 14 0 15 1;
#X connect 15 0 5 0;
#X connect 16 0 18 1;
#X connect 17 0 18 1;
#X connect 18 0 6 0;
#X connect 19 0 21 1;
#X connect 20 0 21 1;
#X connect 21 0 7 0;
#X connect 22 0 24 1;
#X connect 23 0 24 1;
#X connect 24 0 10 0;
#X connect 25 0 27 1;
#X connect 26 0 27 1;
#X connect 27 0 11 0;
#X connect 28 0 30 1;
#X connect 29 0 30 1;
#X connect 30 0 9 0;
#X connect 31 0 33 1;
#X connect 32 0 33 1;
#X connect 33 0 8 0;
#X connect 34 0 16 0;
#X connect 34 1 17 0;
#X connect 35 0 19 0;
#X connect 35 1 20 0;
#X connect 36 0 22 0;
#X connect 36 1 23 0;
#X connect 37 0 25 0;
#X connect 37 1 26 0;
#X connect 38 0 28 0;
#X connect 38 1 29 0;
#X connect 39 0 31 0;
#X connect 39 1 32 0;
#X connect 40 0 48 0;
#X connect 41 0 3 0;
#X connect 41 0 4 0;
#X connect 41 0 2 0;
#X connect 43 0 12 0;
#X connect 43 0 34 0;
#X connect 43 0 35 0;
#X connect 43 0 36 0;
#X connect 43 0 37 0;
#X connect 43 0 38 0;
#X connect 43 0 39 0;
#X connect 44 0 1 1;
#X connect 46 0 4 0;
#X connect 47 0 48 1;
#X connect 48 0 1 0;
#X connect 49 0 51 0;
#X connect 50 0 52 0;
#X connect 51 0 1 0;
#X connect 52 0 1 0;
#X coords 0 -1 1 1 250 35 1 100 100;
#X restore 280 -264 pd route1;
#N canvas 43 22 1264 709 route1 0;
#X obj -74 216 * 0.001;
#X obj -74 193 counter;
#X msg 43 175 1000;
#X msg -14 175 0;
#X msg 15 175 0;
#X obj -74 309 s translateX_UI;
#X obj -19 328 s translateY_UI;
#X obj 35 347 s translateZ_UI;
#X obj 253 309 s rotateZ2_UI;
#X obj 198 347 s rotateZ1_UI;
#X obj 90 309 s rotateX_UI;
#X obj 144 328 s rotateY_UI;
#X obj -41 251 sel 0;
#X msg -41 270 1;
#X msg -14 270 0;
#X obj -74 290 spigot;
#X msg 14 270 1;
#X msg 41 270 0;
#X obj -19 290 spigot;
#X msg 68 270 1;
#X msg 95 270 0;
#X obj 35 290 spigot;
#X msg 123 270 1;
#X msg 150 270 0;
#X obj 90 290 spigot;
#X msg 177 270 1;
#X msg 204 270 0;
#X obj 144 290 spigot;
#X msg 231 270 1;
#X msg 258 270 0;
#X obj 198 290 spigot;
#X msg 286 270 1;
#X msg 313 270 0;
#X obj 253 290 spigot;
#X obj 14 251 sel 1;
#X obj 68 251 sel 2;
#X obj 123 251 sel 3;
#X obj 177 251 sel 4;
#X obj 231 251 sel 5;
#X obj 286 251 sel 6;
#X obj -74 135 inlet;
#X obj 1 142 loadbang;
#X obj 101 101 cnv 15 248 33 empty empty empty 20 12 0 14 -233017 -66577
0;
#X obj 243 117 hradio 15 1 0 7 empty empty routing 0 -6 0 10 -262144
-1 -1 0;
#X obj 103 115 hradio 15 1 0 3 empty empty counter_direction 0 -6 0
10 -262144 -1 -1 0;
#X floatatom 167 115 5 0 0 0 - - -;
#X obj 150 115 bng 15 250 50 0 empty empty empty 17 7 0 10 -262144
-1 -1;
#X obj 201 116 tgl 15 0 empty empty empty 17 7 0 10 -262144 -1 -1 0
1;
#X obj -74 163 spigot;
#X obj 222 102 bng 15 250 50 0 empty empty empty 17 7 0 10 -262144
-1 -1;
#X obj 222 118 bng 15 250 50 0 empty empty empty 17 7 0 10 -262144
-1 -1;
#X msg 151 157 inc;
#X msg 187 157 dec;
#X connect 0 0 15 0;
#X connect 0 0 18 0;
#X connect 0 0 21 0;
#X connect 0 0 24 0;
#X connect 0 0 27 0;
#X connect 0 0 30 0;
#X connect 0 0 33 0;
#X connect 1 0 0 0;
#X connect 1 0 45 0;
#X connect 2 0 1 4;
#X connect 3 0 1 2;
#X connect 4 0 1 3;
#X connect 12 0 13 0;
#X connect 12 1 14 0;
#X connect 13 0 15 1;
#X connect 14 0 15 1;
#X connect 15 0 5 0;
#X connect 16 0 18 1;
#X connect 17 0 18 1;
#X connect 18 0 6 0;
#X connect 19 0 21 1;
#X connect 20 0 21 1;
#X connect 21 0 7 0;
#X connect 22 0 24 1;
#X connect 23 0 24 1;
#X connect 24 0 10 0;
#X connect 25 0 27 1;
#X connect 26 0 27 1;
#X connect 27 0 11 0;
#X connect 28 0 30 1;
#X connect 29 0 30 1;
#X connect 30 0 9 0;
#X connect 31 0 33 1;
#X connect 32 0 33 1;
#X connect 33 0 8 0;
#X connect 34 0 16 0;
#X connect 34 1 17 0;
#X connect 35 0 19 0;
#X connect 35 1 20 0;
#X connect 36 0 22 0;
#X connect 36 1 23 0;
#X connect 37 0 25 0;
#X connect 37 1 26 0;
#X connect 38 0 28 0;
#X connect 38 1 29 0;
#X connect 39 0 31 0;
#X connect 39 1 32 0;
#X connect 40 0 48 0;
#X connect 41 0 3 0;
#X connect 41 0 4 0;
#X connect 41 0 2 0;
#X connect 43 0 12 0;
#X connect 43 0 34 0;
#X connect 43 0 35 0;
#X connect 43 0 36 0;
#X connect 43 0 37 0;
#X connect 43 0 38 0;
#X connect 43 0 39 0;
#X connect 44 0 1 1;
#X connect 46 0 4 0;
#X connect 47 0 48 1;
#X connect 48 0 1 0;
#X connect 49 0 51 0;
#X connect 50 0 52 0;
#X connect 51 0 1 0;
#X connect 52 0 1 0;
#X coords 0 -1 1 1 250 35 1 100 100;
#X restore 280 -171 pd route1;
#X obj 302 -21 bng 15 250 50 0 randomRotateX empty randomRotateX 17
7 0 10 -262144 -1 -1;
#X obj 302 -4 bng 15 250 50 0 randomRotateY empty randomRotateY 17
7 0 10 -262144 -1 -1;
#X obj 284 -12 bng 15 250 50 0 empty empty empty 17 7 0 10 -262144
-1 -1;
#X obj 269 5 bng 15 250 50 0 empty empty empty 17 7 0 10 -262144 -1
-1;
#N canvas 0 22 1350 709 randomizers 0;
#X obj -95 -14 * 0.0001;
#X obj 108 -11 * 0.001;
#X obj 108 -30 random 1000;
#X obj 108 8 s rotateZ1_UI;
#X obj 108 -49 r randomRotateZ1;
#X obj 210 -10 * 0.001;
#X obj 210 -29 random 1000;
#X obj 210 -48 r randomRotateZ2;
#X obj 210 9 s rotateZ2_UI;
#X obj -95 -33 random 1000;
#X obj 7 -32 random 1000;
#X obj -95 -52 r randomRotateX;
#X obj 7 -51 r randomRotateY;
#X obj 7 6 s rotateY_UI;
#X obj -95 5 s rotateX_UI;
#X obj 7 -13 * 0.0001;
#X obj 113 69 random 1000;
#X obj -90 66 random 1000;
#X obj 12 67 random 1000;
#X obj -90 47 r randomScaleX;
#X obj 12 48 r randomScaleY;
#X obj 113 50 r randomScaleZ;
#X obj 113 107 s zscale_UI;
#X obj 12 105 s yscale_UI;
#X obj -90 104 s xscale_UI;
#X obj 113 88 * 0.01;
#X obj 12 86 * 0.01;
#X obj -90 85 * 0.01;
#X connect 0 0 14 0;
#X connect 1 0 3 0;
#X connect 2 0 1 0;
#X connect 4 0 2 0;
#X connect 5 0 8 0;
#X connect 6 0 5 0;
#X connect 7 0 6 0;
#X connect 9 0 0 0;
#X connect 10 0 15 0;
#X connect 11 0 9 0;
#X connect 12 0 10 0;
#X connect 15 0 13 0;
#X connect 16 0 25 0;
#X connect 17 0 27 0;
#X connect 18 0 26 0;
#X connect 19 0 17 0;
#X connect 20 0 18 0;
#X connect 21 0 16 0;
#X connect 25 0 22 0;
#X connect 26 0 23 0;
#X connect 27 0 24 0;
#X restore -136 -150 pd randomizers;
#X msg -3 48 1000;
#X msg -38 48 5000;
#X obj 32 -91 loadbang;
#X obj 453 2 bng 15 250 50 0 randomScaleZ empty zscale 17 7 0 10 -262144
-1 -1;
#X obj 453 -32 bng 15 250 50 0 randomScaleX empty xscale 17 7 0 10
-262144 -1 -1;
#X obj 453 -15 bng 15 250 50 0 randomScaleY empty yscale 17 7 0 10
-262144 -1 -1;
#X obj 389 -64 bng 15 250 50 0 empty empty empty 17 7 0 10 -262144
-1 -1;
#X obj 372 -64 bng 15 250 50 0 empty empty empty 17 7 0 10 -262144
-1 -1;
#X msg 422 1 0;
#X obj 406 -64 bng 15 250 50 0 empty empty empty 17 7 0 10 -262144
-1 -1;
#X obj 423 -64 bng 15 250 50 0 empty empty empty 17 7 0 10 -262144
-1 -1;
#X obj 440 -64 bng 15 250 50 0 empty empty empty 17 7 0 10 -262144
-1 -1;
#X obj 64 -72 hsl 200 15 -1 1 0 0 translateX translateX_UI translateX
0 8 0 10 -262144 -1 -1 5300 1;
#X obj -132 -248 tgl 15 0 \$0-randLight empty Randomize_Light_Source
17 7 0 10 -262144 -1 -1 0 1;
#X obj -132 -230 tgl 15 0 \$0-randColor empty Randomize_Curve_Color
17 7 0 10 -262144 -1 -1 1 1;
#X connect 1 0 31 0;
#X connect 3 0 2 0;
#X connect 4 0 5 0;
#X connect 5 0 4 0;
#X connect 11 0 9 0;
#X connect 11 0 10 0;
#X connect 11 0 51 0;
#X connect 12 0 6 0;
#X connect 12 0 7 0;
#X connect 18 0 8 0;
#X connect 18 0 17 0;
#X connect 21 0 1 0;
#X connect 22 0 3 0;
#X connect 23 0 32 0;
#X connect 24 0 33 0;
#X connect 25 0 23 0;
#X connect 26 0 24 0;
#X connect 29 0 27 0;
#X connect 29 0 28 0;
#X connect 30 0 20 0;
#X connect 36 0 34 0;
#X connect 36 0 35 0;
#X connect 37 0 36 0;
#X connect 37 0 29 0;
#X connect 39 0 20 0;
#X connect 40 0 20 0;
#X connect 41 0 11 0;
#X connect 41 0 12 0;
#X connect 41 0 18 0;
#X connect 41 0 40 0;
#X connect 45 0 43 0;
#X connect 45 0 44 0;
#X connect 45 0 42 0;
#X connect 46 0 13 0;
#X connect 46 0 45 0;
#X connect 47 0 14 0;
#X connect 48 0 13 0;
#X connect 48 0 43 0;
#X connect 48 0 44 0;
#X connect 49 0 47 0;
#X connect 49 0 48 0;
#X connect 50 0 43 0;
#X connect 50 0 44 0;
#X coords 0 709 1 708 85 60 0;
