#N canvas 0 0 1024 692 10;
#X obj 185 448 mrpeach/binfile;
#X obj 184 -36 random 255;
#X floatatom 184 -16 5 0 0 0 - - -;
#X obj 183 -56 metro 2;
#X obj 254 -36 random 255;
#X floatatom 254 -16 5 0 0 0 - - -;
#X obj 253 -56 metro 2;
#X obj 183 -136 tgl 30 0 empty empty empty 17 7 0 10 -4034 -1 -1 0
1;
#X text 220 -133 add random data;
#X obj 330 66 bng 30 250 50 0 empty empty empty 17 7 0 10 -258113 -1
-1;
#X msg 264 65 215 217;
#X text 366 70 write the jpg file;
#X obj 264 25 bng 30 250 50 0 empty empty empty 17 7 0 10 -260097 -1
-1;
#X text 300 29 end the jpg file;
#X obj 344 205 bng 30 250 50 0 empty empty empty 17 7 0 10 -257985
-1 -1;
#X msg 344 245 clear;
#X text 380 209 start again;
#X floatatom 352 299 5 0 0 0 - - -;
#X symbolatom 294 268 10 0 0 0 - - -;
#X obj 499 -80 soundfiler;
#X obj 515 -25 table jpg_table;
#X msg 479 -166 read -resize samples/s2.wav jpg_table;
#X obj 495 10 arraysize jpg_table;
#X floatatom 496 41 0 0 0 0 - - -;
#X obj 485 -56 bng 15 250 50 0 empty empty empty 17 7 0 10 -262144
-1 -1;
#X obj 537 203 tabread jpg_table;
#X obj 537 237 + 1;
#X obj 539 260 / 2;
#X obj 538 282 * 255;
#X obj 527 130 f;
#X obj 558 129 + 1;
#X obj 524 93 until;
#X obj 307 102 time;
#X obj 298 153 pack f f f f;
#X obj 497 62 t f b;
#X msg 584 99 0;
#X msg 305 183 write \$1\$2\$3\$4.jpg;
#X obj 538 302 i;
#X obj 670 198 mrpeach/binfile;
#X obj 646 52 openpanel;
#X obj 642 -80 bng 15 250 50 0 empty empty read_any_file_into_buffer
17 7 0 10 -4032 -258113 -1;
#X msg 646 97 read \$1;
#X obj 741 40 bng 30 250 50 0 empty empty empty 17 7 0 10 -257985 -1
-1;
#X msg 741 80 clear;
#X msg 738 138 info;
#X obj 719 237 print;
#X obj 648 287 t f b;
#X obj 681 324 random 10;
#X obj 680 357 - 5;
#X obj 662 385 +;
#X floatatom 799 107 0 0 0 0 - - -;
#X obj 810 146 until;
#N canvas 0 0 964 581 jpg-header 0;
#X obj -153 527 outlet;
#X msg 260 107 255 216 255 219 0 132 0 3 2 2 3 2 2 3 3 3 3 4 3 3 4
5 8 5 5 4 4 5 10 7 7 6 8 12 10 12 12 11 10 11 11 13 14 18 16 13 14
17 14 11 11 16 22 16 17 19 20 21 21 21 12 15 23 24 22 20 24 18 20 21
20 1 3 4 4 5 4 5 9 5 5 9 20 13 11 13 20 20 20 20 20 20 20 20 20 20
20 20 20 20 20 20 20 20 20 20 20 20 20 20 20 20 20 20 20 20 20 20 20
20 20 20 20 20 20 20 20 20 20 20 20 20 20 20 20 20 255 192 0 17 8 1
224 2 128 3 1 17 0 2 17 1 3 17 1 255 196 1 162 0 0 1 5 1 1 1 1 1 1
0 0 0 0 0 0 0 0 1 2 3 4 5 6 7 8 9 10 11 16 0 2 1 3 3 2 4 3 5 5 4 4
0 0 1 125 1 2 3 0 4 17 5 18 33 49 65 6 19 81 97 7 34 113 20 50 129
145 161 8 35 66 177 193 21 82 209 240 36 51 98 114 130 9 10 22 23 24
25 26 37 38 39 40 41 42 52 53 54 55 56 57 58 67 68 69 70 71 72 73 74
83 84 85 86 87 88 89 90 99 100 101 102 103 104 105 106 115 116 117
118 119 120 121 122 131 132 133 134 135 136 137 138 146 147 148 149
150 151 152 153 154 162 163 164 165 166 167 168 169 170 178 179 180
181 182 183 184 185 186 194 195 196 197 198 199 200 201 202 210 211
212 213 214 215 216 217 218 225 226 227 228 229 230 231 232 233 234
241 242 243 244 245 246 247 248 249 250 1 0 3 1 1 1 1 1 1 1 1 1 0 0
0 0 0 0 1 2 3 4 5 6 7 8 9 10 11 17 0 2 1 2 4 4 3 4 7 5 4 4 0 1 2 119
0 1 2 3 17 4 5 33 49 6 18 65 81 7 97 113 19 34 50 129 8 20 66 145 161
177 193 9 35 51 82 240 21 98 114 209 10 22 36 52 225 37 241 23 24 25
26 38 39 40 41 42 53 54 55 56 57 58 67 68 69 70 71 72 73 74 83 84 85
86 87 88 89 90 99 100 101 102 103 104 105 106 115 116 117 118 119 120
121 122 130 131 132 133 134 135 136 137 138 146 147 148 149 150 151
152 153 154 162 163 164 165 166 167 168 169 170 178 179 180 181 182
183 184 185 186 194 195 196 197 198 199 200 201 202 210 211 212 213
214 215 216 217 218 226 227 228 229 230 231 232 233 234 242 243 244
245 246 247 248 249 250 255 218 0 12 3 1 0 2 17 3 17 0 63;
#X msg -154 99 255 216 255 219 0 132 0 3 2 2 3 2 2 3 3 3 3 4 3 3 4
5 8 5 5 4 4 5 10 7 7 6 8 12 10 12 12 11 10 11 11 13 14 18 16 13 14
17 14 11 11 16 22 16 17 19 20 21 21 21 12 15 23 24 22 20 24 18 20 21
20 1 3 4 4 5 4 5 9 5 5 9 20 13 11 13 20 20 20 20 20 20 20 20 20 20
20 20 20 20 20 20 20 20 30 20 20 20 20 20 20 20 20 20 20 20 20 20 20
2 20 20 20 20 20 20 20 20 20 20 20 20 20 20 20 20 255 192 0 17 8 1
224 2 128 3 1 17 0 2 17 1 3 17 1 255 196 1 162 0 0 1 5 1 1 1 1 1 1
0 0 0 0 0 0 0 0 1 2 3 4 5 6 7 8 9 10 11 16 0 2 1 3 3 2 4 3 5 5 4 4
0 0 1 125 1 2 3 0 4 17 5 18 33 49 65 6 19 81 97 7 34 113 20 50 129
145 161 8 35 66 177 193 121 182 209 240 36 51 98 114 130 9 10 22 23
2 2 2 37 38 39 40 41 42 52 53 54 55 56 57 58 67 68 69 70 71 72 73 74
83 84 85 10 87 88 89 90 99 100 101 102 103 104 105 106 11 116 17 118
119 120 121 122 131 132 133 134 135 136 137 38 46 17 148 149 255 151
152 153 154 162 163 164 165 166 100 100 100 70 178 179 180 181 182
183 184 185 186 194 195 196 197 198 199 200 201 202 210 211 212 213
214 215 216 217 218 225 226 22 22 22 230 231 232 233 234 241 242 243
244 245 246 247 248 249 250 1 0 3 1 1 1 1 1 1 1 1 1 0 0 0 0 0 0 1 2
3 4 5 6 7 8 9 10 11 17 0 2 1 2 4 4 3 4 7 5 4 4 0 1 2 119 0 1 2 3 17
4 5 33 49 6 18 65 81 7 97 113 19 34 150 12 8 20 66 145 161 177 193
9 35 51 82 240 21 98 114 209 10 22 36 52 225 37 241 23 24 125 26 38
39 40 41 42 53 54 55 56 157 58 67 68 69 170 71 72 73 74 83 84 85 86
87 88 89 90 99 199 101 10 13 104 105 106 115 116 117 118 119 120 21
122 130 13 132 133 134 135 136 137 138 146 147 148 149 150 151 152
153 154 162 163 164 165 166 167 168 169 170 178 179 180 181 182 183
184 185 186 194 195 196 197 198 199 200 201 202 210 211 212 213 214
215 216 217 218 226 227 228 229 230 231 232 233 234 242 243 244 249
248 247 246 245 250 255 218 0 12 3 1 0 2 17 3 17 0 63;
#X obj 51 25 hradio 15 1 0 2 empty empty empty 0 -8 0 10 -262144 -1
-1 0;
#X obj -44 65 sel 0 1;
#X obj -45 39 f;
#X obj 51 43 bng 30 250 50 0 empty empty empty 17 7 0 10 -258113 -1
-1;
#X text 11 69 start the jpg file;
#X text 10 22 glitch;
#X text 80 23 vanilla;
#X connect 1 0 0 0;
#X connect 2 0 0 0;
#X connect 3 0 5 1;
#X connect 4 0 2 0;
#X connect 4 1 1 0;
#X connect 5 0 4 0;
#X connect 6 0 5 0;
#X coords 0 -1 1 1 115 75 1 10 10;
#X restore 32 -42 pd jpg-header;
#X msg 783 326 173885;
#X obj 772 257 route length;
#X msg 776 300 set \$1;
#X obj 510 399 i;
#X msg 817 189 rewind;
#X obj 781 -141 until;
#X msg 788 -107 bang;
#X msg 785 -28 readat 100000;
#X obj 437 453 print;
#X msg 542 -141 read -resize samples/r3.wav jpg_table;
#X obj 530 331 clip 0 255;
#X msg 549 -108 read -resize samples/s7.wav jpg_table;
#X msg 585 -59 read -resize samples/k6.wav jpg_table;
#X msg 779 -166 100000;
#X obj 821 66 / 2;
#X floatatom 831 28 5 0 0 0 - - -;
#X msg 424 306 info;
#N canvas 0 0 450 590 constant-with-variation 0;
#X obj 69 20 inlet;
#X obj 97 557 outlet;
#X obj 93 210 until;
#X obj 89 278 t f b;
#X obj 122 315 random 10;
#X obj 120 383 - 5;
#X obj 102 411 +;
#X obj 70 56 route bang reps random-range const;
#X obj 96 181 f 120000;
#X obj 199 333 / 2;
#X obj 95 244 f 100;
#X obj 106 440 i;
#X obj 106 471 abs;
#X obj 109 517 clip 5 250;
#X connect 0 0 7 0;
#X connect 2 0 10 0;
#X connect 3 0 6 0;
#X connect 3 1 4 0;
#X connect 4 0 5 0;
#X connect 5 0 6 1;
#X connect 6 0 11 0;
#X connect 7 0 8 0;
#X connect 7 1 8 1;
#X connect 7 2 4 1;
#X connect 7 2 9 0;
#X connect 7 3 10 1;
#X connect 8 0 2 0;
#X connect 9 0 5 1;
#X connect 10 0 3 0;
#X connect 11 0 12 0;
#X connect 12 0 13 0;
#X connect 13 0 1 0;
#X restore 322 -3 pd constant-with-variation;
#X msg 329 -88 reps \$1;
#X floatatom 329 -119 8 0 0 0 - - -;
#X floatatom 389 -119 5 0 0 0 - - -;
#X msg 389 -89 random-range \$1;
#X floatatom 392 -67 5 0 0 0 - - -;
#X msg 392 -37 const \$1;
#X obj 70 -204 bng 30 250 50 0 empty empty empty 17 7 0 10 -4032 -1
-1;
#X floatatom 132 -99 5 0 0 0 - - -;
#X obj 517 -186 f;
#X obj 558 -187 + 1;
#X msg 527 -217 20;
#X obj 368 -204 tgl 15 0 empty empty empty 17 7 0 10 -262144 -1 -1
0 1;
#X obj 374 -183 sel 0 1;
#X floatatom 435 -190 5 0 0 0 - - -;
#X floatatom 476 -188 5 0 0 0 - - -;
#X obj 375 -158 f;
#X obj 414 -157 f;
#X obj 155 -207 until;
#X msg 118 -196 10;
#X floatatom 862 -116 5 0 0 0 - - -;
#X obj 832 -94 f;
#X msg 825 -67 readat \$1;
#X obj 849 -149 bng 15 250 50 0 empty empty empty 17 7 0 10 -262144
-1 -1;
#X obj 569 362 clip 10 245;
#X floatatom 627 333 5 0 0 0 - - -;
#X obj 207 -183 t b b b;
#X obj 270 -156 f;
#X obj 430 -213 + 10;
#X obj 338 445 print;
#X floatatom 330 -180 5 0 0 0 - - -;
#X obj 340 -146 + 1;
#X obj 479 -211 - 10;
#X msg 240 -216 99;
#N canvas 0 0 619 686 audio-data 0;
#X floatatom -223 437 5 0 0 0 - - -;
#X obj -213 466 spigot;
#X obj -152 436 tgl 15 0 empty empty empty 17 7 0 10 -262144 -1 -1
0 1;
#X obj -246 404 snapshot~;
#X obj -195 292 tgl 15 0 empty empty empty 17 7 0 10 -262144 -1 -1
0 1;
#X obj -226 543 * 255;
#X obj -226 563 i;
#X obj -137 501 f;
#X obj -99 500 + 1;
#X obj -141 474 bng 15 250 50 0 empty empty empty 17 7 0 10 -262144
-1 -1;
#X floatatom -134 541 0 0 0 0 - - -;
#X obj -234 592 clip 10 245;
#X msg -113 434 0;
#X obj -12 354 until;
#X obj -100 256 t b f;
#X obj -3 387 f;
#X obj -237 497 + 1;
#X obj -235 520 / 2;
#X floatatom -179 558 5 0 0 0 - - -;
#X obj -200 328 metro 2;
#X obj -292 304 osc~ 1000;
#X obj -136 348 bng 15 250 50 0 empty empty empty 17 7 0 10 -262144
-1 -1;
#X obj -129 399 del 10;
#X floatatom -70 356 5 0 0 0 - - -;
#X obj -186 29 snapshot~;
#X obj -196 -8 metro 5;
#X obj -202 -36 tgl 15 0 empty empty empty 17 7 0 10 -262144 -1 -1
0 1;
#X floatatom -197 61 5 0 0 0 - - -;
#X obj -287 -14 osc~ 0.000625;
#X obj -219 86 + 1;
#X obj -219 113 / 2;
#X obj -223 145 * 1;
#X floatatom -191 115 5 0 0 0 - - -;
#X floatatom -280 -36 5 0 0 0 - - -;
#X floatatom -151 -44 5 0 0 0 - - -;
#X msg -62 -69 \; pd dsp \$1;
#X obj 180 6 tgl 15 0 empty empty empty 17 7 0 10 -262144 -1 -1 0 1
;
#X text 97 -2 turn on audio;
#X text 99 10 processing;
#X obj 6 30 tgl 15 0 empty empty empty 17 7 0 10 -262144 -1 -1 0 1
;
#X text 24 29 modulate frequency;
#X floatatom 6 49 10 0 0 0 - - -;
#X text 76 48 LFO frequency;
#X floatatom 7 71 10 0 0 0 - - -;
#X text 71 70 oscillator frequency;
#X obj 8 151 bng 15 250 50 0 empty empty empty 17 7 0 10 -262144 -1
-1;
#X text 29 150 write data;
#X obj -126 368 t b b;
#X text 45 94 data clipping;
#X text 45 105 lower boundary;
#X text 49 121 data clipping;
#X text 49 132 higher boundary;
#X floatatom 9 101 5 0 0 0 - - -;
#X floatatom 9 128 5 0 0 0 - - -;
#X obj 0 201 cnv 15 200 30 empty empty empty 20 12 0 14 -204786 -66577
0;
#X floatatom 5 209 10 0 0 0 - - -;
#X text 73 210 # of bytes written;
#X obj 72 545 outlet;
#X floatatom 9 173 10 0 0 0 - - -;
#X text 81 170 # of times to;
#X text 80 181 repeat each byte;
#X obj 144 472 f;
#X obj 182 471 + 1;
#X obj 140 445 bng 15 250 50 0 empty empty empty 17 7 0 10 -262144
-1 -1;
#X obj -14 323 f 100000;
#X obj -32 286 t b b;
#X msg 185 399 0;
#X connect 0 0 1 0;
#X connect 1 0 9 0;
#X connect 1 0 16 0;
#X connect 2 0 1 1;
#X connect 3 0 0 0;
#X connect 4 0 19 0;
#X connect 5 0 6 0;
#X connect 6 0 11 0;
#X connect 7 0 8 0;
#X connect 7 0 10 0;
#X connect 8 0 7 1;
#X connect 9 0 7 0;
#X connect 11 0 14 0;
#X connect 12 0 7 0;
#X connect 13 0 15 0;
#X connect 14 0 65 0;
#X connect 14 1 15 1;
#X connect 15 0 57 0;
#X connect 15 0 63 0;
#X connect 16 0 17 0;
#X connect 17 0 5 0;
#X connect 18 0 11 2;
#X connect 19 0 3 0;
#X connect 20 0 3 0;
#X connect 21 0 2 0;
#X connect 21 0 47 0;
#X connect 22 0 2 0;
#X connect 23 0 22 1;
#X connect 24 0 27 0;
#X connect 25 0 24 0;
#X connect 26 0 25 0;
#X connect 27 0 29 0;
#X connect 28 0 24 0;
#X connect 29 0 30 0;
#X connect 30 0 31 0;
#X connect 31 0 43 0;
#X connect 32 0 31 1;
#X connect 33 0 28 0;
#X connect 34 0 25 1;
#X connect 36 0 35 0;
#X connect 36 0 4 0;
#X connect 39 0 26 0;
#X connect 41 0 33 0;
#X connect 43 0 20 0;
#X connect 45 0 21 0;
#X connect 47 0 22 0;
#X connect 47 1 12 0;
#X connect 52 0 11 1;
#X connect 53 0 18 0;
#X connect 58 0 64 1;
#X connect 61 0 62 0;
#X connect 61 0 55 0;
#X connect 62 0 61 1;
#X connect 63 0 61 0;
#X connect 64 0 13 0;
#X connect 65 0 64 0;
#X connect 65 1 66 0;
#X connect 66 0 61 1;
#X coords 0 -1 1 1 200 230 1 0 0;
#X restore -64 108 pd audio-data;
#X connect 0 1 99 0;
#X connect 1 0 2 0;
#X connect 2 0 0 0;
#X connect 3 0 1 0;
#X connect 4 0 5 0;
#X connect 5 0 0 0;
#X connect 6 0 4 0;
#X connect 7 0 3 0;
#X connect 7 0 6 0;
#X connect 9 0 32 0;
#X connect 10 0 0 0;
#X connect 12 0 10 0;
#X connect 14 0 15 0;
#X connect 15 0 0 0;
#X connect 17 0 0 0;
#X connect 18 0 0 0;
#X connect 21 0 19 0;
#X connect 22 0 23 0;
#X connect 23 0 34 0;
#X connect 24 0 22 0;
#X connect 25 0 26 0;
#X connect 26 0 27 0;
#X connect 27 0 28 0;
#X connect 28 0 37 0;
#X connect 29 0 30 0;
#X connect 29 0 25 0;
#X connect 30 0 29 1;
#X connect 31 0 29 0;
#X connect 32 0 33 0;
#X connect 32 1 33 1;
#X connect 32 2 33 2;
#X connect 32 3 33 3;
#X connect 33 0 36 0;
#X connect 34 0 31 0;
#X connect 34 1 35 0;
#X connect 35 0 29 0;
#X connect 36 0 0 0;
#X connect 37 0 63 0;
#X connect 38 0 46 0;
#X connect 38 0 94 0;
#X connect 38 1 45 0;
#X connect 38 1 54 0;
#X connect 39 0 41 0;
#X connect 40 0 39 0;
#X connect 41 0 38 0;
#X connect 42 0 43 0;
#X connect 43 0 38 0;
#X connect 44 0 38 0;
#X connect 46 0 49 0;
#X connect 46 1 47 0;
#X connect 47 0 48 0;
#X connect 48 0 49 1;
#X connect 50 0 51 0;
#X connect 51 0 38 0;
#X connect 52 0 0 0;
#X connect 53 0 67 0;
#X connect 54 0 55 0;
#X connect 55 0 53 0;
#X connect 56 0 0 0;
#X connect 56 0 61 0;
#X connect 57 0 38 0;
#X connect 58 0 59 0;
#X connect 59 0 38 0;
#X connect 60 0 38 0;
#X connect 62 0 19 0;
#X connect 63 0 0 0;
#X connect 64 0 19 0;
#X connect 65 0 19 0;
#X connect 66 0 58 0;
#X connect 67 0 50 0;
#X connect 68 0 67 1;
#X connect 69 0 0 0;
#X connect 70 0 0 0;
#X connect 71 0 70 0;
#X connect 72 0 71 0;
#X connect 73 0 74 0;
#X connect 74 0 70 0;
#X connect 75 0 76 0;
#X connect 76 0 70 0;
#X connect 77 0 89 0;
#X connect 78 0 3 1;
#X connect 78 0 6 1;
#X connect 79 0 80 0;
#X connect 80 0 79 1;
#X connect 81 0 79 0;
#X connect 82 0 83 0;
#X connect 83 0 86 0;
#X connect 83 1 87 0;
#X connect 84 0 86 1;
#X connect 85 0 87 1;
#X connect 86 0 75 0;
#X connect 87 0 75 0;
#X connect 88 0 96 0;
#X connect 89 0 88 0;
#X connect 90 0 91 1;
#X connect 91 0 92 0;
#X connect 92 0 38 0;
#X connect 93 0 91 0;
#X connect 94 0 56 0;
#X connect 95 0 94 2;
#X connect 96 0 97 0;
#X connect 96 1 70 0;
#X connect 96 2 82 0;
#X connect 97 0 98 0;
#X connect 97 0 101 0;
#X connect 97 0 102 0;
#X connect 98 0 84 0;
#X connect 100 0 101 1;
#X connect 101 0 97 1;
#X connect 102 0 85 0;
#X connect 103 0 97 0;
#X connect 104 0 0 0;
