#N canvas 664 138 2221 1236 10;
#X obj 881 247 r \$0-PROP_DELAY_1;
#X obj 881 285 r \$0-PROP_DELAY_1;
#X obj 881 323 r \$0-PROP_DELAY_1;
#X obj 881 361 r \$0-PROP_DELAY_1;
#X obj 881 399 r \$0-PROP_DELAY_1;
#X obj 881 437 r \$0-PROP_DELAY_1;
#X obj 881 475 r \$0-PROP_DELAY_1;
#X obj 881 513 r \$0-PROP_DELAY_1;
#X obj 881 552 r \$0-PROP_DELAY_1;
#X obj 881 590 r \$0-PROP_DELAY_1;
#X obj 881 628 r \$0-PROP_DELAY_1;
#X obj 881 666 r \$0-PROP_DELAY_1;
#X obj 881 704 r \$0-PROP_DELAY_1;
#X obj 881 742 r \$0-PROP_DELAY_1;
#X obj 881 780 r \$0-PROP_DELAY_1;
#X obj 881 818 r \$0-PROP_DELAY_1;
#X obj 479 112 hsl 128 15 5 100 0 0 \$0-PROP_DELAY_1 \$0-SET_PROP_DELAY_1
PROP_DELAY_1 -2 -8 0 10 -262144 -1 -1 2500 1;
#X obj 816 158 bng 15 250 50 0 empty empty empty 17 7 0 10 -262144
-1 -1;
#X floatatom 386 105 5 0 0 0 - - -;
#X obj 860 266 delay;
#X obj 860 304 delay;
#X obj 860 342 delay;
#X obj 860 380 delay;
#X obj 860 418 delay;
#X obj 860 456 delay;
#X obj 860 494 delay;
#X obj 860 532 delay;
#X obj 860 571 delay;
#X obj 860 609 delay;
#X obj 860 647 delay;
#X obj 860 685 delay;
#X obj 860 723 delay;
#X obj 860 761 delay;
#X obj 860 799 delay;
#X obj 860 837 delay;
#N canvas 972 550 450 300 wavelett 0;
#X msg 86 131 0 \, 1 \$1;
#X obj 86 112 f;
#X obj 86 151 line~;
#X obj 86 170 expr~ pow(sin($v1 * 3.141592653) \, 2);
#X obj 101 88 r \$0-PROP_DELAY_1;
#X obj 86 192 *~ 0.1;
#X obj 86 214 throw~ out;
#X obj 86 64 inlet;
#X connect 0 0 2 0;
#X connect 1 0 0 0;
#X connect 2 0 3 0;
#X connect 3 0 5 0;
#X connect 4 0 1 1;
#X connect 5 0 6 0;
#X connect 7 0 1 0;
#X restore 620 463 pd wavelett;
#N canvas 972 550 450 300 wavelett 0;
#X msg 86 131 0 \, 1 \$1;
#X obj 86 112 f;
#X obj 86 151 line~;
#X obj 86 170 expr~ pow(sin($v1 * 3.141592653) \, 2);
#X obj 101 88 r \$0-PROP_DELAY_1;
#X obj 86 190 *~ 0.1;
#X obj 86 214 throw~ out;
#X obj 86 64 inlet;
#X connect 0 0 2 0;
#X connect 1 0 0 0;
#X connect 2 0 3 0;
#X connect 3 0 5 0;
#X connect 4 0 1 1;
#X connect 5 0 6 0;
#X connect 7 0 1 0;
#X restore 620 485 pd wavelett;
#N canvas 972 550 450 300 wavelett 0;
#X msg 86 131 0 \, 1 \$1;
#X obj 86 112 f;
#X obj 86 151 line~;
#X obj 86 170 expr~ pow(sin($v1 * 3.141592653) \, 2);
#X obj 101 88 r \$0-PROP_DELAY_1;
#X obj 86 190 *~ 0.1;
#X obj 86 214 throw~ out;
#X obj 86 64 inlet;
#X connect 0 0 2 0;
#X connect 1 0 0 0;
#X connect 2 0 3 0;
#X connect 3 0 5 0;
#X connect 4 0 1 1;
#X connect 5 0 6 0;
#X connect 7 0 1 0;
#X restore 620 506 pd wavelett;
#N canvas 972 550 450 300 wavelett 0;
#X msg 86 131 0 \, 1 \$1;
#X obj 86 112 f;
#X obj 86 151 line~;
#X obj 86 170 expr~ pow(sin($v1 * 3.141592653) \, 2);
#X obj 101 88 r \$0-PROP_DELAY_1;
#X obj 86 190 *~ 0.1;
#X obj 86 214 throw~ out;
#X obj 86 64 inlet;
#X connect 0 0 2 0;
#X connect 1 0 0 0;
#X connect 2 0 3 0;
#X connect 3 0 5 0;
#X connect 4 0 1 1;
#X connect 5 0 6 0;
#X connect 7 0 1 0;
#X restore 620 528 pd wavelett;
#N canvas 972 550 450 300 wavelett 0;
#X msg 86 131 0 \, 1 \$1;
#X obj 86 112 f;
#X obj 86 151 line~;
#X obj 86 170 expr~ pow(sin($v1 * 3.141592653) \, 2);
#X obj 101 88 r \$0-PROP_DELAY_1;
#X obj 86 190 *~ 0.1;
#X obj 86 214 throw~ out;
#X obj 86 64 inlet;
#X connect 0 0 2 0;
#X connect 1 0 0 0;
#X connect 2 0 3 0;
#X connect 3 0 5 0;
#X connect 4 0 1 1;
#X connect 5 0 6 0;
#X connect 7 0 1 0;
#X restore 621 550 pd wavelett;
#N canvas 972 550 450 300 wavelett 0;
#X msg 86 131 0 \, 1 \$1;
#X obj 86 112 f;
#X obj 86 151 line~;
#X obj 86 170 expr~ pow(sin($v1 * 3.141592653) \, 2);
#X obj 101 88 r \$0-PROP_DELAY_1;
#X obj 86 190 *~ 0.1;
#X obj 86 214 throw~ out;
#X obj 86 64 inlet;
#X connect 0 0 2 0;
#X connect 1 0 0 0;
#X connect 2 0 3 0;
#X connect 3 0 5 0;
#X connect 4 0 1 1;
#X connect 5 0 6 0;
#X connect 7 0 1 0;
#X restore 621 572 pd wavelett;
#N canvas 972 550 450 300 wavelett 0;
#X msg 86 131 0 \, 1 \$1;
#X obj 86 112 f;
#X obj 86 151 line~;
#X obj 86 170 expr~ pow(sin($v1 * 3.141592653) \, 2);
#X obj 101 88 r \$0-PROP_DELAY_1;
#X obj 86 190 *~ 0.1;
#X obj 86 214 throw~ out;
#X obj 86 64 inlet;
#X connect 0 0 2 0;
#X connect 1 0 0 0;
#X connect 2 0 3 0;
#X connect 3 0 5 0;
#X connect 4 0 1 1;
#X connect 5 0 6 0;
#X connect 7 0 1 0;
#X restore 621 593 pd wavelett;
#N canvas 972 550 450 300 wavelett 0;
#X msg 86 131 0 \, 1 \$1;
#X obj 86 112 f;
#X obj 86 151 line~;
#X obj 86 170 expr~ pow(sin($v1 * 3.141592653) \, 2);
#X obj 101 88 r \$0-PROP_DELAY_1;
#X obj 86 190 *~ 0.1;
#X obj 86 214 throw~ out;
#X obj 86 64 inlet;
#X connect 0 0 2 0;
#X connect 1 0 0 0;
#X connect 2 0 3 0;
#X connect 3 0 5 0;
#X connect 4 0 1 1;
#X connect 5 0 6 0;
#X connect 7 0 1 0;
#X restore 621 615 pd wavelett;
#N canvas 972 550 450 300 wavelett 0;
#X msg 86 131 0 \, 1 \$1;
#X obj 86 112 f;
#X obj 86 151 line~;
#X obj 86 170 expr~ pow(sin($v1 * 3.141592653) \, 2);
#X obj 101 88 r \$0-PROP_DELAY_1;
#X obj 86 190 *~ 0.1;
#X obj 86 214 throw~ out;
#X obj 86 64 inlet;
#X connect 0 0 2 0;
#X connect 1 0 0 0;
#X connect 2 0 3 0;
#X connect 3 0 5 0;
#X connect 4 0 1 1;
#X connect 5 0 6 0;
#X connect 7 0 1 0;
#X restore 620 639 pd wavelett;
#N canvas 972 550 450 300 wavelett 0;
#X msg 86 131 0 \, 1 \$1;
#X obj 86 112 f;
#X obj 86 151 line~;
#X obj 86 170 expr~ pow(sin($v1 * 3.141592653) \, 2);
#X obj 101 88 r \$0-PROP_DELAY_1;
#X obj 86 190 *~ 0.1;
#X obj 86 214 throw~ out;
#X obj 86 64 inlet;
#X connect 0 0 2 0;
#X connect 1 0 0 0;
#X connect 2 0 3 0;
#X connect 3 0 5 0;
#X connect 4 0 1 1;
#X connect 5 0 6 0;
#X connect 7 0 1 0;
#X restore 620 661 pd wavelett;
#N canvas 972 550 450 300 wavelett 0;
#X msg 86 131 0 \, 1 \$1;
#X obj 86 112 f;
#X obj 86 151 line~;
#X obj 86 170 expr~ pow(sin($v1 * 3.141592653) \, 2);
#X obj 101 88 r \$0-PROP_DELAY_1;
#X obj 86 190 *~ 0.1;
#X obj 86 214 throw~ out;
#X obj 86 64 inlet;
#X connect 0 0 2 0;
#X connect 1 0 0 0;
#X connect 2 0 3 0;
#X connect 3 0 5 0;
#X connect 4 0 1 1;
#X connect 5 0 6 0;
#X connect 7 0 1 0;
#X restore 620 682 pd wavelett;
#N canvas 972 550 450 300 wavelett 0;
#X msg 86 131 0 \, 1 \$1;
#X obj 86 112 f;
#X obj 86 151 line~;
#X obj 86 170 expr~ pow(sin($v1 * 3.141592653) \, 2);
#X obj 101 88 r \$0-PROP_DELAY_1;
#X obj 86 190 *~ 0.1;
#X obj 86 214 throw~ out;
#X obj 86 64 inlet;
#X connect 0 0 2 0;
#X connect 1 0 0 0;
#X connect 2 0 3 0;
#X connect 3 0 5 0;
#X connect 4 0 1 1;
#X connect 5 0 6 0;
#X connect 7 0 1 0;
#X restore 620 704 pd wavelett;
#N canvas 972 550 450 300 wavelett 0;
#X msg 86 131 0 \, 1 \$1;
#X obj 86 112 f;
#X obj 86 151 line~;
#X obj 86 170 expr~ pow(sin($v1 * 3.141592653) \, 2);
#X obj 101 88 r \$0-PROP_DELAY_1;
#X obj 86 190 *~ 0.1;
#X obj 86 214 throw~ out;
#X obj 86 64 inlet;
#X connect 0 0 2 0;
#X connect 1 0 0 0;
#X connect 2 0 3 0;
#X connect 3 0 5 0;
#X connect 4 0 1 1;
#X connect 5 0 6 0;
#X connect 7 0 1 0;
#X restore 621 726 pd wavelett;
#N canvas 972 550 450 300 wavelett 0;
#X msg 86 131 0 \, 1 \$1;
#X obj 86 112 f;
#X obj 86 151 line~;
#X obj 86 170 expr~ pow(sin($v1 * 3.141592653) \, 2);
#X obj 101 88 r \$0-PROP_DELAY_1;
#X obj 86 190 *~ 0.1;
#X obj 86 214 throw~ out;
#X obj 86 64 inlet;
#X connect 0 0 2 0;
#X connect 1 0 0 0;
#X connect 2 0 3 0;
#X connect 3 0 5 0;
#X connect 4 0 1 1;
#X connect 5 0 6 0;
#X connect 7 0 1 0;
#X restore 621 748 pd wavelett;
#N canvas 972 550 450 300 wavelett 0;
#X msg 86 131 0 \, 1 \$1;
#X obj 86 112 f;
#X obj 86 151 line~;
#X obj 86 170 expr~ pow(sin($v1 * 3.141592653) \, 2);
#X obj 101 88 r \$0-PROP_DELAY_1;
#X obj 86 190 *~ 0.1;
#X obj 86 214 throw~ out;
#X obj 86 64 inlet;
#X connect 0 0 2 0;
#X connect 1 0 0 0;
#X connect 2 0 3 0;
#X connect 3 0 5 0;
#X connect 4 0 1 1;
#X connect 5 0 6 0;
#X connect 7 0 1 0;
#X restore 621 769 pd wavelett;
#N canvas 972 550 450 300 wavelett 0;
#X msg 86 131 0 \, 1 \$1;
#X obj 86 112 f;
#X obj 86 151 line~;
#X obj 86 170 expr~ pow(sin($v1 * 3.141592653) \, 2);
#X obj 101 88 r \$0-PROP_DELAY_1;
#X obj 86 190 *~ 0.1;
#X obj 86 214 throw~ out;
#X obj 86 64 inlet;
#X connect 0 0 2 0;
#X connect 1 0 0 0;
#X connect 2 0 3 0;
#X connect 3 0 5 0;
#X connect 4 0 1 1;
#X connect 5 0 6 0;
#X connect 7 0 1 0;
#X restore 621 791 pd wavelett;
#X obj 1322 325 r \$0-PROP_DELAY_1;
#X obj 1322 363 r \$0-PROP_DELAY_1;
#X obj 1322 401 r \$0-PROP_DELAY_1;
#X obj 1322 439 r \$0-PROP_DELAY_1;
#X obj 1322 477 r \$0-PROP_DELAY_1;
#X obj 1322 515 r \$0-PROP_DELAY_1;
#X obj 1322 553 r \$0-PROP_DELAY_1;
#X obj 1322 591 r \$0-PROP_DELAY_1;
#X obj 1322 630 r \$0-PROP_DELAY_1;
#X obj 1322 668 r \$0-PROP_DELAY_1;
#X obj 1322 706 r \$0-PROP_DELAY_1;
#X obj 1322 744 r \$0-PROP_DELAY_1;
#X obj 1322 782 r \$0-PROP_DELAY_1;
#X obj 1322 820 r \$0-PROP_DELAY_1;
#X obj 1322 858 r \$0-PROP_DELAY_1;
#X obj 1322 896 r \$0-PROP_DELAY_1;
#X obj 1301 344 delay;
#X obj 1301 382 delay;
#X obj 1301 420 delay;
#X obj 1301 458 delay;
#X obj 1301 496 delay;
#X obj 1301 534 delay;
#X obj 1301 572 delay;
#X obj 1301 610 delay;
#X obj 1301 649 delay;
#X obj 1301 687 delay;
#X obj 1301 725 delay;
#X obj 1301 763 delay;
#X obj 1301 801 delay;
#X obj 1301 839 delay;
#X obj 1301 877 delay;
#X obj 1301 915 delay;
#N canvas 972 550 450 300 wavelett 0;
#X msg 86 131 0 \, 1 \$1;
#X obj 86 112 f;
#X obj 86 151 line~;
#X obj 86 170 expr~ pow(sin($v1 * 3.141592653) \, 2);
#X obj 101 88 r \$0-PROP_DELAY_1;
#X obj 86 190 *~ 0.1;
#X obj 86 214 throw~ out;
#X obj 86 64 inlet;
#X connect 0 0 2 0;
#X connect 1 0 0 0;
#X connect 2 0 3 0;
#X connect 3 0 5 0;
#X connect 4 0 1 1;
#X connect 5 0 6 0;
#X connect 7 0 1 0;
#X restore 1061 541 pd wavelett;
#N canvas 972 550 450 300 wavelett 0;
#X msg 86 131 0 \, 1 \$1;
#X obj 86 112 f;
#X obj 86 151 line~;
#X obj 86 170 expr~ pow(sin($v1 * 3.141592653) \, 2);
#X obj 101 88 r \$0-PROP_DELAY_1;
#X obj 86 190 *~ 0.1;
#X obj 86 214 throw~ out;
#X obj 86 64 inlet;
#X connect 0 0 2 0;
#X connect 1 0 0 0;
#X connect 2 0 3 0;
#X connect 3 0 5 0;
#X connect 4 0 1 1;
#X connect 5 0 6 0;
#X connect 7 0 1 0;
#X restore 1061 563 pd wavelett;
#N canvas 972 550 450 300 wavelett 0;
#X msg 86 131 0 \, 1 \$1;
#X obj 86 112 f;
#X obj 86 151 line~;
#X obj 86 170 expr~ pow(sin($v1 * 3.141592653) \, 2);
#X obj 101 88 r \$0-PROP_DELAY_1;
#X obj 86 190 *~ 0.1;
#X obj 86 214 throw~ out;
#X obj 86 64 inlet;
#X connect 0 0 2 0;
#X connect 1 0 0 0;
#X connect 2 0 3 0;
#X connect 3 0 5 0;
#X connect 4 0 1 1;
#X connect 5 0 6 0;
#X connect 7 0 1 0;
#X restore 1061 584 pd wavelett;
#N canvas 972 550 450 300 wavelett 0;
#X msg 86 131 0 \, 1 \$1;
#X obj 86 112 f;
#X obj 86 151 line~;
#X obj 86 170 expr~ pow(sin($v1 * 3.141592653) \, 2);
#X obj 101 88 r \$0-PROP_DELAY_1;
#X obj 86 190 *~ 0.1;
#X obj 86 214 throw~ out;
#X obj 86 64 inlet;
#X connect 0 0 2 0;
#X connect 1 0 0 0;
#X connect 2 0 3 0;
#X connect 3 0 5 0;
#X connect 4 0 1 1;
#X connect 5 0 6 0;
#X connect 7 0 1 0;
#X restore 1061 606 pd wavelett;
#N canvas 972 550 450 300 wavelett 0;
#X msg 86 131 0 \, 1 \$1;
#X obj 86 112 f;
#X obj 86 151 line~;
#X obj 86 170 expr~ pow(sin($v1 * 3.141592653) \, 2);
#X obj 101 88 r \$0-PROP_DELAY_1;
#X obj 86 190 *~ 0.1;
#X obj 86 214 throw~ out;
#X obj 86 64 inlet;
#X connect 0 0 2 0;
#X connect 1 0 0 0;
#X connect 2 0 3 0;
#X connect 3 0 5 0;
#X connect 4 0 1 1;
#X connect 5 0 6 0;
#X connect 7 0 1 0;
#X restore 1062 628 pd wavelett;
#N canvas 972 550 450 300 wavelett 0;
#X msg 86 131 0 \, 1 \$1;
#X obj 86 112 f;
#X obj 86 151 line~;
#X obj 86 170 expr~ pow(sin($v1 * 3.141592653) \, 2);
#X obj 101 88 r \$0-PROP_DELAY_1;
#X obj 86 190 *~ 0.1;
#X obj 86 214 throw~ out;
#X obj 86 64 inlet;
#X connect 0 0 2 0;
#X connect 1 0 0 0;
#X connect 2 0 3 0;
#X connect 3 0 5 0;
#X connect 4 0 1 1;
#X connect 5 0 6 0;
#X connect 7 0 1 0;
#X restore 1062 650 pd wavelett;
#N canvas 972 550 450 300 wavelett 0;
#X msg 86 131 0 \, 1 \$1;
#X obj 86 112 f;
#X obj 86 151 line~;
#X obj 86 170 expr~ pow(sin($v1 * 3.141592653) \, 2);
#X obj 101 88 r \$0-PROP_DELAY_1;
#X obj 86 190 *~ 0.1;
#X obj 86 214 throw~ out;
#X obj 86 64 inlet;
#X connect 0 0 2 0;
#X connect 1 0 0 0;
#X connect 2 0 3 0;
#X connect 3 0 5 0;
#X connect 4 0 1 1;
#X connect 5 0 6 0;
#X connect 7 0 1 0;
#X restore 1062 671 pd wavelett;
#N canvas 972 550 450 300 wavelett 0;
#X msg 86 131 0 \, 1 \$1;
#X obj 86 112 f;
#X obj 86 151 line~;
#X obj 86 170 expr~ pow(sin($v1 * 3.141592653) \, 2);
#X obj 101 88 r \$0-PROP_DELAY_1;
#X obj 86 190 *~ 0.1;
#X obj 86 214 throw~ out;
#X obj 86 64 inlet;
#X connect 0 0 2 0;
#X connect 1 0 0 0;
#X connect 2 0 3 0;
#X connect 3 0 5 0;
#X connect 4 0 1 1;
#X connect 5 0 6 0;
#X connect 7 0 1 0;
#X restore 1062 693 pd wavelett;
#N canvas 972 550 450 300 wavelett 0;
#X msg 86 131 0 \, 1 \$1;
#X obj 86 112 f;
#X obj 86 151 line~;
#X obj 86 170 expr~ pow(sin($v1 * 3.141592653) \, 2);
#X obj 101 88 r \$0-PROP_DELAY_1;
#X obj 86 190 *~ 0.1;
#X obj 86 214 throw~ out;
#X obj 86 64 inlet;
#X connect 0 0 2 0;
#X connect 1 0 0 0;
#X connect 2 0 3 0;
#X connect 3 0 5 0;
#X connect 4 0 1 1;
#X connect 5 0 6 0;
#X connect 7 0 1 0;
#X restore 1061 717 pd wavelett;
#N canvas 972 550 450 300 wavelett 0;
#X msg 86 131 0 \, 1 \$1;
#X obj 86 112 f;
#X obj 86 151 line~;
#X obj 86 170 expr~ pow(sin($v1 * 3.141592653) \, 2);
#X obj 101 88 r \$0-PROP_DELAY_1;
#X obj 86 190 *~ 0.1;
#X obj 86 214 throw~ out;
#X obj 86 64 inlet;
#X connect 0 0 2 0;
#X connect 1 0 0 0;
#X connect 2 0 3 0;
#X connect 3 0 5 0;
#X connect 4 0 1 1;
#X connect 5 0 6 0;
#X connect 7 0 1 0;
#X restore 1061 739 pd wavelett;
#N canvas 972 550 450 300 wavelett 0;
#X msg 86 131 0 \, 1 \$1;
#X obj 86 112 f;
#X obj 86 151 line~;
#X obj 86 170 expr~ pow(sin($v1 * 3.141592653) \, 2);
#X obj 101 88 r \$0-PROP_DELAY_1;
#X obj 86 190 *~ 0.1;
#X obj 86 214 throw~ out;
#X obj 86 64 inlet;
#X connect 0 0 2 0;
#X connect 1 0 0 0;
#X connect 2 0 3 0;
#X connect 3 0 5 0;
#X connect 4 0 1 1;
#X connect 5 0 6 0;
#X connect 7 0 1 0;
#X restore 1061 760 pd wavelett;
#N canvas 972 550 450 300 wavelett 0;
#X msg 86 131 0 \, 1 \$1;
#X obj 86 112 f;
#X obj 86 151 line~;
#X obj 86 170 expr~ pow(sin($v1 * 3.141592653) \, 2);
#X obj 101 88 r \$0-PROP_DELAY_1;
#X obj 86 190 *~ 0.1;
#X obj 86 214 throw~ out;
#X obj 86 64 inlet;
#X connect 0 0 2 0;
#X connect 1 0 0 0;
#X connect 2 0 3 0;
#X connect 3 0 5 0;
#X connect 4 0 1 1;
#X connect 5 0 6 0;
#X connect 7 0 1 0;
#X restore 1061 782 pd wavelett;
#N canvas 972 550 450 300 wavelett 0;
#X msg 86 131 0 \, 1 \$1;
#X obj 86 112 f;
#X obj 86 151 line~;
#X obj 86 170 expr~ pow(sin($v1 * 3.141592653) \, 2);
#X obj 101 88 r \$0-PROP_DELAY_1;
#X obj 86 190 *~ 0.1;
#X obj 86 214 throw~ out;
#X obj 86 64 inlet;
#X connect 0 0 2 0;
#X connect 1 0 0 0;
#X connect 2 0 3 0;
#X connect 3 0 5 0;
#X connect 4 0 1 1;
#X connect 5 0 6 0;
#X connect 7 0 1 0;
#X restore 1062 804 pd wavelett;
#N canvas 972 550 450 300 wavelett 0;
#X msg 86 131 0 \, 1 \$1;
#X obj 86 112 f;
#X obj 86 151 line~;
#X obj 86 170 expr~ pow(sin($v1 * 3.141592653) \, 2);
#X obj 101 88 r \$0-PROP_DELAY_1;
#X obj 86 190 *~ 0.1;
#X obj 86 214 throw~ out;
#X obj 86 64 inlet;
#X connect 0 0 2 0;
#X connect 1 0 0 0;
#X connect 2 0 3 0;
#X connect 3 0 5 0;
#X connect 4 0 1 1;
#X connect 5 0 6 0;
#X connect 7 0 1 0;
#X restore 1062 826 pd wavelett;
#N canvas 972 550 450 300 wavelett 0;
#X msg 86 131 0 \, 1 \$1;
#X obj 86 112 f;
#X obj 86 151 line~;
#X obj 86 170 expr~ pow(sin($v1 * 3.141592653) \, 2);
#X obj 101 88 r \$0-PROP_DELAY_1;
#X obj 86 190 *~ 0.1;
#X obj 86 214 throw~ out;
#X obj 86 64 inlet;
#X connect 0 0 2 0;
#X connect 1 0 0 0;
#X connect 2 0 3 0;
#X connect 3 0 5 0;
#X connect 4 0 1 1;
#X connect 5 0 6 0;
#X connect 7 0 1 0;
#X restore 1062 847 pd wavelett;
#N canvas 972 550 450 300 wavelett 0;
#X msg 86 131 0 \, 1 \$1;
#X obj 86 112 f;
#X obj 86 151 line~;
#X obj 86 170 expr~ pow(sin($v1 * 3.141592653) \, 2);
#X obj 101 88 r \$0-PROP_DELAY_1;
#X obj 86 190 *~ 0.1;
#X obj 86 214 throw~ out;
#X obj 86 64 inlet;
#X connect 0 0 2 0;
#X connect 1 0 0 0;
#X connect 2 0 3 0;
#X connect 3 0 5 0;
#X connect 4 0 1 1;
#X connect 5 0 6 0;
#X connect 7 0 1 0;
#X restore 1062 869 pd wavelett;
#X obj 133 590 catch~ out;
#X obj 133 616 dac~;
#X connect 0 0 19 1;
#X connect 1 0 20 1;
#X connect 2 0 21 1;
#X connect 3 0 22 1;
#X connect 4 0 23 1;
#X connect 5 0 24 1;
#X connect 6 0 25 1;
#X connect 7 0 26 1;
#X connect 8 0 27 1;
#X connect 9 0 28 1;
#X connect 10 0 29 1;
#X connect 11 0 30 1;
#X connect 12 0 31 1;
#X connect 13 0 32 1;
#X connect 14 0 33 1;
#X connect 15 0 34 1;
#X connect 16 0 18 0;
#X connect 17 0 19 0;
#X connect 19 0 20 0;
#X connect 19 0 35 0;
#X connect 20 0 21 0;
#X connect 20 0 36 0;
#X connect 21 0 22 0;
#X connect 21 0 37 0;
#X connect 22 0 23 0;
#X connect 22 0 38 0;
#X connect 23 0 24 0;
#X connect 23 0 39 0;
#X connect 24 0 25 0;
#X connect 24 0 40 0;
#X connect 25 0 26 0;
#X connect 25 0 41 0;
#X connect 26 0 27 0;
#X connect 26 0 42 0;
#X connect 27 0 28 0;
#X connect 27 0 43 0;
#X connect 28 0 29 0;
#X connect 28 0 44 0;
#X connect 29 0 30 0;
#X connect 29 0 45 0;
#X connect 30 0 31 0;
#X connect 30 0 46 0;
#X connect 31 0 32 0;
#X connect 31 0 47 0;
#X connect 32 0 33 0;
#X connect 32 0 48 0;
#X connect 33 0 49 0;
#X connect 33 0 34 0;
#X connect 34 0 50 0;
#X connect 34 0 67 0;
#X connect 51 0 67 1;
#X connect 52 0 68 1;
#X connect 53 0 69 1;
#X connect 54 0 70 1;
#X connect 55 0 71 1;
#X connect 56 0 72 1;
#X connect 57 0 73 1;
#X connect 58 0 74 1;
#X connect 59 0 75 1;
#X connect 60 0 76 1;
#X connect 61 0 77 1;
#X connect 62 0 78 1;
#X connect 63 0 79 1;
#X connect 64 0 80 1;
#X connect 65 0 81 1;
#X connect 66 0 82 1;
#X connect 67 0 68 0;
#X connect 67 0 83 0;
#X connect 68 0 84 0;
#X connect 68 0 69 0;
#X connect 69 0 70 0;
#X connect 69 0 85 0;
#X connect 70 0 71 0;
#X connect 70 0 86 0;
#X connect 71 0 72 0;
#X connect 71 0 87 0;
#X connect 72 0 73 0;
#X connect 72 0 88 0;
#X connect 73 0 74 0;
#X connect 73 0 89 0;
#X connect 74 0 75 0;
#X connect 74 0 90 0;
#X connect 75 0 76 0;
#X connect 75 0 91 0;
#X connect 76 0 77 0;
#X connect 76 0 92 0;
#X connect 77 0 78 0;
#X connect 77 0 93 0;
#X connect 78 0 79 0;
#X connect 78 0 94 0;
#X connect 79 0 80 0;
#X connect 79 0 95 0;
#X connect 80 0 81 0;
#X connect 80 0 96 0;
#X connect 81 0 82 0;
#X connect 81 0 97 0;
#X connect 82 0 98 0;
#X connect 82 0 19 0;
#X connect 99 0 100 0;
#X connect 99 0 100 1;
