#N canvas 41 329 885 474 10;
#X text 452 8 GEM object;
#X obj 9 225 cnv 15 430 135 empty empty empty 20 12 0 14 -233017 -66577
0;
#X text 40 227 Inlets:;
#X text 40 322 Outlets:;
#X obj 9 185 cnv 15 430 30 empty empty empty 20 12 0 14 -195568 -66577
0;
#X text 18 184 Arguments:;
#X obj 8 56 cnv 15 430 120 empty empty empty 20 12 0 14 -233017 -66577
0;
#X obj 449 77 cnv 15 170 280 empty empty empty 20 12 0 14 -228992 -66577
0;
#X text 453 60 Example:;
#X obj 514 309 cnv 15 100 60 empty empty empty 20 12 0 14 -195568 -66577
0;
#N canvas 0 22 450 300 gemwin 0;
#X obj 132 136 gemwin;
#X obj 67 89 outlet;
#X obj 67 10 inlet;
#X msg 67 70 set destroy;
#X msg 132 112 create \, 1;
#X msg 198 112 destroy;
#X msg 156 71 set create;
#X obj 67 41 route create;
#X connect 2 0 7 0;
#X connect 3 0 1 0;
#X connect 4 0 0 0;
#X connect 5 0 0 0;
#X connect 6 0 1 0;
#X connect 7 0 3 0;
#X connect 7 0 4 0;
#X connect 7 1 6 0;
#X connect 7 1 5 0;
#X restore 519 329 pd gemwin;
#X msg 519 329 destroy;
#X text 515 308 Create window:;
#X obj 451 83 gemhead;
#X text 18 336 Outlet 1: gemlist;
#X text 24 241 Inlet 1: gemlist;
#X obj 451 311 square 3;
#X obj 451 289 pix_texture;
#X obj 476 210 pix_delay 100;
#X text 50 12 Synopsis: [pix_delay];
#X text 71 31 Class: pix object (timebased effect);
#X text 29 57 Description: delay a series of images;
#X obj 450 172 pix_film;
#X obj 515 162 t f;
#X obj 464 105 bng 25 250 50 0 empty empty empty 0 -6 0 8 -262144 -1
-1;
#N canvas 0 22 450 300 open 0;
#X obj 85 49 inlet;
#X obj 85 237 outlet;
#X obj 85 145 openpanel;
#X msg 85 179 open \$1;
#X msg 259 213 auto 1;
#X obj 268 179 loadbang;
#X connect 0 0 2 0;
#X connect 2 0 3 0;
#X connect 3 0 1 0;
#X connect 4 0 1 0;
#X connect 5 0 4 0;
#X restore 464 134 pd open;
#X floatatom 551 173 5 0 0 0 - - -;
#X text 505 77 open a supported;
#X text 506 88 movie-clip;
#X text 505 109 macOS: quicktime;
#X text 498 99 windos: *.AVI;
#X text 505 119 linux: depends...;
#X text 528 198 scrub me!;
#X text 64 195 int: max.number of delayed frames;
#X text 24 254 Inlet 1: int: delay (in frames);
#X text 11 79 [pix_delay] is a frame-based delay-line. All frames stored
in the delay-line have to have the same dimensions and colour-space.
You can specify the length of the entire delay-line (==maximum delay)
as an argument to the [pix_delay] object. The delay in frames defaults
to 0 (route through) and can be changed via the second inlet.;
#X obj 620 127 hsl 128 15 0 1 0 1 empty empty empty -2 -6 0 8 -262144
-1 -1 6800 1;
#X floatatom 617 152 5 0 0 0 - - -;
#X msg 674 151 0.7 0.7;
#X obj 451 247 pix_mix 0;
#X obj 667 282 s delay1;
#X obj 659 200 separator;
#X obj 577 268 pix_mix 0;
#X obj 703 58 hsl 128 15 0 1 0 1 empty empty empty -2 -6 0 8 -262144
-1 -1 5900 1;
#X floatatom 700 83 5 0 0 0 - - -;
#X obj 511 267 pix_mix 0;
#X obj 744 179 hsl 128 15 0 1 0 1 empty empty empty -2 -6 0 8 -262144
-1 -1 7500 1;
#X floatatom 741 204 5 0 0 0 - - -;
#X obj 536 230 pix_delay 100;
#X floatatom 611 193 5 0 0 0 - - -;
#X text 588 218 scrub me!;
#X connect 10 0 11 0;
#X connect 11 0 10 0;
#X connect 13 0 22 0;
#X connect 17 0 16 0;
#X connect 18 0 39 1;
#X connect 18 0 42 0;
#X connect 22 0 39 0;
#X connect 22 0 18 0;
#X connect 22 0 48 0;
#X connect 22 2 23 0;
#X connect 23 0 22 1;
#X connect 24 0 25 0;
#X connect 25 0 22 0;
#X connect 26 0 18 1;
#X connect 36 0 37 0;
#X connect 37 0 39 2;
#X connect 38 0 39 2;
#X connect 39 0 45 0;
#X connect 42 0 45 1;
#X connect 43 0 44 0;
#X connect 44 0 42 2;
#X connect 45 0 17 0;
#X connect 46 0 47 0;
#X connect 47 0 45 2;
#X connect 48 0 42 1;
#X connect 49 0 48 1;
