#N canvas 590 121 898 521 10;
#N canvas 455 229 737 526 gemwin 1;
#X obj 51 169 gemwin;
#X obj -14 122 outlet;
#X obj -14 43 inlet;
#X obj -14 74 route create;
#X msg -14 103 set destroy;
#X msg 61 101 set create;
#X msg 117 145 0 \, destroy;
#X obj 167 49 key;
#X obj 193 49 gemkeyboard;
#X obj 167 73 sel 96;
#X floatatom 224 74 5 0 0 0 - - -;
#N canvas 107 24 450 300 esc 0;
#X obj 65 20 gemkeyboard;
#X obj 65 167 outlet;
#X obj 89 71 keyname;
#X obj 128 96 sel Escape;
#X obj 65 41 sel 53;
#X obj 189 47 sel Escape;
#X obj 150 22 gemkeyname;
#X connect 0 0 4 0;
#X connect 2 1 3 0;
#X connect 3 0 1 0;
#X connect 4 0 1 0;
#X connect 5 0 1 0;
#X connect 6 1 5 0;
#X restore 116 48 pd esc;
#X obj -3 200 gemhead;
#N canvas 398 178 450 300 lightsource 0;
#X obj 163 286 world_light;
#X obj 27 196 rotateXYZ 0 0 0;
#X msg 163 95 1;
#X obj 163 74 loadbang;
#X obj 87 177 inlet;
#X obj 123 177 inlet;
#X obj 27 100 inlet;
#X obj 227 26 inlet;
#X obj 331 96 t b;
#X obj 255 45 inlet;
#X obj 284 65 inlet;
#X obj 324 37 inlet;
#X obj 331 73 del;
#X obj 226 260 pack f f f;
#X obj 27 119 i;
#X obj 27 138 min 1;
#X obj 27 157 max 0;
#X text 2 76 render on/off 1/0;
#X text 87 157 rotation x y;
#X text 193 5 RGB balance and Overall Brightness (0-1);
#X obj 226 151 f 1;
#X obj 254 151 f 1;
#X obj 283 151 f 1;
#X obj 226 175 * 1;
#X obj 254 175 * 1;
#X obj 283 175 * 1;
#X obj 315 222 t b;
#X obj 27 177 gemhead 1;
#X msg 74 55 debug \$1;
#X obj 74 35 tgl 15 0 empty empty empty 17 7 0 10 -262144 -1 -1 0 1
;
#X connect 1 0 0 0;
#X connect 2 0 0 0;
#X connect 2 0 27 0;
#X connect 3 0 2 0;
#X connect 4 0 1 1;
#X connect 5 0 1 2;
#X connect 6 0 14 0;
#X connect 7 0 20 0;
#X connect 8 0 20 0;
#X connect 8 0 21 0;
#X connect 8 0 22 0;
#X connect 9 0 21 0;
#X connect 10 0 22 0;
#X connect 11 0 12 0;
#X connect 11 0 23 1;
#X connect 11 0 24 1;
#X connect 11 0 25 1;
#X connect 12 0 8 0;
#X connect 13 0 0 1;
#X connect 14 0 15 0;
#X connect 15 0 16 0;
#X connect 16 0 27 0;
#X connect 20 0 23 0;
#X connect 21 0 24 0;
#X connect 22 0 25 0;
#X connect 23 0 13 0;
#X connect 24 0 13 1;
#X connect 24 0 26 0;
#X connect 25 0 13 2;
#X connect 25 0 26 0;
#X connect 26 0 20 0;
#X connect 27 0 1 0;
#X connect 28 0 0 0;
#X connect 29 0 28 0;
#X restore 102 445 pd lightsource;
#X obj -3 220 s renderClock;
#X floatatom 115 318 5 0 0 0 - - -;
#X floatatom 129 340 5 0 0 0 - - -;
#X floatatom 151 375 5 0 0 0 - - -;
#X floatatom 190 375 5 0 0 0 - - -;
#X floatatom 228 375 5 0 0 0 - - -;
#X floatatom 266 375 5 0 0 0 - - -;
#X msg 103 387 1;
#X obj 103 408 tgl 15 0 empty empty empty 17 7 0 10 -262144 -1 -1 1
1;
#X obj 151 394 / 255;
#X obj 190 394 / 255;
#X obj 228 394 / 255;
#X obj 266 394 / 255;
#X obj 103 367 loadbang;
#X obj 213 246 random 360;
#X obj 213 289 line 30;
#X obj 283 245 random 360;
#X obj 283 288 line 30;
#N canvas 398 178 450 300 lightsource 0;
#X obj 163 286 world_light;
#X obj 27 196 rotateXYZ 0 0 0;
#X msg 163 95 1;
#X obj 163 74 loadbang;
#X obj 87 177 inlet;
#X obj 123 177 inlet;
#X obj 27 100 inlet;
#X obj 227 26 inlet;
#X obj 331 96 t b;
#X obj 255 45 inlet;
#X obj 284 65 inlet;
#X obj 324 37 inlet;
#X obj 331 73 del;
#X obj 226 260 pack f f f;
#X obj 27 119 i;
#X obj 27 138 min 1;
#X obj 27 157 max 0;
#X text 2 76 render on/off 1/0;
#X text 87 157 rotation x y;
#X text 193 5 RGB balance and Overall Brightness (0-1);
#X obj 226 151 f 1;
#X obj 254 151 f 1;
#X obj 283 151 f 1;
#X obj 226 175 * 1;
#X obj 254 175 * 1;
#X obj 283 175 * 1;
#X obj 315 222 t b;
#X obj 27 177 gemhead 1;
#X msg 64 45 debug \$1;
#X obj 64 25 tgl 15 0 empty empty empty 17 7 0 10 -262144 -1 -1 0 1
;
#X connect 1 0 0 0;
#X connect 2 0 0 0;
#X connect 2 0 27 0;
#X connect 3 0 2 0;
#X connect 4 0 1 1;
#X connect 5 0 1 2;
#X connect 6 0 14 0;
#X connect 7 0 20 0;
#X connect 8 0 20 0;
#X connect 8 0 21 0;
#X connect 8 0 22 0;
#X connect 9 0 21 0;
#X connect 10 0 22 0;
#X connect 11 0 12 0;
#X connect 11 0 23 1;
#X connect 11 0 24 1;
#X connect 11 0 25 1;
#X connect 12 0 8 0;
#X connect 13 0 0 1;
#X connect 14 0 15 0;
#X connect 15 0 16 0;
#X connect 16 0 27 0;
#X connect 20 0 23 0;
#X connect 21 0 24 0;
#X connect 22 0 25 0;
#X connect 23 0 13 0;
#X connect 24 0 13 1;
#X connect 24 0 26 0;
#X connect 25 0 13 2;
#X connect 25 0 26 0;
#X connect 26 0 20 0;
#X connect 27 0 1 0;
#X connect 28 0 0 0;
#X connect 29 0 28 0;
#X restore 325 430 pd lightsource;
#X floatatom 338 303 5 0 0 0 - - -;
#X floatatom 352 325 5 0 0 0 - - -;
#X floatatom 374 360 5 0 0 0 - - -;
#X floatatom 413 360 5 0 0 0 - - -;
#X floatatom 451 360 5 0 0 0 - - -;
#X floatatom 489 360 5 0 0 0 - - -;
#X msg 326 372 1;
#X obj 326 393 tgl 15 0 empty empty empty 17 7 0 10 -262144 -1 -1 1
1;
#X obj 374 379 / 255;
#X obj 413 379 / 255;
#X obj 451 379 / 255;
#X obj 489 379 / 255;
#X obj 326 352 loadbang;
#X obj 359 234 random 360;
#X obj 359 277 line 30;
#X obj 429 233 random 360;
#X obj 429 276 line 30;
#X msg 153 219 0;
#X obj 213 222 t b b b b;
#X obj 266 179 tgl 15 0 empty empty empty 17 7 0 10 -262144 -1 -1 0
1;
#X obj 283 266 pack f 1000;
#X obj 213 267 pack f 1000;
#X obj 359 255 pack f 1000;
#X obj 429 254 pack f 1000;
#X obj 183 174 metro 100;
#X msg 51 123 reset \, frame 30 \, dimen 2000 2000 \, lighting 1 \,
fullscreen 0 \, create \, 1;
#X connect 2 0 3 0;
#X connect 3 0 4 0;
#X connect 3 0 58 0;
#X connect 3 1 5 0;
#X connect 3 1 6 0;
#X connect 4 0 1 0;
#X connect 5 0 1 0;
#X connect 6 0 0 0;
#X connect 7 0 9 0;
#X connect 7 0 10 0;
#X connect 8 0 9 0;
#X connect 9 0 4 0;
#X connect 9 0 58 0;
#X connect 11 0 6 0;
#X connect 11 0 5 0;
#X connect 12 0 14 0;
#X connect 15 0 13 1;
#X connect 16 0 13 2;
#X connect 17 0 23 0;
#X connect 18 0 24 0;
#X connect 19 0 25 0;
#X connect 20 0 26 0;
#X connect 21 0 22 0;
#X connect 22 0 13 0;
#X connect 23 0 13 3;
#X connect 24 0 13 4;
#X connect 25 0 13 5;
#X connect 26 0 13 6;
#X connect 27 0 21 0;
#X connect 28 0 54 0;
#X connect 29 0 15 0;
#X connect 30 0 53 0;
#X connect 31 0 16 0;
#X connect 33 0 32 1;
#X connect 34 0 32 2;
#X connect 35 0 41 0;
#X connect 36 0 42 0;
#X connect 37 0 43 0;
#X connect 38 0 44 0;
#X connect 39 0 40 0;
#X connect 40 0 32 0;
#X connect 41 0 32 3;
#X connect 42 0 32 4;
#X connect 43 0 32 5;
#X connect 44 0 32 6;
#X connect 45 0 39 0;
#X connect 46 0 55 0;
#X connect 47 0 33 0;
#X connect 48 0 56 0;
#X connect 49 0 34 0;
#X connect 50 0 17 0;
#X connect 50 0 35 0;
#X connect 51 0 28 0;
#X connect 51 1 30 0;
#X connect 51 2 46 0;
#X connect 51 3 48 0;
#X connect 52 0 57 0;
#X connect 53 0 31 0;
#X connect 54 0 29 0;
#X connect 55 0 47 0;
#X connect 56 0 49 0;
#X connect 57 0 51 0;
#X connect 58 0 0 0;
#X restore 5 -206 pd gemwin;
#X msg 5 -225 create;
#X msg 40 -119 draw line;
#X obj 156 -121 gemhead;
#X msg 96 -59 width \$1;
#X floatatom 96 -78 5 0 10 0 - - -;
#X obj 40 -145 loadbang;
#X obj 156 148 polygon 4;
#X obj 156 -8 translateXYZ;
#X obj 156 -30 colorRGB;
#X obj 156 -58 alpha;
#X obj 183 -79 tgl 15 0 empty empty empty 17 7 0 10 -262144 -1 -1 1
1;
#X msg 183 -101 1;
#X obj 168 71 r point1XYZ;
#X floatatom 298 -200 5 0 0 0 rate - rate;
#X obj 181 90 r point2XYZ;
#X obj 194 109 r point3XYZ;
#X obj 207 128 r point4XYZ;
#X floatatom 299 -178 5 0 0 0 scale - scale;
#X obj 362 -215 bng 15 250 50 0 empty empty empty 17 7 0 10 -262144
-1 -1;
#N canvas 546 300 450 300 pointPositionGenerator1 1;
#X obj 69 329 s point1XYZ;
#X obj 69 251 f;
#X obj 97 251 f;
#X obj 126 251 f;
#X obj 132 271 t b;
#X obj 103 271 t b;
#X obj 20 160 * 0.01;
#X obj 20 201 line 30;
#X obj 20 140 f;
#X obj 209 114 r scale;
#X obj 97 157 * 0.01;
#X obj 97 200 line 30;
#X obj 97 137 f;
#X obj 176 159 * 0.01;
#X obj 176 201 line 30;
#X obj 176 130 f;
#X obj 209 136 * 0.01;
#X floatatom 20 120 5 0 0 0 - - -;
#X floatatom 97 115 5 0 0 0 - - -;
#X floatatom 176 107 5 0 0 0 - - -;
#X obj 176 179 pack f 1000;
#X obj 97 180 pack f 1000;
#X obj 20 181 pack f 1000;
#X obj 239 158 r rate;
#X obj 20 64 random 200;
#X obj 97 64 random 200;
#X obj 176 62 random 200;
#X obj 54 31 inlet;
#X obj 176 85 - 100;
#X obj 97 91 - 100;
#X obj 20 92 - 100;
#X obj 290 192 t b;
#X obj 290 212 del;
#X obj 69 308 pack f f 0;
#X connect 1 0 33 0;
#X connect 2 0 5 0;
#X connect 2 0 33 1;
#X connect 3 0 4 0;
#X connect 3 0 33 2;
#X connect 4 0 1 0;
#X connect 5 0 1 0;
#X connect 6 0 22 0;
#X connect 7 0 1 0;
#X connect 8 0 6 0;
#X connect 9 0 16 0;
#X connect 10 0 21 0;
#X connect 11 0 2 0;
#X connect 12 0 10 0;
#X connect 13 0 20 0;
#X connect 15 0 13 0;
#X connect 16 0 6 1;
#X connect 16 0 10 1;
#X connect 16 0 13 1;
#X connect 16 0 31 0;
#X connect 17 0 8 0;
#X connect 18 0 12 0;
#X connect 19 0 15 0;
#X connect 20 0 14 0;
#X connect 21 0 11 0;
#X connect 22 0 7 0;
#X connect 23 0 20 1;
#X connect 23 0 21 1;
#X connect 23 0 22 1;
#X connect 24 0 30 0;
#X connect 25 0 29 0;
#X connect 26 0 28 0;
#X connect 27 0 24 0;
#X connect 27 0 25 0;
#X connect 27 0 26 0;
#X connect 28 0 19 0;
#X connect 29 0 18 0;
#X connect 30 0 17 0;
#X connect 31 0 32 0;
#X connect 32 0 15 0;
#X connect 32 0 12 0;
#X connect 32 0 8 0;
#X connect 33 0 0 0;
#X restore 381 -195 pd pointPositionGenerator1;
#N canvas 105 258 450 300 pointPositionGenerator2 1;
#X obj 69 251 f;
#X obj 97 251 f;
#X obj 126 251 f;
#X obj 132 271 t b;
#X obj 103 271 t b;
#X obj 20 160 * 0.01;
#X obj 20 201 line 30;
#X obj 20 140 f;
#X obj 209 114 r scale;
#X obj 97 157 * 0.01;
#X obj 97 200 line 30;
#X obj 97 137 f;
#X obj 176 159 * 0.01;
#X obj 176 201 line 30;
#X obj 176 130 f;
#X obj 209 136 * 0.01;
#X floatatom 20 120 5 0 0 0 - - -;
#X floatatom 97 115 5 0 0 0 - - -;
#X floatatom 176 107 5 0 0 0 - - -;
#X obj 176 179 pack f 1000;
#X obj 97 180 pack f 1000;
#X obj 20 181 pack f 1000;
#X obj 239 158 r rate;
#X obj 20 64 random 200;
#X obj 97 64 random 200;
#X obj 176 62 random 200;
#X obj 54 31 inlet;
#X obj 176 85 - 100;
#X obj 97 91 - 100;
#X obj 20 92 - 100;
#X obj 69 329 s point2XYZ;
#X obj 320 222 t b;
#X obj 320 242 del;
#X obj 69 308 pack f f 0;
#X connect 0 0 33 0;
#X connect 1 0 4 0;
#X connect 1 0 33 1;
#X connect 2 0 3 0;
#X connect 2 0 33 2;
#X connect 3 0 0 0;
#X connect 4 0 0 0;
#X connect 5 0 21 0;
#X connect 6 0 0 0;
#X connect 7 0 5 0;
#X connect 8 0 15 0;
#X connect 9 0 20 0;
#X connect 10 0 1 0;
#X connect 11 0 9 0;
#X connect 12 0 19 0;
#X connect 13 0 2 0;
#X connect 14 0 12 0;
#X connect 15 0 5 1;
#X connect 15 0 9 1;
#X connect 15 0 12 1;
#X connect 15 0 31 0;
#X connect 16 0 7 0;
#X connect 17 0 11 0;
#X connect 18 0 14 0;
#X connect 19 0 13 0;
#X connect 20 0 10 0;
#X connect 21 0 6 0;
#X connect 22 0 19 1;
#X connect 22 0 20 1;
#X connect 22 0 21 1;
#X connect 23 0 29 0;
#X connect 24 0 28 0;
#X connect 25 0 27 0;
#X connect 26 0 23 0;
#X connect 26 0 24 0;
#X connect 27 0 18 0;
#X connect 28 0 17 0;
#X connect 29 0 16 0;
#X connect 31 0 32 0;
#X connect 32 0 14 0;
#X connect 32 0 11 0;
#X connect 32 0 7 0;
#X connect 33 0 30 0;
#X restore 380 -175 pd pointPositionGenerator2;
#N canvas 105 258 450 300 pointPositionGenerator3 1;
#X obj 69 251 f;
#X obj 97 251 f;
#X obj 126 251 f;
#X obj 132 271 t b;
#X obj 103 271 t b;
#X obj 20 160 * 0.01;
#X obj 20 201 line 30;
#X obj 20 140 f;
#X obj 209 114 r scale;
#X obj 97 157 * 0.01;
#X obj 97 200 line 30;
#X obj 97 137 f;
#X obj 176 159 * 0.01;
#X obj 176 201 line 30;
#X obj 176 130 f;
#X obj 209 136 * 0.01;
#X floatatom 20 120 5 0 0 0 - - -;
#X floatatom 97 115 5 0 0 0 - - -;
#X floatatom 176 107 5 0 0 0 - - -;
#X obj 176 179 pack f 1000;
#X obj 97 180 pack f 1000;
#X obj 20 181 pack f 1000;
#X obj 239 158 r rate;
#X obj 20 64 random 200;
#X obj 97 64 random 200;
#X obj 176 62 random 200;
#X obj 54 31 inlet;
#X obj 176 85 - 100;
#X obj 97 91 - 100;
#X obj 20 92 - 100;
#X obj 69 329 s point3XYZ;
#X obj 310 212 t b;
#X obj 310 232 del;
#X obj 69 308 pack f f 0;
#X connect 0 0 33 0;
#X connect 1 0 4 0;
#X connect 1 0 33 1;
#X connect 2 0 3 0;
#X connect 2 0 33 2;
#X connect 3 0 0 0;
#X connect 4 0 0 0;
#X connect 5 0 21 0;
#X connect 6 0 0 0;
#X connect 7 0 5 0;
#X connect 8 0 15 0;
#X connect 9 0 20 0;
#X connect 10 0 1 0;
#X connect 11 0 9 0;
#X connect 12 0 19 0;
#X connect 13 0 2 0;
#X connect 14 0 12 0;
#X connect 15 0 5 1;
#X connect 15 0 9 1;
#X connect 15 0 12 1;
#X connect 15 0 31 0;
#X connect 16 0 7 0;
#X connect 17 0 11 0;
#X connect 18 0 14 0;
#X connect 19 0 13 0;
#X connect 20 0 10 0;
#X connect 21 0 6 0;
#X connect 22 0 19 1;
#X connect 22 0 20 1;
#X connect 22 0 21 1;
#X connect 23 0 29 0;
#X connect 24 0 28 0;
#X connect 25 0 27 0;
#X connect 26 0 23 0;
#X connect 26 0 24 0;
#X connect 27 0 18 0;
#X connect 28 0 17 0;
#X connect 29 0 16 0;
#X connect 31 0 32 0;
#X connect 32 0 14 0;
#X connect 32 0 11 0;
#X connect 32 0 7 0;
#X connect 33 0 30 0;
#X restore 380 -156 pd pointPositionGenerator3;
#N canvas 105 258 450 300 pointPositionGenerator4 1;
#X obj 69 251 f;
#X obj 97 251 f;
#X obj 126 251 f;
#X obj 132 271 t b;
#X obj 103 271 t b;
#X obj 20 160 * 0.01;
#X obj 20 201 line 30;
#X obj 20 140 f;
#X obj 209 114 r scale;
#X obj 97 157 * 0.01;
#X obj 97 200 line 30;
#X obj 97 137 f;
#X obj 176 159 * 0.01;
#X obj 176 201 line 30;
#X obj 176 130 f;
#X obj 209 136 * 0.01;
#X floatatom 20 120 5 0 0 0 - - -;
#X floatatom 97 115 5 0 0 0 - - -;
#X floatatom 176 107 5 0 0 0 - - -;
#X obj 176 179 pack f 1000;
#X obj 97 180 pack f 1000;
#X obj 20 181 pack f 1000;
#X obj 239 158 r rate;
#X obj 20 64 random 200;
#X obj 97 64 random 200;
#X obj 176 62 random 200;
#X obj 54 31 inlet;
#X obj 176 85 - 100;
#X obj 97 91 - 100;
#X obj 20 92 - 100;
#X obj 69 329 s point4XYZ;
#X obj 300 154 t b;
#X obj 300 174 del;
#X obj 69 308 pack f f 0;
#X connect 0 0 33 0;
#X connect 1 0 4 0;
#X connect 1 0 33 1;
#X connect 2 0 3 0;
#X connect 2 0 33 2;
#X connect 3 0 0 0;
#X connect 4 0 0 0;
#X connect 5 0 21 0;
#X connect 6 0 0 0;
#X connect 7 0 5 0;
#X connect 8 0 15 0;
#X connect 9 0 20 0;
#X connect 10 0 1 0;
#X connect 11 0 9 0;
#X connect 12 0 19 0;
#X connect 13 0 2 0;
#X connect 14 0 12 0;
#X connect 15 0 5 1;
#X connect 15 0 9 1;
#X connect 15 0 12 1;
#X connect 15 0 31 0;
#X connect 16 0 7 0;
#X connect 17 0 11 0;
#X connect 18 0 14 0;
#X connect 19 0 13 0;
#X connect 20 0 10 0;
#X connect 21 0 6 0;
#X connect 22 0 19 1;
#X connect 22 0 20 1;
#X connect 22 0 21 1;
#X connect 23 0 29 0;
#X connect 24 0 28 0;
#X connect 25 0 27 0;
#X connect 26 0 23 0;
#X connect 26 0 24 0;
#X connect 27 0 18 0;
#X connect 28 0 17 0;
#X connect 29 0 16 0;
#X connect 31 0 32 0;
#X connect 32 0 14 0;
#X connect 32 0 11 0;
#X connect 32 0 7 0;
#X connect 33 0 30 0;
#X restore 379 -136 pd pointPositionGenerator4;
#X obj 232 -81 / 255;
#X floatatom 232 -100 5 0 0 0 - - -;
#X obj 269 -81 / 255;
#X floatatom 269 -100 5 0 0 0 - - -;
#X obj 305 -81 / 255;
#X floatatom 305 -100 5 0 0 0 - - -;
#X obj 342 -81 / 255;
#X floatatom 342 -100 5 0 0 0 - - -;
#X obj 276 -18 t b;
#X msg 298 -222 0;
#X msg 317 36 0;
#X obj 434 28 line 30;
#X obj 365 27 line 30;
#X obj 405 -104 metro;
#X obj 507 -97 hsl 250 15 0 5000 0 0 empty empty empty -2 -8 0 10 -262144
-1 -1 0 1;
#X floatatom 516 -73 5 0 0 0 - - -;
#X obj 323 -149 tgl 15 0 empty empty empty 17 7 0 10 -262144 -1 -1
0 1;
#X floatatom 434 52 5 0 0 0 - - -;
#X floatatom 365 47 5 0 0 0 - - -;
#X obj 365 4 pack f f;
#X obj 434 5 pack f f;
#X obj 448 -63 del;
#X obj 365 -16 f;
#X obj 434 -16 f;
#X floatatom 575 -16 5 0 0 0 - - -;
#X msg 400 -61 0;
#X floatatom 568 -46 5 0 0 0 - - -;
#X msg 301 192 auto \$1;
#X obj 301 173 tgl 15 0 empty empty empty 0 -6 0 8 -262144 -1 -1 0
1;
#X obj 294 108 bng 15 250 50 0 empty empty empty 0 -6 0 8 -258699 -1
-1;
#N canvas 0 22 450 300 savepanel 0;
#X obj 114 62 inlet;
#X obj 114 254 outlet;
#X obj 114 199 t b a;
#X obj 114 125 savepanel;
#X msg 114 162 set file \$1 100;
#X connect 0 0 3 0;
#X connect 2 0 1 0;
#X connect 2 1 1 0;
#X connect 3 0 4 0;
#X connect 4 0 2 0;
#X restore 294 127 pd savepanel;
#X obj 294 214 pix_write;
#X msg 375 153 file /Users/julianasteele/Documents/2013 December/CYRUS_TEST_STILLS/PD_Tests/FlyingPolygon/4points_2000x2000_
100;
#X connect 0 0 1 0;
#X connect 1 0 0 0;
#X connect 2 0 7 0;
#X connect 3 0 10 0;
#X connect 3 0 32 0;
#X connect 4 0 7 0;
#X connect 5 0 4 0;
#X connect 6 0 2 0;
#X connect 6 0 12 0;
#X connect 7 0 55 0;
#X connect 8 0 7 0;
#X connect 9 0 8 0;
#X connect 10 0 9 0;
#X connect 11 0 10 1;
#X connect 12 0 11 0;
#X connect 12 0 5 0;
#X connect 13 0 7 1;
#X connect 15 0 7 2;
#X connect 16 0 7 3;
#X connect 17 0 7 4;
#X connect 19 0 20 0;
#X connect 19 0 21 0;
#X connect 19 0 22 0;
#X connect 19 0 23 0;
#X connect 24 0 9 1;
#X connect 25 0 24 0;
#X connect 26 0 9 2;
#X connect 27 0 26 0;
#X connect 28 0 9 3;
#X connect 29 0 28 0;
#X connect 30 0 9 4;
#X connect 31 0 30 0;
#X connect 33 0 14 0;
#X connect 34 0 8 3;
#X connect 35 0 41 0;
#X connect 35 0 18 0;
#X connect 36 0 42 0;
#X connect 36 0 8 3;
#X connect 37 0 19 0;
#X connect 37 0 45 0;
#X connect 37 0 49 0;
#X connect 38 0 37 1;
#X connect 38 0 39 0;
#X connect 38 0 44 1;
#X connect 38 0 43 1;
#X connect 40 0 37 0;
#X connect 43 0 36 0;
#X connect 44 0 35 0;
#X connect 45 0 46 0;
#X connect 45 0 47 0;
#X connect 46 0 43 0;
#X connect 47 0 44 0;
#X connect 48 0 47 1;
#X connect 49 0 35 0;
#X connect 49 0 36 0;
#X connect 50 0 46 1;
#X connect 51 0 55 0;
#X connect 52 0 51 0;
#X connect 53 0 54 0;
#X connect 54 0 56 0;
#X connect 56 0 55 0;
