#N canvas 43 22 1264 709 10;
#N canvas 149 134 791 566 gemwin 1;
#X obj 67 89 outlet;
#X obj 67 10 inlet;
#X msg 67 70 set destroy;
#X msg 132 112 create \, 1;
#X msg 198 112 destroy;
#X msg 156 71 set create;
#X obj 67 41 route create;
#X obj 304 75 gemhead;
#X obj 304 100 world_light;
#X obj 142 135 loadbang;
#X obj 132 192 gemwin;
#X text 121 21 press ESC to quit;
#X obj 283 121 s renderClock;
#X msg 143 156 lighting 1 \, cursor 1 \, fullscreen 0 \, border 1 \,
topmost 1;
#X connect 1 0 6 0;
#X connect 2 0 0 0;
#X connect 3 0 10 0;
#X connect 4 0 10 0;
#X connect 5 0 0 0;
#X connect 6 0 2 0;
#X connect 6 0 3 0;
#X connect 6 1 5 0;
#X connect 6 1 4 0;
#X connect 7 0 8 0;
#X connect 7 0 12 0;
#X connect 9 0 13 0;
#X connect 13 0 10 0;
#X restore -244 -218 pd gemwin;
#X msg -244 -237 destroy;
#X text -248 -258 comment;
#X obj 61 8 hsl 100 15 50 5000 0 0 rect1SpeedRotation empty Rotation_Speed
7 7 0 10 -262144 -1 -1 0 1;
#X obj 174 8 hsl 100 15 50 5000 0 0 rect1SpeedTrans empty Translation_Speed
7 7 0 10 -262144 -1 -1 0 1;
#X obj 174 65 hsl 100 15 -2 2 0 0 rect1ZTransJump rect1ZTrans_HSLider
translate_z 7 7 0 10 -262144 -1 -1 4950 1;
#X obj 173 45 hsl 100 15 -2 2 0 0 rect1YTransJump rect1YTrans_HSLider
translate_y 7 7 0 10 -262144 -1 -1 4950 1;
#X obj 173 27 hsl 100 15 -2 2 0 0 rect1XTransJump rect1XTrans_HSLider
translate_x 7 7 0 10 -262144 -1 -1 4950 1;
#X obj -47 7 hsl 100 15 50 10000 0 0 line_forme2 empty morph_speed
7 7 0 10 -262144 -1 -1 0 1;
#X obj -48 45 hsl 100 15 0 1 0 0 scaleY_forme2 empty morph_scale_y
7 7 0 10 -262144 -1 -1 495 1;
#X obj -48 64 hsl 100 15 0 1 0 0 scaleZ_forme2 empty morph_scale_z
7 7 0 10 -262144 -1 -1 495 1;
#X obj 61 26 hsl 100 15 -180 180 0 0 rect1RotXJump rect1XRot_HSLider
rotate_x 7 7 0 10 -262144 -1 -1 4950 1;
#X obj 62 44 hsl 100 15 -180 180 0 0 rect1RotYJump rect1YRot_HSLider
rotate_y 7 7 0 10 -262144 -1 -1 4950 1;
#X obj 62 63 hsl 100 15 -180 180 0 0 rect1RotZJump rect1ZRot_HSLider
rotate_z 7 7 0 10 -262144 -1 -1 4950 1;
#X msg 163 -29 0;
#X obj 163 -50 r transReset;
#N canvas 0 22 1362 691 pix_film_01 0;
#X obj -121 -94 gemhead;
#X floatatom -97 65 5 0 0 3 length - -;
#X floatatom -58 64 5 0 0 3 width - -;
#X floatatom -23 65 5 0 0 3 height - -;
#X obj -62 7 bng 15 250 50 0 empty empty end_reached 20 7 0 10 -262144
-1 -1;
#X floatatom -76 -14 5 0 10000 1 frame# - -;
#X obj -121 6 pix_film;
#X obj -99 39 unpack f f f;
#X obj -109 94 s pix_film_01_length;
#X obj -76 -35 r pix_film_01_frameControl;
#X obj -122 117 s pix_film_01_render_command;
#X obj -108 -54 r pix_film_01_openFile;
#X obj 186 325 counter;
#X obj 170 274 t b;
#X msg 195 273 2;
#X msg 205 299 0;
#X msg 267 257 set \$1;
#X msg 267 318 149;
#X msg 234 299 0;
#X obj 195 238 loadbang;
#X obj 152 238 spigot;
#X obj 383 205 r pix_film_01_length;
#X obj 186 356 s pix_film_01_frameControl;
#X obj 333 318 random;
#X obj 279 291 t b;
#X obj 215 205 r pix_film_01_frame;
#X obj 379 319 delay;
#X obj 407 -36 key;
#X floatatom 418 -12 5 0 0 0 - - -;
#X obj 580 159 adc~;
#X obj 572 185 snapshot~;
#X obj 572 208 + 1;
#X obj 572 232 * 0.5;
#X obj 572 274 *;
#X obj 587 252 r pix_film_01_length;
#X obj 572 343 i;
#X obj 572 367 s pix_film_01_frame;
#X floatatom 537 368 5 0 0 0 - - -;
#X obj 572 100 metro 250;
#X msg 586 66 1;
#X msg 596 76 0;
#X obj 572 297 pack f 250;
#X obj 572 319 line 0 50;
#X obj 572 139 spigot;
#X obj 185 210 tgl 15 0 empty empty empty 17 7 0 10 -262144 -1 -1 0
1;
#X obj 605 121 tgl 15 0 empty empty empty 17 7 0 10 -262144 -1 -1 0
1;
#X obj 407 12 select 32 96 47 122 120;
#X msg 460 86 inc;
#X msg 432 86 dec;
#X floatatom 122 357 10 0 0 0 - - -;
#X obj 397 232 - 1;
#X obj 333 292 r frameRand;
#X obj 394 171 sel 0 1;
#X obj 152 152 r renderClock;
#X connect 0 0 6 0;
#X connect 5 0 6 1;
#X connect 6 0 10 0;
#X connect 6 1 7 0;
#X connect 6 2 4 0;
#X connect 7 0 1 0;
#X connect 7 0 8 0;
#X connect 7 1 2 0;
#X connect 7 2 3 0;
#X connect 9 0 5 0;
#X connect 11 0 6 0;
#X connect 12 0 22 0;
#X connect 12 0 49 0;
#X connect 13 0 12 0;
#X connect 14 0 12 1;
#X connect 15 0 12 2;
#X connect 16 0 17 0;
#X connect 17 0 12 4;
#X connect 18 0 12 3;
#X connect 19 0 14 0;
#X connect 19 0 15 0;
#X connect 19 0 18 0;
#X connect 20 0 13 0;
#X connect 21 0 50 0;
#X connect 21 0 23 1;
#X connect 23 0 12 3;
#X connect 24 0 17 0;
#X connect 25 0 12 3;
#X connect 26 0 24 0;
#X connect 27 0 28 0;
#X connect 27 0 46 0;
#X connect 29 0 30 0;
#X connect 30 0 31 0;
#X connect 31 0 32 0;
#X connect 32 0 33 0;
#X connect 33 0 41 0;
#X connect 34 0 33 1;
#X connect 35 0 36 0;
#X connect 35 0 37 0;
#X connect 38 0 43 0;
#X connect 39 0 38 0;
#X connect 40 0 38 0;
#X connect 41 0 42 0;
#X connect 42 0 35 0;
#X connect 43 0 30 0;
#X connect 44 0 20 1;
#X connect 44 0 52 0;
#X connect 45 0 43 1;
#X connect 46 0 44 0;
#X connect 46 1 12 3;
#X connect 46 2 45 0;
#X connect 46 3 48 0;
#X connect 46 4 47 0;
#X connect 47 0 12 0;
#X connect 48 0 12 0;
#X connect 50 0 16 0;
#X connect 50 0 26 0;
#X connect 51 0 23 0;
#X connect 52 0 39 0;
#X connect 52 1 40 0;
#X connect 53 0 20 0;
#X restore -246 79 pd pix_film_01;
#N canvas 0 22 450 300 (subpatch) 0;
#X array \$0-motionContol_01 50 float 1;
#A 0 0.622855 0.622855 0.622855 0.622855 0.582855 0.222855 0.262855
0.262855 0.222855 0.302855 0.422855 0.502855 0.582855 0.622855 0.382855
0.0628547 -0.177145 -0.0971451 -0.0971451 -0.0971451 -0.0971451 -0.0971451
-0.0971451 -0.0971451 -0.0971451 -0.0971451 -0.0971451 -0.0971451 -0.0971451
-0.0971451 -0.0971451 -0.0971451 -0.0171452 0.182855 0.342854 0.502854
0.622854 -0.337145 -0.457145 -0.497145 -0.497145 -0.537145 -0.537145
-0.537145 -0.537145 -0.457145 -0.417145 -0.377145 -0.297145 -0.257145
;
#X coords 0 1 49 -1 100 50 1 0 0;
#X restore 372 -198 graph;
#N canvas 0 22 450 300 (subpatch) 0;
#X array \$0-motionContol_02 50 float 1;
#A 0 -0.0742881 0.0457117 0.0857116 0.0857116 0.125712 0.0457125 0.0857124
-0.394287 -0.394287 -0.434287 -0.434287 -0.434287 -0.394287 -0.354287
-0.314287 -0.114287 0.125712 0.225712 0.325712 0.565712 0.685712 0.725712
0.725712 0.725712 0.725712 0.725712 0.725712 0.685712 0.685712 0.685712
0.645712 0.605712 0.565712 0.525712 0.509712 0.493712 0.477712 0.461712
0.445712 0.439045 0.432379 0.425712 0.419045 0.412379 0.405712 0.405712
0.405712 0.405712 0.405712 0.405712;
#X coords 0 1 49 -1 100 50 1 0 0;
#X restore 496 -198 graph;
#N canvas 0 22 450 300 (subpatch) 0;
#X array \$0-motionContol_03 50 float 1;
#A 0 -0.0242883 -0.184288 -0.224288 -0.224288 -0.224288 -0.224288 0.175712
0.175712 0.175712 0.295711 0.295711 0.295711 0.295711 0.295711 0.215711
0.0957116 -0.104288 -0.384288 -0.464288 -0.544288 -0.544288 -0.424288
-0.344288 -0.224288 -0.0642883 0.135712 0.215711 0.295711 0.455711
0.495711 0.535711 0.575711 0.602378 0.629044 0.655711 0.675711 0.695711
0.715711 0.735711 0.855711 0.875711 0.895711 0.895711 0.895711 0.335711
0.215711 0.0157117 -0.0442883 -0.104288 -0.184288;
#X coords 0 1 49 -1 100 50 1 0 0;
#X restore 624 -198 graph;
#N canvas 0 22 1366 725 mouse 0;
#X obj 41 -18 MouseState;
#X floatatom 55 110 5 0 0 0 - - -;
#X floatatom 69 91 5 0 0 0 - - -;
#X msg -16 -49 poll;
#X floatatom 92 53 5 0 0 0 - - -;
#X floatatom 105 11 5 0 0 0 - - -;
#X msg 18 -49 nopoll;
#X msg 41 -71 zero;
#X msg 70 -71 reset;
#X obj -16 -71 sel 1 0;
#X obj -16 -90 tgl 15 0 empty empty empty 17 7 0 10 -262144 -1 -1 0
1;
#X obj 212 208 s rect1XTransJump;
#X obj 212 61 +;
#X obj 212 -118 t b;
#X obj 212 38 f;
#X obj 212 87 * 0.01;
#X obj 41 -141 key;
#X obj 41 -120 select 91 93 39;
#X obj 237 -80 r rect1ZTransJump;
#X obj 81 -93 s transReset;
#X obj 211 -140 r mouseDeltaX;
#X obj 351 -26 r mouseDeltaY;
#X obj 351 42 +;
#X obj 351 -3 t b;
#X obj 351 19 f;
#X obj 351 68 * 0.01;
#X obj 351 89 s rect1YTransJump;
#X obj 222 126 s rect1ZTransJump;
#X obj 375 -3 r rect1YTransJump;
#X obj 227 -99 r rect1XTransJump;
#X obj 83 71 s mouseDeltaX;
#X obj 98 31 s mouseDeltaY;
#X obj 212 188 spigot;
#X obj 222 107 spigot;
#X obj 41 130 s mouseClick;
#X obj 269 89 r mouseClick;
#X obj 245 146 sel 1 0;
#X msg 245 167 1;
#X msg 277 167 0;
#X obj 227 19 spigot;
#X obj 237 -42 spigot;
#X obj 270 -61 r mouseClick;
#X obj 260 -23 sel 1 0;
#X msg 260 -2 1;
#X msg 292 -2 0;
#X connect 0 0 34 0;
#X connect 0 1 1 0;
#X connect 0 2 2 0;
#X connect 0 3 4 0;
#X connect 0 3 30 0;
#X connect 0 4 5 0;
#X connect 0 4 31 0;
#X connect 3 0 0 0;
#X connect 6 0 0 0;
#X connect 7 0 0 0;
#X connect 8 0 0 0;
#X connect 9 0 3 0;
#X connect 9 1 6 0;
#X connect 10 0 9 0;
#X connect 12 0 15 0;
#X connect 13 0 14 0;
#X connect 14 0 12 0;
#X connect 15 0 32 0;
#X connect 15 0 33 0;
#X connect 16 0 17 0;
#X connect 17 0 7 0;
#X connect 17 1 8 0;
#X connect 17 1 19 0;
#X connect 17 2 10 0;
#X connect 18 0 40 0;
#X connect 20 0 13 0;
#X connect 20 0 12 1;
#X connect 21 0 23 0;
#X connect 21 0 22 1;
#X connect 22 0 25 0;
#X connect 23 0 24 0;
#X connect 24 0 22 0;
#X connect 25 0 26 0;
#X connect 28 0 24 1;
#X connect 29 0 39 0;
#X connect 32 0 11 0;
#X connect 33 0 27 0;
#X connect 35 0 33 1;
#X connect 35 0 36 0;
#X connect 36 0 38 0;
#X connect 36 1 37 0;
#X connect 37 0 32 1;
#X connect 38 0 32 1;
#X connect 39 0 14 1;
#X connect 40 0 14 1;
#X connect 41 0 40 1;
#X connect 41 0 42 0;
#X connect 42 0 44 0;
#X connect 42 1 43 0;
#X connect 43 0 39 1;
#X connect 44 0 39 1;
#X restore -244 237 pd mouse control;
#X obj 497 -103 hradio 15 1 0 8 counterDivSel_02 setCounterDivSel_02
Render_Clock_Div_02 0 -8 0 10 -262144 -1 -1 0;
#X msg 51 -45 0.01;
#X obj -48 26 hsl 100 15 0 1 0 0 scaleX_forme2 empty morph_scale_x
7 7 0 10 -262144 -1 -1 495 1;
#X obj 260 -155 bng 15 250 50 0 formRand empty randomize_form_1 0 -6
0 8 -262144 -1 -1;
#X obj -41 -172 hradio 15 1 0 6 videoSelect_01 videoSelect_01_Init
01_clip_select 0 -8 0 10 -262144 -1 -1 0;
#N canvas 139 223 450 300 tabread1 0;
#X obj 176 24 tabread \$0-motionContol_01;
#X obj 176 -1 counter 0 0 50;
#X floatatom 140 23 5 0 0 0 - - -;
#X obj 176 -70 r renderClockDiv_01;
#X obj 196 -50 r counterDir_01;
#X obj 176 48 s motionControl_01;
#X connect 0 0 5 0;
#X connect 1 0 2 0;
#X connect 1 0 0 0;
#X connect 3 0 1 0;
#X connect 4 0 1 1;
#X coords 0 300 1 299 130 60 0;
#X restore -244 169 pd tabread1;
#X obj 373 -103 hradio 15 1 0 8 counterDivSel_01 setCounterDivSel_01
Render_Clock_Div_01 0 -8 0 10 -262144 -1 -1 0;
#X obj 373 -133 hradio 15 1 0 3 counterDir_01 empty Counter_01_Direction
0 -8 0 10 -262144 -1 -1 0;
#N canvas 0 57 1362 691 clipSelect 0;
#X msg 212 463 open C:/Users/Phillip/Documents/Videos/\$1.mov;
#X obj 108 159 sel 0 1 2 3 4 5;
#X msg 235 188 101 102 103 104 105 106;
#X obj 232 219 unpack f f f f f f;
#X msg 249 168 201 202 203 204 205 206;
#X obj 235 30 sel 0 1 2 3 4 5 6;
#X obj 235 9 r setSelect;
#X obj 99 372 i;
#X obj 125 372 i;
#X obj 153 372 i;
#X obj 180 372 i;
#X obj 208 372 i;
#X obj 236 372 i;
#X msg 263 145 301 302 303 304 305 306;
#X msg 277 124 401 402 403 404 405 406;
#X msg 291 102 501 502 503 504 505 506;
#X msg 305 82 601 602 603 604 605 606;
#X msg 319 63 701 702 703 704 705 706;
#X floatatom 41 416 5 0 0 0 - - -;
#X floatatom 51 426 5 0 0 0 - - -;
#X floatatom 61 436 5 0 0 0 - - -;
#X floatatom 71 446 5 0 0 0 - - -;
#X floatatom 81 456 5 0 0 0 - - -;
#X floatatom 91 466 5 0 0 0 - - -;
#X floatatom 274 336 5 0 0 0 - - -;
#X floatatom 284 346 5 0 0 0 - - -;
#X floatatom 294 356 5 0 0 0 - - -;
#X floatatom 304 366 5 0 0 0 - - -;
#X floatatom 314 376 5 0 0 0 - - -;
#X floatatom 324 386 5 0 0 0 - - -;
#X msg 205 660 open C:/Users/Phillip/Documents/Videos/\$1.mov;
#X obj 92 537 sel 0 1 2 3 4 5;
#X obj 92 569 i;
#X obj 118 569 i;
#X obj 146 569 i;
#X obj 173 569 i;
#X obj 201 569 i;
#X obj 229 569 i;
#X floatatom 34 613 5 0 0 0 - - -;
#X floatatom 44 623 5 0 0 0 - - -;
#X floatatom 54 633 5 0 0 0 - - -;
#X floatatom 64 643 5 0 0 0 - - -;
#X floatatom 74 653 5 0 0 0 - - -;
#X floatatom 84 663 5 0 0 0 - - -;
#X obj 108 138 r videoSelect_01;
#X obj 92 516 r videoSelect_02;
#X obj 213 486 s pix_film_01_openFile;
#X msg 679 577 open C:/Users/Phillip/Documents/Videos/\$1.mov;
#X obj 565 451 sel 0 1 2 3 4 5;
#X obj 566 486 i;
#X obj 592 486 i;
#X obj 620 486 i;
#X obj 647 486 i;
#X obj 675 486 i;
#X obj 703 486 i;
#X floatatom 508 530 5 0 0 0 - - -;
#X floatatom 518 540 5 0 0 0 - - -;
#X floatatom 528 550 5 0 0 0 - - -;
#X floatatom 538 560 5 0 0 0 - - -;
#X floatatom 548 570 5 0 0 0 - - -;
#X floatatom 558 580 5 0 0 0 - - -;
#X obj 566 430 r videoSelect_03;
#X obj 679 599 s pix_film_03_openFile;
#X obj 205 683 s pix_film_02_openFile;
#X obj 404 298 t b;
#X msg 404 319 0;
#X obj 403 276 del;
#X obj 442 269 t b;
#X msg 442 290 0;
#X obj 441 247 del;
#X obj 442 314 s videoSelect_02_Init;
#X obj 404 343 s videoSelect_01_Init;
#X obj 474 226 t b;
#X msg 474 247 0;
#X obj 473 204 del;
#X obj 474 271 s videoSelect_03_Init;
#X connect 0 0 46 0;
#X connect 1 0 7 0;
#X connect 1 1 8 0;
#X connect 1 2 9 0;
#X connect 1 3 10 0;
#X connect 1 4 11 0;
#X connect 1 5 12 0;
#X connect 2 0 3 0;
#X connect 3 0 7 1;
#X connect 3 0 24 0;
#X connect 3 0 32 1;
#X connect 3 0 49 1;
#X connect 3 1 8 1;
#X connect 3 1 25 0;
#X connect 3 1 33 1;
#X connect 3 1 50 1;
#X connect 3 2 9 1;
#X connect 3 2 26 0;
#X connect 3 2 34 1;
#X connect 3 2 51 1;
#X connect 3 3 10 1;
#X connect 3 3 27 0;
#X connect 3 3 35 1;
#X connect 3 3 52 1;
#X connect 3 4 11 1;
#X connect 3 4 28 0;
#X connect 3 4 36 1;
#X connect 3 4 53 1;
#X connect 3 5 12 1;
#X connect 3 5 29 0;
#X connect 3 5 37 1;
#X connect 3 5 54 1;
#X connect 4 0 3 0;
#X connect 5 0 2 0;
#X connect 5 1 4 0;
#X connect 5 2 13 0;
#X connect 5 3 14 0;
#X connect 5 4 15 0;
#X connect 5 5 16 0;
#X connect 5 6 17 0;
#X connect 6 0 5 0;
#X connect 7 0 0 0;
#X connect 7 0 18 0;
#X connect 8 0 0 0;
#X connect 8 0 19 0;
#X connect 9 0 0 0;
#X connect 9 0 20 0;
#X connect 10 0 0 0;
#X connect 10 0 21 0;
#X connect 11 0 0 0;
#X connect 11 0 22 0;
#X connect 12 0 0 0;
#X connect 12 0 23 0;
#X connect 13 0 3 0;
#X connect 14 0 3 0;
#X connect 15 0 3 0;
#X connect 16 0 3 0;
#X connect 17 0 3 0;
#X connect 30 0 63 0;
#X connect 31 0 32 0;
#X connect 31 1 33 0;
#X connect 31 2 34 0;
#X connect 31 3 35 0;
#X connect 31 4 36 0;
#X connect 31 5 37 0;
#X connect 32 0 30 0;
#X connect 32 0 38 0;
#X connect 33 0 30 0;
#X connect 33 0 39 0;
#X connect 34 0 30 0;
#X connect 34 0 40 0;
#X connect 35 0 30 0;
#X connect 35 0 41 0;
#X connect 36 0 30 0;
#X connect 36 0 42 0;
#X connect 37 0 30 0;
#X connect 37 0 43 0;
#X connect 44 0 1 0;
#X connect 45 0 31 0;
#X connect 47 0 62 0;
#X connect 48 0 49 0;
#X connect 48 1 50 0;
#X connect 48 2 51 0;
#X connect 48 3 52 0;
#X connect 48 4 53 0;
#X connect 48 5 54 0;
#X connect 49 0 47 0;
#X connect 49 0 55 0;
#X connect 50 0 47 0;
#X connect 50 0 56 0;
#X connect 51 0 47 0;
#X connect 51 0 57 0;
#X connect 52 0 47 0;
#X connect 52 0 58 0;
#X connect 53 0 47 0;
#X connect 53 0 59 0;
#X connect 54 0 47 0;
#X connect 54 0 60 0;
#X connect 61 0 48 0;
#X connect 64 0 65 0;
#X connect 65 0 71 0;
#X connect 66 0 64 0;
#X connect 67 0 68 0;
#X connect 68 0 70 0;
#X connect 69 0 67 0;
#X connect 72 0 73 0;
#X connect 73 0 75 0;
#X connect 74 0 72 0;
#X restore 119 -205 pd clipSelect;
#X obj 372 -83 bng 15 250 50 0 empty renderClockDiv_01 empty 17 7 0
10 -262144 -1 -1;
#X floatatom 395 -83 5 0 0 1 tab_1_out motionControl_01 -;
#N canvas 582 155 450 300 tabread2 0;
#X obj 64 39 counter 0 0 50;
#X floatatom 28 63 5 0 0 0 - - -;
#X obj 64 -30 r renderClockDiv_02;
#X obj 84 -10 r counterDir_02;
#X obj 64 64 tabread \$0-motionContol_02;
#X obj 64 88 s motionControl_02;
#X connect 0 0 1 0;
#X connect 0 0 4 0;
#X connect 2 0 0 0;
#X connect 3 0 0 1;
#X connect 4 0 5 0;
#X restore -244 190 pd tabread2;
#X obj 497 -133 hradio 15 1 0 3 counterDir_02 empty Counter_02_Direction
0 -8 0 10 -262144 -1 -1 0;
#X obj 625 -103 hradio 15 1 0 8 counterDivSel_03 setCounterDivSel_03
Render_Clock_Div_03 0 -8 0 10 -262144 -1 -1 0;
#X obj 624 -133 hradio 15 1 0 3 counterDir_03 empty Counter_03_Dir
0 -8 0 10 -262144 -1 -1 0;
#N canvas 238 262 450 300 tabread3 0;
#X obj 64 39 counter 0 0 50;
#X floatatom 28 63 5 0 0 0 - - -;
#X obj 64 -30 r renderClockDiv_03;
#X obj 84 -10 r counterDir_03;
#X obj 64 64 tabread \$0-motionContol_03;
#X obj 64 88 s motionControl_03;
#X connect 0 0 1 0;
#X connect 0 0 4 0;
#X connect 2 0 0 0;
#X connect 3 0 0 1;
#X connect 4 0 5 0;
#X restore -245 212 pd tabread3;
#X obj 497 -83 bng 15 250 50 0 empty renderClockDiv_02 empty 17 7 0
10 -262144 -1 -1;
#X floatatom 515 -83 5 0 0 1 tab_2_out motionControl_02 -;
#X obj 625 -83 bng 15 250 50 0 empty renderClockDiv_03 empty 17 7 0
10 -262144 -1 -1;
#X floatatom 643 -83 5 0 0 1 tab_3_out motionControl_03 -;
#X obj 371 -65 tgl 15 0 tabRandRead_01 empty rand_read_rate 17 7 0
10 -262144 -1 -1 0 1;
#X obj 496 -65 tgl 15 0 tabRandRead_02 empty rand_read_rate 17 7 0
10 -262144 -1 -1 0 1;
#X obj 625 -65 tgl 15 0 tabRandRead_02 empty rand_read_rate 17 7 0
10 -262144 -1 -1 0 1;
#X obj -46 -137 hradio 15 1 0 12 curveDrawMode empty curveDrawMode
0 -8 0 10 -262144 -1 -1 0;
#X obj -41 -203 hradio 15 1 0 7 setSelect empty set_select 0 -8 0 10
-262144 -1 -1 0;
#X obj -64 -86 loadbang;
#X obj 172 83 tgl 15 0 motionControl_2_translate empty motionControl
17 7 0 10 -262144 -1 -1 0 1;
#X obj 59 82 tgl 15 0 motionControl_2_rotate empty motionControl 17
7 0 10 -262144 -1 -1 0 1;
#N canvas 0 22 667 709 3d 0;
#X msg 820 238 set point;
#X msg 488 258 draw line;
#X msg 559 159 draw point;
#X msg 502 238 draw line1;
#X msg 517 219 draw line2;
#X msg 531 199 draw line3;
#X msg 545 179 draw line4;
#X msg 417 360 draw control_line;
#X msg 431 341 draw control_line1;
#X msg 445 321 draw control_line2;
#X msg 403 380 draw control_fill;
#X msg 460 300 draw control_point;
#X obj 591 353 s curve3d_render;
#X obj 472 452 s curve3d_render;
#X msg 474 280 draw fill;
#X msg 603 291 width 0;
#X obj 603 270 loadbang;
#X obj 403 79 sel 0 1 2 3 4 5 6 7 8 9 10 11;
#X msg 472 431 normal 1;
#X msg 664 459 set control_fill;
#X msg 678 439 set control_line;
#X msg 692 420 set control_line1;
#X msg 707 400 set control_line2;
#X msg 721 379 set control_point;
#X msg 735 359 set fill;
#X msg 749 337 set line;
#X msg 763 317 set line1;
#X msg 778 298 set line2;
#X msg 792 278 set line3;
#X msg 806 258 set line4;
#X obj 649 495 s curveDrawModeStatus;
#X obj 127 189 translateXYZ;
#X obj 127 225 rotateXYZ;
#X obj 144 198 r rect1RotX;
#X obj 218 198 r rect1RotY;
#X obj 291 199 r rect1RotZ;
#X obj 145 125 r rect1XTrans;
#X obj 232 126 r rect1YTrans;
#X obj 160 54 tgl 15 0 empty empty empty 17 7 0 10 -262144 -1 -1 1
1;
#X obj 318 126 r rect1ZTrans;
#X obj 8 112 loadbang;
#X obj -9 55 key;
#X obj 150 152 * 5;
#X obj 176 153 * 5;
#X obj 209 154 * 5;
#X obj 160 34 loadbang;
#X obj -9 79 sel 49 57;
#N canvas 0 22 1366 691 forme2 0;
#N canvas 0 22 1350 709 tripleRnd 0;
#X obj 12 213 pack 0 1000;
#X obj 12 235 line;
#X obj 13 309 outlet;
#X obj 117 211 pack 0 1000;
#X obj 117 231 line;
#X obj 222 211 pack 0 1000;
#X obj 222 231 line;
#X obj 13 287 pack f f f;
#X obj 285 190 r line_forme2;
#X obj 13 192 * 0.01;
#X obj 13 92 random 200;
#X obj 13 112 - 100;
#X obj 117 191 * 0.01;
#X obj 117 91 random 200;
#X obj 117 111 - 100;
#X obj 222 190 * 0.01;
#X obj 222 90 random 200;
#X obj 222 110 - 100;
#X obj 21 132 r scaleX_forme2;
#X obj 125 131 r scaleY_forme2;
#X obj 228 130 r scaleZ_forme2;
#X obj 13 171 i;
#X obj 117 171 i;
#X obj 222 170 i;
#X obj 21 152 t b;
#X obj 125 151 t b;
#X obj 239 151 t b;
#X obj 117 252 t b;
#X obj 222 252 t b;
#X obj 13 8 r formRand;
#X obj 21 68 r formRandX;
#X obj 117 68 r formRandY;
#X obj 222 67 r formRandZ;
#X connect 0 0 1 0;
#X connect 1 0 7 0;
#X connect 3 0 4 0;
#X connect 4 0 7 1;
#X connect 4 0 27 0;
#X connect 5 0 6 0;
#X connect 6 0 7 2;
#X connect 6 0 28 0;
#X connect 7 0 2 0;
#X connect 8 0 0 1;
#X connect 8 0 3 1;
#X connect 8 0 5 1;
#X connect 9 0 0 0;
#X connect 10 0 11 0;
#X connect 11 0 21 0;
#X connect 12 0 3 0;
#X connect 13 0 14 0;
#X connect 14 0 22 0;
#X connect 15 0 5 0;
#X connect 16 0 17 0;
#X connect 17 0 23 0;
#X connect 18 0 9 1;
#X connect 18 0 24 0;
#X connect 19 0 12 1;
#X connect 19 0 25 0;
#X connect 20 0 15 1;
#X connect 20 0 26 0;
#X connect 21 0 9 0;
#X connect 22 0 12 0;
#X connect 23 0 15 0;
#X connect 24 0 21 0;
#X connect 25 0 22 0;
#X connect 26 0 23 0;
#X connect 27 0 7 0;
#X connect 28 0 7 0;
#X connect 29 0 10 0;
#X connect 29 0 13 0;
#X connect 29 0 16 0;
#X connect 30 0 10 0;
#X connect 31 0 13 0;
#X connect 32 0 16 0;
#X restore 28 92 pd tripleRnd;
#X msg 26 269 set 2 0 \$1 \$2 \$3;
#X msg 159 269 set 2 1 \$1 \$2 \$3;
#X msg 297 269 set 2 2 \$1 \$2 \$3;
#X msg 299 193 set 1 2 \$1 \$2 \$3;
#X msg 299 114 set 0 2 \$1 \$2 \$3;
#X msg 161 114 set 0 1 \$1 \$2 \$3;
#X msg 28 114 set 0 0 \$1 \$2 \$3;
#X msg 28 193 set 1 0 \$1 \$2 \$3;
#X msg 161 193 set 1 1 \$1 \$2 \$3;
#X msg 26 337 set 3 0 \$1 \$2 \$3;
#X msg 162 337 set 3 1 \$1 \$2 \$3;
#X msg 298 337 set 3 2 \$1 \$2 \$3;
#X msg 423 114 set 0 3 \$1 \$2 \$3;
#X msg 423 193 set 1 3 \$1 \$2 \$3;
#X msg 421 269 set 2 3 \$1 \$2 \$3;
#X msg 423 337 set 3 3 \$1 \$2 \$3;
#X msg 544 114 set 0 4 \$1 \$2 \$3;
#X msg 544 193 set 1 4 \$1 \$2 \$3;
#X msg 542 269 set 2 4 \$1 \$2 \$3;
#X msg 543 337 set 3 4 \$1 \$2 \$3;
#X msg 28 399 set 4 0 \$1 \$2 \$3;
#X msg 162 399 set 4 1 \$1 \$2 \$3;
#X msg 299 399 set 4 2 \$1 \$2 \$3;
#X msg 424 399 set 4 3 \$1 \$2 \$3;
#X msg 545 399 set 4 4 \$1 \$2 \$3;
#X obj 10 445 outlet;
#X obj 36 15 inlet;
#X obj 36 39 s formRand;
#N canvas 0 22 1350 709 tripleRnd 0;
#X obj 12 213 pack 0 1000;
#X obj 12 235 line;
#X obj 13 309 outlet;
#X obj 117 211 pack 0 1000;
#X obj 117 231 line;
#X obj 222 211 pack 0 1000;
#X obj 222 231 line;
#X obj 13 287 pack f f f;
#X obj 285 190 r line_forme2;
#X obj 13 192 * 0.01;
#X obj 13 92 random 200;
#X obj 13 112 - 100;
#X obj 117 191 * 0.01;
#X obj 117 91 random 200;
#X obj 117 111 - 100;
#X obj 222 190 * 0.01;
#X obj 222 90 random 200;
#X obj 222 110 - 100;
#X obj 21 132 r scaleX_forme2;
#X obj 125 131 r scaleY_forme2;
#X obj 228 130 r scaleZ_forme2;
#X obj 13 171 i;
#X obj 117 171 i;
#X obj 222 170 i;
#X obj 21 152 t b;
#X obj 125 151 t b;
#X obj 239 151 t b;
#X obj 117 252 t b;
#X obj 222 252 t b;
#X obj 13 8 r formRand;
#X obj 21 68 r formRandX;
#X obj 117 68 r formRandY;
#X obj 222 67 r formRandZ;
#X connect 0 0 1 0;
#X connect 1 0 7 0;
#X connect 3 0 4 0;
#X connect 4 0 7 1;
#X connect 4 0 27 0;
#X connect 5 0 6 0;
#X connect 6 0 7 2;
#X connect 6 0 28 0;
#X connect 7 0 2 0;
#X connect 8 0 0 1;
#X connect 8 0 3 1;
#X connect 8 0 5 1;
#X connect 9 0 0 0;
#X connect 10 0 11 0;
#X connect 11 0 21 0;
#X connect 12 0 3 0;
#X connect 13 0 14 0;
#X connect 14 0 22 0;
#X connect 15 0 5 0;
#X connect 16 0 17 0;
#X connect 17 0 23 0;
#X connect 18 0 9 1;
#X connect 18 0 24 0;
#X connect 19 0 12 1;
#X connect 19 0 25 0;
#X connect 20 0 15 1;
#X connect 20 0 26 0;
#X connect 21 0 9 0;
#X connect 22 0 12 0;
#X connect 23 0 15 0;
#X connect 24 0 21 0;
#X connect 25 0 22 0;
#X connect 26 0 23 0;
#X connect 27 0 7 0;
#X connect 28 0 7 0;
#X connect 29 0 10 0;
#X connect 29 0 13 0;
#X connect 29 0 16 0;
#X connect 30 0 10 0;
#X connect 31 0 13 0;
#X connect 32 0 16 0;
#X restore 161 93 pd tripleRnd;
#N canvas 0 22 1350 709 tripleRnd 0;
#X obj 12 213 pack 0 1000;
#X obj 12 235 line;
#X obj 13 309 outlet;
#X obj 117 211 pack 0 1000;
#X obj 117 231 line;
#X obj 222 211 pack 0 1000;
#X obj 222 231 line;
#X obj 13 287 pack f f f;
#X obj 285 190 r line_forme2;
#X obj 13 192 * 0.01;
#X obj 13 92 random 200;
#X obj 13 112 - 100;
#X obj 117 191 * 0.01;
#X obj 117 91 random 200;
#X obj 117 111 - 100;
#X obj 222 190 * 0.01;
#X obj 222 90 random 200;
#X obj 222 110 - 100;
#X obj 21 132 r scaleX_forme2;
#X obj 125 131 r scaleY_forme2;
#X obj 228 130 r scaleZ_forme2;
#X obj 13 171 i;
#X obj 117 171 i;
#X obj 222 170 i;
#X obj 21 152 t b;
#X obj 125 151 t b;
#X obj 239 151 t b;
#X obj 117 252 t b;
#X obj 222 252 t b;
#X obj 13 8 r formRand;
#X obj 21 68 r formRandX;
#X obj 117 68 r formRandY;
#X obj 222 67 r formRandZ;
#X connect 0 0 1 0;
#X connect 1 0 7 0;
#X connect 3 0 4 0;
#X connect 4 0 7 1;
#X connect 4 0 27 0;
#X connect 5 0 6 0;
#X connect 6 0 7 2;
#X connect 6 0 28 0;
#X connect 7 0 2 0;
#X connect 8 0 0 1;
#X connect 8 0 3 1;
#X connect 8 0 5 1;
#X connect 9 0 0 0;
#X connect 10 0 11 0;
#X connect 11 0 21 0;
#X connect 12 0 3 0;
#X connect 13 0 14 0;
#X connect 14 0 22 0;
#X connect 15 0 5 0;
#X connect 16 0 17 0;
#X connect 17 0 23 0;
#X connect 18 0 9 1;
#X connect 18 0 24 0;
#X connect 19 0 12 1;
#X connect 19 0 25 0;
#X connect 20 0 15 1;
#X connect 20 0 26 0;
#X connect 21 0 9 0;
#X connect 22 0 12 0;
#X connect 23 0 15 0;
#X connect 24 0 21 0;
#X connect 25 0 22 0;
#X connect 26 0 23 0;
#X connect 27 0 7 0;
#X connect 28 0 7 0;
#X connect 29 0 10 0;
#X connect 29 0 13 0;
#X connect 29 0 16 0;
#X connect 30 0 10 0;
#X connect 31 0 13 0;
#X connect 32 0 16 0;
#X restore 299 93 pd tripleRnd;
#N canvas 0 22 1350 709 tripleRnd 0;
#X obj 12 213 pack 0 1000;
#X obj 12 235 line;
#X obj 13 309 outlet;
#X obj 117 211 pack 0 1000;
#X obj 117 231 line;
#X obj 222 211 pack 0 1000;
#X obj 222 231 line;
#X obj 13 287 pack f f f;
#X obj 285 190 r line_forme2;
#X obj 13 192 * 0.01;
#X obj 13 92 random 200;
#X obj 13 112 - 100;
#X obj 117 191 * 0.01;
#X obj 117 91 random 200;
#X obj 117 111 - 100;
#X obj 222 190 * 0.01;
#X obj 222 90 random 200;
#X obj 222 110 - 100;
#X obj 21 132 r scaleX_forme2;
#X obj 125 131 r scaleY_forme2;
#X obj 228 130 r scaleZ_forme2;
#X obj 13 171 i;
#X obj 117 171 i;
#X obj 222 170 i;
#X obj 21 152 t b;
#X obj 125 151 t b;
#X obj 239 151 t b;
#X obj 117 252 t b;
#X obj 222 252 t b;
#X obj 13 8 r formRand;
#X obj 21 68 r formRandX;
#X obj 117 68 r formRandY;
#X obj 222 67 r formRandZ;
#X connect 0 0 1 0;
#X connect 1 0 7 0;
#X connect 3 0 4 0;
#X connect 4 0 7 1;
#X connect 4 0 27 0;
#X connect 5 0 6 0;
#X connect 6 0 7 2;
#X connect 6 0 28 0;
#X connect 7 0 2 0;
#X connect 8 0 0 1;
#X connect 8 0 3 1;
#X connect 8 0 5 1;
#X connect 9 0 0 0;
#X connect 10 0 11 0;
#X connect 11 0 21 0;
#X connect 12 0 3 0;
#X connect 13 0 14 0;
#X connect 14 0 22 0;
#X connect 15 0 5 0;
#X connect 16 0 17 0;
#X connect 17 0 23 0;
#X connect 18 0 9 1;
#X connect 18 0 24 0;
#X connect 19 0 12 1;
#X connect 19 0 25 0;
#X connect 20 0 15 1;
#X connect 20 0 26 0;
#X connect 21 0 9 0;
#X connect 22 0 12 0;
#X connect 23 0 15 0;
#X connect 24 0 21 0;
#X connect 25 0 22 0;
#X connect 26 0 23 0;
#X connect 27 0 7 0;
#X connect 28 0 7 0;
#X connect 29 0 10 0;
#X connect 29 0 13 0;
#X connect 29 0 16 0;
#X connect 30 0 10 0;
#X connect 31 0 13 0;
#X connect 32 0 16 0;
#X restore 423 94 pd tripleRnd;
#N canvas 0 22 1350 709 tripleRnd 0;
#X obj 12 213 pack 0 1000;
#X obj 12 235 line;
#X obj 13 309 outlet;
#X obj 117 211 pack 0 1000;
#X obj 117 231 line;
#X obj 222 211 pack 0 1000;
#X obj 222 231 line;
#X obj 13 287 pack f f f;
#X obj 285 190 r line_forme2;
#X obj 13 192 * 0.01;
#X obj 13 92 random 200;
#X obj 13 112 - 100;
#X obj 117 191 * 0.01;
#X obj 117 91 random 200;
#X obj 117 111 - 100;
#X obj 222 190 * 0.01;
#X obj 222 90 random 200;
#X obj 222 110 - 100;
#X obj 21 132 r scaleX_forme2;
#X obj 125 131 r scaleY_forme2;
#X obj 228 130 r scaleZ_forme2;
#X obj 13 171 i;
#X obj 117 171 i;
#X obj 222 170 i;
#X obj 21 152 t b;
#X obj 125 151 t b;
#X obj 239 151 t b;
#X obj 117 252 t b;
#X obj 222 252 t b;
#X obj 13 8 r formRand;
#X obj 21 68 r formRandX;
#X obj 117 68 r formRandY;
#X obj 222 67 r formRandZ;
#X connect 0 0 1 0;
#X connect 1 0 7 0;
#X connect 3 0 4 0;
#X connect 4 0 7 1;
#X connect 4 0 27 0;
#X connect 5 0 6 0;
#X connect 6 0 7 2;
#X connect 6 0 28 0;
#X connect 7 0 2 0;
#X connect 8 0 0 1;
#X connect 8 0 3 1;
#X connect 8 0 5 1;
#X connect 9 0 0 0;
#X connect 10 0 11 0;
#X connect 11 0 21 0;
#X connect 12 0 3 0;
#X connect 13 0 14 0;
#X connect 14 0 22 0;
#X connect 15 0 5 0;
#X connect 16 0 17 0;
#X connect 17 0 23 0;
#X connect 18 0 9 1;
#X connect 18 0 24 0;
#X connect 19 0 12 1;
#X connect 19 0 25 0;
#X connect 20 0 15 1;
#X connect 20 0 26 0;
#X connect 21 0 9 0;
#X connect 22 0 12 0;
#X connect 23 0 15 0;
#X connect 24 0 21 0;
#X connect 25 0 22 0;
#X connect 26 0 23 0;
#X connect 27 0 7 0;
#X connect 28 0 7 0;
#X connect 29 0 10 0;
#X connect 29 0 13 0;
#X connect 29 0 16 0;
#X connect 30 0 10 0;
#X connect 31 0 13 0;
#X connect 32 0 16 0;
#X restore 544 94 pd tripleRnd;
#N canvas 0 22 1350 709 tripleRnd 0;
#X obj 12 282 pack 0 1000;
#X obj 12 304 line;
#X obj 13 378 outlet;
#X obj 117 280 pack 0 1000;
#X obj 117 300 line;
#X obj 222 280 pack 0 1000;
#X obj 222 300 line;
#X obj 13 356 pack f f f;
#X obj 285 259 r line_forme2;
#X obj 13 261 * 0.01;
#X obj 13 92 random 200;
#X obj 13 112 - 100;
#X obj 117 260 * 0.01;
#X obj 117 91 random 200;
#X obj 117 111 - 100;
#X obj 222 259 * 0.01;
#X obj 222 90 random 200;
#X obj 222 110 - 100;
#X obj 21 201 r scaleX_forme2;
#X obj 125 200 r scaleY_forme2;
#X obj 228 199 r scaleZ_forme2;
#X obj 13 240 i;
#X obj 117 240 i;
#X obj 222 239 i;
#X obj 21 221 t b;
#X obj 125 220 t b;
#X obj 239 220 t b;
#X obj 117 321 t b;
#X obj 222 321 t b;
#X obj 13 8 r formRand;
#X obj 21 68 r formRandX;
#X obj 117 68 r formRandY;
#X obj 222 67 r formRandZ;
#X connect 0 0 1 0;
#X connect 1 0 7 0;
#X connect 3 0 4 0;
#X connect 4 0 7 1;
#X connect 4 0 27 0;
#X connect 5 0 6 0;
#X connect 6 0 7 2;
#X connect 6 0 28 0;
#X connect 7 0 2 0;
#X connect 8 0 0 1;
#X connect 8 0 3 1;
#X connect 8 0 5 1;
#X connect 9 0 0 0;
#X connect 10 0 11 0;
#X connect 11 0 21 0;
#X connect 12 0 3 0;
#X connect 13 0 14 0;
#X connect 14 0 22 0;
#X connect 15 0 5 0;
#X connect 16 0 17 0;
#X connect 17 0 23 0;
#X connect 18 0 9 1;
#X connect 18 0 24 0;
#X connect 19 0 12 1;
#X connect 19 0 25 0;
#X connect 20 0 15 1;
#X connect 20 0 26 0;
#X connect 21 0 9 0;
#X connect 22 0 12 0;
#X connect 23 0 15 0;
#X connect 24 0 21 0;
#X connect 25 0 22 0;
#X connect 26 0 23 0;
#X connect 27 0 7 0;
#X connect 28 0 7 0;
#X connect 29 0 10 0;
#X connect 29 0 13 0;
#X connect 29 0 16 0;
#X connect 30 0 10 0;
#X connect 31 0 13 0;
#X connect 32 0 16 0;
#X restore 31 167 pd tripleRnd;
#N canvas 0 22 1350 709 tripleRnd 0;
#X obj 12 213 pack 0 1000;
#X obj 12 235 line;
#X obj 13 309 outlet;
#X obj 117 211 pack 0 1000;
#X obj 117 231 line;
#X obj 222 211 pack 0 1000;
#X obj 222 231 line;
#X obj 13 287 pack f f f;
#X obj 285 190 r line_forme2;
#X obj 13 192 * 0.01;
#X obj 13 92 random 200;
#X obj 13 112 - 100;
#X obj 117 191 * 0.01;
#X obj 117 91 random 200;
#X obj 117 111 - 100;
#X obj 222 190 * 0.01;
#X obj 222 90 random 200;
#X obj 222 110 - 100;
#X obj 21 132 r scaleX_forme2;
#X obj 125 131 r scaleY_forme2;
#X obj 228 130 r scaleZ_forme2;
#X obj 13 171 i;
#X obj 117 171 i;
#X obj 222 170 i;
#X obj 21 152 t b;
#X obj 125 151 t b;
#X obj 239 151 t b;
#X obj 117 252 t b;
#X obj 222 252 t b;
#X obj 13 8 r formRand;
#X obj 21 68 r formRandX;
#X obj 117 68 r formRandY;
#X obj 222 67 r formRandZ;
#X connect 0 0 1 0;
#X connect 1 0 7 0;
#X connect 3 0 4 0;
#X connect 4 0 7 1;
#X connect 4 0 27 0;
#X connect 5 0 6 0;
#X connect 6 0 7 2;
#X connect 6 0 28 0;
#X connect 7 0 2 0;
#X connect 8 0 0 1;
#X connect 8 0 3 1;
#X connect 8 0 5 1;
#X connect 9 0 0 0;
#X connect 10 0 11 0;
#X connect 11 0 21 0;
#X connect 12 0 3 0;
#X connect 13 0 14 0;
#X connect 14 0 22 0;
#X connect 15 0 5 0;
#X connect 16 0 17 0;
#X connect 17 0 23 0;
#X connect 18 0 9 1;
#X connect 18 0 24 0;
#X connect 19 0 12 1;
#X connect 19 0 25 0;
#X connect 20 0 15 1;
#X connect 20 0 26 0;
#X connect 21 0 9 0;
#X connect 22 0 12 0;
#X connect 23 0 15 0;
#X connect 24 0 21 0;
#X connect 25 0 22 0;
#X connect 26 0 23 0;
#X connect 27 0 7 0;
#X connect 28 0 7 0;
#X connect 29 0 10 0;
#X connect 29 0 13 0;
#X connect 29 0 16 0;
#X connect 30 0 10 0;
#X connect 31 0 13 0;
#X connect 32 0 16 0;
#X restore 164 168 pd tripleRnd;
#N canvas 0 22 1350 709 tripleRnd 0;
#X obj 12 213 pack 0 1000;
#X obj 12 235 line;
#X obj 13 309 outlet;
#X obj 117 211 pack 0 1000;
#X obj 117 231 line;
#X obj 222 211 pack 0 1000;
#X obj 222 231 line;
#X obj 13 287 pack f f f;
#X obj 285 190 r line_forme2;
#X obj 13 192 * 0.01;
#X obj 13 92 random 200;
#X obj 13 112 - 100;
#X obj 117 191 * 0.01;
#X obj 117 91 random 200;
#X obj 117 111 - 100;
#X obj 222 190 * 0.01;
#X obj 222 90 random 200;
#X obj 222 110 - 100;
#X obj 21 132 r scaleX_forme2;
#X obj 125 131 r scaleY_forme2;
#X obj 228 130 r scaleZ_forme2;
#X obj 13 171 i;
#X obj 117 171 i;
#X obj 222 170 i;
#X obj 21 152 t b;
#X obj 125 151 t b;
#X obj 239 151 t b;
#X obj 117 252 t b;
#X obj 222 252 t b;
#X obj 13 8 r formRand;
#X obj 21 68 r formRandX;
#X obj 117 68 r formRandY;
#X obj 222 67 r formRandZ;
#X connect 0 0 1 0;
#X connect 1 0 7 0;
#X connect 3 0 4 0;
#X connect 4 0 7 1;
#X connect 4 0 27 0;
#X connect 5 0 6 0;
#X connect 6 0 7 2;
#X connect 6 0 28 0;
#X connect 7 0 2 0;
#X connect 8 0 0 1;
#X connect 8 0 3 1;
#X connect 8 0 5 1;
#X connect 9 0 0 0;
#X connect 10 0 11 0;
#X connect 11 0 21 0;
#X connect 12 0 3 0;
#X connect 13 0 14 0;
#X connect 14 0 22 0;
#X connect 15 0 5 0;
#X connect 16 0 17 0;
#X connect 17 0 23 0;
#X connect 18 0 9 1;
#X connect 18 0 24 0;
#X connect 19 0 12 1;
#X connect 19 0 25 0;
#X connect 20 0 15 1;
#X connect 20 0 26 0;
#X connect 21 0 9 0;
#X connect 22 0 12 0;
#X connect 23 0 15 0;
#X connect 24 0 21 0;
#X connect 25 0 22 0;
#X connect 26 0 23 0;
#X connect 27 0 7 0;
#X connect 28 0 7 0;
#X connect 29 0 10 0;
#X connect 29 0 13 0;
#X connect 29 0 16 0;
#X connect 30 0 10 0;
#X connect 31 0 13 0;
#X connect 32 0 16 0;
#X restore 302 168 pd tripleRnd;
#N canvas 0 22 1350 709 tripleRnd 0;
#X obj 12 213 pack 0 1000;
#X obj 12 235 line;
#X obj 13 309 outlet;
#X obj 117 211 pack 0 1000;
#X obj 117 231 line;
#X obj 222 211 pack 0 1000;
#X obj 222 231 line;
#X obj 13 287 pack f f f;
#X obj 285 190 r line_forme2;
#X obj 13 192 * 0.01;
#X obj 13 92 random 200;
#X obj 13 112 - 100;
#X obj 117 191 * 0.01;
#X obj 117 91 random 200;
#X obj 117 111 - 100;
#X obj 222 190 * 0.01;
#X obj 222 90 random 200;
#X obj 222 110 - 100;
#X obj 21 132 r scaleX_forme2;
#X obj 125 131 r scaleY_forme2;
#X obj 228 130 r scaleZ_forme2;
#X obj 13 171 i;
#X obj 117 171 i;
#X obj 222 170 i;
#X obj 21 152 t b;
#X obj 125 151 t b;
#X obj 239 151 t b;
#X obj 117 252 t b;
#X obj 222 252 t b;
#X obj 13 8 r formRand;
#X obj 21 68 r formRandX;
#X obj 117 68 r formRandY;
#X obj 222 67 r formRandZ;
#X connect 0 0 1 0;
#X connect 1 0 7 0;
#X connect 3 0 4 0;
#X connect 4 0 7 1;
#X connect 4 0 27 0;
#X connect 5 0 6 0;
#X connect 6 0 7 2;
#X connect 6 0 28 0;
#X connect 7 0 2 0;
#X connect 8 0 0 1;
#X connect 8 0 3 1;
#X connect 8 0 5 1;
#X connect 9 0 0 0;
#X connect 10 0 11 0;
#X connect 11 0 21 0;
#X connect 12 0 3 0;
#X connect 13 0 14 0;
#X connect 14 0 22 0;
#X connect 15 0 5 0;
#X connect 16 0 17 0;
#X connect 17 0 23 0;
#X connect 18 0 9 1;
#X connect 18 0 24 0;
#X connect 19 0 12 1;
#X connect 19 0 25 0;
#X connect 20 0 15 1;
#X connect 20 0 26 0;
#X connect 21 0 9 0;
#X connect 22 0 12 0;
#X connect 23 0 15 0;
#X connect 24 0 21 0;
#X connect 25 0 22 0;
#X connect 26 0 23 0;
#X connect 27 0 7 0;
#X connect 28 0 7 0;
#X connect 29 0 10 0;
#X connect 29 0 13 0;
#X connect 29 0 16 0;
#X connect 30 0 10 0;
#X connect 31 0 13 0;
#X connect 32 0 16 0;
#X restore 426 169 pd tripleRnd;
#N canvas 0 22 1350 709 tripleRnd 0;
#X obj 12 213 pack 0 1000;
#X obj 12 235 line;
#X obj 13 309 outlet;
#X obj 117 211 pack 0 1000;
#X obj 117 231 line;
#X obj 222 211 pack 0 1000;
#X obj 222 231 line;
#X obj 13 287 pack f f f;
#X obj 285 190 r line_forme2;
#X obj 13 192 * 0.01;
#X obj 13 92 random 200;
#X obj 13 112 - 100;
#X obj 117 191 * 0.01;
#X obj 117 91 random 200;
#X obj 117 111 - 100;
#X obj 222 190 * 0.01;
#X obj 222 90 random 200;
#X obj 222 110 - 100;
#X obj 21 132 r scaleX_forme2;
#X obj 125 131 r scaleY_forme2;
#X obj 228 130 r scaleZ_forme2;
#X obj 13 171 i;
#X obj 117 171 i;
#X obj 222 170 i;
#X obj 21 152 t b;
#X obj 125 151 t b;
#X obj 239 151 t b;
#X obj 117 252 t b;
#X obj 222 252 t b;
#X obj 13 8 r formRand;
#X obj 21 68 r formRandX;
#X obj 117 68 r formRandY;
#X obj 222 67 r formRandZ;
#X connect 0 0 1 0;
#X connect 1 0 7 0;
#X connect 3 0 4 0;
#X connect 4 0 7 1;
#X connect 4 0 27 0;
#X connect 5 0 6 0;
#X connect 6 0 7 2;
#X connect 6 0 28 0;
#X connect 7 0 2 0;
#X connect 8 0 0 1;
#X connect 8 0 3 1;
#X connect 8 0 5 1;
#X connect 9 0 0 0;
#X connect 10 0 11 0;
#X connect 11 0 21 0;
#X connect 12 0 3 0;
#X connect 13 0 14 0;
#X connect 14 0 22 0;
#X connect 15 0 5 0;
#X connect 16 0 17 0;
#X connect 17 0 23 0;
#X connect 18 0 9 1;
#X connect 18 0 24 0;
#X connect 19 0 12 1;
#X connect 19 0 25 0;
#X connect 20 0 15 1;
#X connect 20 0 26 0;
#X connect 21 0 9 0;
#X connect 22 0 12 0;
#X connect 23 0 15 0;
#X connect 24 0 21 0;
#X connect 25 0 22 0;
#X connect 26 0 23 0;
#X connect 27 0 7 0;
#X connect 28 0 7 0;
#X connect 29 0 10 0;
#X connect 29 0 13 0;
#X connect 29 0 16 0;
#X connect 30 0 10 0;
#X connect 31 0 13 0;
#X connect 32 0 16 0;
#X restore 547 169 pd tripleRnd;
#N canvas 0 22 1350 709 tripleRnd 0;
#X obj 12 213 pack 0 1000;
#X obj 12 235 line;
#X obj 13 309 outlet;
#X obj 117 211 pack 0 1000;
#X obj 117 231 line;
#X obj 222 211 pack 0 1000;
#X obj 222 231 line;
#X obj 13 287 pack f f f;
#X obj 285 190 r line_forme2;
#X obj 13 192 * 0.01;
#X obj 13 92 random 200;
#X obj 13 112 - 100;
#X obj 117 191 * 0.01;
#X obj 117 91 random 200;
#X obj 117 111 - 100;
#X obj 222 190 * 0.01;
#X obj 222 90 random 200;
#X obj 222 110 - 100;
#X obj 21 132 r scaleX_forme2;
#X obj 125 131 r scaleY_forme2;
#X obj 228 130 r scaleZ_forme2;
#X obj 13 171 i;
#X obj 117 171 i;
#X obj 222 170 i;
#X obj 21 152 t b;
#X obj 125 151 t b;
#X obj 239 151 t b;
#X obj 117 252 t b;
#X obj 222 252 t b;
#X obj 13 8 r formRand;
#X obj 21 68 r formRandX;
#X obj 117 68 r formRandY;
#X obj 222 67 r formRandZ;
#X connect 0 0 1 0;
#X connect 1 0 7 0;
#X connect 3 0 4 0;
#X connect 4 0 7 1;
#X connect 4 0 27 0;
#X connect 5 0 6 0;
#X connect 6 0 7 2;
#X connect 6 0 28 0;
#X connect 7 0 2 0;
#X connect 8 0 0 1;
#X connect 8 0 3 1;
#X connect 8 0 5 1;
#X connect 9 0 0 0;
#X connect 10 0 11 0;
#X connect 11 0 21 0;
#X connect 12 0 3 0;
#X connect 13 0 14 0;
#X connect 14 0 22 0;
#X connect 15 0 5 0;
#X connect 16 0 17 0;
#X connect 17 0 23 0;
#X connect 18 0 9 1;
#X connect 18 0 24 0;
#X connect 19 0 12 1;
#X connect 19 0 25 0;
#X connect 20 0 15 1;
#X connect 20 0 26 0;
#X connect 21 0 9 0;
#X connect 22 0 12 0;
#X connect 23 0 15 0;
#X connect 24 0 21 0;
#X connect 25 0 22 0;
#X connect 26 0 23 0;
#X connect 27 0 7 0;
#X connect 28 0 7 0;
#X connect 29 0 10 0;
#X connect 29 0 13 0;
#X connect 29 0 16 0;
#X connect 30 0 10 0;
#X connect 31 0 13 0;
#X connect 32 0 16 0;
#X restore 35 243 pd tripleRnd;
#N canvas 0 22 1350 709 tripleRnd 0;
#X obj 12 213 pack 0 1000;
#X obj 12 235 line;
#X obj 13 309 outlet;
#X obj 117 211 pack 0 1000;
#X obj 117 231 line;
#X obj 222 211 pack 0 1000;
#X obj 222 231 line;
#X obj 13 287 pack f f f;
#X obj 285 190 r line_forme2;
#X obj 13 192 * 0.01;
#X obj 13 92 random 200;
#X obj 13 112 - 100;
#X obj 117 191 * 0.01;
#X obj 117 91 random 200;
#X obj 117 111 - 100;
#X obj 222 190 * 0.01;
#X obj 222 90 random 200;
#X obj 222 110 - 100;
#X obj 21 132 r scaleX_forme2;
#X obj 125 131 r scaleY_forme2;
#X obj 228 130 r scaleZ_forme2;
#X obj 13 171 i;
#X obj 117 171 i;
#X obj 222 170 i;
#X obj 21 152 t b;
#X obj 125 151 t b;
#X obj 239 151 t b;
#X obj 117 252 t b;
#X obj 222 252 t b;
#X obj 13 8 r formRand;
#X obj 21 68 r formRandX;
#X obj 117 68 r formRandY;
#X obj 222 67 r formRandZ;
#X connect 0 0 1 0;
#X connect 1 0 7 0;
#X connect 3 0 4 0;
#X connect 4 0 7 1;
#X connect 4 0 27 0;
#X connect 5 0 6 0;
#X connect 6 0 7 2;
#X connect 6 0 28 0;
#X connect 7 0 2 0;
#X connect 8 0 0 1;
#X connect 8 0 3 1;
#X connect 8 0 5 1;
#X connect 9 0 0 0;
#X connect 10 0 11 0;
#X connect 11 0 21 0;
#X connect 12 0 3 0;
#X connect 13 0 14 0;
#X connect 14 0 22 0;
#X connect 15 0 5 0;
#X connect 16 0 17 0;
#X connect 17 0 23 0;
#X connect 18 0 9 1;
#X connect 18 0 24 0;
#X connect 19 0 12 1;
#X connect 19 0 25 0;
#X connect 20 0 15 1;
#X connect 20 0 26 0;
#X connect 21 0 9 0;
#X connect 22 0 12 0;
#X connect 23 0 15 0;
#X connect 24 0 21 0;
#X connect 25 0 22 0;
#X connect 26 0 23 0;
#X connect 27 0 7 0;
#X connect 28 0 7 0;
#X connect 29 0 10 0;
#X connect 29 0 13 0;
#X connect 29 0 16 0;
#X connect 30 0 10 0;
#X connect 31 0 13 0;
#X connect 32 0 16 0;
#X restore 168 244 pd tripleRnd;
#N canvas 0 22 1350 709 tripleRnd 0;
#X obj 12 213 pack 0 1000;
#X obj 12 235 line;
#X obj 13 309 outlet;
#X obj 117 211 pack 0 1000;
#X obj 117 231 line;
#X obj 222 211 pack 0 1000;
#X obj 222 231 line;
#X obj 13 287 pack f f f;
#X obj 285 190 r line_forme2;
#X obj 13 192 * 0.01;
#X obj 13 92 random 200;
#X obj 13 112 - 100;
#X obj 117 191 * 0.01;
#X obj 117 91 random 200;
#X obj 117 111 - 100;
#X obj 222 190 * 0.01;
#X obj 222 90 random 200;
#X obj 222 110 - 100;
#X obj 21 132 r scaleX_forme2;
#X obj 125 131 r scaleY_forme2;
#X obj 228 130 r scaleZ_forme2;
#X obj 13 171 i;
#X obj 117 171 i;
#X obj 222 170 i;
#X obj 21 152 t b;
#X obj 125 151 t b;
#X obj 239 151 t b;
#X obj 117 252 t b;
#X obj 222 252 t b;
#X obj 13 8 r formRand;
#X obj 21 68 r formRandX;
#X obj 117 68 r formRandY;
#X obj 222 67 r formRandZ;
#X connect 0 0 1 0;
#X connect 1 0 7 0;
#X connect 3 0 4 0;
#X connect 4 0 7 1;
#X connect 4 0 27 0;
#X connect 5 0 6 0;
#X connect 6 0 7 2;
#X connect 6 0 28 0;
#X connect 7 0 2 0;
#X connect 8 0 0 1;
#X connect 8 0 3 1;
#X connect 8 0 5 1;
#X connect 9 0 0 0;
#X connect 10 0 11 0;
#X connect 11 0 21 0;
#X connect 12 0 3 0;
#X connect 13 0 14 0;
#X connect 14 0 22 0;
#X connect 15 0 5 0;
#X connect 16 0 17 0;
#X connect 17 0 23 0;
#X connect 18 0 9 1;
#X connect 18 0 24 0;
#X connect 19 0 12 1;
#X connect 19 0 25 0;
#X connect 20 0 15 1;
#X connect 20 0 26 0;
#X connect 21 0 9 0;
#X connect 22 0 12 0;
#X connect 23 0 15 0;
#X connect 24 0 21 0;
#X connect 25 0 22 0;
#X connect 26 0 23 0;
#X connect 27 0 7 0;
#X connect 28 0 7 0;
#X connect 29 0 10 0;
#X connect 29 0 13 0;
#X connect 29 0 16 0;
#X connect 30 0 10 0;
#X connect 31 0 13 0;
#X connect 32 0 16 0;
#X restore 306 244 pd tripleRnd;
#N canvas 0 22 1350 709 tripleRnd 0;
#X obj 12 213 pack 0 1000;
#X obj 12 235 line;
#X obj 13 309 outlet;
#X obj 117 211 pack 0 1000;
#X obj 117 231 line;
#X obj 222 211 pack 0 1000;
#X obj 222 231 line;
#X obj 13 287 pack f f f;
#X obj 285 190 r line_forme2;
#X obj 13 192 * 0.01;
#X obj 13 92 random 200;
#X obj 13 112 - 100;
#X obj 117 191 * 0.01;
#X obj 117 91 random 200;
#X obj 117 111 - 100;
#X obj 222 190 * 0.01;
#X obj 222 90 random 200;
#X obj 222 110 - 100;
#X obj 21 132 r scaleX_forme2;
#X obj 125 131 r scaleY_forme2;
#X obj 228 130 r scaleZ_forme2;
#X obj 13 171 i;
#X obj 117 171 i;
#X obj 222 170 i;
#X obj 21 152 t b;
#X obj 125 151 t b;
#X obj 239 151 t b;
#X obj 117 252 t b;
#X obj 222 252 t b;
#X obj 13 8 r formRand;
#X obj 21 68 r formRandX;
#X obj 117 68 r formRandY;
#X obj 222 67 r formRandZ;
#X connect 0 0 1 0;
#X connect 1 0 7 0;
#X connect 3 0 4 0;
#X connect 4 0 7 1;
#X connect 4 0 27 0;
#X connect 5 0 6 0;
#X connect 6 0 7 2;
#X connect 6 0 28 0;
#X connect 7 0 2 0;
#X connect 8 0 0 1;
#X connect 8 0 3 1;
#X connect 8 0 5 1;
#X connect 9 0 0 0;
#X connect 10 0 11 0;
#X connect 11 0 21 0;
#X connect 12 0 3 0;
#X connect 13 0 14 0;
#X connect 14 0 22 0;
#X connect 15 0 5 0;
#X connect 16 0 17 0;
#X connect 17 0 23 0;
#X connect 18 0 9 1;
#X connect 18 0 24 0;
#X connect 19 0 12 1;
#X connect 19 0 25 0;
#X connect 20 0 15 1;
#X connect 20 0 26 0;
#X connect 21 0 9 0;
#X connect 22 0 12 0;
#X connect 23 0 15 0;
#X connect 24 0 21 0;
#X connect 25 0 22 0;
#X connect 26 0 23 0;
#X connect 27 0 7 0;
#X connect 28 0 7 0;
#X connect 29 0 10 0;
#X connect 29 0 13 0;
#X connect 29 0 16 0;
#X connect 30 0 10 0;
#X connect 31 0 13 0;
#X connect 32 0 16 0;
#X restore 430 245 pd tripleRnd;
#N canvas 0 22 1350 709 tripleRnd 0;
#X obj 12 213 pack 0 1000;
#X obj 12 235 line;
#X obj 13 309 outlet;
#X obj 117 211 pack 0 1000;
#X obj 117 231 line;
#X obj 222 211 pack 0 1000;
#X obj 222 231 line;
#X obj 13 287 pack f f f;
#X obj 285 190 r line_forme2;
#X obj 13 192 * 0.01;
#X obj 13 92 random 200;
#X obj 13 112 - 100;
#X obj 117 191 * 0.01;
#X obj 117 91 random 200;
#X obj 117 111 - 100;
#X obj 222 190 * 0.01;
#X obj 222 90 random 200;
#X obj 222 110 - 100;
#X obj 21 132 r scaleX_forme2;
#X obj 125 131 r scaleY_forme2;
#X obj 228 130 r scaleZ_forme2;
#X obj 13 171 i;
#X obj 117 171 i;
#X obj 222 170 i;
#X obj 21 152 t b;
#X obj 125 151 t b;
#X obj 239 151 t b;
#X obj 117 252 t b;
#X obj 222 252 t b;
#X obj 13 8 r formRand;
#X obj 21 68 r formRandX;
#X obj 117 68 r formRandY;
#X obj 222 67 r formRandZ;
#X connect 0 0 1 0;
#X connect 1 0 7 0;
#X connect 3 0 4 0;
#X connect 4 0 7 1;
#X connect 4 0 27 0;
#X connect 5 0 6 0;
#X connect 6 0 7 2;
#X connect 6 0 28 0;
#X connect 7 0 2 0;
#X connect 8 0 0 1;
#X connect 8 0 3 1;
#X connect 8 0 5 1;
#X connect 9 0 0 0;
#X connect 10 0 11 0;
#X connect 11 0 21 0;
#X connect 12 0 3 0;
#X connect 13 0 14 0;
#X connect 14 0 22 0;
#X connect 15 0 5 0;
#X connect 16 0 17 0;
#X connect 17 0 23 0;
#X connect 18 0 9 1;
#X connect 18 0 24 0;
#X connect 19 0 12 1;
#X connect 19 0 25 0;
#X connect 20 0 15 1;
#X connect 20 0 26 0;
#X connect 21 0 9 0;
#X connect 22 0 12 0;
#X connect 23 0 15 0;
#X connect 24 0 21 0;
#X connect 25 0 22 0;
#X connect 26 0 23 0;
#X connect 27 0 7 0;
#X connect 28 0 7 0;
#X connect 29 0 10 0;
#X connect 29 0 13 0;
#X connect 29 0 16 0;
#X connect 30 0 10 0;
#X connect 31 0 13 0;
#X connect 32 0 16 0;
#X restore 551 245 pd tripleRnd;
#N canvas 0 22 1350 709 tripleRnd 0;
#X obj 12 213 pack 0 1000;
#X obj 12 235 line;
#X obj 13 309 outlet;
#X obj 117 211 pack 0 1000;
#X obj 117 231 line;
#X obj 222 211 pack 0 1000;
#X obj 222 231 line;
#X obj 13 287 pack f f f;
#X obj 285 190 r line_forme2;
#X obj 13 192 * 0.01;
#X obj 13 92 random 200;
#X obj 13 112 - 100;
#X obj 117 191 * 0.01;
#X obj 117 91 random 200;
#X obj 117 111 - 100;
#X obj 222 190 * 0.01;
#X obj 222 90 random 200;
#X obj 222 110 - 100;
#X obj 21 132 r scaleX_forme2;
#X obj 125 131 r scaleY_forme2;
#X obj 228 130 r scaleZ_forme2;
#X obj 13 171 i;
#X obj 117 171 i;
#X obj 222 170 i;
#X obj 21 152 t b;
#X obj 125 151 t b;
#X obj 239 151 t b;
#X obj 117 252 t b;
#X obj 222 252 t b;
#X obj 13 8 r formRand;
#X obj 21 68 r formRandX;
#X obj 117 68 r formRandY;
#X obj 222 67 r formRandZ;
#X connect 0 0 1 0;
#X connect 1 0 7 0;
#X connect 3 0 4 0;
#X connect 4 0 7 1;
#X connect 4 0 27 0;
#X connect 5 0 6 0;
#X connect 6 0 7 2;
#X connect 6 0 28 0;
#X connect 7 0 2 0;
#X connect 8 0 0 1;
#X connect 8 0 3 1;
#X connect 8 0 5 1;
#X connect 9 0 0 0;
#X connect 10 0 11 0;
#X connect 11 0 21 0;
#X connect 12 0 3 0;
#X connect 13 0 14 0;
#X connect 14 0 22 0;
#X connect 15 0 5 0;
#X connect 16 0 17 0;
#X connect 17 0 23 0;
#X connect 18 0 9 1;
#X connect 18 0 24 0;
#X connect 19 0 12 1;
#X connect 19 0 25 0;
#X connect 20 0 15 1;
#X connect 20 0 26 0;
#X connect 21 0 9 0;
#X connect 22 0 12 0;
#X connect 23 0 15 0;
#X connect 24 0 21 0;
#X connect 25 0 22 0;
#X connect 26 0 23 0;
#X connect 27 0 7 0;
#X connect 28 0 7 0;
#X connect 29 0 10 0;
#X connect 29 0 13 0;
#X connect 29 0 16 0;
#X connect 30 0 10 0;
#X connect 31 0 13 0;
#X connect 32 0 16 0;
#X restore 34 311 pd tripleRnd;
#N canvas 0 22 1350 709 tripleRnd 0;
#X obj 12 213 pack 0 1000;
#X obj 12 235 line;
#X obj 13 309 outlet;
#X obj 117 211 pack 0 1000;
#X obj 117 231 line;
#X obj 222 211 pack 0 1000;
#X obj 222 231 line;
#X obj 13 287 pack f f f;
#X obj 285 190 r line_forme2;
#X obj 13 192 * 0.01;
#X obj 13 92 random 200;
#X obj 13 112 - 100;
#X obj 117 191 * 0.01;
#X obj 117 91 random 200;
#X obj 117 111 - 100;
#X obj 222 190 * 0.01;
#X obj 222 90 random 200;
#X obj 222 110 - 100;
#X obj 21 132 r scaleX_forme2;
#X obj 125 131 r scaleY_forme2;
#X obj 228 130 r scaleZ_forme2;
#X obj 13 171 i;
#X obj 117 171 i;
#X obj 222 170 i;
#X obj 21 152 t b;
#X obj 125 151 t b;
#X obj 239 151 t b;
#X obj 117 252 t b;
#X obj 222 252 t b;
#X obj 13 8 r formRand;
#X obj 21 68 r formRandX;
#X obj 117 68 r formRandY;
#X obj 222 67 r formRandZ;
#X connect 0 0 1 0;
#X connect 1 0 7 0;
#X connect 3 0 4 0;
#X connect 4 0 7 1;
#X connect 4 0 27 0;
#X connect 5 0 6 0;
#X connect 6 0 7 2;
#X connect 6 0 28 0;
#X connect 7 0 2 0;
#X connect 8 0 0 1;
#X connect 8 0 3 1;
#X connect 8 0 5 1;
#X connect 9 0 0 0;
#X connect 10 0 11 0;
#X connect 11 0 21 0;
#X connect 12 0 3 0;
#X connect 13 0 14 0;
#X connect 14 0 22 0;
#X connect 15 0 5 0;
#X connect 16 0 17 0;
#X connect 17 0 23 0;
#X connect 18 0 9 1;
#X connect 18 0 24 0;
#X connect 19 0 12 1;
#X connect 19 0 25 0;
#X connect 20 0 15 1;
#X connect 20 0 26 0;
#X connect 21 0 9 0;
#X connect 22 0 12 0;
#X connect 23 0 15 0;
#X connect 24 0 21 0;
#X connect 25 0 22 0;
#X connect 26 0 23 0;
#X connect 27 0 7 0;
#X connect 28 0 7 0;
#X connect 29 0 10 0;
#X connect 29 0 13 0;
#X connect 29 0 16 0;
#X connect 30 0 10 0;
#X connect 31 0 13 0;
#X connect 32 0 16 0;
#X restore 167 312 pd tripleRnd;
#N canvas 0 22 1350 709 tripleRnd 0;
#X obj 12 213 pack 0 1000;
#X obj 12 235 line;
#X obj 13 309 outlet;
#X obj 117 211 pack 0 1000;
#X obj 117 231 line;
#X obj 222 211 pack 0 1000;
#X obj 222 231 line;
#X obj 13 287 pack f f f;
#X obj 285 190 r line_forme2;
#X obj 13 192 * 0.01;
#X obj 13 92 random 200;
#X obj 13 112 - 100;
#X obj 117 191 * 0.01;
#X obj 117 91 random 200;
#X obj 117 111 - 100;
#X obj 222 190 * 0.01;
#X obj 222 90 random 200;
#X obj 222 110 - 100;
#X obj 21 132 r scaleX_forme2;
#X obj 125 131 r scaleY_forme2;
#X obj 228 130 r scaleZ_forme2;
#X obj 13 171 i;
#X obj 117 171 i;
#X obj 222 170 i;
#X obj 21 152 t b;
#X obj 125 151 t b;
#X obj 239 151 t b;
#X obj 117 252 t b;
#X obj 222 252 t b;
#X obj 13 8 r formRand;
#X obj 21 68 r formRandX;
#X obj 117 68 r formRandY;
#X obj 222 67 r formRandZ;
#X connect 0 0 1 0;
#X connect 1 0 7 0;
#X connect 3 0 4 0;
#X connect 4 0 7 1;
#X connect 4 0 27 0;
#X connect 5 0 6 0;
#X connect 6 0 7 2;
#X connect 6 0 28 0;
#X connect 7 0 2 0;
#X connect 8 0 0 1;
#X connect 8 0 3 1;
#X connect 8 0 5 1;
#X connect 9 0 0 0;
#X connect 10 0 11 0;
#X connect 11 0 21 0;
#X connect 12 0 3 0;
#X connect 13 0 14 0;
#X connect 14 0 22 0;
#X connect 15 0 5 0;
#X connect 16 0 17 0;
#X connect 17 0 23 0;
#X connect 18 0 9 1;
#X connect 18 0 24 0;
#X connect 19 0 12 1;
#X connect 19 0 25 0;
#X connect 20 0 15 1;
#X connect 20 0 26 0;
#X connect 21 0 9 0;
#X connect 22 0 12 0;
#X connect 23 0 15 0;
#X connect 24 0 21 0;
#X connect 25 0 22 0;
#X connect 26 0 23 0;
#X connect 27 0 7 0;
#X connect 28 0 7 0;
#X connect 29 0 10 0;
#X connect 29 0 13 0;
#X connect 29 0 16 0;
#X connect 30 0 10 0;
#X connect 31 0 13 0;
#X connect 32 0 16 0;
#X restore 305 312 pd tripleRnd;
#N canvas 0 22 1350 709 tripleRnd 0;
#X obj 12 213 pack 0 1000;
#X obj 12 235 line;
#X obj 13 309 outlet;
#X obj 117 211 pack 0 1000;
#X obj 117 231 line;
#X obj 222 211 pack 0 1000;
#X obj 222 231 line;
#X obj 13 287 pack f f f;
#X obj 285 190 r line_forme2;
#X obj 13 192 * 0.01;
#X obj 13 92 random 200;
#X obj 13 112 - 100;
#X obj 117 191 * 0.01;
#X obj 117 91 random 200;
#X obj 117 111 - 100;
#X obj 222 190 * 0.01;
#X obj 222 90 random 200;
#X obj 222 110 - 100;
#X obj 21 132 r scaleX_forme2;
#X obj 125 131 r scaleY_forme2;
#X obj 228 130 r scaleZ_forme2;
#X obj 13 171 i;
#X obj 117 171 i;
#X obj 222 170 i;
#X obj 21 152 t b;
#X obj 125 151 t b;
#X obj 239 151 t b;
#X obj 117 252 t b;
#X obj 222 252 t b;
#X obj 13 8 r formRand;
#X obj 21 68 r formRandX;
#X obj 117 68 r formRandY;
#X obj 222 67 r formRandZ;
#X connect 0 0 1 0;
#X connect 1 0 7 0;
#X connect 3 0 4 0;
#X connect 4 0 7 1;
#X connect 4 0 27 0;
#X connect 5 0 6 0;
#X connect 6 0 7 2;
#X connect 6 0 28 0;
#X connect 7 0 2 0;
#X connect 8 0 0 1;
#X connect 8 0 3 1;
#X connect 8 0 5 1;
#X connect 9 0 0 0;
#X connect 10 0 11 0;
#X connect 11 0 21 0;
#X connect 12 0 3 0;
#X connect 13 0 14 0;
#X connect 14 0 22 0;
#X connect 15 0 5 0;
#X connect 16 0 17 0;
#X connect 17 0 23 0;
#X connect 18 0 9 1;
#X connect 18 0 24 0;
#X connect 19 0 12 1;
#X connect 19 0 25 0;
#X connect 20 0 15 1;
#X connect 20 0 26 0;
#X connect 21 0 9 0;
#X connect 22 0 12 0;
#X connect 23 0 15 0;
#X connect 24 0 21 0;
#X connect 25 0 22 0;
#X connect 26 0 23 0;
#X connect 27 0 7 0;
#X connect 28 0 7 0;
#X connect 29 0 10 0;
#X connect 29 0 13 0;
#X connect 29 0 16 0;
#X connect 30 0 10 0;
#X connect 31 0 13 0;
#X connect 32 0 16 0;
#X restore 429 313 pd tripleRnd;
#N canvas 0 22 1350 709 tripleRnd 0;
#X obj 12 213 pack 0 1000;
#X obj 12 235 line;
#X obj 13 309 outlet;
#X obj 117 211 pack 0 1000;
#X obj 117 231 line;
#X obj 222 211 pack 0 1000;
#X obj 222 231 line;
#X obj 13 287 pack f f f;
#X obj 285 190 r line_forme2;
#X obj 13 192 * 0.01;
#X obj 13 92 random 200;
#X obj 13 112 - 100;
#X obj 117 191 * 0.01;
#X obj 117 91 random 200;
#X obj 117 111 - 100;
#X obj 222 190 * 0.01;
#X obj 222 90 random 200;
#X obj 222 110 - 100;
#X obj 21 132 r scaleX_forme2;
#X obj 125 131 r scaleY_forme2;
#X obj 228 130 r scaleZ_forme2;
#X obj 13 171 i;
#X obj 117 171 i;
#X obj 222 170 i;
#X obj 21 152 t b;
#X obj 125 151 t b;
#X obj 239 151 t b;
#X obj 117 252 t b;
#X obj 222 252 t b;
#X obj 13 8 r formRand;
#X obj 21 68 r formRandX;
#X obj 117 68 r formRandY;
#X obj 222 67 r formRandZ;
#X connect 0 0 1 0;
#X connect 1 0 7 0;
#X connect 3 0 4 0;
#X connect 4 0 7 1;
#X connect 4 0 27 0;
#X connect 5 0 6 0;
#X connect 6 0 7 2;
#X connect 6 0 28 0;
#X connect 7 0 2 0;
#X connect 8 0 0 1;
#X connect 8 0 3 1;
#X connect 8 0 5 1;
#X connect 9 0 0 0;
#X connect 10 0 11 0;
#X connect 11 0 21 0;
#X connect 12 0 3 0;
#X connect 13 0 14 0;
#X connect 14 0 22 0;
#X connect 15 0 5 0;
#X connect 16 0 17 0;
#X connect 17 0 23 0;
#X connect 18 0 9 1;
#X connect 18 0 24 0;
#X connect 19 0 12 1;
#X connect 19 0 25 0;
#X connect 20 0 15 1;
#X connect 20 0 26 0;
#X connect 21 0 9 0;
#X connect 22 0 12 0;
#X connect 23 0 15 0;
#X connect 24 0 21 0;
#X connect 25 0 22 0;
#X connect 26 0 23 0;
#X connect 27 0 7 0;
#X connect 28 0 7 0;
#X connect 29 0 10 0;
#X connect 29 0 13 0;
#X connect 29 0 16 0;
#X connect 30 0 10 0;
#X connect 31 0 13 0;
#X connect 32 0 16 0;
#X restore 550 313 pd tripleRnd;
#N canvas 0 22 1350 709 tripleRnd 0;
#X obj 12 213 pack 0 1000;
#X obj 12 235 line;
#X obj 13 309 outlet;
#X obj 117 211 pack 0 1000;
#X obj 117 231 line;
#X obj 222 211 pack 0 1000;
#X obj 222 231 line;
#X obj 13 287 pack f f f;
#X obj 285 190 r line_forme2;
#X obj 13 192 * 0.01;
#X obj 13 92 random 200;
#X obj 13 112 - 100;
#X obj 117 191 * 0.01;
#X obj 117 91 random 200;
#X obj 117 111 - 100;
#X obj 222 190 * 0.01;
#X obj 222 90 random 200;
#X obj 222 110 - 100;
#X obj 21 132 r scaleX_forme2;
#X obj 125 131 r scaleY_forme2;
#X obj 228 130 r scaleZ_forme2;
#X obj 13 171 i;
#X obj 117 171 i;
#X obj 222 170 i;
#X obj 21 152 t b;
#X obj 125 151 t b;
#X obj 239 151 t b;
#X obj 117 252 t b;
#X obj 222 252 t b;
#X obj 13 8 r formRand;
#X obj 21 68 r formRandX;
#X obj 117 68 r formRandY;
#X obj 222 67 r formRandZ;
#X connect 0 0 1 0;
#X connect 1 0 7 0;
#X connect 3 0 4 0;
#X connect 4 0 7 1;
#X connect 4 0 27 0;
#X connect 5 0 6 0;
#X connect 6 0 7 2;
#X connect 6 0 28 0;
#X connect 7 0 2 0;
#X connect 8 0 0 1;
#X connect 8 0 3 1;
#X connect 8 0 5 1;
#X connect 9 0 0 0;
#X connect 10 0 11 0;
#X connect 11 0 21 0;
#X connect 12 0 3 0;
#X connect 13 0 14 0;
#X connect 14 0 22 0;
#X connect 15 0 5 0;
#X connect 16 0 17 0;
#X connect 17 0 23 0;
#X connect 18 0 9 1;
#X connect 18 0 24 0;
#X connect 19 0 12 1;
#X connect 19 0 25 0;
#X connect 20 0 15 1;
#X connect 20 0 26 0;
#X connect 21 0 9 0;
#X connect 22 0 12 0;
#X connect 23 0 15 0;
#X connect 24 0 21 0;
#X connect 25 0 22 0;
#X connect 26 0 23 0;
#X connect 27 0 7 0;
#X connect 28 0 7 0;
#X connect 29 0 10 0;
#X connect 29 0 13 0;
#X connect 29 0 16 0;
#X connect 30 0 10 0;
#X connect 31 0 13 0;
#X connect 32 0 16 0;
#X restore 30 376 pd tripleRnd;
#N canvas 0 22 1350 709 tripleRnd 0;
#X obj 12 213 pack 0 1000;
#X obj 12 235 line;
#X obj 13 309 outlet;
#X obj 117 211 pack 0 1000;
#X obj 117 231 line;
#X obj 222 211 pack 0 1000;
#X obj 222 231 line;
#X obj 13 287 pack f f f;
#X obj 285 190 r line_forme2;
#X obj 13 192 * 0.01;
#X obj 13 92 random 200;
#X obj 13 112 - 100;
#X obj 117 191 * 0.01;
#X obj 117 91 random 200;
#X obj 117 111 - 100;
#X obj 222 190 * 0.01;
#X obj 222 90 random 200;
#X obj 222 110 - 100;
#X obj 21 132 r scaleX_forme2;
#X obj 125 131 r scaleY_forme2;
#X obj 228 130 r scaleZ_forme2;
#X obj 13 171 i;
#X obj 117 171 i;
#X obj 222 170 i;
#X obj 21 152 t b;
#X obj 125 151 t b;
#X obj 239 151 t b;
#X obj 117 252 t b;
#X obj 222 252 t b;
#X obj 13 8 r formRand;
#X obj 21 68 r formRandX;
#X obj 117 68 r formRandY;
#X obj 222 67 r formRandZ;
#X connect 0 0 1 0;
#X connect 1 0 7 0;
#X connect 3 0 4 0;
#X connect 4 0 7 1;
#X connect 4 0 27 0;
#X connect 5 0 6 0;
#X connect 6 0 7 2;
#X connect 6 0 28 0;
#X connect 7 0 2 0;
#X connect 8 0 0 1;
#X connect 8 0 3 1;
#X connect 8 0 5 1;
#X connect 9 0 0 0;
#X connect 10 0 11 0;
#X connect 11 0 21 0;
#X connect 12 0 3 0;
#X connect 13 0 14 0;
#X connect 14 0 22 0;
#X connect 15 0 5 0;
#X connect 16 0 17 0;
#X connect 17 0 23 0;
#X connect 18 0 9 1;
#X connect 18 0 24 0;
#X connect 19 0 12 1;
#X connect 19 0 25 0;
#X connect 20 0 15 1;
#X connect 20 0 26 0;
#X connect 21 0 9 0;
#X connect 22 0 12 0;
#X connect 23 0 15 0;
#X connect 24 0 21 0;
#X connect 25 0 22 0;
#X connect 26 0 23 0;
#X connect 27 0 7 0;
#X connect 28 0 7 0;
#X connect 29 0 10 0;
#X connect 29 0 13 0;
#X connect 29 0 16 0;
#X connect 30 0 10 0;
#X connect 31 0 13 0;
#X connect 32 0 16 0;
#X restore 163 377 pd tripleRnd;
#N canvas 0 22 1350 709 tripleRnd 0;
#X obj 12 213 pack 0 1000;
#X obj 12 235 line;
#X obj 13 309 outlet;
#X obj 117 211 pack 0 1000;
#X obj 117 231 line;
#X obj 222 211 pack 0 1000;
#X obj 222 231 line;
#X obj 13 287 pack f f f;
#X obj 285 190 r line_forme2;
#X obj 13 192 * 0.01;
#X obj 13 92 random 200;
#X obj 13 112 - 100;
#X obj 117 191 * 0.01;
#X obj 117 91 random 200;
#X obj 117 111 - 100;
#X obj 222 190 * 0.01;
#X obj 222 90 random 200;
#X obj 222 110 - 100;
#X obj 21 132 r scaleX_forme2;
#X obj 125 131 r scaleY_forme2;
#X obj 228 130 r scaleZ_forme2;
#X obj 13 171 i;
#X obj 117 171 i;
#X obj 222 170 i;
#X obj 21 152 t b;
#X obj 125 151 t b;
#X obj 239 151 t b;
#X obj 117 252 t b;
#X obj 222 252 t b;
#X obj 13 8 r formRand;
#X obj 21 68 r formRandX;
#X obj 117 68 r formRandY;
#X obj 222 67 r formRandZ;
#X connect 0 0 1 0;
#X connect 1 0 7 0;
#X connect 3 0 4 0;
#X connect 4 0 7 1;
#X connect 4 0 27 0;
#X connect 5 0 6 0;
#X connect 6 0 7 2;
#X connect 6 0 28 0;
#X connect 7 0 2 0;
#X connect 8 0 0 1;
#X connect 8 0 3 1;
#X connect 8 0 5 1;
#X connect 9 0 0 0;
#X connect 10 0 11 0;
#X connect 11 0 21 0;
#X connect 12 0 3 0;
#X connect 13 0 14 0;
#X connect 14 0 22 0;
#X connect 15 0 5 0;
#X connect 16 0 17 0;
#X connect 17 0 23 0;
#X connect 18 0 9 1;
#X connect 18 0 24 0;
#X connect 19 0 12 1;
#X connect 19 0 25 0;
#X connect 20 0 15 1;
#X connect 20 0 26 0;
#X connect 21 0 9 0;
#X connect 22 0 12 0;
#X connect 23 0 15 0;
#X connect 24 0 21 0;
#X connect 25 0 22 0;
#X connect 26 0 23 0;
#X connect 27 0 7 0;
#X connect 28 0 7 0;
#X connect 29 0 10 0;
#X connect 29 0 13 0;
#X connect 29 0 16 0;
#X connect 30 0 10 0;
#X connect 31 0 13 0;
#X connect 32 0 16 0;
#X restore 301 377 pd tripleRnd;
#N canvas 0 22 1350 709 tripleRnd 0;
#X obj 12 213 pack 0 1000;
#X obj 12 235 line;
#X obj 13 309 outlet;
#X obj 117 211 pack 0 1000;
#X obj 117 231 line;
#X obj 222 211 pack 0 1000;
#X obj 222 231 line;
#X obj 13 287 pack f f f;
#X obj 285 190 r line_forme2;
#X obj 13 192 * 0.01;
#X obj 13 92 random 200;
#X obj 13 112 - 100;
#X obj 117 191 * 0.01;
#X obj 117 91 random 200;
#X obj 117 111 - 100;
#X obj 222 190 * 0.01;
#X obj 222 90 random 200;
#X obj 222 110 - 100;
#X obj 21 132 r scaleX_forme2;
#X obj 125 131 r scaleY_forme2;
#X obj 228 130 r scaleZ_forme2;
#X obj 13 171 i;
#X obj 117 171 i;
#X obj 222 170 i;
#X obj 21 152 t b;
#X obj 125 151 t b;
#X obj 239 151 t b;
#X obj 117 252 t b;
#X obj 222 252 t b;
#X obj 13 8 r formRand;
#X obj 21 68 r formRandX;
#X obj 117 68 r formRandY;
#X obj 222 67 r formRandZ;
#X connect 0 0 1 0;
#X connect 1 0 7 0;
#X connect 3 0 4 0;
#X connect 4 0 7 1;
#X connect 4 0 27 0;
#X connect 5 0 6 0;
#X connect 6 0 7 2;
#X connect 6 0 28 0;
#X connect 7 0 2 0;
#X connect 8 0 0 1;
#X connect 8 0 3 1;
#X connect 8 0 5 1;
#X connect 9 0 0 0;
#X connect 10 0 11 0;
#X connect 11 0 21 0;
#X connect 12 0 3 0;
#X connect 13 0 14 0;
#X connect 14 0 22 0;
#X connect 15 0 5 0;
#X connect 16 0 17 0;
#X connect 17 0 23 0;
#X connect 18 0 9 1;
#X connect 18 0 24 0;
#X connect 19 0 12 1;
#X connect 19 0 25 0;
#X connect 20 0 15 1;
#X connect 20 0 26 0;
#X connect 21 0 9 0;
#X connect 22 0 12 0;
#X connect 23 0 15 0;
#X connect 24 0 21 0;
#X connect 25 0 22 0;
#X connect 26 0 23 0;
#X connect 27 0 7 0;
#X connect 28 0 7 0;
#X connect 29 0 10 0;
#X connect 29 0 13 0;
#X connect 29 0 16 0;
#X connect 30 0 10 0;
#X connect 31 0 13 0;
#X connect 32 0 16 0;
#X restore 425 378 pd tripleRnd;
#N canvas 0 22 1350 709 tripleRnd 0;
#X obj 12 213 pack 0 1000;
#X obj 12 235 line;
#X obj 13 309 outlet;
#X obj 117 211 pack 0 1000;
#X obj 117 231 line;
#X obj 222 211 pack 0 1000;
#X obj 222 231 line;
#X obj 13 287 pack f f f;
#X obj 285 190 r line_forme2;
#X obj 13 192 * 0.01;
#X obj 13 92 random 200;
#X obj 13 112 - 100;
#X obj 117 191 * 0.01;
#X obj 117 91 random 200;
#X obj 117 111 - 100;
#X obj 222 190 * 0.01;
#X obj 222 90 random 200;
#X obj 222 110 - 100;
#X obj 21 132 r scaleX_forme2;
#X obj 125 131 r scaleY_forme2;
#X obj 228 130 r scaleZ_forme2;
#X obj 13 171 i;
#X obj 117 171 i;
#X obj 222 170 i;
#X obj 21 152 t b;
#X obj 125 151 t b;
#X obj 239 151 t b;
#X obj 117 252 t b;
#X obj 222 252 t b;
#X obj 13 8 r formRand;
#X obj 21 68 r formRandX;
#X obj 117 68 r formRandY;
#X obj 222 67 r formRandZ;
#X connect 0 0 1 0;
#X connect 1 0 7 0;
#X connect 3 0 4 0;
#X connect 4 0 7 1;
#X connect 4 0 27 0;
#X connect 5 0 6 0;
#X connect 6 0 7 2;
#X connect 6 0 28 0;
#X connect 7 0 2 0;
#X connect 8 0 0 1;
#X connect 8 0 3 1;
#X connect 8 0 5 1;
#X connect 9 0 0 0;
#X connect 10 0 11 0;
#X connect 11 0 21 0;
#X connect 12 0 3 0;
#X connect 13 0 14 0;
#X connect 14 0 22 0;
#X connect 15 0 5 0;
#X connect 16 0 17 0;
#X connect 17 0 23 0;
#X connect 18 0 9 1;
#X connect 18 0 24 0;
#X connect 19 0 12 1;
#X connect 19 0 25 0;
#X connect 20 0 15 1;
#X connect 20 0 26 0;
#X connect 21 0 9 0;
#X connect 22 0 12 0;
#X connect 23 0 15 0;
#X connect 24 0 21 0;
#X connect 25 0 22 0;
#X connect 26 0 23 0;
#X connect 27 0 7 0;
#X connect 28 0 7 0;
#X connect 29 0 10 0;
#X connect 29 0 13 0;
#X connect 29 0 16 0;
#X connect 30 0 10 0;
#X connect 31 0 13 0;
#X connect 32 0 16 0;
#X restore 546 378 pd tripleRnd;
#X msg 683 398 set 0 0 0 0 0 \, set 0 1 0 1 0 \, set 0 2 0 2 0 \, set
0 3 0 3 0 \, set 0 4 0 4 0 \, set 1 0 1 0 0 \, set 1 1 1 1 0 \, set
1 2 1 2 0 \, set 1 3 1 3 0 \, set 1 4 1 4 0 \, set 2 0 2 0 0 \, set
2 1 2 1 0 \, set 2 2 2 2 0 \, set 2 3 2 3 0 \, set 2 4 2 4 0 \, set
3 0 3 0 0 \, set 3 1 3 1 0 \, set 3 2 3 2 0 \, set 3 3 3 3 0 \, set
3 4 3 4 0 \, set 4 0 4 0 0 \, set 4 1 4 1 0 \, set 4 2 4 2 0 \, set
4 3 4 3 0 \, set 4 4 4 4 0 \,;
#X obj 683 355 key;
#X obj 683 376 sel 33;
#X connect 0 0 7 0;
#X connect 1 0 26 0;
#X connect 2 0 26 0;
#X connect 3 0 26 0;
#X connect 4 0 26 0;
#X connect 5 0 26 0;
#X connect 6 0 26 0;
#X connect 7 0 26 0;
#X connect 8 0 26 0;
#X connect 9 0 26 0;
#X connect 10 0 26 0;
#X connect 11 0 26 0;
#X connect 12 0 26 0;
#X connect 13 0 26 0;
#X connect 14 0 26 0;
#X connect 15 0 26 0;
#X connect 16 0 26 0;
#X connect 17 0 26 0;
#X connect 18 0 26 0;
#X connect 19 0 26 0;
#X connect 20 0 26 0;
#X connect 21 0 26 0;
#X connect 22 0 26 0;
#X connect 23 0 26 0;
#X connect 24 0 26 0;
#X connect 25 0 26 0;
#X connect 27 0 28 0;
#X connect 29 0 6 0;
#X connect 30 0 5 0;
#X connect 31 0 13 0;
#X connect 32 0 17 0;
#X connect 33 0 8 0;
#X connect 34 0 9 0;
#X connect 35 0 4 0;
#X connect 36 0 14 0;
#X connect 37 0 18 0;
#X connect 38 0 1 0;
#X connect 39 0 2 0;
#X connect 40 0 3 0;
#X connect 41 0 15 0;
#X connect 42 0 19 0;
#X connect 43 0 10 0;
#X connect 44 0 11 0;
#X connect 45 0 12 0;
#X connect 46 0 16 0;
#X connect 47 0 20 0;
#X connect 48 0 21 0;
#X connect 49 0 22 0;
#X connect 50 0 23 0;
#X connect 51 0 24 0;
#X connect 52 0 25 0;
#X connect 53 0 26 0;
#X connect 54 0 55 0;
#X connect 55 0 53 0;
#X restore 8 139 pd forme2;
#X text 263 406 Example:;
#X obj 127 338 surface3d 5 5;
#X obj 280 154 r curve3d_render;
#X obj 127 74 spigot;
#X obj 127 95 pix_texture;
#X obj 163 301 r curve3d;
#X obj 240 300 r curve3d;
#X obj 127 10 r pix_film_X_to_texture_1;
#N canvas 158 24 1132 685 curve3DControls 0;
#X obj 32 77 * 0.1;
#X obj 33 142 line 50;
#X obj 147 78 * 0.1;
#X obj 148 143 line 50;
#X obj 275 78 * 0.1;
#X obj 275 143 line 50;
#X obj 33 120 pack f 100;
#X obj 148 121 pack f 100;
#X obj 275 121 pack f 100;
#X obj 33 163 s rect1RotX;
#X obj 148 165 s rect1RotY;
#X obj 275 165 s rect1RotZ;
#X obj 275 31 r rect1RotZTrigger;
#X obj 31 30 r rect1RotXTrigger;
#X obj 126 61 bng 15 250 50 0 empty empty empty 17 7 0 10 -262144 -1
-1;
#X obj 230 60 bng 15 250 50 0 empty empty empty 17 7 0 10 -262144 -1
-1;
#X obj 9 60 bng 15 250 50 0 empty empty empty 17 7 0 10 -262144 -1
-1;
#X obj 149 29 r rect1RotYTrigger;
#X floatatom 17 197 5 0 0 0 - - -;
#X floatatom 137 195 5 0 0 0 - - -;
#X floatatom 267 202 5 0 0 0 - - -;
#X obj 398 32 r rect1SpeedRotation;
#X obj 523 141 key;
#X floatatom 530 162 5 0 0 0 - - -;
#X msg 755 405 0;
#X msg 777 363 0;
#X msg 799 321 0;
#X obj 567 302 s rect1RotXTrigger;
#X obj 611 264 s rect1RotZTrigger;
#X obj 589 283 s rect1RotYTrigger;
#X floatatom 219 195 5 0 0 0 - - -;
#X obj 276 58 random 3600;
#X obj 148 58 random 3600;
#X obj 33 57 random 3600;
#X obj 523 181 select 49 50 51 52 53 54 55 56;
#X obj 711 181 select 33 64 35 36 37 94 38 42;
#X obj 677 207 s rect1TransZTrigger;
#X obj 655 225 s rect1TransYTrigger;
#X obj 633 245 s rect1TransXTrigger;
#X obj 167 524 line 50;
#X floatatom 217 367 5 0 0 0 - - -;
#X obj 31 498 pack f 50;
#X obj 167 500 pack f 50;
#X obj 167 363 * 0.01;
#X floatatom 38 546 5 0 0 0 - - -;
#X floatatom 176 547 5 0 0 0 - - -;
#X obj 167 339 random 1000;
#X obj 304 526 line 50;
#X floatatom 354 363 5 0 0 0 - - -;
#X obj 304 501 pack f 50;
#X obj 305 361 * 0.01;
#X floatatom 313 549 5 0 0 0 - - -;
#X obj 305 337 random 1000;
#X obj 167 317 r rect1TransYTrigger;
#X obj 305 316 r rect1TransZTrigger;
#X obj 167 568 s rect1YTrans;
#X msg 821 282 0;
#X msg 843 241 0;
#X msg 865 201 0;
#X obj 31 569 s rect1XTrans;
#X msg 319 427 -1;
#X msg 347 427 1;
#X obj 304 450 * 1;
#X obj 319 385 random 1;
#X obj 319 405 sel 0;
#X msg 182 429 -1;
#X msg 210 429 1;
#X obj 167 452 * 1;
#X obj 182 387 random 1;
#X obj 182 407 sel 0;
#X obj 438 310 r rect1SpeedTrans;
#X msg 45 429 -1;
#X msg 73 429 1;
#X obj 31 452 * 1;
#X obj 45 387 random 1;
#X obj 45 407 sel 0;
#X floatatom 76 362 5 0 0 0 - - -;
#X obj 31 363 * 0.01;
#X obj 31 339 random 1000;
#X obj 31 316 r rect1TransXTrigger;
#X obj 31 525 line 50;
#X obj 40 474 r rect1XTransJump;
#X obj 176 477 r rect1YTransJump;
#X obj 865 221 s rect1YTransJump;
#X obj 843 261 s rect1YTransJump;
#X obj 821 302 s rect1XTransJump;
#X obj 313 475 r rect1ZTransJump;
#X obj 43 98 r rect1RotXJump;
#X obj 156 97 r rect1RotYJump;
#X obj 287 99 r rect1RotZJump;
#X obj 799 343 s rect1RotZJump;
#X obj 777 385 s rect1RotYJump;
#X obj 755 427 s rect1RotXJump;
#X obj 304 569 s rect1ZTrans;
#X connect 0 0 6 0;
#X connect 1 0 9 0;
#X connect 1 0 18 0;
#X connect 2 0 7 0;
#X connect 3 0 10 0;
#X connect 3 0 19 0;
#X connect 4 0 8 0;
#X connect 5 0 11 0;
#X connect 5 0 20 0;
#X connect 6 0 1 0;
#X connect 7 0 3 0;
#X connect 8 0 5 0;
#X connect 12 0 15 0;
#X connect 12 0 31 0;
#X connect 13 0 16 0;
#X connect 13 0 33 0;
#X connect 17 0 14 0;
#X connect 17 0 32 0;
#X connect 21 0 8 1;
#X connect 21 0 7 1;
#X connect 21 0 6 1;
#X connect 22 0 23 0;
#X connect 22 0 34 0;
#X connect 22 0 35 0;
#X connect 24 0 92 0;
#X connect 25 0 91 0;
#X connect 26 0 90 0;
#X connect 31 0 4 0;
#X connect 31 0 30 0;
#X connect 32 0 2 0;
#X connect 33 0 0 0;
#X connect 34 2 27 0;
#X connect 34 3 29 0;
#X connect 34 4 28 0;
#X connect 34 5 38 0;
#X connect 34 6 37 0;
#X connect 34 7 36 0;
#X connect 35 2 24 0;
#X connect 35 3 25 0;
#X connect 35 4 26 0;
#X connect 35 5 56 0;
#X connect 35 6 57 0;
#X connect 35 7 58 0;
#X connect 39 0 45 0;
#X connect 39 0 55 0;
#X connect 41 0 80 0;
#X connect 42 0 39 0;
#X connect 43 0 40 0;
#X connect 43 0 67 0;
#X connect 46 0 43 0;
#X connect 47 0 51 0;
#X connect 47 0 93 0;
#X connect 49 0 47 0;
#X connect 50 0 48 0;
#X connect 50 0 62 0;
#X connect 52 0 50 0;
#X connect 53 0 46 0;
#X connect 53 0 68 0;
#X connect 54 0 52 0;
#X connect 54 0 63 0;
#X connect 56 0 85 0;
#X connect 57 0 84 0;
#X connect 58 0 83 0;
#X connect 60 0 62 1;
#X connect 61 0 62 1;
#X connect 62 0 49 0;
#X connect 63 0 64 0;
#X connect 64 0 60 0;
#X connect 64 1 61 0;
#X connect 65 0 67 1;
#X connect 66 0 67 1;
#X connect 67 0 42 0;
#X connect 68 0 69 0;
#X connect 69 0 65 0;
#X connect 69 1 66 0;
#X connect 70 0 49 1;
#X connect 70 0 42 1;
#X connect 70 0 41 1;
#X connect 71 0 73 1;
#X connect 72 0 73 1;
#X connect 73 0 41 0;
#X connect 74 0 75 0;
#X connect 75 0 71 0;
#X connect 75 1 72 0;
#X connect 77 0 76 0;
#X connect 77 0 73 0;
#X connect 78 0 77 0;
#X connect 79 0 78 0;
#X connect 79 0 74 0;
#X connect 80 0 44 0;
#X connect 80 0 59 0;
#X connect 81 0 41 0;
#X connect 82 0 42 0;
#X connect 86 0 49 0;
#X connect 87 0 6 0;
#X connect 88 0 7 0;
#X connect 89 0 8 0;
#X restore 149 -71 pd curve3DControls;
#X obj 403 55 r curveDrawMode;
#X connect 0 0 30 0;
#X connect 1 0 12 0;
#X connect 2 0 12 0;
#X connect 3 0 12 0;
#X connect 4 0 12 0;
#X connect 5 0 12 0;
#X connect 6 0 12 0;
#X connect 7 0 13 0;
#X connect 8 0 13 0;
#X connect 9 0 13 0;
#X connect 10 0 13 0;
#X connect 11 0 13 0;
#X connect 14 0 12 0;
#X connect 15 0 12 0;
#X connect 15 0 18 0;
#X connect 16 0 15 0;
#X connect 17 0 10 0;
#X connect 17 0 19 0;
#X connect 17 1 7 0;
#X connect 17 1 20 0;
#X connect 17 2 8 0;
#X connect 17 2 21 0;
#X connect 17 3 9 0;
#X connect 17 3 22 0;
#X connect 17 4 11 0;
#X connect 17 4 23 0;
#X connect 17 5 14 0;
#X connect 17 5 24 0;
#X connect 17 6 1 0;
#X connect 17 6 25 0;
#X connect 17 7 3 0;
#X connect 17 7 26 0;
#X connect 17 8 4 0;
#X connect 17 8 27 0;
#X connect 17 9 5 0;
#X connect 17 9 28 0;
#X connect 17 10 6 0;
#X connect 17 10 29 0;
#X connect 17 11 2 0;
#X connect 17 11 0 0;
#X connect 18 0 13 0;
#X connect 19 0 30 0;
#X connect 20 0 30 0;
#X connect 21 0 30 0;
#X connect 22 0 30 0;
#X connect 23 0 30 0;
#X connect 24 0 30 0;
#X connect 25 0 30 0;
#X connect 26 0 30 0;
#X connect 27 0 30 0;
#X connect 28 0 30 0;
#X connect 29 0 30 0;
#X connect 31 0 32 0;
#X connect 32 0 49 0;
#X connect 33 0 32 1;
#X connect 34 0 32 2;
#X connect 35 0 32 3;
#X connect 36 0 42 0;
#X connect 37 0 43 0;
#X connect 38 0 51 1;
#X connect 39 0 44 0;
#X connect 40 0 47 0;
#X connect 41 0 46 0;
#X connect 42 0 31 1;
#X connect 43 0 31 2;
#X connect 44 0 31 3;
#X connect 45 0 38 0;
#X connect 46 0 47 0;
#X connect 46 1 38 0;
#X connect 47 0 49 0;
#X connect 50 0 49 0;
#X connect 51 0 52 0;
#X connect 52 0 31 0;
#X connect 53 0 49 0;
#X connect 54 0 49 0;
#X connect 55 0 51 0;
#X connect 57 0 17 0;
#X restore -230 294 pd 3d Surface;
#N canvas 715 146 450 300 motion 0;
#X obj 22 237 s rect1XTrans_HSLider;
#X obj 22 217 * 2;
#X obj 278 232 s rect1ZTrans_HSLider;
#X obj 145 233 s rect1YTrans_HSLider;
#X obj 272 90 * 180;
#X obj 152 90 * 180;
#X obj 29 91 * 180;
#X obj 271 70 spigot;
#X obj 152 67 spigot;
#X obj 29 70 spigot;
#X obj 29 48 r motionControl_01;
#X obj 152 46 r motionControl_02;
#X obj 271 48 r motionControl_03;
#X obj 29 112 s rect1XRot_HSLider;
#X obj 152 113 s rect1YRot_HSLider;
#X obj 272 113 s rect1ZRot_HSLider;
#X obj 278 190 spigot;
#X obj 145 192 spigot;
#X obj 22 195 spigot;
#X obj 22 173 r motionControl_01;
#X obj 145 171 r motionControl_02;
#X obj 278 168 r motionControl_03;
#X obj 55 150 r motionControl_2_translate;
#X obj 145 212 * 2;
#X obj 278 212 * 2;
#X obj 62 23 r motionControl_2_rotate;
#X connect 1 0 0 0;
#X connect 4 0 15 0;
#X connect 5 0 14 0;
#X connect 6 0 13 0;
#X connect 7 0 4 0;
#X connect 8 0 5 0;
#X connect 9 0 6 0;
#X connect 10 0 9 0;
#X connect 11 0 8 0;
#X connect 12 0 7 0;
#X connect 16 0 24 0;
#X connect 17 0 23 0;
#X connect 18 0 1 0;
#X connect 19 0 18 0;
#X connect 20 0 17 0;
#X connect 21 0 16 0;
#X connect 22 0 18 1;
#X connect 22 0 17 1;
#X connect 22 0 16 1;
#X connect 23 0 3 0;
#X connect 24 0 2 0;
#X connect 25 0 9 1;
#X connect 25 0 8 1;
#X connect 25 0 7 1;
#X restore -241 260 pd motion control to transformations;
#X obj 262 -189 bng 15 250 50 0 frameRand empty frameRando 17 7 0 10
-262144 -1 -1;
#X msg -64 -33 0.05;
#X obj -170 -228 hradio 15 1 0 3 pix_film_01_route empty pix_film_X_to_texture1
0 -8 0 10 -262144 -1 -1 0;
#X obj -171 -192 hradio 15 1 0 3 pix_film_02_route empty pix_film_X_to_texture2
0 -8 0 10 -262144 -1 -1 0;
#X obj -176 -146 hradio 15 1 0 3 pix_film_03_route empty pix_film_X_to_texture3
0 -8 0 10 -262144 -1 -1 0;
#N canvas 10 122 1350 691 pix_film_02 0;
#X obj -121 -115 gemhead;
#X floatatom -97 65 5 0 0 3 length - -;
#X floatatom -58 64 5 0 0 3 width - -;
#X floatatom -23 65 5 0 0 3 height - -;
#X obj -62 7 bng 15 250 50 0 empty empty end_reached 20 7 0 10 -262144
-1 -1;
#X floatatom -76 -14 5 0 10000 1 frame# - -;
#X obj -121 6 pix_film;
#X obj -99 39 unpack f f f;
#X obj -108 -54 r pix_film_02_openFile;
#X obj -76 -35 r pix_film_02_frameControl;
#X obj -109 94 s pix_film_02_length;
#X obj -121 117 s pix_film_02_render_command;
#X obj 206 345 counter;
#X obj 190 294 t b;
#X msg 215 293 2;
#X msg 225 319 0;
#X msg 287 277 set \$1;
#X msg 287 338 179;
#X msg 254 319 0;
#X obj 215 258 loadbang;
#X obj 172 258 spigot;
#X obj 353 338 random;
#X obj 299 311 t b;
#X obj 399 339 delay;
#X obj 427 -16 key;
#X floatatom 438 8 5 0 0 0 - - -;
#X obj 600 179 adc~;
#X obj 592 205 snapshot~;
#X obj 592 228 + 1;
#X obj 592 252 * 0.5;
#X obj 592 294 *;
#X obj 592 363 i;
#X floatatom 557 388 5 0 0 0 - - -;
#X obj 592 120 metro 250;
#X msg 606 86 1;
#X msg 616 96 0;
#X obj 592 317 pack f 250;
#X obj 592 339 line 0 50;
#X obj 592 159 spigot;
#X obj 205 230 tgl 15 0 empty empty empty 17 7 0 10 -262144 -1 -1 0
1;
#X obj 625 141 tgl 15 0 empty empty empty 17 7 0 10 -262144 -1 -1 0
1;
#X obj 427 32 select 32 96 47 122 120;
#X msg 480 106 inc;
#X msg 452 106 dec;
#X floatatom 142 377 10 0 0 0 - - -;
#X obj 417 252 - 1;
#X obj 353 312 r frameRand;
#X obj 414 191 sel 0 1;
#X obj 172 172 r renderClock;
#X obj 403 225 r pix_film_02_length;
#X obj 235 225 r pix_film_02_frame;
#X obj 206 376 s pix_film_02_frameControl;
#X obj 592 387 s pix_film_02_frame;
#X obj 607 272 r pix_film_02_length;
#X connect 0 0 6 0;
#X connect 5 0 6 1;
#X connect 6 0 11 0;
#X connect 6 1 7 0;
#X connect 6 2 4 0;
#X connect 7 0 1 0;
#X connect 7 0 10 0;
#X connect 7 1 2 0;
#X connect 7 2 3 0;
#X connect 8 0 6 0;
#X connect 9 0 5 0;
#X connect 12 0 44 0;
#X connect 12 0 51 0;
#X connect 13 0 12 0;
#X connect 14 0 12 1;
#X connect 15 0 12 2;
#X connect 16 0 17 0;
#X connect 17 0 12 4;
#X connect 18 0 12 3;
#X connect 19 0 14 0;
#X connect 19 0 15 0;
#X connect 19 0 18 0;
#X connect 20 0 13 0;
#X connect 21 0 12 3;
#X connect 22 0 17 0;
#X connect 23 0 22 0;
#X connect 24 0 25 0;
#X connect 24 0 41 0;
#X connect 26 0 27 0;
#X connect 27 0 28 0;
#X connect 28 0 29 0;
#X connect 29 0 30 0;
#X connect 30 0 36 0;
#X connect 31 0 32 0;
#X connect 31 0 52 0;
#X connect 33 0 38 0;
#X connect 34 0 33 0;
#X connect 35 0 33 0;
#X connect 36 0 37 0;
#X connect 37 0 31 0;
#X connect 38 0 27 0;
#X connect 39 0 20 1;
#X connect 39 0 47 0;
#X connect 40 0 38 1;
#X connect 41 0 39 0;
#X connect 41 1 12 3;
#X connect 41 2 40 0;
#X connect 41 3 43 0;
#X connect 41 4 42 0;
#X connect 42 0 12 0;
#X connect 43 0 12 0;
#X connect 45 0 16 0;
#X connect 45 0 23 0;
#X connect 46 0 21 0;
#X connect 47 0 34 0;
#X connect 47 1 35 0;
#X connect 48 0 20 0;
#X connect 49 0 45 0;
#X connect 49 0 21 1;
#X connect 50 0 12 3;
#X connect 53 0 30 1;
#X restore -245 100 pd pix_film_02;
#N canvas 0 22 1366 725 pix_film_03 0;
#X obj -121 -115 gemhead;
#X floatatom -97 65 5 0 0 3 length - -;
#X floatatom -58 64 5 0 0 3 width - -;
#X floatatom -23 65 5 0 0 3 height - -;
#X obj -62 7 bng 15 250 50 0 empty empty end_reached 20 7 0 10 -262144
-1 -1;
#X floatatom -76 -14 5 0 10000 1 frame# - -;
#X obj -121 6 pix_film;
#X obj -99 39 unpack f f f;
#X obj -108 -54 r pix_film_03_openFile;
#X obj -76 -35 r pix_film_03_frameControl;
#X obj -109 94 s pix_film_03_length;
#X obj -122 117 s pix_film_03_render_command;
#X obj 216 355 counter;
#X obj 200 304 t b;
#X msg 225 303 2;
#X msg 235 329 0;
#X msg 297 287 set \$1;
#X msg 297 348 149;
#X msg 264 329 0;
#X obj 225 268 loadbang;
#X obj 182 268 spigot;
#X obj 363 348 random;
#X obj 283 256 r resetFrameCount;
#X obj 309 321 t b;
#X obj 409 349 delay;
#X obj 437 -6 key;
#X floatatom 448 18 5 0 0 0 - - -;
#X obj 610 189 adc~;
#X obj 602 215 snapshot~;
#X obj 602 238 + 1;
#X obj 602 262 * 0.5;
#X obj 602 304 *;
#X obj 602 373 i;
#X floatatom 567 398 5 0 0 0 - - -;
#X obj 602 130 metro 250;
#X msg 616 96 1;
#X msg 626 106 0;
#X obj 602 327 pack f 250;
#X obj 602 349 line 0 50;
#X obj 602 169 spigot;
#X obj 215 240 tgl 15 0 empty empty empty 17 7 0 10 -262144 -1 -1 0
1;
#X obj 635 151 tgl 15 0 empty empty empty 17 7 0 10 -262144 -1 -1 0
1;
#X obj 437 42 select 32 96 47 122 120;
#X msg 490 116 inc;
#X msg 462 116 dec;
#X floatatom 152 387 10 0 0 0 - - -;
#X obj 427 262 - 1;
#X obj 363 322 r frameRand;
#X obj 464 75 s resetFrameCount;
#X obj 424 201 sel 0 1;
#X obj 182 182 r renderClock;
#X obj 602 396 s pix_film_03_frame;
#X obj 617 282 r pix_film_03_length;
#X obj 413 235 r pix_film_03_length;
#X obj 245 235 r pix_film_03_frame;
#X obj 216 386 s pix_film_03_frameControl;
#X connect 0 0 6 0;
#X connect 5 0 6 1;
#X connect 6 0 11 0;
#X connect 6 1 7 0;
#X connect 6 2 4 0;
#X connect 7 0 1 0;
#X connect 7 0 10 0;
#X connect 7 1 2 0;
#X connect 7 2 3 0;
#X connect 8 0 6 0;
#X connect 9 0 5 0;
#X connect 12 0 45 0;
#X connect 12 0 55 0;
#X connect 13 0 12 0;
#X connect 14 0 12 1;
#X connect 15 0 12 2;
#X connect 16 0 17 0;
#X connect 17 0 12 4;
#X connect 18 0 12 3;
#X connect 19 0 14 0;
#X connect 19 0 15 0;
#X connect 19 0 18 0;
#X connect 20 0 13 0;
#X connect 21 0 12 3;
#X connect 22 0 12 3;
#X connect 23 0 17 0;
#X connect 24 0 23 0;
#X connect 25 0 26 0;
#X connect 25 0 42 0;
#X connect 27 0 28 0;
#X connect 28 0 29 0;
#X connect 29 0 30 0;
#X connect 30 0 31 0;
#X connect 31 0 37 0;
#X connect 32 0 33 0;
#X connect 32 0 51 0;
#X connect 34 0 39 0;
#X connect 35 0 34 0;
#X connect 36 0 34 0;
#X connect 37 0 38 0;
#X connect 38 0 32 0;
#X connect 39 0 28 0;
#X connect 40 0 20 1;
#X connect 40 0 49 0;
#X connect 41 0 39 1;
#X connect 42 0 40 0;
#X connect 42 1 48 0;
#X connect 42 2 41 0;
#X connect 42 3 44 0;
#X connect 42 4 43 0;
#X connect 43 0 12 0;
#X connect 44 0 12 0;
#X connect 46 0 16 0;
#X connect 46 0 24 0;
#X connect 47 0 21 0;
#X connect 49 0 35 0;
#X connect 49 1 36 0;
#X connect 50 0 20 0;
#X connect 52 0 31 1;
#X connect 53 0 46 0;
#X connect 53 0 21 1;
#X connect 54 0 12 3;
#X restore -244 122 pd pix_film_03;
#X obj 54 -172 hradio 15 1 0 6 videoSelect_02 videoSelect_02_Init 02_clip_select
0 -8 0 10 -262144 -1 -1 0;
#X obj 147 -172 hradio 15 1 0 6 videoSelect_03 videoSelect_03_Init
03_clip_select 0 -8 0 10 -262144 -1 -1 0;
#X msg -98 30 0;
#X obj 64 102 r pix_film_X_to_texture_3;
#N canvas 119 182 450 353 pix_film 0;
#X obj 16 44 r pix_film_01_render_command;
#X obj 71 63 r pix_film_02_render_command;
#X obj 126 87 r pix_film_03_render_command;
#X obj 27 136 sel 0;
#X obj 26 111 r pix_film_01_route;
#X obj 17 188 spigot;
#X msg 27 162 1;
#X msg 54 162 0;
#X obj 71 188 spigot;
#X msg 81 162 1;
#X msg 110 161 0;
#X obj 126 187 spigot;
#X msg 136 161 1;
#X msg 163 161 0;
#X obj 81 136 sel 1;
#X obj 136 135 sel 2;
#X obj 17 216 s pix_film_X_to_texture_1;
#X obj 286 52 r pix_film_01_render_command;
#X obj 341 71 r pix_film_02_render_command;
#X obj 396 95 r pix_film_03_render_command;
#X obj 297 144 sel 0;
#X obj 287 196 spigot;
#X msg 297 170 1;
#X msg 324 170 0;
#X obj 341 196 spigot;
#X msg 351 170 1;
#X msg 380 169 0;
#X obj 396 195 spigot;
#X msg 406 169 1;
#X msg 433 169 0;
#X obj 351 144 sel 1;
#X obj 406 143 sel 2;
#X obj 296 119 r pix_film_02_route;
#X obj 287 224 s pix_film_X_to_texture_2;
#X obj 520 51 r pix_film_01_render_command;
#X obj 575 70 r pix_film_02_render_command;
#X obj 630 94 r pix_film_03_render_command;
#X obj 531 143 sel 0;
#X obj 521 195 spigot;
#X msg 531 169 1;
#X msg 558 169 0;
#X obj 575 195 spigot;
#X msg 585 169 1;
#X msg 614 168 0;
#X obj 630 194 spigot;
#X msg 640 168 1;
#X msg 667 168 0;
#X obj 585 143 sel 1;
#X obj 640 142 sel 2;
#X obj 521 223 s pix_film_X_to_texture_3;
#X obj 530 118 r pix_film_03_route;
#X connect 0 0 5 0;
#X connect 1 0 8 0;
#X connect 2 0 11 0;
#X connect 3 0 6 0;
#X connect 3 1 7 0;
#X connect 4 0 3 0;
#X connect 4 0 14 0;
#X connect 4 0 15 0;
#X connect 5 0 16 0;
#X connect 6 0 5 1;
#X connect 7 0 5 1;
#X connect 8 0 16 0;
#X connect 9 0 8 1;
#X connect 10 0 8 1;
#X connect 11 0 16 0;
#X connect 12 0 11 1;
#X connect 13 0 11 1;
#X connect 14 0 9 0;
#X connect 14 1 10 0;
#X connect 15 0 12 0;
#X connect 15 1 13 0;
#X connect 17 0 21 0;
#X connect 18 0 24 0;
#X connect 19 0 27 0;
#X connect 20 0 22 0;
#X connect 20 1 23 0;
#X connect 21 0 33 0;
#X connect 22 0 21 1;
#X connect 23 0 21 1;
#X connect 24 0 33 0;
#X connect 25 0 24 1;
#X connect 26 0 24 1;
#X connect 27 0 33 0;
#X connect 28 0 27 1;
#X connect 29 0 27 1;
#X connect 30 0 25 0;
#X connect 30 1 26 0;
#X connect 31 0 28 0;
#X connect 31 1 29 0;
#X connect 32 0 20 0;
#X connect 32 0 30 0;
#X connect 32 0 31 0;
#X connect 34 0 38 0;
#X connect 35 0 41 0;
#X connect 36 0 44 0;
#X connect 37 0 39 0;
#X connect 37 1 40 0;
#X connect 38 0 49 0;
#X connect 39 0 38 1;
#X connect 40 0 38 1;
#X connect 41 0 49 0;
#X connect 42 0 41 1;
#X connect 43 0 41 1;
#X connect 44 0 49 0;
#X connect 45 0 44 1;
#X connect 46 0 44 1;
#X connect 47 0 42 0;
#X connect 47 1 43 0;
#X connect 48 0 45 0;
#X connect 48 1 46 0;
#X connect 50 0 37 0;
#X connect 50 0 47 0;
#X connect 50 0 48 0;
#X restore -245 143 pd pix_film to texture routing;
#X obj 458 27 hsl 200 15 1 99 0 0 kScopeSegments kScopeSegmentsSlider
kScopeSegments 7 7 0 10 -262144 -1 -1 0 1;
#X obj 458 45 hsl 360 15 -180 180 0 0 kScopeSourceAngle kScopeSourceAngleSlider
kScopeSourceAngle 7 7 0 10 -262144 -1 -1 0 1;
#X obj 458 63 hsl 360 15 -180 180 0 0 kScopeOutputAngle kScopeOutputAngleSlider
kScopeOutputAngle 7 7 0 10 -262144 -1 -1 0 1;
#X floatatom 421 27 5 0 0 0 - kScopeSegments -;
#X floatatom 421 44 5 0 0 0 - kScopeSourceAngle -;
#X floatatom 421 62 5 0 0 0 - kScopeOutputAngle -;
#X obj 458 10 hsl 200 15 0 10000 0 0 kScopeSpeed kScopeSpeedSlider
kScopeSpeed 7 7 0 10 -262144 -1 -1 0 1;
#X msg 366 27 2;
#X msg 393 27 4;
#N canvas 1261 60 585 474 kScope 1;
#X obj 16 -2 r pix_film_X_to_texture_2;
#X obj 62 404 pix_texture;
#X obj 62 381 pix_kaleidoscope;
#X floatatom 155 359 5 0.1 10 1 sap - -;
#X floatatom 141 340 5 0 1 1 rlp - -;
#X obj 128 319 pack;
#X obj 173 318 t b f;
#X floatatom 128 280 4 0 100 0 - - -;
#X floatatom 171 279 4 0 100 0 - - -;
#X obj 128 299 * 0.01;
#X obj 171 298 * 0.01;
#X obj 101 259 pack;
#X obj 155 259 t b f;
#X floatatom 101 220 4 0 100 0 - - -;
#X floatatom 153 220 4 0 100 0 - - -;
#X obj 101 239 * 0.01;
#X obj 153 239 * 0.01;
#X obj 62 545 rectangle 8 5;
#X obj 75 72 r kScopeSegments;
#X obj 88 93 r kScopeSourceAngle;
#X obj 115 113 r kScopeOutputAngle;
#X obj 115 177 pack f 500;
#X obj 88 134 pack f 500;
#X obj 115 197 line 50;
#X obj 88 156 line 50;
#X obj 171 141 r kScopeSpeed;
#X obj 16 83 spigot;
#X obj 49 64 tgl 15 0 empty empty empty 17 7 0 10 -262144 -1 -1 0 1
;
#X obj 49 20 key;
#X floatatom 94 45 5 0 0 0 - - -;
#X obj 49 44 sel 48;
#X obj 62 488 translateXYZ;
#X obj 212 393 r kScopeTransX;
#X obj 275 363 r kScopeTransSpeed;
#X obj 212 433 pack f 1000;
#X obj 212 414 * 5;
#X floatatom 212 475 5 0 0 0 - - -;
#X obj 212 453 line 50;
#X obj 303 433 pack f 1000;
#X obj 303 414 * 5;
#X floatatom 303 475 5 0 0 0 - - -;
#X obj 303 453 line 50;
#X obj 394 433 pack f 1000;
#X obj 394 414 * 5;
#X floatatom 394 475 5 0 0 0 - - -;
#X obj 394 453 line 50;
#X obj 393 393 r kScopeTransZ;
#X obj 303 393 r kScopeTransY;
#X obj 271 583 pack f 1000;
#X floatatom 271 626 5 0 0 0 - - -;
#X obj 271 604 line 50;
#X obj 363 583 pack f 1000;
#X floatatom 363 625 5 0 0 0 - - -;
#X obj 363 603 line 50;
#X obj 363 543 r kScopeSizeY;
#X obj 271 543 r kScopeSizeX;
#X obj 271 563 * 10;
#X obj 363 562 * 10;
#X obj 335 513 r kScopeTransSizeSpeed;
#X obj 537 453 random 1000;
#X obj 524 524 random 1000;
#X obj 537 495 * 0.001;
#X obj 524 545 * 0.001;
#X connect 0 0 26 0;
#X connect 1 0 31 0;
#X connect 2 0 1 0;
#X connect 3 0 2 7;
#X connect 4 0 2 6;
#X connect 5 0 2 5;
#X connect 6 0 5 0;
#X connect 6 1 5 1;
#X connect 7 0 9 0;
#X connect 8 0 10 0;
#X connect 9 0 5 0;
#X connect 10 0 6 0;
#X connect 11 0 2 3;
#X connect 12 0 11 0;
#X connect 12 1 11 1;
#X connect 13 0 15 0;
#X connect 14 0 16 0;
#X connect 15 0 11 0;
#X connect 16 0 12 0;
#X connect 18 0 2 1;
#X connect 19 0 22 0;
#X connect 20 0 21 0;
#X connect 21 0 23 0;
#X connect 22 0 24 0;
#X connect 23 0 2 4;
#X connect 24 0 2 2;
#X connect 25 0 21 1;
#X connect 25 0 22 1;
#X connect 26 0 2 0;
#X connect 27 0 26 1;
#X connect 28 0 29 0;
#X connect 28 0 30 0;
#X connect 30 0 27 0;
#X connect 31 0 17 0;
#X connect 32 0 35 0;
#X connect 33 0 34 1;
#X connect 33 0 38 1;
#X connect 33 0 42 1;
#X connect 34 0 37 0;
#X connect 35 0 34 0;
#X connect 37 0 36 0;
#X connect 37 0 31 1;
#X connect 38 0 41 0;
#X connect 39 0 38 0;
#X connect 41 0 40 0;
#X connect 41 0 31 2;
#X connect 42 0 45 0;
#X connect 43 0 42 0;
#X connect 45 0 44 0;
#X connect 45 0 31 3;
#X connect 46 0 43 0;
#X connect 47 0 39 0;
#X connect 48 0 50 0;
#X connect 50 0 49 0;
#X connect 50 0 17 1;
#X connect 51 0 53 0;
#X connect 53 0 52 0;
#X connect 53 0 17 2;
#X connect 54 0 57 0;
#X connect 55 0 56 0;
#X connect 56 0 48 0;
#X connect 57 0 51 0;
#X connect 58 0 48 1;
#X connect 58 0 51 1;
#X connect 59 0 61 0;
#X connect 60 0 62 0;
#X restore -230 316 pd kScope Rectangle;
#X obj 584 230 s kScopeSourceAngleSlider;
#X obj 402 46 bng 15 250 50 0 kScopeSourceAngleRand empty empty 17
7 0 10 -262144 -1 -1;
#X obj 478 209 r kScopeSourceAngleRand;
#X obj 474 263 r kScopeOutputAngleRand;
#X obj 580 284 s kScopeOutputAngleSlider;
#X obj 402 64 bng 15 250 50 0 kScopeOutputAngleRand empty empty 17
7 0 10 -262144 -1 -1;
#X msg 334 46 0;
#X msg 333 65 0;
#X msg 334 7 0;
#X msg 365 7 500;
#X msg 394 7 1000;
#X obj 301 7 bng 15 250 50 0 empty empty empty 17 7 0 10 -262144 -1
-1;
#X msg 334 27 1;
#X obj 479 230 random 180;
#X obj 553 230 -180;
#X obj 475 284 random 180;
#X obj 549 283 -180;
#N canvas 0 22 667 709 divider 0;
#X msg 82 8 2;
#X obj -81 -82 r renderClock;
#X obj 323 187 sel;
#X msg -17 8 0;
#X msg 24 7 1;
#X msg 146 12 3;
#X msg 211 14 4;
#X msg 272 14 5;
#X msg 334 14 6;
#X msg 394 14 7;
#X obj 338 166 r counterDivSel_01;
#X obj 323 210 s renderClockDiv_01;
#X obj 260 298 s setCounterDivSel_01;
#X obj 260 275 random 8;
#X obj 260 254 spigot;
#X obj 293 232 r tabRandRead_01;
#X obj 202 352 sel;
#X obj 139 440 random 8;
#X obj 139 419 spigot;
#X obj 217 331 r counterDivSel_02;
#X obj 202 375 s renderClockDiv_02;
#X obj 172 397 r tabRandRead_02;
#X obj 139 463 s setCounterDivSel_02;
#X obj 416 306 sel;
#X obj 353 394 random 8;
#X obj 353 373 spigot;
#X obj 431 285 r counterDivSel_03;
#X obj 416 329 s renderClockDiv_03;
#X obj 386 351 r tabRandRead_03;
#X obj 353 417 s setCounterDivSel_03;
#N canvas 172 142 450 300 toggle 0;
#X obj 207 194 t b;
#X obj 207 224 i;
#X obj 207 248 sel 0 1;
#X msg 236 274 0;
#X msg 207 274 1;
#X obj 207 169 inlet;
#X obj 207 301 outlet;
#X obj 236 203 loadbang;
#X connect 0 0 1 0;
#X connect 1 0 2 0;
#X connect 2 0 4 0;
#X connect 2 1 3 0;
#X connect 3 0 1 1;
#X connect 3 0 6 0;
#X connect 4 0 1 1;
#X connect 4 0 6 0;
#X connect 5 0 0 0;
#X connect 7 0 3 0;
#X restore 24 -48 pd toggle;
#N canvas 172 142 450 300 toggle 0;
#X obj 207 194 t b;
#X obj 207 224 i;
#X obj 207 248 sel 0 1;
#X msg 236 274 0;
#X msg 207 274 1;
#X obj 207 169 inlet;
#X obj 207 301 outlet;
#X obj 236 203 loadbang;
#X connect 0 0 1 0;
#X connect 1 0 2 0;
#X connect 2 0 4 0;
#X connect 2 1 3 0;
#X connect 3 0 1 1;
#X connect 3 0 6 0;
#X connect 4 0 1 1;
#X connect 4 0 6 0;
#X connect 5 0 0 0;
#X connect 7 0 3 0;
#X restore 85 -48 pd toggle;
#N canvas 172 142 450 300 toggle 0;
#X obj 207 194 t b;
#X obj 207 224 i;
#X obj 207 248 sel 0 1;
#X msg 236 274 0;
#X msg 207 274 1;
#X obj 207 169 inlet;
#X obj 207 301 outlet;
#X obj 236 203 loadbang;
#X connect 0 0 1 0;
#X connect 1 0 2 0;
#X connect 2 0 4 0;
#X connect 2 1 3 0;
#X connect 3 0 1 1;
#X connect 3 0 6 0;
#X connect 4 0 1 1;
#X connect 4 0 6 0;
#X connect 5 0 0 0;
#X connect 7 0 3 0;
#X restore 145 -48 pd toggle;
#N canvas 172 142 450 300 toggle 0;
#X obj 207 194 t b;
#X obj 207 224 i;
#X obj 207 248 sel 0 1;
#X msg 236 274 0;
#X msg 207 274 1;
#X obj 207 169 inlet;
#X obj 207 301 outlet;
#X obj 236 203 loadbang;
#X connect 0 0 1 0;
#X connect 1 0 2 0;
#X connect 2 0 4 0;
#X connect 2 1 3 0;
#X connect 3 0 1 1;
#X connect 3 0 6 0;
#X connect 4 0 1 1;
#X connect 4 0 6 0;
#X connect 5 0 0 0;
#X connect 7 0 3 0;
#X restore 211 -48 pd toggle;
#N canvas 172 142 450 300 toggle 0;
#X obj 207 194 t b;
#X obj 207 224 i;
#X obj 207 248 sel 0 1;
#X msg 236 274 0;
#X msg 207 274 1;
#X obj 207 169 inlet;
#X obj 207 301 outlet;
#X obj 236 203 loadbang;
#X connect 0 0 1 0;
#X connect 1 0 2 0;
#X connect 2 0 4 0;
#X connect 2 1 3 0;
#X connect 3 0 1 1;
#X connect 3 0 6 0;
#X connect 4 0 1 1;
#X connect 4 0 6 0;
#X connect 5 0 0 0;
#X connect 7 0 3 0;
#X restore 271 -48 pd toggle;
#N canvas 172 142 450 300 toggle 0;
#X obj 207 194 t b;
#X obj 207 224 i;
#X obj 207 248 sel 0 1;
#X msg 236 274 0;
#X msg 207 274 1;
#X obj 207 169 inlet;
#X obj 207 301 outlet;
#X obj 236 203 loadbang;
#X connect 0 0 1 0;
#X connect 1 0 2 0;
#X connect 2 0 4 0;
#X connect 2 1 3 0;
#X connect 3 0 1 1;
#X connect 3 0 6 0;
#X connect 4 0 1 1;
#X connect 4 0 6 0;
#X connect 5 0 0 0;
#X connect 7 0 3 0;
#X restore 332 -48 pd toggle;
#N canvas 172 142 450 300 toggle 0;
#X obj 207 194 t b;
#X obj 207 224 i;
#X obj 207 248 sel 0 1;
#X msg 236 274 0;
#X msg 207 274 1;
#X obj 207 169 inlet;
#X obj 207 301 outlet;
#X obj 236 203 loadbang;
#X connect 0 0 1 0;
#X connect 1 0 2 0;
#X connect 2 0 4 0;
#X connect 2 1 3 0;
#X connect 3 0 1 1;
#X connect 3 0 6 0;
#X connect 4 0 1 1;
#X connect 4 0 6 0;
#X connect 5 0 0 0;
#X connect 7 0 3 0;
#X restore 392 -48 pd toggle;
#X obj -17 -41 t b;
#X obj 24 -25 sel 0;
#X obj 83 -16 sel 0;
#X obj 146 -16 sel 0;
#X obj 211 -16 sel 0;
#X obj 272 -16 sel 0;
#X obj 334 -16 sel 0;
#X obj 394 -16 sel 0;
#X connect 0 0 2 0;
#X connect 0 0 16 0;
#X connect 0 0 23 0;
#X connect 1 0 37 0;
#X connect 2 0 11 0;
#X connect 2 0 14 0;
#X connect 3 0 2 0;
#X connect 3 0 16 0;
#X connect 3 0 23 0;
#X connect 4 0 2 0;
#X connect 4 0 16 0;
#X connect 4 0 23 0;
#X connect 5 0 2 0;
#X connect 5 0 16 0;
#X connect 5 0 23 0;
#X connect 6 0 2 0;
#X connect 6 0 16 0;
#X connect 6 0 23 0;
#X connect 7 0 2 0;
#X connect 7 0 16 0;
#X connect 7 0 23 0;
#X connect 8 0 2 0;
#X connect 8 0 16 0;
#X connect 8 0 23 0;
#X connect 9 0 2 0;
#X connect 9 0 16 0;
#X connect 9 0 23 0;
#X connect 10 0 2 1;
#X connect 13 0 12 0;
#X connect 14 0 13 0;
#X connect 15 0 14 1;
#X connect 16 0 18 0;
#X connect 16 0 20 0;
#X connect 17 0 22 0;
#X connect 18 0 17 0;
#X connect 19 0 16 1;
#X connect 21 0 18 1;
#X connect 23 0 25 0;
#X connect 23 0 27 0;
#X connect 24 0 29 0;
#X connect 25 0 24 0;
#X connect 26 0 23 1;
#X connect 28 0 25 1;
#X connect 30 0 38 0;
#X connect 31 0 39 0;
#X connect 32 0 40 0;
#X connect 33 0 41 0;
#X connect 34 0 42 0;
#X connect 35 0 43 0;
#X connect 36 0 44 0;
#X connect 37 0 3 0;
#X connect 37 0 30 0;
#X connect 38 0 31 0;
#X connect 38 0 4 0;
#X connect 39 0 32 0;
#X connect 39 0 0 0;
#X connect 40 0 33 0;
#X connect 40 0 5 0;
#X connect 41 0 34 0;
#X connect 41 0 6 0;
#X connect 42 0 35 0;
#X connect 42 0 7 0;
#X connect 43 0 36 0;
#X connect 43 0 8 0;
#X connect 44 0 9 0;
#X restore -7 303 pd divider;
#X obj 367 53 bng 15 250 50 0 empty empty empty 17 7 0 10 -262144 -1
-1;
#X obj 9 144 adc~;
#X obj 62 342 pix_texture;
#X obj 62 364 rectangle 8 5;
#X obj 64 200 spigot;
#X obj 97 182 tgl 15 0 empty empty empty 17 7 0 10 -262144 -1 -1 0
1;
#X floatatom 104 143 5 0 0 0 - - -;
#X obj 97 162 sel 45;
#X obj 97 123 key;
#X obj 256 284 hsl 200 15 -1 1 0 0 kScopeTransX kScopeTransXSlider
kScopeTransX 7 7 0 10 -262144 -1 -1 0 1;
#X obj 256 301 hsl 200 15 -1 1 0 0 kScopeTransY kScopeTransYSlider
kScopeTransY 7 7 0 10 -262144 -1 -1 0 1;
#X obj 256 318 hsl 200 15 -1 1 0 0 kScopeTransZ kScopeTransZSlider
kScopeTransZ 7 7 0 10 -262144 -1 -1 0 1;
#X obj 256 263 hsl 200 15 0 5000 0 0 kScopeTransSpeed kScopeTransSpeedSlider
kScopeTransSpeed 7 7 0 10 -262144 -1 -1 0 1;
#X floatatom 218 317 5 0 0 0 - kScopeTransZ -;
#X floatatom 218 300 5 0 0 0 - kScopeTransY -;
#X floatatom 218 283 5 0 0 0 - kScopeTransX -;
#X obj 172 282 bng 15 250 50 0 empty empty empty 17 7 0 10 -262144
-1 -1;
#X msg 190 317 0;
#X msg 190 299 0;
#X msg 190 282 0;
#X msg 179 252 0;
#X obj 255 349 hsl 200 15 0 2 0 0 kScopeSizeX kScopeSizeXSlider kScopeSizeX
7 7 0 10 -262144 -1 -1 0 1;
#X obj 255 366 hsl 200 15 0 1 0 0 kScopeSizeY kScopeSizeYSlider kScopeSizeY
7 7 0 10 -262144 -1 -1 0 1;
#X floatatom 217 365 5 0 0 0 - kScopeSizeY -;
#X floatatom 217 348 5 0 0 0 - kScopeSizeX -;
#X obj 171 347 bng 15 250 50 0 empty empty empty 17 7 0 10 -262144
-1 -1;
#X floatatom 531 353 5 0 0 0 - - -;
#X floatatom 565 322 5 0 0 0 - - -;
#X msg 223 401 8;
#X msg 254 400 5;
#X msg 189 347 8;
#X msg 189 364 5;
#X obj 316 163 random 10;
#X connect 0 0 1 0;
#X connect 1 0 0 0;
#X connect 14 0 7 0;
#X connect 14 0 6 0;
#X connect 14 0 5 0;
#X connect 15 0 14 0;
#X connect 22 0 11 0;
#X connect 22 0 12 0;
#X connect 22 0 13 0;
#X connect 46 0 52 0;
#X connect 46 0 22 0;
#X connect 46 0 14 0;
#X connect 52 0 9 0;
#X connect 52 0 10 0;
#X connect 52 0 23 0;
#X connect 60 0 10 0;
#X connect 61 0 95 0;
#X connect 70 0 63 0;
#X connect 71 0 63 0;
#X connect 75 0 86 0;
#X connect 76 0 88 0;
#X connect 79 0 64 0;
#X connect 80 0 65 0;
#X connect 81 0 69 0;
#X connect 82 0 69 0;
#X connect 83 0 69 0;
#X connect 84 0 81 0;
#X connect 84 0 85 0;
#X connect 84 0 79 0;
#X connect 84 0 80 0;
#X connect 85 0 63 0;
#X connect 86 0 87 0;
#X connect 87 0 73 0;
#X connect 87 0 118 0;
#X connect 88 0 89 0;
#X connect 89 0 77 0;
#X connect 89 0 117 0;
#X connect 91 0 78 0;
#X connect 91 0 74 0;
#X connect 93 0 94 0;
#X connect 96 0 95 1;
#X connect 98 0 96 0;
#X connect 99 0 97 0;
#X connect 99 0 98 0;
#X connect 107 0 110 0;
#X connect 107 0 109 0;
#X connect 107 0 108 0;
#X connect 108 0 102 0;
#X connect 109 0 101 0;
#X connect 110 0 100 0;
#X connect 111 0 103 0;
#X connect 116 0 121 0;
#X connect 116 0 122 0;
#X connect 121 0 112 0;
#X connect 122 0 113 0;
#X coords 0 709 1 708 85 60 0;
