#N canvas 357 111 636 486 10;
#N canvas 306 91 737 526 gemwin 0;
#X obj 51 169 gemwin;
#X obj -14 122 outlet;
#X obj -14 43 inlet;
#X obj -14 74 route create;
#X msg -14 103 set destroy;
#X msg 61 101 set create;
#X msg 117 145 0 \, destroy;
#X obj 167 49 key;
#X obj 193 49 gemkeyboard;
#X obj 167 73 sel 96;
#X floatatom 224 74 5 0 0 0 - - -;
#N canvas 107 24 450 300 esc 0;
#X obj 65 20 gemkeyboard;
#X obj 65 167 outlet;
#X obj 89 71 keyname;
#X obj 128 96 sel Escape;
#X obj 65 41 sel 53;
#X obj 189 47 sel Escape;
#X obj 150 22 gemkeyname;
#X connect 0 0 4 0;
#X connect 2 1 3 0;
#X connect 3 0 1 0;
#X connect 4 0 1 0;
#X connect 5 0 1 0;
#X connect 6 1 5 0;
#X restore 116 48 pd esc;
#X obj -3 200 gemhead;
#N canvas 398 178 450 300 lightsource 0;
#X obj 163 286 world_light;
#X obj 27 196 rotateXYZ 0 0 0;
#X msg 163 95 1;
#X obj 163 74 loadbang;
#X obj 87 177 inlet;
#X obj 123 177 inlet;
#X obj 27 100 inlet;
#X obj 227 26 inlet;
#X obj 331 96 t b;
#X obj 255 45 inlet;
#X obj 284 65 inlet;
#X obj 324 37 inlet;
#X obj 331 73 del;
#X obj 226 260 pack f f f;
#X obj 27 119 i;
#X obj 27 138 min 1;
#X obj 27 157 max 0;
#X text 2 76 render on/off 1/0;
#X text 87 157 rotation x y;
#X text 193 5 RGB balance and Overall Brightness (0-1);
#X obj 226 151 f 1;
#X obj 254 151 f 1;
#X obj 283 151 f 1;
#X obj 226 175 * 1;
#X obj 254 175 * 1;
#X obj 283 175 * 1;
#X obj 315 222 t b;
#X obj 27 177 gemhead 1;
#X connect 1 0 0 0;
#X connect 2 0 0 0;
#X connect 2 0 27 0;
#X connect 3 0 2 0;
#X connect 4 0 1 1;
#X connect 5 0 1 2;
#X connect 6 0 14 0;
#X connect 7 0 20 0;
#X connect 8 0 20 0;
#X connect 8 0 21 0;
#X connect 8 0 22 0;
#X connect 9 0 21 0;
#X connect 10 0 22 0;
#X connect 11 0 12 0;
#X connect 11 0 23 1;
#X connect 11 0 24 1;
#X connect 11 0 25 1;
#X connect 12 0 8 0;
#X connect 13 0 0 1;
#X connect 14 0 15 0;
#X connect 15 0 16 0;
#X connect 16 0 27 0;
#X connect 20 0 23 0;
#X connect 21 0 24 0;
#X connect 22 0 25 0;
#X connect 23 0 13 0;
#X connect 24 0 13 1;
#X connect 24 0 26 0;
#X connect 25 0 13 2;
#X connect 25 0 26 0;
#X connect 26 0 20 0;
#X connect 27 0 1 0;
#X restore 60 404 pd lightsource;
#X obj -3 220 s renderClock;
#X floatatom 73 277 5 0 0 0 - - -;
#X floatatom 87 299 5 0 0 0 - - -;
#X floatatom 109 334 5 0 0 0 - - -;
#X floatatom 148 334 5 0 0 0 - - -;
#X floatatom 186 334 5 0 0 0 - - -;
#X floatatom 224 334 5 0 0 0 - - -;
#X msg 61 346 1;
#X obj 61 367 tgl 15 0 empty empty empty 17 7 0 10 -262144 -1 -1 1
1;
#X obj 109 353 / 255;
#X obj 148 353 / 255;
#X obj 186 353 / 255;
#X obj 224 353 / 255;
#X obj 61 326 loadbang;
#X obj 213 246 random 360;
#X obj 213 289 line 30;
#X obj 283 245 random 360;
#X obj 283 288 line 30;
#N canvas 398 178 450 300 lightsource 0;
#X obj 163 286 world_light;
#X obj 27 196 rotateXYZ 0 0 0;
#X msg 163 95 1;
#X obj 163 74 loadbang;
#X obj 87 177 inlet;
#X obj 123 177 inlet;
#X obj 27 100 inlet;
#X obj 227 26 inlet;
#X obj 331 96 t b;
#X obj 255 45 inlet;
#X obj 284 65 inlet;
#X obj 324 37 inlet;
#X obj 331 73 del;
#X obj 226 260 pack f f f;
#X obj 27 119 i;
#X obj 27 138 min 1;
#X obj 27 157 max 0;
#X text 2 76 render on/off 1/0;
#X text 87 157 rotation x y;
#X text 193 5 RGB balance and Overall Brightness (0-1);
#X obj 226 151 f 1;
#X obj 254 151 f 1;
#X obj 283 151 f 1;
#X obj 226 175 * 1;
#X obj 254 175 * 1;
#X obj 283 175 * 1;
#X obj 315 222 t b;
#X obj 27 177 gemhead 1;
#X connect 1 0 0 0;
#X connect 2 0 0 0;
#X connect 2 0 27 0;
#X connect 3 0 2 0;
#X connect 4 0 1 1;
#X connect 5 0 1 2;
#X connect 6 0 14 0;
#X connect 7 0 20 0;
#X connect 8 0 20 0;
#X connect 8 0 21 0;
#X connect 8 0 22 0;
#X connect 9 0 21 0;
#X connect 10 0 22 0;
#X connect 11 0 12 0;
#X connect 11 0 23 1;
#X connect 11 0 24 1;
#X connect 11 0 25 1;
#X connect 12 0 8 0;
#X connect 13 0 0 1;
#X connect 14 0 15 0;
#X connect 15 0 16 0;
#X connect 16 0 27 0;
#X connect 20 0 23 0;
#X connect 21 0 24 0;
#X connect 22 0 25 0;
#X connect 23 0 13 0;
#X connect 24 0 13 1;
#X connect 24 0 26 0;
#X connect 25 0 13 2;
#X connect 25 0 26 0;
#X connect 26 0 20 0;
#X connect 27 0 1 0;
#X restore 325 430 pd lightsource;
#X floatatom 338 303 5 0 0 0 - - -;
#X floatatom 352 325 5 0 0 0 - - -;
#X floatatom 374 360 5 0 0 0 - - -;
#X floatatom 413 360 5 0 0 0 - - -;
#X floatatom 451 360 5 0 0 0 - - -;
#X floatatom 489 360 5 0 0 0 - - -;
#X msg 326 372 1;
#X obj 326 393 tgl 15 0 empty empty empty 17 7 0 10 -262144 -1 -1 1
1;
#X obj 374 379 / 255;
#X obj 413 379 / 255;
#X obj 451 379 / 255;
#X obj 489 379 / 255;
#X obj 326 352 loadbang;
#X obj 359 234 random 360;
#X obj 359 277 line 30;
#X obj 429 233 random 360;
#X obj 429 276 line 30;
#X msg 153 219 0;
#X obj 213 267 pack f 5000;
#X obj 283 266 pack f 5000;
#X obj 359 255 pack f 5000;
#X obj 429 254 pack f 5000;
#X obj 213 222 t b b b b;
#X obj 213 202 r renderClock;
#X msg 51 124 reset \, frame 10 \, dimen 1000 1000 \, lighting 1 \,
fullscreen 0 \, create \, 1;
#X connect 2 0 3 0;
#X connect 3 0 4 0;
#X connect 3 0 57 0;
#X connect 3 1 5 0;
#X connect 3 1 6 0;
#X connect 4 0 1 0;
#X connect 5 0 1 0;
#X connect 6 0 0 0;
#X connect 7 0 9 0;
#X connect 7 0 10 0;
#X connect 8 0 9 0;
#X connect 9 0 4 0;
#X connect 9 0 57 0;
#X connect 11 0 6 0;
#X connect 11 0 5 0;
#X connect 12 0 14 0;
#X connect 15 0 13 1;
#X connect 16 0 13 2;
#X connect 17 0 23 0;
#X connect 18 0 24 0;
#X connect 19 0 25 0;
#X connect 20 0 26 0;
#X connect 21 0 22 0;
#X connect 22 0 13 0;
#X connect 23 0 13 3;
#X connect 24 0 13 4;
#X connect 25 0 13 5;
#X connect 26 0 13 6;
#X connect 27 0 21 0;
#X connect 28 0 51 0;
#X connect 29 0 15 0;
#X connect 30 0 52 0;
#X connect 31 0 16 0;
#X connect 33 0 32 1;
#X connect 34 0 32 2;
#X connect 35 0 41 0;
#X connect 36 0 42 0;
#X connect 37 0 43 0;
#X connect 38 0 44 0;
#X connect 39 0 40 0;
#X connect 40 0 32 0;
#X connect 41 0 32 3;
#X connect 42 0 32 4;
#X connect 43 0 32 5;
#X connect 44 0 32 6;
#X connect 45 0 39 0;
#X connect 46 0 53 0;
#X connect 47 0 33 0;
#X connect 48 0 54 0;
#X connect 49 0 34 0;
#X connect 50 0 17 0;
#X connect 50 0 35 0;
#X connect 51 0 29 0;
#X connect 52 0 31 0;
#X connect 53 0 47 0;
#X connect 54 0 49 0;
#X connect 55 0 28 0;
#X connect 55 1 30 0;
#X connect 55 2 46 0;
#X connect 55 3 48 0;
#X connect 56 0 55 0;
#X connect 57 0 0 0;
#X restore -5 -216 pd gemwin;
#X msg -5 -235 destroy;
#X obj 240 -136 cnv 15 100 60 empty empty empty 20 12 0 14 -195568
-66577 0;
#N canvas 0 0 450 300 gemwin 0;
#X obj 132 136 gemwin;
#X obj 67 89 outlet;
#X obj 67 10 inlet;
#X msg 67 70 set destroy;
#X msg 132 112 create \, 1;
#X msg 198 112 destroy;
#X msg 156 71 set create;
#X obj 67 41 route create;
#X connect 2 0 7 0;
#X connect 3 0 1 0;
#X connect 4 0 0 0;
#X connect 5 0 0 0;
#X connect 6 0 1 0;
#X connect 7 0 3 0;
#X connect 7 0 4 0;
#X connect 7 1 6 0;
#X connect 7 1 5 0;
#X restore 245 -97 pd gemwin;
#X msg 245 -116 create;
#X text 241 -137 Create window:;
#X obj 24 -157 gemhead;
#X obj 24 130 pix_texture;
#X obj 36 -127 bng 25 250 50 0 empty empty empty 0 -6 0 8 -262144 -1
-1;
#X text 78 -163 open a supported;
#X text 79 -152 movie-clip;
#X obj 49 67 unpack 0 0 0;
#X floatatom 49 89 5 0 0 3 length - -;
#X floatatom 84 90 5 0 0 3 width - -;
#X floatatom 119 90 5 0 0 3 height - -;
#X obj 93 48 bng 15 250 50 0 empty empty end_reached 20 7 0 10 -262144
-1 -1;
#X floatatom 75 13 5 0 10000 1 frame# - -;
#X obj 36 -98 openpanel;
#X msg 36 -78 open \$1;
#X obj 24 205 rectangle 4 3;
#X obj 24 31 pix_film;
#X msg 42 -35 auto \$1;
#X obj 42 -53 tgl 15 0 empty empty empty 0 -6 0 8 -262144 -1 -1 0 1
;
#X msg 226 36 0;
#X msg 137 -49 C:/Users/Phillip/Documents/2013 December/CyrusTests/HST_01_Horizontal_MJPEGA_720.mov
;
#X connect 0 0 1 0;
#X connect 1 0 0 0;
#X connect 3 0 4 0;
#X connect 4 0 3 0;
#X connect 6 0 20 0;
#X connect 7 0 19 0;
#X connect 8 0 17 0;
#X connect 11 0 12 0;
#X connect 11 1 13 0;
#X connect 11 2 14 0;
#X connect 15 0 23 0;
#X connect 16 0 20 1;
#X connect 17 0 18 0;
#X connect 18 0 20 0;
#X connect 20 0 7 0;
#X connect 20 1 11 0;
#X connect 20 2 15 0;
#X connect 21 0 20 0;
#X connect 22 0 21 0;
#X connect 23 0 16 0;
#X connect 24 0 18 0;
