#N canvas 0 22 1266 881 10;
#X obj 812 210 pix_image;
#X obj 103 104 bng 15 250 50 0 \$0-open_dialog empty open_1 20 7 0
10 -262144 -1 -1;
#N canvas 0 22 450 300 openpanel 0;
#X obj 114 62 inlet;
#X obj 121 254 outlet;
#X obj 114 125 openpanel;
#X msg 114 162 set open \$1;
#X obj 114 199 t b a;
#X connect 0 0 2 0;
#X connect 2 0 3 0;
#X connect 3 0 4 0;
#X connect 4 0 1 0;
#X connect 4 1 1 0;
#X restore 845 135 pd openpanel;
#X msg 845 154 open /Users/phillipstearns/Downloads/2000px-Flag_of_Ansaru.svg.png
;
#X obj 812 229 pix_texture;
#X obj 812 379 translateXYZ;
#X obj 812 518 rotateXYZ;
#X obj 937 496 line 50;
#X obj 937 477 pack f f;
#X obj 937 458 * 360;
#X obj 812 556 curve3d 5 5;
#X obj 249 104 bng 15 250 50 0 \$0-randForm empty randomize_mesh 20
7 0 10 -262144 -1 -1;
#X obj 173 123 hradio 15 1 0 12 \$0-renderStyle empty renderStyle 0
-8 0 10 -262144 -1 -1 10;
#N canvas 239 161 450 300 curve3dControls 0;
#X msg -234 97 draw line;
#X msg -234 77 draw fill;
#X msg -234 117 draw point;
#X msg -234 138 draw line1;
#X msg -234 159 draw line2;
#X msg -234 180 draw line3;
#X msg -234 201 draw line4;
#X msg -96 91 draw control_line;
#X msg -96 112 draw control_line1;
#X msg -96 133 draw control_line2;
#X msg -96 154 draw control_fill;
#X msg -96 175 draw control_point;
#X obj -325 77 r \$0-randForm;
#X obj -234 42 sel 0 1 2 3 4 5 6 7 8 9 10 11;
#X obj -234 22 r \$0-renderStyle;
#X msg -96 239 width 1;
#X obj -96 216 loadbang;
#N canvas 397 177 691 493 form 0;
#N canvas 0 22 517 428 tripleRnd 0;
#X obj 12 277 pack 0 1000;
#X obj 12 298 line;
#X obj 12 380 outlet;
#X obj 92 278 pack 0 1000;
#X obj 92 298 line;
#X obj 170 278 pack 0 1000;
#X obj 170 298 line;
#X obj 12 358 pack f f f;
#X obj 13 33 r \$0-bang_form;
#X obj 233 230 r speed;
#X obj 12 145 / 100;
#X obj 92 146 / 100;
#X obj 170 146 / 100;
#X obj 12 257 *;
#X obj 22 216 t b;
#X obj 27 196 r xscale;
#X obj 170 318 t b;
#X obj 92 318 t b;
#X obj 92 258 *;
#X obj 99 215 t b;
#X obj 170 259 *;
#X obj 180 218 t b;
#X obj 185 196 r zscale;
#X obj 107 196 r yscale;
#X obj 170 239 f;
#X obj 92 238 f;
#X obj 12 237 f;
#X obj 12 118 random 200;
#X obj 92 119 random 200;
#X obj 170 119 random 200;
#X obj 12 175 - 1;
#X obj 92 176 - 1;
#X obj 170 176 - 1;
#X connect 0 0 1 0;
#X connect 1 0 7 0;
#X connect 3 0 4 0;
#X connect 4 0 7 1;
#X connect 4 0 17 0;
#X connect 5 0 6 0;
#X connect 6 0 7 2;
#X connect 6 0 16 0;
#X connect 7 0 2 0;
#X connect 8 0 27 0;
#X connect 8 0 28 0;
#X connect 8 0 29 0;
#X connect 9 0 0 1;
#X connect 9 0 3 1;
#X connect 9 0 5 1;
#X connect 10 0 30 0;
#X connect 11 0 31 0;
#X connect 12 0 32 0;
#X connect 13 0 0 0;
#X connect 14 0 26 0;
#X connect 15 0 13 1;
#X connect 15 0 14 0;
#X connect 16 0 7 0;
#X connect 17 0 7 0;
#X connect 18 0 3 0;
#X connect 19 0 25 0;
#X connect 20 0 5 0;
#X connect 21 0 24 0;
#X connect 22 0 20 1;
#X connect 22 0 21 0;
#X connect 23 0 18 1;
#X connect 23 0 19 0;
#X connect 24 0 20 0;
#X connect 25 0 18 0;
#X connect 26 0 13 0;
#X connect 27 0 10 0;
#X connect 28 0 11 0;
#X connect 29 0 12 0;
#X connect 30 0 26 0;
#X connect 31 0 25 0;
#X connect 32 0 24 0;
#X restore 28 93 pd tripleRnd;
#X msg 26 270 set 2 0 \$1 \$2 \$3;
#X msg 161 270 set 2 1 \$1 \$2 \$3;
#X msg 298 270 set 2 2 \$1 \$2 \$3;
#X msg 299 193 set 1 2 \$1 \$2 \$3;
#X msg 299 114 set 0 2 \$1 \$2 \$3;
#X msg 161 114 set 0 1 \$1 \$2 \$3;
#X msg 28 114 set 0 0 \$1 \$2 \$3;
#X msg 29 193 set 1 0 \$1 \$2 \$3;
#X msg 161 193 set 1 1 \$1 \$2 \$3;
#X msg 26 337 set 3 0 \$1 \$2 \$3;
#X msg 162 337 set 3 1 \$1 \$2 \$3;
#X msg 298 337 set 3 2 \$1 \$2 \$3;
#X msg 423 114 set 0 3 \$1 \$2 \$3;
#X msg 424 193 set 1 3 \$1 \$2 \$3;
#X msg 424 270 set 2 3 \$1 \$2 \$3;
#X msg 423 337 set 3 3 \$1 \$2 \$3;
#X msg 544 114 set 0 4 \$1 \$2 \$3;
#X msg 545 193 set 1 4 \$1 \$2 \$3;
#X msg 540 270 set 2 4 \$1 \$2 \$3;
#X msg 543 337 set 3 4 \$1 \$2 \$3;
#X msg 28 399 set 4 0 \$1 \$2 \$3;
#X msg 162 399 set 4 1 \$1 \$2 \$3;
#X msg 299 399 set 4 2 \$1 \$2 \$3;
#X msg 424 399 set 4 3 \$1 \$2 \$3;
#X msg 545 399 set 4 4 \$1 \$2 \$3;
#X obj 10 445 outlet;
#X obj 36 15 inlet;
#X obj 36 39 s \$0-bang_form;
#N canvas 0 22 517 428 tripleRnd 0;
#X obj 12 277 pack 0 1000;
#X obj 12 298 line;
#X obj 12 380 outlet;
#X obj 92 278 pack 0 1000;
#X obj 92 298 line;
#X obj 170 278 pack 0 1000;
#X obj 170 298 line;
#X obj 12 358 pack f f f;
#X obj 13 33 r \$0-bang_form;
#X obj 233 230 r speed;
#X obj 12 145 / 100;
#X obj 92 146 / 100;
#X obj 170 146 / 100;
#X obj 12 257 *;
#X obj 22 216 t b;
#X obj 27 196 r xscale;
#X obj 170 318 t b;
#X obj 92 318 t b;
#X obj 92 258 *;
#X obj 99 215 t b;
#X obj 170 259 *;
#X obj 180 218 t b;
#X obj 185 196 r zscale;
#X obj 107 196 r yscale;
#X obj 170 239 f;
#X obj 92 238 f;
#X obj 12 237 f;
#X obj 12 118 random 200;
#X obj 92 119 random 200;
#X obj 170 119 random 200;
#X obj 12 175 - 1;
#X obj 92 176 - 1;
#X obj 170 176 - 1;
#X connect 0 0 1 0;
#X connect 1 0 7 0;
#X connect 3 0 4 0;
#X connect 4 0 7 1;
#X connect 4 0 17 0;
#X connect 5 0 6 0;
#X connect 6 0 7 2;
#X connect 6 0 16 0;
#X connect 7 0 2 0;
#X connect 8 0 27 0;
#X connect 8 0 28 0;
#X connect 8 0 29 0;
#X connect 9 0 0 1;
#X connect 9 0 3 1;
#X connect 9 0 5 1;
#X connect 10 0 30 0;
#X connect 11 0 31 0;
#X connect 12 0 32 0;
#X connect 13 0 0 0;
#X connect 14 0 26 0;
#X connect 15 0 13 1;
#X connect 15 0 14 0;
#X connect 16 0 7 0;
#X connect 17 0 7 0;
#X connect 18 0 3 0;
#X connect 19 0 25 0;
#X connect 20 0 5 0;
#X connect 21 0 24 0;
#X connect 22 0 20 1;
#X connect 22 0 21 0;
#X connect 23 0 18 1;
#X connect 23 0 19 0;
#X connect 24 0 20 0;
#X connect 25 0 18 0;
#X connect 26 0 13 0;
#X connect 27 0 10 0;
#X connect 28 0 11 0;
#X connect 29 0 12 0;
#X connect 30 0 26 0;
#X connect 31 0 25 0;
#X connect 32 0 24 0;
#X restore 161 93 pd tripleRnd;
#N canvas 0 22 517 428 tripleRnd 0;
#X obj 12 277 pack 0 1000;
#X obj 12 298 line;
#X obj 12 380 outlet;
#X obj 92 278 pack 0 1000;
#X obj 92 298 line;
#X obj 170 278 pack 0 1000;
#X obj 170 298 line;
#X obj 12 358 pack f f f;
#X obj 13 33 r \$0-bang_form;
#X obj 233 230 r speed;
#X obj 12 145 / 100;
#X obj 92 146 / 100;
#X obj 170 146 / 100;
#X obj 12 257 *;
#X obj 22 216 t b;
#X obj 27 196 r xscale;
#X obj 170 318 t b;
#X obj 92 318 t b;
#X obj 92 258 *;
#X obj 99 215 t b;
#X obj 170 259 *;
#X obj 180 218 t b;
#X obj 185 196 r zscale;
#X obj 107 196 r yscale;
#X obj 170 239 f;
#X obj 92 238 f;
#X obj 12 237 f;
#X obj 12 118 random 200;
#X obj 92 119 random 200;
#X obj 170 119 random 200;
#X obj 12 175 - 1;
#X obj 92 176 - 1;
#X obj 170 176 - 1;
#X connect 0 0 1 0;
#X connect 1 0 7 0;
#X connect 3 0 4 0;
#X connect 4 0 7 1;
#X connect 4 0 17 0;
#X connect 5 0 6 0;
#X connect 6 0 7 2;
#X connect 6 0 16 0;
#X connect 7 0 2 0;
#X connect 8 0 27 0;
#X connect 8 0 28 0;
#X connect 8 0 29 0;
#X connect 9 0 0 1;
#X connect 9 0 3 1;
#X connect 9 0 5 1;
#X connect 10 0 30 0;
#X connect 11 0 31 0;
#X connect 12 0 32 0;
#X connect 13 0 0 0;
#X connect 14 0 26 0;
#X connect 15 0 13 1;
#X connect 15 0 14 0;
#X connect 16 0 7 0;
#X connect 17 0 7 0;
#X connect 18 0 3 0;
#X connect 19 0 25 0;
#X connect 20 0 5 0;
#X connect 21 0 24 0;
#X connect 22 0 20 1;
#X connect 22 0 21 0;
#X connect 23 0 18 1;
#X connect 23 0 19 0;
#X connect 24 0 20 0;
#X connect 25 0 18 0;
#X connect 26 0 13 0;
#X connect 27 0 10 0;
#X connect 28 0 11 0;
#X connect 29 0 12 0;
#X connect 30 0 26 0;
#X connect 31 0 25 0;
#X connect 32 0 24 0;
#X restore 299 93 pd tripleRnd;
#N canvas 0 22 517 428 tripleRnd 0;
#X obj 12 277 pack 0 1000;
#X obj 12 298 line;
#X obj 12 380 outlet;
#X obj 92 278 pack 0 1000;
#X obj 92 298 line;
#X obj 170 278 pack 0 1000;
#X obj 170 298 line;
#X obj 12 358 pack f f f;
#X obj 13 33 r \$0-bang_form;
#X obj 233 230 r speed;
#X obj 12 145 / 100;
#X obj 92 146 / 100;
#X obj 170 146 / 100;
#X obj 12 257 *;
#X obj 22 216 t b;
#X obj 27 196 r xscale;
#X obj 170 318 t b;
#X obj 92 318 t b;
#X obj 92 258 *;
#X obj 99 215 t b;
#X obj 170 259 *;
#X obj 180 218 t b;
#X obj 185 196 r zscale;
#X obj 107 196 r yscale;
#X obj 170 239 f;
#X obj 92 238 f;
#X obj 12 237 f;
#X obj 12 118 random 200;
#X obj 92 119 random 200;
#X obj 170 119 random 200;
#X obj 12 175 - 1;
#X obj 92 176 - 1;
#X obj 170 176 - 1;
#X connect 0 0 1 0;
#X connect 1 0 7 0;
#X connect 3 0 4 0;
#X connect 4 0 7 1;
#X connect 4 0 17 0;
#X connect 5 0 6 0;
#X connect 6 0 7 2;
#X connect 6 0 16 0;
#X connect 7 0 2 0;
#X connect 8 0 27 0;
#X connect 8 0 28 0;
#X connect 8 0 29 0;
#X connect 9 0 0 1;
#X connect 9 0 3 1;
#X connect 9 0 5 1;
#X connect 10 0 30 0;
#X connect 11 0 31 0;
#X connect 12 0 32 0;
#X connect 13 0 0 0;
#X connect 14 0 26 0;
#X connect 15 0 13 1;
#X connect 15 0 14 0;
#X connect 16 0 7 0;
#X connect 17 0 7 0;
#X connect 18 0 3 0;
#X connect 19 0 25 0;
#X connect 20 0 5 0;
#X connect 21 0 24 0;
#X connect 22 0 20 1;
#X connect 22 0 21 0;
#X connect 23 0 18 1;
#X connect 23 0 19 0;
#X connect 24 0 20 0;
#X connect 25 0 18 0;
#X connect 26 0 13 0;
#X connect 27 0 10 0;
#X connect 28 0 11 0;
#X connect 29 0 12 0;
#X connect 30 0 26 0;
#X connect 31 0 25 0;
#X connect 32 0 24 0;
#X restore 423 93 pd tripleRnd;
#N canvas 0 22 517 428 tripleRnd 0;
#X obj 12 277 pack 0 1000;
#X obj 12 298 line;
#X obj 12 380 outlet;
#X obj 92 278 pack 0 1000;
#X obj 92 298 line;
#X obj 170 278 pack 0 1000;
#X obj 170 298 line;
#X obj 12 358 pack f f f;
#X obj 13 33 r \$0-bang_form;
#X obj 233 230 r speed;
#X obj 12 145 / 100;
#X obj 92 146 / 100;
#X obj 170 146 / 100;
#X obj 12 257 *;
#X obj 22 216 t b;
#X obj 27 196 r xscale;
#X obj 170 318 t b;
#X obj 92 318 t b;
#X obj 92 258 *;
#X obj 99 215 t b;
#X obj 170 259 *;
#X obj 180 218 t b;
#X obj 185 196 r zscale;
#X obj 107 196 r yscale;
#X obj 170 239 f;
#X obj 92 238 f;
#X obj 12 237 f;
#X obj 12 118 random 200;
#X obj 92 119 random 200;
#X obj 170 119 random 200;
#X obj 12 175 - 1;
#X obj 92 176 - 1;
#X obj 170 176 - 1;
#X connect 0 0 1 0;
#X connect 1 0 7 0;
#X connect 3 0 4 0;
#X connect 4 0 7 1;
#X connect 4 0 17 0;
#X connect 5 0 6 0;
#X connect 6 0 7 2;
#X connect 6 0 16 0;
#X connect 7 0 2 0;
#X connect 8 0 27 0;
#X connect 8 0 28 0;
#X connect 8 0 29 0;
#X connect 9 0 0 1;
#X connect 9 0 3 1;
#X connect 9 0 5 1;
#X connect 10 0 30 0;
#X connect 11 0 31 0;
#X connect 12 0 32 0;
#X connect 13 0 0 0;
#X connect 14 0 26 0;
#X connect 15 0 13 1;
#X connect 15 0 14 0;
#X connect 16 0 7 0;
#X connect 17 0 7 0;
#X connect 18 0 3 0;
#X connect 19 0 25 0;
#X connect 20 0 5 0;
#X connect 21 0 24 0;
#X connect 22 0 20 1;
#X connect 22 0 21 0;
#X connect 23 0 18 1;
#X connect 23 0 19 0;
#X connect 24 0 20 0;
#X connect 25 0 18 0;
#X connect 26 0 13 0;
#X connect 27 0 10 0;
#X connect 28 0 11 0;
#X connect 29 0 12 0;
#X connect 30 0 26 0;
#X connect 31 0 25 0;
#X connect 32 0 24 0;
#X restore 543 94 pd tripleRnd;
#N canvas 0 22 517 428 tripleRnd 0;
#X obj 12 277 pack 0 1000;
#X obj 12 298 line;
#X obj 12 380 outlet;
#X obj 92 278 pack 0 1000;
#X obj 92 298 line;
#X obj 170 278 pack 0 1000;
#X obj 170 298 line;
#X obj 12 358 pack f f f;
#X obj 13 33 r \$0-bang_form;
#X obj 233 230 r speed;
#X obj 12 145 / 100;
#X obj 92 146 / 100;
#X obj 170 146 / 100;
#X obj 12 257 *;
#X obj 22 216 t b;
#X obj 27 196 r xscale;
#X obj 170 318 t b;
#X obj 92 318 t b;
#X obj 92 258 *;
#X obj 99 215 t b;
#X obj 170 259 *;
#X obj 180 218 t b;
#X obj 185 196 r zscale;
#X obj 107 196 r yscale;
#X obj 170 239 f;
#X obj 92 238 f;
#X obj 12 237 f;
#X obj 12 118 random 200;
#X obj 92 119 random 200;
#X obj 170 119 random 200;
#X obj 12 175 - 1;
#X obj 92 176 - 1;
#X obj 170 176 - 1;
#X connect 0 0 1 0;
#X connect 1 0 7 0;
#X connect 3 0 4 0;
#X connect 4 0 7 1;
#X connect 4 0 17 0;
#X connect 5 0 6 0;
#X connect 6 0 7 2;
#X connect 6 0 16 0;
#X connect 7 0 2 0;
#X connect 8 0 27 0;
#X connect 8 0 28 0;
#X connect 8 0 29 0;
#X connect 9 0 0 1;
#X connect 9 0 3 1;
#X connect 9 0 5 1;
#X connect 10 0 30 0;
#X connect 11 0 31 0;
#X connect 12 0 32 0;
#X connect 13 0 0 0;
#X connect 14 0 26 0;
#X connect 15 0 13 1;
#X connect 15 0 14 0;
#X connect 16 0 7 0;
#X connect 17 0 7 0;
#X connect 18 0 3 0;
#X connect 19 0 25 0;
#X connect 20 0 5 0;
#X connect 21 0 24 0;
#X connect 22 0 20 1;
#X connect 22 0 21 0;
#X connect 23 0 18 1;
#X connect 23 0 19 0;
#X connect 24 0 20 0;
#X connect 25 0 18 0;
#X connect 26 0 13 0;
#X connect 27 0 10 0;
#X connect 28 0 11 0;
#X connect 29 0 12 0;
#X connect 30 0 26 0;
#X connect 31 0 25 0;
#X connect 32 0 24 0;
#X restore 29 167 pd tripleRnd;
#N canvas 0 22 517 428 tripleRnd 0;
#X obj 12 277 pack 0 1000;
#X obj 12 298 line;
#X obj 12 380 outlet;
#X obj 92 278 pack 0 1000;
#X obj 92 298 line;
#X obj 170 278 pack 0 1000;
#X obj 170 298 line;
#X obj 12 358 pack f f f;
#X obj 13 33 r \$0-bang_form;
#X obj 233 230 r speed;
#X obj 12 145 / 100;
#X obj 92 146 / 100;
#X obj 170 146 / 100;
#X obj 12 257 *;
#X obj 22 216 t b;
#X obj 27 196 r xscale;
#X obj 170 318 t b;
#X obj 92 318 t b;
#X obj 92 258 *;
#X obj 99 215 t b;
#X obj 170 259 *;
#X obj 180 218 t b;
#X obj 185 196 r zscale;
#X obj 107 196 r yscale;
#X obj 170 239 f;
#X obj 92 238 f;
#X obj 12 237 f;
#X obj 12 118 random 200;
#X obj 92 119 random 200;
#X obj 170 119 random 200;
#X obj 12 175 - 1;
#X obj 92 176 - 1;
#X obj 170 176 - 1;
#X connect 0 0 1 0;
#X connect 1 0 7 0;
#X connect 3 0 4 0;
#X connect 4 0 7 1;
#X connect 4 0 17 0;
#X connect 5 0 6 0;
#X connect 6 0 7 2;
#X connect 6 0 16 0;
#X connect 7 0 2 0;
#X connect 8 0 27 0;
#X connect 8 0 28 0;
#X connect 8 0 29 0;
#X connect 9 0 0 1;
#X connect 9 0 3 1;
#X connect 9 0 5 1;
#X connect 10 0 30 0;
#X connect 11 0 31 0;
#X connect 12 0 32 0;
#X connect 13 0 0 0;
#X connect 14 0 26 0;
#X connect 15 0 13 1;
#X connect 15 0 14 0;
#X connect 16 0 7 0;
#X connect 17 0 7 0;
#X connect 18 0 3 0;
#X connect 19 0 25 0;
#X connect 20 0 5 0;
#X connect 21 0 24 0;
#X connect 22 0 20 1;
#X connect 22 0 21 0;
#X connect 23 0 18 1;
#X connect 23 0 19 0;
#X connect 24 0 20 0;
#X connect 25 0 18 0;
#X connect 26 0 13 0;
#X connect 27 0 10 0;
#X connect 28 0 11 0;
#X connect 29 0 12 0;
#X connect 30 0 26 0;
#X connect 31 0 25 0;
#X connect 32 0 24 0;
#X restore 162 167 pd tripleRnd;
#N canvas 0 22 517 428 tripleRnd 0;
#X obj 12 277 pack 0 1000;
#X obj 12 298 line;
#X obj 12 380 outlet;
#X obj 92 278 pack 0 1000;
#X obj 92 298 line;
#X obj 170 278 pack 0 1000;
#X obj 170 298 line;
#X obj 12 358 pack f f f;
#X obj 13 33 r \$0-bang_form;
#X obj 233 230 r speed;
#X obj 12 145 / 100;
#X obj 92 146 / 100;
#X obj 170 146 / 100;
#X obj 12 257 *;
#X obj 22 216 t b;
#X obj 27 196 r xscale;
#X obj 170 318 t b;
#X obj 92 318 t b;
#X obj 92 258 *;
#X obj 99 215 t b;
#X obj 170 259 *;
#X obj 180 218 t b;
#X obj 185 196 r zscale;
#X obj 107 196 r yscale;
#X obj 170 239 f;
#X obj 92 238 f;
#X obj 12 237 f;
#X obj 12 118 random 200;
#X obj 92 119 random 200;
#X obj 170 119 random 200;
#X obj 12 175 - 1;
#X obj 92 176 - 1;
#X obj 170 176 - 1;
#X connect 0 0 1 0;
#X connect 1 0 7 0;
#X connect 3 0 4 0;
#X connect 4 0 7 1;
#X connect 4 0 17 0;
#X connect 5 0 6 0;
#X connect 6 0 7 2;
#X connect 6 0 16 0;
#X connect 7 0 2 0;
#X connect 8 0 27 0;
#X connect 8 0 28 0;
#X connect 8 0 29 0;
#X connect 9 0 0 1;
#X connect 9 0 3 1;
#X connect 9 0 5 1;
#X connect 10 0 30 0;
#X connect 11 0 31 0;
#X connect 12 0 32 0;
#X connect 13 0 0 0;
#X connect 14 0 26 0;
#X connect 15 0 13 1;
#X connect 15 0 14 0;
#X connect 16 0 7 0;
#X connect 17 0 7 0;
#X connect 18 0 3 0;
#X connect 19 0 25 0;
#X connect 20 0 5 0;
#X connect 21 0 24 0;
#X connect 22 0 20 1;
#X connect 22 0 21 0;
#X connect 23 0 18 1;
#X connect 23 0 19 0;
#X connect 24 0 20 0;
#X connect 25 0 18 0;
#X connect 26 0 13 0;
#X connect 27 0 10 0;
#X connect 28 0 11 0;
#X connect 29 0 12 0;
#X connect 30 0 26 0;
#X connect 31 0 25 0;
#X connect 32 0 24 0;
#X restore 300 167 pd tripleRnd;
#N canvas 0 22 517 428 tripleRnd 0;
#X obj 12 277 pack 0 1000;
#X obj 12 298 line;
#X obj 12 380 outlet;
#X obj 92 278 pack 0 1000;
#X obj 92 298 line;
#X obj 170 278 pack 0 1000;
#X obj 170 298 line;
#X obj 12 358 pack f f f;
#X obj 13 33 r \$0-bang_form;
#X obj 233 230 r speed;
#X obj 12 145 / 100;
#X obj 92 146 / 100;
#X obj 170 146 / 100;
#X obj 12 257 *;
#X obj 22 216 t b;
#X obj 27 196 r xscale;
#X obj 170 318 t b;
#X obj 92 318 t b;
#X obj 92 258 *;
#X obj 99 215 t b;
#X obj 170 259 *;
#X obj 180 218 t b;
#X obj 185 196 r zscale;
#X obj 107 196 r yscale;
#X obj 170 239 f;
#X obj 92 238 f;
#X obj 12 237 f;
#X obj 12 118 random 200;
#X obj 92 119 random 200;
#X obj 170 119 random 200;
#X obj 12 175 - 1;
#X obj 92 176 - 1;
#X obj 170 176 - 1;
#X connect 0 0 1 0;
#X connect 1 0 7 0;
#X connect 3 0 4 0;
#X connect 4 0 7 1;
#X connect 4 0 17 0;
#X connect 5 0 6 0;
#X connect 6 0 7 2;
#X connect 6 0 16 0;
#X connect 7 0 2 0;
#X connect 8 0 27 0;
#X connect 8 0 28 0;
#X connect 8 0 29 0;
#X connect 9 0 0 1;
#X connect 9 0 3 1;
#X connect 9 0 5 1;
#X connect 10 0 30 0;
#X connect 11 0 31 0;
#X connect 12 0 32 0;
#X connect 13 0 0 0;
#X connect 14 0 26 0;
#X connect 15 0 13 1;
#X connect 15 0 14 0;
#X connect 16 0 7 0;
#X connect 17 0 7 0;
#X connect 18 0 3 0;
#X connect 19 0 25 0;
#X connect 20 0 5 0;
#X connect 21 0 24 0;
#X connect 22 0 20 1;
#X connect 22 0 21 0;
#X connect 23 0 18 1;
#X connect 23 0 19 0;
#X connect 24 0 20 0;
#X connect 25 0 18 0;
#X connect 26 0 13 0;
#X connect 27 0 10 0;
#X connect 28 0 11 0;
#X connect 29 0 12 0;
#X connect 30 0 26 0;
#X connect 31 0 25 0;
#X connect 32 0 24 0;
#X restore 424 167 pd tripleRnd;
#N canvas 0 22 517 428 tripleRnd 0;
#X obj 12 277 pack 0 1000;
#X obj 12 298 line;
#X obj 12 380 outlet;
#X obj 92 278 pack 0 1000;
#X obj 92 298 line;
#X obj 170 278 pack 0 1000;
#X obj 170 298 line;
#X obj 12 358 pack f f f;
#X obj 13 33 r \$0-bang_form;
#X obj 233 230 r speed;
#X obj 12 145 / 100;
#X obj 92 146 / 100;
#X obj 170 146 / 100;
#X obj 12 257 *;
#X obj 22 216 t b;
#X obj 27 196 r xscale;
#X obj 170 318 t b;
#X obj 92 318 t b;
#X obj 92 258 *;
#X obj 99 215 t b;
#X obj 170 259 *;
#X obj 180 218 t b;
#X obj 185 196 r zscale;
#X obj 107 196 r yscale;
#X obj 170 239 f;
#X obj 92 238 f;
#X obj 12 237 f;
#X obj 12 118 random 200;
#X obj 92 119 random 200;
#X obj 170 119 random 200;
#X obj 12 175 - 1;
#X obj 92 176 - 1;
#X obj 170 176 - 1;
#X connect 0 0 1 0;
#X connect 1 0 7 0;
#X connect 3 0 4 0;
#X connect 4 0 7 1;
#X connect 4 0 17 0;
#X connect 5 0 6 0;
#X connect 6 0 7 2;
#X connect 6 0 16 0;
#X connect 7 0 2 0;
#X connect 8 0 27 0;
#X connect 8 0 28 0;
#X connect 8 0 29 0;
#X connect 9 0 0 1;
#X connect 9 0 3 1;
#X connect 9 0 5 1;
#X connect 10 0 30 0;
#X connect 11 0 31 0;
#X connect 12 0 32 0;
#X connect 13 0 0 0;
#X connect 14 0 26 0;
#X connect 15 0 13 1;
#X connect 15 0 14 0;
#X connect 16 0 7 0;
#X connect 17 0 7 0;
#X connect 18 0 3 0;
#X connect 19 0 25 0;
#X connect 20 0 5 0;
#X connect 21 0 24 0;
#X connect 22 0 20 1;
#X connect 22 0 21 0;
#X connect 23 0 18 1;
#X connect 23 0 19 0;
#X connect 24 0 20 0;
#X connect 25 0 18 0;
#X connect 26 0 13 0;
#X connect 27 0 10 0;
#X connect 28 0 11 0;
#X connect 29 0 12 0;
#X connect 30 0 26 0;
#X connect 31 0 25 0;
#X connect 32 0 24 0;
#X restore 544 168 pd tripleRnd;
#N canvas 0 22 517 428 tripleRnd 0;
#X obj 12 277 pack 0 1000;
#X obj 12 298 line;
#X obj 12 380 outlet;
#X obj 92 278 pack 0 1000;
#X obj 92 298 line;
#X obj 170 278 pack 0 1000;
#X obj 170 298 line;
#X obj 12 358 pack f f f;
#X obj 13 33 r \$0-bang_form;
#X obj 233 230 r speed;
#X obj 12 145 / 100;
#X obj 92 146 / 100;
#X obj 170 146 / 100;
#X obj 12 257 *;
#X obj 22 216 t b;
#X obj 27 196 r xscale;
#X obj 170 318 t b;
#X obj 92 318 t b;
#X obj 92 258 *;
#X obj 99 215 t b;
#X obj 170 259 *;
#X obj 180 218 t b;
#X obj 185 196 r zscale;
#X obj 107 196 r yscale;
#X obj 170 239 f;
#X obj 92 238 f;
#X obj 12 237 f;
#X obj 12 118 random 200;
#X obj 92 119 random 200;
#X obj 170 119 random 200;
#X obj 12 175 - 1;
#X obj 92 176 - 1;
#X obj 170 176 - 1;
#X connect 0 0 1 0;
#X connect 1 0 7 0;
#X connect 3 0 4 0;
#X connect 4 0 7 1;
#X connect 4 0 17 0;
#X connect 5 0 6 0;
#X connect 6 0 7 2;
#X connect 6 0 16 0;
#X connect 7 0 2 0;
#X connect 8 0 27 0;
#X connect 8 0 28 0;
#X connect 8 0 29 0;
#X connect 9 0 0 1;
#X connect 9 0 3 1;
#X connect 9 0 5 1;
#X connect 10 0 30 0;
#X connect 11 0 31 0;
#X connect 12 0 32 0;
#X connect 13 0 0 0;
#X connect 14 0 26 0;
#X connect 15 0 13 1;
#X connect 15 0 14 0;
#X connect 16 0 7 0;
#X connect 17 0 7 0;
#X connect 18 0 3 0;
#X connect 19 0 25 0;
#X connect 20 0 5 0;
#X connect 21 0 24 0;
#X connect 22 0 20 1;
#X connect 22 0 21 0;
#X connect 23 0 18 1;
#X connect 23 0 19 0;
#X connect 24 0 20 0;
#X connect 25 0 18 0;
#X connect 26 0 13 0;
#X connect 27 0 10 0;
#X connect 28 0 11 0;
#X connect 29 0 12 0;
#X connect 30 0 26 0;
#X connect 31 0 25 0;
#X connect 32 0 24 0;
#X restore 31 243 pd tripleRnd;
#N canvas 0 22 517 428 tripleRnd 0;
#X obj 12 277 pack 0 1000;
#X obj 12 298 line;
#X obj 12 380 outlet;
#X obj 92 278 pack 0 1000;
#X obj 92 298 line;
#X obj 170 278 pack 0 1000;
#X obj 170 298 line;
#X obj 12 358 pack f f f;
#X obj 13 33 r \$0-bang_form;
#X obj 233 230 r speed;
#X obj 12 145 / 100;
#X obj 92 146 / 100;
#X obj 170 146 / 100;
#X obj 12 257 *;
#X obj 22 216 t b;
#X obj 27 196 r xscale;
#X obj 170 318 t b;
#X obj 92 318 t b;
#X obj 92 258 *;
#X obj 99 215 t b;
#X obj 170 259 *;
#X obj 180 218 t b;
#X obj 185 196 r zscale;
#X obj 107 196 r yscale;
#X obj 170 239 f;
#X obj 92 238 f;
#X obj 12 237 f;
#X obj 12 118 random 200;
#X obj 92 119 random 200;
#X obj 170 119 random 200;
#X obj 12 175 - 1;
#X obj 92 176 - 1;
#X obj 170 176 - 1;
#X connect 0 0 1 0;
#X connect 1 0 7 0;
#X connect 3 0 4 0;
#X connect 4 0 7 1;
#X connect 4 0 17 0;
#X connect 5 0 6 0;
#X connect 6 0 7 2;
#X connect 6 0 16 0;
#X connect 7 0 2 0;
#X connect 8 0 27 0;
#X connect 8 0 28 0;
#X connect 8 0 29 0;
#X connect 9 0 0 1;
#X connect 9 0 3 1;
#X connect 9 0 5 1;
#X connect 10 0 30 0;
#X connect 11 0 31 0;
#X connect 12 0 32 0;
#X connect 13 0 0 0;
#X connect 14 0 26 0;
#X connect 15 0 13 1;
#X connect 15 0 14 0;
#X connect 16 0 7 0;
#X connect 17 0 7 0;
#X connect 18 0 3 0;
#X connect 19 0 25 0;
#X connect 20 0 5 0;
#X connect 21 0 24 0;
#X connect 22 0 20 1;
#X connect 22 0 21 0;
#X connect 23 0 18 1;
#X connect 23 0 19 0;
#X connect 24 0 20 0;
#X connect 25 0 18 0;
#X connect 26 0 13 0;
#X connect 27 0 10 0;
#X connect 28 0 11 0;
#X connect 29 0 12 0;
#X connect 30 0 26 0;
#X connect 31 0 25 0;
#X connect 32 0 24 0;
#X restore 164 243 pd tripleRnd;
#N canvas 0 22 517 428 tripleRnd 0;
#X obj 12 277 pack 0 1000;
#X obj 12 298 line;
#X obj 12 380 outlet;
#X obj 92 278 pack 0 1000;
#X obj 92 298 line;
#X obj 170 278 pack 0 1000;
#X obj 170 298 line;
#X obj 12 358 pack f f f;
#X obj 13 33 r \$0-bang_form;
#X obj 233 230 r speed;
#X obj 12 145 / 100;
#X obj 92 146 / 100;
#X obj 170 146 / 100;
#X obj 12 257 *;
#X obj 22 216 t b;
#X obj 27 196 r xscale;
#X obj 170 318 t b;
#X obj 92 318 t b;
#X obj 92 258 *;
#X obj 99 215 t b;
#X obj 170 259 *;
#X obj 180 218 t b;
#X obj 185 196 r zscale;
#X obj 107 196 r yscale;
#X obj 170 239 f;
#X obj 92 238 f;
#X obj 12 237 f;
#X obj 12 118 random 200;
#X obj 92 119 random 200;
#X obj 170 119 random 200;
#X obj 12 175 - 1;
#X obj 92 176 - 1;
#X obj 170 176 - 1;
#X connect 0 0 1 0;
#X connect 1 0 7 0;
#X connect 3 0 4 0;
#X connect 4 0 7 1;
#X connect 4 0 17 0;
#X connect 5 0 6 0;
#X connect 6 0 7 2;
#X connect 6 0 16 0;
#X connect 7 0 2 0;
#X connect 8 0 27 0;
#X connect 8 0 28 0;
#X connect 8 0 29 0;
#X connect 9 0 0 1;
#X connect 9 0 3 1;
#X connect 9 0 5 1;
#X connect 10 0 30 0;
#X connect 11 0 31 0;
#X connect 12 0 32 0;
#X connect 13 0 0 0;
#X connect 14 0 26 0;
#X connect 15 0 13 1;
#X connect 15 0 14 0;
#X connect 16 0 7 0;
#X connect 17 0 7 0;
#X connect 18 0 3 0;
#X connect 19 0 25 0;
#X connect 20 0 5 0;
#X connect 21 0 24 0;
#X connect 22 0 20 1;
#X connect 22 0 21 0;
#X connect 23 0 18 1;
#X connect 23 0 19 0;
#X connect 24 0 20 0;
#X connect 25 0 18 0;
#X connect 26 0 13 0;
#X connect 27 0 10 0;
#X connect 28 0 11 0;
#X connect 29 0 12 0;
#X connect 30 0 26 0;
#X connect 31 0 25 0;
#X connect 32 0 24 0;
#X restore 302 243 pd tripleRnd;
#N canvas 0 22 517 428 tripleRnd 0;
#X obj 12 277 pack 0 1000;
#X obj 12 298 line;
#X obj 12 380 outlet;
#X obj 92 278 pack 0 1000;
#X obj 92 298 line;
#X obj 170 278 pack 0 1000;
#X obj 170 298 line;
#X obj 12 358 pack f f f;
#X obj 13 33 r \$0-bang_form;
#X obj 233 230 r speed;
#X obj 12 145 / 100;
#X obj 92 146 / 100;
#X obj 170 146 / 100;
#X obj 12 257 *;
#X obj 22 216 t b;
#X obj 27 196 r xscale;
#X obj 170 318 t b;
#X obj 92 318 t b;
#X obj 92 258 *;
#X obj 99 215 t b;
#X obj 170 259 *;
#X obj 180 218 t b;
#X obj 185 196 r zscale;
#X obj 107 196 r yscale;
#X obj 170 239 f;
#X obj 92 238 f;
#X obj 12 237 f;
#X obj 12 118 random 200;
#X obj 92 119 random 200;
#X obj 170 119 random 200;
#X obj 12 175 - 1;
#X obj 92 176 - 1;
#X obj 170 176 - 1;
#X connect 0 0 1 0;
#X connect 1 0 7 0;
#X connect 3 0 4 0;
#X connect 4 0 7 1;
#X connect 4 0 17 0;
#X connect 5 0 6 0;
#X connect 6 0 7 2;
#X connect 6 0 16 0;
#X connect 7 0 2 0;
#X connect 8 0 27 0;
#X connect 8 0 28 0;
#X connect 8 0 29 0;
#X connect 9 0 0 1;
#X connect 9 0 3 1;
#X connect 9 0 5 1;
#X connect 10 0 30 0;
#X connect 11 0 31 0;
#X connect 12 0 32 0;
#X connect 13 0 0 0;
#X connect 14 0 26 0;
#X connect 15 0 13 1;
#X connect 15 0 14 0;
#X connect 16 0 7 0;
#X connect 17 0 7 0;
#X connect 18 0 3 0;
#X connect 19 0 25 0;
#X connect 20 0 5 0;
#X connect 21 0 24 0;
#X connect 22 0 20 1;
#X connect 22 0 21 0;
#X connect 23 0 18 1;
#X connect 23 0 19 0;
#X connect 24 0 20 0;
#X connect 25 0 18 0;
#X connect 26 0 13 0;
#X connect 27 0 10 0;
#X connect 28 0 11 0;
#X connect 29 0 12 0;
#X connect 30 0 26 0;
#X connect 31 0 25 0;
#X connect 32 0 24 0;
#X restore 426 243 pd tripleRnd;
#N canvas 0 22 517 428 tripleRnd 0;
#X obj 12 277 pack 0 1000;
#X obj 12 298 line;
#X obj 12 380 outlet;
#X obj 92 278 pack 0 1000;
#X obj 92 298 line;
#X obj 170 278 pack 0 1000;
#X obj 170 298 line;
#X obj 12 358 pack f f f;
#X obj 13 33 r \$0-bang_form;
#X obj 233 230 r speed;
#X obj 12 145 / 100;
#X obj 92 146 / 100;
#X obj 170 146 / 100;
#X obj 12 257 *;
#X obj 22 216 t b;
#X obj 27 196 r xscale;
#X obj 170 318 t b;
#X obj 92 318 t b;
#X obj 92 258 *;
#X obj 99 215 t b;
#X obj 170 259 *;
#X obj 180 218 t b;
#X obj 185 196 r zscale;
#X obj 107 196 r yscale;
#X obj 170 239 f;
#X obj 92 238 f;
#X obj 12 237 f;
#X obj 12 118 random 200;
#X obj 92 119 random 200;
#X obj 170 119 random 200;
#X obj 12 175 - 1;
#X obj 92 176 - 1;
#X obj 170 176 - 1;
#X connect 0 0 1 0;
#X connect 1 0 7 0;
#X connect 3 0 4 0;
#X connect 4 0 7 1;
#X connect 4 0 17 0;
#X connect 5 0 6 0;
#X connect 6 0 7 2;
#X connect 6 0 16 0;
#X connect 7 0 2 0;
#X connect 8 0 27 0;
#X connect 8 0 28 0;
#X connect 8 0 29 0;
#X connect 9 0 0 1;
#X connect 9 0 3 1;
#X connect 9 0 5 1;
#X connect 10 0 30 0;
#X connect 11 0 31 0;
#X connect 12 0 32 0;
#X connect 13 0 0 0;
#X connect 14 0 26 0;
#X connect 15 0 13 1;
#X connect 15 0 14 0;
#X connect 16 0 7 0;
#X connect 17 0 7 0;
#X connect 18 0 3 0;
#X connect 19 0 25 0;
#X connect 20 0 5 0;
#X connect 21 0 24 0;
#X connect 22 0 20 1;
#X connect 22 0 21 0;
#X connect 23 0 18 1;
#X connect 23 0 19 0;
#X connect 24 0 20 0;
#X connect 25 0 18 0;
#X connect 26 0 13 0;
#X connect 27 0 10 0;
#X connect 28 0 11 0;
#X connect 29 0 12 0;
#X connect 30 0 26 0;
#X connect 31 0 25 0;
#X connect 32 0 24 0;
#X restore 546 244 pd tripleRnd;
#N canvas 0 22 517 428 tripleRnd 0;
#X obj 12 277 pack 0 1000;
#X obj 12 298 line;
#X obj 12 380 outlet;
#X obj 92 278 pack 0 1000;
#X obj 92 298 line;
#X obj 170 278 pack 0 1000;
#X obj 170 298 line;
#X obj 12 358 pack f f f;
#X obj 13 33 r \$0-bang_form;
#X obj 233 230 r speed;
#X obj 12 145 / 100;
#X obj 92 146 / 100;
#X obj 170 146 / 100;
#X obj 12 257 *;
#X obj 22 216 t b;
#X obj 27 196 r xscale;
#X obj 170 318 t b;
#X obj 92 318 t b;
#X obj 92 258 *;
#X obj 99 215 t b;
#X obj 170 259 *;
#X obj 180 218 t b;
#X obj 185 196 r zscale;
#X obj 107 196 r yscale;
#X obj 170 239 f;
#X obj 92 238 f;
#X obj 12 237 f;
#X obj 12 118 random 200;
#X obj 92 119 random 200;
#X obj 170 119 random 200;
#X obj 12 175 - 1;
#X obj 92 176 - 1;
#X obj 170 176 - 1;
#X connect 0 0 1 0;
#X connect 1 0 7 0;
#X connect 3 0 4 0;
#X connect 4 0 7 1;
#X connect 4 0 17 0;
#X connect 5 0 6 0;
#X connect 6 0 7 2;
#X connect 6 0 16 0;
#X connect 7 0 2 0;
#X connect 8 0 27 0;
#X connect 8 0 28 0;
#X connect 8 0 29 0;
#X connect 9 0 0 1;
#X connect 9 0 3 1;
#X connect 9 0 5 1;
#X connect 10 0 30 0;
#X connect 11 0 31 0;
#X connect 12 0 32 0;
#X connect 13 0 0 0;
#X connect 14 0 26 0;
#X connect 15 0 13 1;
#X connect 15 0 14 0;
#X connect 16 0 7 0;
#X connect 17 0 7 0;
#X connect 18 0 3 0;
#X connect 19 0 25 0;
#X connect 20 0 5 0;
#X connect 21 0 24 0;
#X connect 22 0 20 1;
#X connect 22 0 21 0;
#X connect 23 0 18 1;
#X connect 23 0 19 0;
#X connect 24 0 20 0;
#X connect 25 0 18 0;
#X connect 26 0 13 0;
#X connect 27 0 10 0;
#X connect 28 0 11 0;
#X connect 29 0 12 0;
#X connect 30 0 26 0;
#X connect 31 0 25 0;
#X connect 32 0 24 0;
#X restore 29 310 pd tripleRnd;
#N canvas 0 22 517 428 tripleRnd 0;
#X obj 12 277 pack 0 1000;
#X obj 12 298 line;
#X obj 12 380 outlet;
#X obj 92 278 pack 0 1000;
#X obj 92 298 line;
#X obj 170 278 pack 0 1000;
#X obj 170 298 line;
#X obj 12 358 pack f f f;
#X obj 13 33 r \$0-bang_form;
#X obj 233 230 r speed;
#X obj 12 145 / 100;
#X obj 92 146 / 100;
#X obj 170 146 / 100;
#X obj 12 257 *;
#X obj 22 216 t b;
#X obj 27 196 r xscale;
#X obj 170 318 t b;
#X obj 92 318 t b;
#X obj 92 258 *;
#X obj 99 215 t b;
#X obj 170 259 *;
#X obj 180 218 t b;
#X obj 185 196 r zscale;
#X obj 107 196 r yscale;
#X obj 170 239 f;
#X obj 92 238 f;
#X obj 12 237 f;
#X obj 12 118 random 200;
#X obj 92 119 random 200;
#X obj 170 119 random 200;
#X obj 12 175 - 1;
#X obj 92 176 - 1;
#X obj 170 176 - 1;
#X connect 0 0 1 0;
#X connect 1 0 7 0;
#X connect 3 0 4 0;
#X connect 4 0 7 1;
#X connect 4 0 17 0;
#X connect 5 0 6 0;
#X connect 6 0 7 2;
#X connect 6 0 16 0;
#X connect 7 0 2 0;
#X connect 8 0 27 0;
#X connect 8 0 28 0;
#X connect 8 0 29 0;
#X connect 9 0 0 1;
#X connect 9 0 3 1;
#X connect 9 0 5 1;
#X connect 10 0 30 0;
#X connect 11 0 31 0;
#X connect 12 0 32 0;
#X connect 13 0 0 0;
#X connect 14 0 26 0;
#X connect 15 0 13 1;
#X connect 15 0 14 0;
#X connect 16 0 7 0;
#X connect 17 0 7 0;
#X connect 18 0 3 0;
#X connect 19 0 25 0;
#X connect 20 0 5 0;
#X connect 21 0 24 0;
#X connect 22 0 20 1;
#X connect 22 0 21 0;
#X connect 23 0 18 1;
#X connect 23 0 19 0;
#X connect 24 0 20 0;
#X connect 25 0 18 0;
#X connect 26 0 13 0;
#X connect 27 0 10 0;
#X connect 28 0 11 0;
#X connect 29 0 12 0;
#X connect 30 0 26 0;
#X connect 31 0 25 0;
#X connect 32 0 24 0;
#X restore 162 310 pd tripleRnd;
#N canvas 0 22 517 428 tripleRnd 0;
#X obj 12 277 pack 0 1000;
#X obj 12 298 line;
#X obj 12 380 outlet;
#X obj 92 278 pack 0 1000;
#X obj 92 298 line;
#X obj 170 278 pack 0 1000;
#X obj 170 298 line;
#X obj 12 358 pack f f f;
#X obj 13 33 r \$0-bang_form;
#X obj 233 230 r speed;
#X obj 12 145 / 100;
#X obj 92 146 / 100;
#X obj 170 146 / 100;
#X obj 12 257 *;
#X obj 22 216 t b;
#X obj 27 196 r xscale;
#X obj 170 318 t b;
#X obj 92 318 t b;
#X obj 92 258 *;
#X obj 99 215 t b;
#X obj 170 259 *;
#X obj 180 218 t b;
#X obj 185 196 r zscale;
#X obj 107 196 r yscale;
#X obj 170 239 f;
#X obj 92 238 f;
#X obj 12 237 f;
#X obj 12 118 random 200;
#X obj 92 119 random 200;
#X obj 170 119 random 200;
#X obj 12 175 - 1;
#X obj 92 176 - 1;
#X obj 170 176 - 1;
#X connect 0 0 1 0;
#X connect 1 0 7 0;
#X connect 3 0 4 0;
#X connect 4 0 7 1;
#X connect 4 0 17 0;
#X connect 5 0 6 0;
#X connect 6 0 7 2;
#X connect 6 0 16 0;
#X connect 7 0 2 0;
#X connect 8 0 27 0;
#X connect 8 0 28 0;
#X connect 8 0 29 0;
#X connect 9 0 0 1;
#X connect 9 0 3 1;
#X connect 9 0 5 1;
#X connect 10 0 30 0;
#X connect 11 0 31 0;
#X connect 12 0 32 0;
#X connect 13 0 0 0;
#X connect 14 0 26 0;
#X connect 15 0 13 1;
#X connect 15 0 14 0;
#X connect 16 0 7 0;
#X connect 17 0 7 0;
#X connect 18 0 3 0;
#X connect 19 0 25 0;
#X connect 20 0 5 0;
#X connect 21 0 24 0;
#X connect 22 0 20 1;
#X connect 22 0 21 0;
#X connect 23 0 18 1;
#X connect 23 0 19 0;
#X connect 24 0 20 0;
#X connect 25 0 18 0;
#X connect 26 0 13 0;
#X connect 27 0 10 0;
#X connect 28 0 11 0;
#X connect 29 0 12 0;
#X connect 30 0 26 0;
#X connect 31 0 25 0;
#X connect 32 0 24 0;
#X restore 300 310 pd tripleRnd;
#N canvas 0 22 517 428 tripleRnd 0;
#X obj 12 277 pack 0 1000;
#X obj 12 298 line;
#X obj 12 380 outlet;
#X obj 92 278 pack 0 1000;
#X obj 92 298 line;
#X obj 170 278 pack 0 1000;
#X obj 170 298 line;
#X obj 12 358 pack f f f;
#X obj 13 33 r \$0-bang_form;
#X obj 233 230 r speed;
#X obj 12 145 / 100;
#X obj 92 146 / 100;
#X obj 170 146 / 100;
#X obj 12 257 *;
#X obj 22 216 t b;
#X obj 27 196 r xscale;
#X obj 170 318 t b;
#X obj 92 318 t b;
#X obj 92 258 *;
#X obj 99 215 t b;
#X obj 170 259 *;
#X obj 180 218 t b;
#X obj 185 196 r zscale;
#X obj 107 196 r yscale;
#X obj 170 239 f;
#X obj 92 238 f;
#X obj 12 237 f;
#X obj 12 118 random 200;
#X obj 92 119 random 200;
#X obj 170 119 random 200;
#X obj 12 175 - 1;
#X obj 92 176 - 1;
#X obj 170 176 - 1;
#X connect 0 0 1 0;
#X connect 1 0 7 0;
#X connect 3 0 4 0;
#X connect 4 0 7 1;
#X connect 4 0 17 0;
#X connect 5 0 6 0;
#X connect 6 0 7 2;
#X connect 6 0 16 0;
#X connect 7 0 2 0;
#X connect 8 0 27 0;
#X connect 8 0 28 0;
#X connect 8 0 29 0;
#X connect 9 0 0 1;
#X connect 9 0 3 1;
#X connect 9 0 5 1;
#X connect 10 0 30 0;
#X connect 11 0 31 0;
#X connect 12 0 32 0;
#X connect 13 0 0 0;
#X connect 14 0 26 0;
#X connect 15 0 13 1;
#X connect 15 0 14 0;
#X connect 16 0 7 0;
#X connect 17 0 7 0;
#X connect 18 0 3 0;
#X connect 19 0 25 0;
#X connect 20 0 5 0;
#X connect 21 0 24 0;
#X connect 22 0 20 1;
#X connect 22 0 21 0;
#X connect 23 0 18 1;
#X connect 23 0 19 0;
#X connect 24 0 20 0;
#X connect 25 0 18 0;
#X connect 26 0 13 0;
#X connect 27 0 10 0;
#X connect 28 0 11 0;
#X connect 29 0 12 0;
#X connect 30 0 26 0;
#X connect 31 0 25 0;
#X connect 32 0 24 0;
#X restore 424 310 pd tripleRnd;
#N canvas 0 22 517 428 tripleRnd 0;
#X obj 12 277 pack 0 1000;
#X obj 12 298 line;
#X obj 12 380 outlet;
#X obj 92 278 pack 0 1000;
#X obj 92 298 line;
#X obj 170 278 pack 0 1000;
#X obj 170 298 line;
#X obj 12 358 pack f f f;
#X obj 13 33 r \$0-bang_form;
#X obj 233 230 r speed;
#X obj 12 145 / 100;
#X obj 92 146 / 100;
#X obj 170 146 / 100;
#X obj 12 257 *;
#X obj 22 216 t b;
#X obj 27 196 r xscale;
#X obj 170 318 t b;
#X obj 92 318 t b;
#X obj 92 258 *;
#X obj 99 215 t b;
#X obj 170 259 *;
#X obj 180 218 t b;
#X obj 185 196 r zscale;
#X obj 107 196 r yscale;
#X obj 170 239 f;
#X obj 92 238 f;
#X obj 12 237 f;
#X obj 12 118 random 200;
#X obj 92 119 random 200;
#X obj 170 119 random 200;
#X obj 12 175 - 1;
#X obj 92 176 - 1;
#X obj 170 176 - 1;
#X connect 0 0 1 0;
#X connect 1 0 7 0;
#X connect 3 0 4 0;
#X connect 4 0 7 1;
#X connect 4 0 17 0;
#X connect 5 0 6 0;
#X connect 6 0 7 2;
#X connect 6 0 16 0;
#X connect 7 0 2 0;
#X connect 8 0 27 0;
#X connect 8 0 28 0;
#X connect 8 0 29 0;
#X connect 9 0 0 1;
#X connect 9 0 3 1;
#X connect 9 0 5 1;
#X connect 10 0 30 0;
#X connect 11 0 31 0;
#X connect 12 0 32 0;
#X connect 13 0 0 0;
#X connect 14 0 26 0;
#X connect 15 0 13 1;
#X connect 15 0 14 0;
#X connect 16 0 7 0;
#X connect 17 0 7 0;
#X connect 18 0 3 0;
#X connect 19 0 25 0;
#X connect 20 0 5 0;
#X connect 21 0 24 0;
#X connect 22 0 20 1;
#X connect 22 0 21 0;
#X connect 23 0 18 1;
#X connect 23 0 19 0;
#X connect 24 0 20 0;
#X connect 25 0 18 0;
#X connect 26 0 13 0;
#X connect 27 0 10 0;
#X connect 28 0 11 0;
#X connect 29 0 12 0;
#X connect 30 0 26 0;
#X connect 31 0 25 0;
#X connect 32 0 24 0;
#X restore 544 311 pd tripleRnd;
#N canvas 0 22 517 428 tripleRnd 0;
#X obj 12 277 pack 0 1000;
#X obj 12 298 line;
#X obj 12 380 outlet;
#X obj 92 278 pack 0 1000;
#X obj 92 298 line;
#X obj 170 278 pack 0 1000;
#X obj 170 298 line;
#X obj 12 358 pack f f f;
#X obj 13 33 r \$0-bang_form;
#X obj 233 230 r speed;
#X obj 12 145 / 100;
#X obj 92 146 / 100;
#X obj 170 146 / 100;
#X obj 12 257 *;
#X obj 22 216 t b;
#X obj 27 196 r xscale;
#X obj 170 318 t b;
#X obj 92 318 t b;
#X obj 92 258 *;
#X obj 99 215 t b;
#X obj 170 259 *;
#X obj 180 218 t b;
#X obj 185 196 r zscale;
#X obj 107 196 r yscale;
#X obj 170 239 f;
#X obj 92 238 f;
#X obj 12 237 f;
#X obj 12 118 random 200;
#X obj 92 119 random 200;
#X obj 170 119 random 200;
#X obj 12 175 - 1;
#X obj 92 176 - 1;
#X obj 170 176 - 1;
#X connect 0 0 1 0;
#X connect 1 0 7 0;
#X connect 3 0 4 0;
#X connect 4 0 7 1;
#X connect 4 0 17 0;
#X connect 5 0 6 0;
#X connect 6 0 7 2;
#X connect 6 0 16 0;
#X connect 7 0 2 0;
#X connect 8 0 27 0;
#X connect 8 0 28 0;
#X connect 8 0 29 0;
#X connect 9 0 0 1;
#X connect 9 0 3 1;
#X connect 9 0 5 1;
#X connect 10 0 30 0;
#X connect 11 0 31 0;
#X connect 12 0 32 0;
#X connect 13 0 0 0;
#X connect 14 0 26 0;
#X connect 15 0 13 1;
#X connect 15 0 14 0;
#X connect 16 0 7 0;
#X connect 17 0 7 0;
#X connect 18 0 3 0;
#X connect 19 0 25 0;
#X connect 20 0 5 0;
#X connect 21 0 24 0;
#X connect 22 0 20 1;
#X connect 22 0 21 0;
#X connect 23 0 18 1;
#X connect 23 0 19 0;
#X connect 24 0 20 0;
#X connect 25 0 18 0;
#X connect 26 0 13 0;
#X connect 27 0 10 0;
#X connect 28 0 11 0;
#X connect 29 0 12 0;
#X connect 30 0 26 0;
#X connect 31 0 25 0;
#X connect 32 0 24 0;
#X restore 29 371 pd tripleRnd;
#N canvas 0 22 517 428 tripleRnd 0;
#X obj 12 277 pack 0 1000;
#X obj 12 298 line;
#X obj 12 380 outlet;
#X obj 92 278 pack 0 1000;
#X obj 92 298 line;
#X obj 170 278 pack 0 1000;
#X obj 170 298 line;
#X obj 12 358 pack f f f;
#X obj 13 33 r \$0-bang_form;
#X obj 233 230 r speed;
#X obj 12 145 / 100;
#X obj 92 146 / 100;
#X obj 170 146 / 100;
#X obj 12 257 *;
#X obj 22 216 t b;
#X obj 27 196 r xscale;
#X obj 170 318 t b;
#X obj 92 318 t b;
#X obj 92 258 *;
#X obj 99 215 t b;
#X obj 170 259 *;
#X obj 180 218 t b;
#X obj 185 196 r zscale;
#X obj 107 196 r yscale;
#X obj 170 239 f;
#X obj 92 238 f;
#X obj 12 237 f;
#X obj 12 118 random 200;
#X obj 92 119 random 200;
#X obj 170 119 random 200;
#X obj 12 175 - 1;
#X obj 92 176 - 1;
#X obj 170 176 - 1;
#X connect 0 0 1 0;
#X connect 1 0 7 0;
#X connect 3 0 4 0;
#X connect 4 0 7 1;
#X connect 4 0 17 0;
#X connect 5 0 6 0;
#X connect 6 0 7 2;
#X connect 6 0 16 0;
#X connect 7 0 2 0;
#X connect 8 0 27 0;
#X connect 8 0 28 0;
#X connect 8 0 29 0;
#X connect 9 0 0 1;
#X connect 9 0 3 1;
#X connect 9 0 5 1;
#X connect 10 0 30 0;
#X connect 11 0 31 0;
#X connect 12 0 32 0;
#X connect 13 0 0 0;
#X connect 14 0 26 0;
#X connect 15 0 13 1;
#X connect 15 0 14 0;
#X connect 16 0 7 0;
#X connect 17 0 7 0;
#X connect 18 0 3 0;
#X connect 19 0 25 0;
#X connect 20 0 5 0;
#X connect 21 0 24 0;
#X connect 22 0 20 1;
#X connect 22 0 21 0;
#X connect 23 0 18 1;
#X connect 23 0 19 0;
#X connect 24 0 20 0;
#X connect 25 0 18 0;
#X connect 26 0 13 0;
#X connect 27 0 10 0;
#X connect 28 0 11 0;
#X connect 29 0 12 0;
#X connect 30 0 26 0;
#X connect 31 0 25 0;
#X connect 32 0 24 0;
#X restore 162 371 pd tripleRnd;
#N canvas 0 22 517 428 tripleRnd 0;
#X obj 12 277 pack 0 1000;
#X obj 12 298 line;
#X obj 12 380 outlet;
#X obj 92 278 pack 0 1000;
#X obj 92 298 line;
#X obj 170 278 pack 0 1000;
#X obj 170 298 line;
#X obj 12 358 pack f f f;
#X obj 13 33 r \$0-bang_form;
#X obj 233 230 r speed;
#X obj 12 145 / 100;
#X obj 92 146 / 100;
#X obj 170 146 / 100;
#X obj 12 257 *;
#X obj 22 216 t b;
#X obj 27 196 r xscale;
#X obj 170 318 t b;
#X obj 92 318 t b;
#X obj 92 258 *;
#X obj 99 215 t b;
#X obj 170 259 *;
#X obj 180 218 t b;
#X obj 185 196 r zscale;
#X obj 107 196 r yscale;
#X obj 170 239 f;
#X obj 92 238 f;
#X obj 12 237 f;
#X obj 12 118 random 200;
#X obj 92 119 random 200;
#X obj 170 119 random 200;
#X obj 12 175 - 1;
#X obj 92 176 - 1;
#X obj 170 176 - 1;
#X connect 0 0 1 0;
#X connect 1 0 7 0;
#X connect 3 0 4 0;
#X connect 4 0 7 1;
#X connect 4 0 17 0;
#X connect 5 0 6 0;
#X connect 6 0 7 2;
#X connect 6 0 16 0;
#X connect 7 0 2 0;
#X connect 8 0 27 0;
#X connect 8 0 28 0;
#X connect 8 0 29 0;
#X connect 9 0 0 1;
#X connect 9 0 3 1;
#X connect 9 0 5 1;
#X connect 10 0 30 0;
#X connect 11 0 31 0;
#X connect 12 0 32 0;
#X connect 13 0 0 0;
#X connect 14 0 26 0;
#X connect 15 0 13 1;
#X connect 15 0 14 0;
#X connect 16 0 7 0;
#X connect 17 0 7 0;
#X connect 18 0 3 0;
#X connect 19 0 25 0;
#X connect 20 0 5 0;
#X connect 21 0 24 0;
#X connect 22 0 20 1;
#X connect 22 0 21 0;
#X connect 23 0 18 1;
#X connect 23 0 19 0;
#X connect 24 0 20 0;
#X connect 25 0 18 0;
#X connect 26 0 13 0;
#X connect 27 0 10 0;
#X connect 28 0 11 0;
#X connect 29 0 12 0;
#X connect 30 0 26 0;
#X connect 31 0 25 0;
#X connect 32 0 24 0;
#X restore 300 371 pd tripleRnd;
#N canvas 0 22 517 428 tripleRnd 0;
#X obj 12 277 pack 0 1000;
#X obj 12 298 line;
#X obj 12 380 outlet;
#X obj 92 278 pack 0 1000;
#X obj 92 298 line;
#X obj 170 278 pack 0 1000;
#X obj 170 298 line;
#X obj 12 358 pack f f f;
#X obj 13 33 r \$0-bang_form;
#X obj 233 230 r speed;
#X obj 12 145 / 100;
#X obj 92 146 / 100;
#X obj 170 146 / 100;
#X obj 12 257 *;
#X obj 22 216 t b;
#X obj 27 196 r xscale;
#X obj 170 318 t b;
#X obj 92 318 t b;
#X obj 92 258 *;
#X obj 99 215 t b;
#X obj 170 259 *;
#X obj 180 218 t b;
#X obj 185 196 r zscale;
#X obj 107 196 r yscale;
#X obj 170 239 f;
#X obj 92 238 f;
#X obj 12 237 f;
#X obj 12 118 random 200;
#X obj 92 119 random 200;
#X obj 170 119 random 200;
#X obj 12 175 - 1;
#X obj 92 176 - 1;
#X obj 170 176 - 1;
#X connect 0 0 1 0;
#X connect 1 0 7 0;
#X connect 3 0 4 0;
#X connect 4 0 7 1;
#X connect 4 0 17 0;
#X connect 5 0 6 0;
#X connect 6 0 7 2;
#X connect 6 0 16 0;
#X connect 7 0 2 0;
#X connect 8 0 27 0;
#X connect 8 0 28 0;
#X connect 8 0 29 0;
#X connect 9 0 0 1;
#X connect 9 0 3 1;
#X connect 9 0 5 1;
#X connect 10 0 30 0;
#X connect 11 0 31 0;
#X connect 12 0 32 0;
#X connect 13 0 0 0;
#X connect 14 0 26 0;
#X connect 15 0 13 1;
#X connect 15 0 14 0;
#X connect 16 0 7 0;
#X connect 17 0 7 0;
#X connect 18 0 3 0;
#X connect 19 0 25 0;
#X connect 20 0 5 0;
#X connect 21 0 24 0;
#X connect 22 0 20 1;
#X connect 22 0 21 0;
#X connect 23 0 18 1;
#X connect 23 0 19 0;
#X connect 24 0 20 0;
#X connect 25 0 18 0;
#X connect 26 0 13 0;
#X connect 27 0 10 0;
#X connect 28 0 11 0;
#X connect 29 0 12 0;
#X connect 30 0 26 0;
#X connect 31 0 25 0;
#X connect 32 0 24 0;
#X restore 424 371 pd tripleRnd;
#N canvas 0 22 517 428 tripleRnd 0;
#X obj 12 277 pack 0 1000;
#X obj 12 298 line;
#X obj 12 380 outlet;
#X obj 92 278 pack 0 1000;
#X obj 92 298 line;
#X obj 170 278 pack 0 1000;
#X obj 170 298 line;
#X obj 12 358 pack f f f;
#X obj 13 33 r \$0-bang_form;
#X obj 233 230 r speed;
#X obj 12 145 / 100;
#X obj 92 146 / 100;
#X obj 170 146 / 100;
#X obj 12 257 *;
#X obj 22 216 t b;
#X obj 27 196 r xscale;
#X obj 170 318 t b;
#X obj 92 318 t b;
#X obj 92 258 *;
#X obj 99 215 t b;
#X obj 170 259 *;
#X obj 180 218 t b;
#X obj 185 196 r zscale;
#X obj 107 196 r yscale;
#X obj 170 239 f;
#X obj 92 238 f;
#X obj 12 237 f;
#X obj 12 118 random 200;
#X obj 92 119 random 200;
#X obj 170 119 random 200;
#X obj 12 175 - 1;
#X obj 92 176 - 1;
#X obj 170 176 - 1;
#X connect 0 0 1 0;
#X connect 1 0 7 0;
#X connect 3 0 4 0;
#X connect 4 0 7 1;
#X connect 4 0 17 0;
#X connect 5 0 6 0;
#X connect 6 0 7 2;
#X connect 6 0 16 0;
#X connect 7 0 2 0;
#X connect 8 0 27 0;
#X connect 8 0 28 0;
#X connect 8 0 29 0;
#X connect 9 0 0 1;
#X connect 9 0 3 1;
#X connect 9 0 5 1;
#X connect 10 0 30 0;
#X connect 11 0 31 0;
#X connect 12 0 32 0;
#X connect 13 0 0 0;
#X connect 14 0 26 0;
#X connect 15 0 13 1;
#X connect 15 0 14 0;
#X connect 16 0 7 0;
#X connect 17 0 7 0;
#X connect 18 0 3 0;
#X connect 19 0 25 0;
#X connect 20 0 5 0;
#X connect 21 0 24 0;
#X connect 22 0 20 1;
#X connect 22 0 21 0;
#X connect 23 0 18 1;
#X connect 23 0 19 0;
#X connect 24 0 20 0;
#X connect 25 0 18 0;
#X connect 26 0 13 0;
#X connect 27 0 10 0;
#X connect 28 0 11 0;
#X connect 29 0 12 0;
#X connect 30 0 26 0;
#X connect 31 0 25 0;
#X connect 32 0 24 0;
#X restore 544 372 pd tripleRnd;
#X connect 0 0 7 0;
#X connect 1 0 26 0;
#X connect 2 0 26 0;
#X connect 3 0 26 0;
#X connect 4 0 26 0;
#X connect 5 0 26 0;
#X connect 6 0 26 0;
#X connect 7 0 26 0;
#X connect 8 0 26 0;
#X connect 9 0 26 0;
#X connect 10 0 26 0;
#X connect 11 0 26 0;
#X connect 12 0 26 0;
#X connect 13 0 26 0;
#X connect 14 0 26 0;
#X connect 15 0 26 0;
#X connect 16 0 26 0;
#X connect 17 0 26 0;
#X connect 18 0 26 0;
#X connect 19 0 26 0;
#X connect 20 0 26 0;
#X connect 21 0 26 0;
#X connect 22 0 26 0;
#X connect 23 0 26 0;
#X connect 24 0 26 0;
#X connect 25 0 26 0;
#X connect 27 0 28 0;
#X connect 29 0 6 0;
#X connect 30 0 5 0;
#X connect 31 0 13 0;
#X connect 32 0 17 0;
#X connect 33 0 8 0;
#X connect 34 0 9 0;
#X connect 35 0 4 0;
#X connect 36 0 14 0;
#X connect 37 0 18 0;
#X connect 38 0 1 0;
#X connect 39 0 2 0;
#X connect 40 0 3 0;
#X connect 41 0 15 0;
#X connect 42 0 19 0;
#X connect 43 0 10 0;
#X connect 44 0 11 0;
#X connect 45 0 12 0;
#X connect 46 0 16 0;
#X connect 47 0 20 0;
#X connect 48 0 21 0;
#X connect 49 0 22 0;
#X connect 50 0 23 0;
#X connect 51 0 24 0;
#X connect 52 0 25 0;
#X restore -325 98 pd form;
#X obj -248 237 s \$0-curve3d;
#X connect 0 0 18 0;
#X connect 1 0 18 0;
#X connect 3 0 18 0;
#X connect 4 0 18 0;
#X connect 5 0 18 0;
#X connect 6 0 18 0;
#X connect 7 0 18 0;
#X connect 8 0 18 0;
#X connect 9 0 18 0;
#X connect 10 0 18 0;
#X connect 11 0 18 0;
#X connect 12 0 17 0;
#X connect 13 0 1 0;
#X connect 13 1 0 0;
#X connect 13 2 2 0;
#X connect 13 3 3 0;
#X connect 13 4 4 0;
#X connect 13 5 5 0;
#X connect 13 6 6 0;
#X connect 13 7 7 0;
#X connect 13 8 8 0;
#X connect 13 9 9 0;
#X connect 13 10 10 0;
#X connect 13 11 11 0;
#X connect 14 0 13 0;
#X connect 15 0 18 0;
#X connect 16 0 15 0;
#X connect 17 0 18 0;
#X restore 1091 552 pd curve3dControls;
#N canvas 947 763 727 538 route1 0;
#X obj -74 216 * 0.001;
#X obj -74 193 counter;
#X msg 43 175 1000;
#X msg -14 175 0;
#X msg 15 175 0;
#X obj -41 251 sel 0;
#X msg -41 270 1;
#X msg -14 270 0;
#X obj -74 290 spigot;
#X msg 14 270 1;
#X msg 41 270 0;
#X obj -19 290 spigot;
#X msg 68 270 1;
#X msg 95 270 0;
#X obj 35 290 spigot;
#X msg 123 270 1;
#X msg 150 270 0;
#X obj 90 290 spigot;
#X msg 177 270 1;
#X msg 204 270 0;
#X obj 144 290 spigot;
#X msg 231 270 1;
#X msg 258 270 0;
#X obj 198 290 spigot;
#X msg 286 270 1;
#X msg 313 270 0;
#X obj 253 290 spigot;
#X obj 14 251 sel 1;
#X obj 68 251 sel 2;
#X obj 123 251 sel 3;
#X obj 177 251 sel 4;
#X obj 231 251 sel 5;
#X obj 286 251 sel 6;
#X obj -74 135 inlet;
#X obj 1 142 loadbang;
#X obj 101 101 cnv 15 248 33 empty empty empty 20 12 0 14 -233017 -66577
0;
#X obj 134 117 hradio 15 1 0 3 empty empty counter_direction 0 -6 0
10 -262144 -1 -1 0;
#X floatatom 199 116 5 0 0 0 - - -;
#X obj 182 117 bng 15 250 50 0 empty empty empty 17 7 0 10 -262144
-1 -1;
#X obj 96 187 r \$0-routing;
#X obj 103 117 tgl 15 0 \$0-enable \$0-enable_UI EN 17 7 0 10 -262144
-1 -1 1 1;
#X obj -70 163 spigot;
#X obj -34 112 r \$0-enable;
#X obj -74 315 s \$0-rotate_z_UI;
#X obj 283 176 loadbang;
#X obj 283 216 s \$0-routing;
#X msg 283 196 0;
#X connect 0 0 8 0;
#X connect 0 0 11 0;
#X connect 0 0 14 0;
#X connect 0 0 17 0;
#X connect 0 0 20 0;
#X connect 0 0 23 0;
#X connect 0 0 26 0;
#X connect 1 0 0 0;
#X connect 1 0 37 0;
#X connect 2 0 1 4;
#X connect 3 0 1 2;
#X connect 4 0 1 3;
#X connect 5 0 6 0;
#X connect 5 1 7 0;
#X connect 6 0 8 1;
#X connect 7 0 8 1;
#X connect 8 0 43 0;
#X connect 9 0 11 1;
#X connect 10 0 11 1;
#X connect 12 0 14 1;
#X connect 13 0 14 1;
#X connect 15 0 17 1;
#X connect 16 0 17 1;
#X connect 18 0 20 1;
#X connect 19 0 20 1;
#X connect 21 0 23 1;
#X connect 22 0 23 1;
#X connect 24 0 26 1;
#X connect 25 0 26 1;
#X connect 27 0 9 0;
#X connect 27 1 10 0;
#X connect 28 0 12 0;
#X connect 28 1 13 0;
#X connect 29 0 15 0;
#X connect 29 1 16 0;
#X connect 30 0 18 0;
#X connect 30 1 19 0;
#X connect 31 0 21 0;
#X connect 31 1 22 0;
#X connect 32 0 24 0;
#X connect 32 1 25 0;
#X connect 33 0 41 0;
#X connect 34 0 3 0;
#X connect 34 0 4 0;
#X connect 34 0 2 0;
#X connect 36 0 1 1;
#X connect 38 0 4 0;
#X connect 39 0 5 0;
#X connect 39 0 27 0;
#X connect 39 0 28 0;
#X connect 39 0 29 0;
#X connect 39 0 30 0;
#X connect 39 0 31 0;
#X connect 39 0 32 0;
#X connect 41 0 1 0;
#X connect 42 0 41 1;
#X connect 44 0 46 0;
#X connect 46 0 45 0;
#X coords 0 -1 1 1 250 35 1 100 100;
#X restore 103 213 pd route1;
#N canvas 675 336 450 300 divider 0;
#X obj 33 103 counter;
#X msg 73 42 0;
#X obj 73 16 loadbang;
#X obj 33 135 sel 15;
#X obj 33 40 inlet;
#X obj 33 166 outlet;
#X obj 33 62 t b;
#X obj 101 101 cnv 15 248 33 empty empty empty 20 12 0 12 -118201 -66577
0;
#X obj 104 116 hradio 15 1 0 16 \$0-countDivision empty divide_by_1_through_16
0 -8 0 10 -262144 -1 -1 0;
#X connect 0 0 3 0;
#X connect 1 0 0 1;
#X connect 1 0 0 2;
#X connect 1 0 0 3;
#X connect 1 0 0 4;
#X connect 1 0 8 0;
#X connect 2 0 1 0;
#X connect 3 0 5 0;
#X connect 4 0 6 0;
#X connect 6 0 0 0;
#X connect 8 0 0 4;
#X connect 8 0 3 1;
#X coords 0 -1 1 1 250 35 1 100 100;
#X restore 103 178 pd divider;
#X obj 845 116 r \$0-open_dialog;
#X obj 800 94 inlet;
#X obj 829 498 line 50;
#X obj 829 479 pack f f;
#X obj 829 460 * 360;
#X obj 883 497 line 50;
#X obj 883 478 pack f f;
#X obj 883 459 * 360;
#X obj 834 359 line 50;
#X obj 834 340 pack f f;
#X obj 834 321 * 10;
#X obj 888 358 line 50;
#X obj 888 339 pack f f;
#X obj 888 320 * 10;
#X obj 942 358 line 50;
#X obj 942 339 pack f f;
#X obj 942 320 * 10;
#X obj 942 287 r master_translate_z;
#X obj 937 439 r \$0-rotate_z;
#X obj 829 399 r master_rotate_x;
#X obj 883 419 r master_rotate_y;
#X obj 888 268 r master_translate_y;
#X obj 834 249 r master_translate_x;
#X obj 151 150 hsl 200 15 -1 1 0 0 \$0-rotate_z \$0-rotate_z_UI rotate_z
0 8 0 10 -262144 -1 -1 10338 1;
#X obj 988 318 r speed;
#X obj 982 458 r speed;
#X obj 103 150 bng 15 250 50 0 \$0-reset \$0-reset_UI rst 17 7 0 10
-262144 -1 -1;
#X obj 1117 264 r \$0-reset;
#X obj 1117 283 f \$0;
#X obj 103 121 tgl 15 0 \$0-render_enable \$0-render_enable_UI EN 17
7 0 10 -262144 -1 -1 1 1;
#X obj 800 114 spigot;
#X obj 836 94 r \$0-render_enable;
#X obj 768 168 t b;
#X obj 827 537 r \$0-curve3d;
#X obj 792 167 separator;
#X msg 1117 302 \; \$1-rotate_z_UI 0;
#X connect 0 0 4 0;
#X connect 2 0 3 0;
#X connect 3 0 0 0;
#X connect 4 0 5 0;
#X connect 5 0 6 0;
#X connect 6 0 10 0;
#X connect 7 0 6 3;
#X connect 8 0 7 0;
#X connect 9 0 8 0;
#X connect 15 0 14 0;
#X connect 16 0 2 0;
#X connect 17 0 46 0;
#X connect 18 0 6 1;
#X connect 19 0 18 0;
#X connect 20 0 19 0;
#X connect 21 0 6 2;
#X connect 22 0 21 0;
#X connect 23 0 22 0;
#X connect 24 0 5 1;
#X connect 25 0 24 0;
#X connect 26 0 25 0;
#X connect 27 0 5 2;
#X connect 28 0 27 0;
#X connect 29 0 28 0;
#X connect 30 0 5 3;
#X connect 31 0 30 0;
#X connect 32 0 31 0;
#X connect 33 0 32 0;
#X connect 34 0 9 0;
#X connect 35 0 20 0;
#X connect 36 0 23 0;
#X connect 37 0 29 0;
#X connect 38 0 26 0;
#X connect 40 0 25 1;
#X connect 40 0 28 1;
#X connect 40 0 31 1;
#X connect 41 0 19 1;
#X connect 41 0 22 1;
#X connect 41 0 8 1;
#X connect 43 0 44 0;
#X connect 44 0 51 0;
#X connect 46 0 48 0;
#X connect 46 0 50 0;
#X connect 47 0 46 1;
#X connect 48 0 15 0;
#X connect 49 0 10 0;
#X connect 50 0 0 0;
#X coords 0 -1 1 1 255 150 2 100 100;
