#N canvas 908 364 1175 844 10;
#N canvas 197 139 737 526 gemwin 0;
#X obj 51 169 gemwin;
#X obj -14 122 outlet;
#X obj -14 43 inlet;
#X obj -14 74 route create;
#X msg -14 103 set destroy;
#X msg 61 101 set create;
#X msg 117 145 0 \, destroy;
#X obj 167 49 key;
#X obj 193 49 gemkeyboard;
#X obj 167 73 sel 96;
#X floatatom 224 74 5 0 0 0 - - -;
#N canvas 107 24 450 300 esc 0;
#X obj 65 20 gemkeyboard;
#X obj 65 167 outlet;
#X obj 89 71 keyname;
#X obj 128 96 sel Escape;
#X obj 65 41 sel 53;
#X obj 189 47 sel Escape;
#X obj 150 22 gemkeyname;
#X connect 0 0 4 0;
#X connect 2 1 3 0;
#X connect 3 0 1 0;
#X connect 4 0 1 0;
#X connect 5 0 1 0;
#X connect 6 1 5 0;
#X restore 116 48 pd esc;
#X msg 51 124 reset \, lighting 1 \, dimen 1920 1080 \, create \, 1
;
#X connect 2 0 3 0;
#X connect 3 0 4 0;
#X connect 3 0 12 0;
#X connect 3 1 5 0;
#X connect 3 1 6 0;
#X connect 4 0 1 0;
#X connect 5 0 1 0;
#X connect 6 0 0 0;
#X connect 7 0 9 0;
#X connect 7 0 10 0;
#X connect 8 0 9 0;
#X connect 9 0 4 0;
#X connect 9 0 12 0;
#X connect 11 0 6 0;
#X connect 11 0 5 0;
#X connect 12 0 0 0;
#X restore 120 -116 pd gemwin;
#X msg 121 -134 destroy;
#X obj 56 -114 gemhead;
#X obj 582 92 hsl 200 15 -1 1 0 0 master_rotate_x master_rotate_x_UI
master_rotate_x 0 8 0 10 -262144 -1 -1 10000 0;
#X obj 582 41 hsl 200 15 -1 1 0 0 master_translate_x master_translate_x_UI
master_translate_x 0 8 0 10 -262144 -1 -1 8800 0;
#X msg 551 41 0;
#X msg 549 92 0;
#X obj 577 23 hsl 128 15 0 10 0 0 zscale empty zscale 0 8 0 10 -262144
-1 -1 0 1;
#X obj 577 6 hsl 128 15 0 25 0 0 yscale empty yscale 0 8 0 10 -262144
-1 -1 12700 1;
#X obj 577 -11 hsl 128 15 0 25 0 0 xscale empty xscale 0 8 0 10 -262144
-1 -1 12700 1;
#X obj 56 -131 tgl 15 0 empty empty empty 17 7 0 10 -262144 -1 -1 0
1;
#X obj 582 147 hsl 200 15 0 10000 0 0 speed speed_UI speed 0 8 0 10
-262144 -1 -1 0 0;
#X obj 56 -92 t b;
#X obj 56 -72 s renderSynch;
#X obj 81 -92 s render_chain_1;
#X obj 582 58 hsl 200 15 -1 1 0 0 master_translate_y master_translate_y_UI
master_translate_y 0 8 0 10 -262144 -1 -1 8900 0;
#X obj 582 75 hsl 200 15 -1 0.25 0 0 master_translate_z master_translate_z_UI
master_translate_z 0 8 0 10 -262144 -1 -1 19900 0;
#X msg 522 -38 25;
#X obj 500 -43 bng 15 250 50 0 empty empty empty 17 7 0 10 -262144
-1 -1;
#X obj 582 110 hsl 200 15 -1 1 0 0 master_rotate_y master_rotate_y_UI
master_rotate_y 0 8 0 10 -262144 -1 -1 9900 0;
#X msg 521 -14 0;
#X obj 198 -63 r render_chain_1;
#X obj 198 137 r render_chain_1;
#X obj 198 337 r render_chain_1;
#N canvas 178 428 475 468 lightsource 0;
#X obj 163 286 world_light;
#X obj 27 177 gemhead;
#X obj 27 196 rotateXYZ 0 0 0;
#X msg 163 95 1;
#X obj 163 74 loadbang;
#X obj 75 177 inlet;
#X obj 111 177 inlet;
#X obj 27 100 inlet;
#X obj 227 26 inlet;
#X obj 331 96 t b;
#X obj 255 45 inlet;
#X obj 284 65 inlet;
#X obj 324 37 inlet;
#X obj 331 73 del;
#X obj 226 260 pack f f f;
#X obj 27 119 i;
#X obj 27 138 min 1;
#X obj 27 157 max 0;
#X text 2 76 render on/off 1/0;
#X text 75 157 rotation x y;
#X text 193 5 RGB balance and Overall Brightness (0-1);
#X obj 226 151 f 1;
#X obj 254 151 f 1;
#X obj 283 151 f 1;
#X obj 226 175 * 1;
#X obj 254 175 * 1;
#X obj 283 175 * 1;
#X obj 315 222 t b;
#X connect 1 0 2 0;
#X connect 2 0 0 0;
#X connect 3 0 0 0;
#X connect 3 0 1 0;
#X connect 4 0 3 0;
#X connect 5 0 2 1;
#X connect 6 0 2 2;
#X connect 7 0 15 0;
#X connect 8 0 21 0;
#X connect 9 0 21 0;
#X connect 9 0 22 0;
#X connect 9 0 23 0;
#X connect 10 0 22 0;
#X connect 11 0 23 0;
#X connect 12 0 13 0;
#X connect 12 0 24 1;
#X connect 12 0 25 1;
#X connect 12 0 26 1;
#X connect 13 0 9 0;
#X connect 14 0 0 1;
#X connect 15 0 16 0;
#X connect 16 0 17 0;
#X connect 17 0 1 0;
#X connect 21 0 24 0;
#X connect 22 0 25 0;
#X connect 23 0 26 0;
#X connect 24 0 14 0;
#X connect 25 0 14 1;
#X connect 25 0 27 0;
#X connect 26 0 14 2;
#X connect 26 0 27 0;
#X connect 27 0 21 0;
#X restore 645 356 pd lightsource;
#X floatatom 712 260 5 0 0 0 - - -;
#X floatatom 722 270 5 0 0 0 - - -;
#X floatatom 732 280 5 0 0 0 - - -;
#X obj -61 -46 z-fight_curve;
#X obj 530 416 bng 15 250 50 0 empty empty empty 0 -6 0 8 -258699 -1
-1;
#N canvas 0 22 450 300 savepanel 0;
#X obj 114 62 inlet;
#X obj 114 254 outlet;
#X obj 114 199 t b a;
#X obj 114 125 savepanel;
#X msg 114 162 set file \$1 100;
#X connect 0 0 3 0;
#X connect 2 0 1 0;
#X connect 2 1 1 0;
#X connect 3 0 4 0;
#X connect 4 0 2 0;
#X restore 530 435 pd savepanel;
#X obj 530 495 pix_write;
#X msg 617 459 file /Users/phillipstearns/PD_Output/Kashmir/002/Kashmir_002_
100;
#X msg 530 474 auto \$1;
#X obj 530 456 tgl 15 0 empty empty empty 17 7 0 10 -262144 -1 -1 0
1;
#X obj -61 154 z-fight_curve;
#X obj -61 354 z-fight_curve;
#X obj 198 -46 z-fight_curve;
#X obj 198 154 z-fight_curve;
#X obj 198 354 z-fight_curve;
#X connect 0 0 1 0;
#X connect 1 0 0 0;
#X connect 2 0 12 0;
#X connect 2 0 14 0;
#X connect 2 0 31 0;
#X connect 2 0 28 0;
#X connect 2 0 35 0;
#X connect 2 0 36 0;
#X connect 5 0 4 0;
#X connect 5 0 15 0;
#X connect 5 0 16 0;
#X connect 6 0 3 0;
#X connect 6 0 19 0;
#X connect 10 0 2 0;
#X connect 12 0 13 0;
#X connect 17 0 9 0;
#X connect 17 0 8 0;
#X connect 18 0 17 0;
#X connect 18 0 20 0;
#X connect 20 0 7 0;
#X connect 21 0 37 0;
#X connect 22 0 38 0;
#X connect 23 0 39 0;
#X connect 25 0 24 1;
#X connect 26 0 24 2;
#X connect 27 0 24 6;
#X connect 29 0 30 0;
#X connect 30 0 32 0;
#X connect 32 0 31 0;
#X connect 33 0 31 0;
#X connect 34 0 33 0;
