#N canvas 0 22 1342 692 10;
#N canvas 0 320 737 526 gemwin 1;
#X obj 51 169 gemwin;
#X obj -14 122 outlet;
#X obj -14 43 inlet;
#X obj -14 74 route create;
#X msg -14 103 set destroy;
#X msg 61 101 set create;
#X msg 117 145 0 \, destroy;
#X obj 167 49 key;
#X obj 193 49 gemkeyboard;
#X obj 167 73 sel 96;
#X floatatom 224 74 5 0 0 0 - - -;
#N canvas 107 24 450 300 esc 0;
#X obj 65 20 gemkeyboard;
#X obj 65 167 outlet;
#X obj 89 71 keyname;
#X obj 128 96 sel Escape;
#X obj 65 41 sel 53;
#X obj 189 47 sel Escape;
#X obj 150 22 gemkeyname;
#X connect 0 0 4 0;
#X connect 2 1 3 0;
#X connect 3 0 1 0;
#X connect 4 0 1 0;
#X connect 5 0 1 0;
#X connect 6 1 5 0;
#X restore 116 48 pd esc;
#X obj -25 237 s \$0-patchSync;
#X obj -25 216 gemhead;
#X msg 51 124 destroy \, reset \, FSAA 0 \, lighting 1 \, dimen 1920
1080 \, create \, 1;
#N canvas 345 392 450 300 lightsource 0;
#X obj 163 286 world_light;
#X obj 27 177 gemhead;
#X obj 27 196 rotateXYZ 0 0 0;
#X msg 163 95 1;
#X obj 163 74 loadbang;
#X obj 75 177 inlet;
#X obj 111 177 inlet;
#X obj 27 100 inlet;
#X obj 227 26 inlet;
#X obj 331 96 t b;
#X obj 255 45 inlet;
#X obj 284 65 inlet;
#X obj 324 37 inlet;
#X obj 331 73 del;
#X obj 226 260 pack f f f;
#X obj 27 119 i;
#X obj 27 138 min 1;
#X obj 27 157 max 0;
#X text 2 76 render on/off 1/0;
#X text 75 157 rotation x y;
#X text 193 5 RGB balance and Overall Brightness (0-1);
#X obj 226 151 f 1;
#X obj 254 151 f 1;
#X obj 283 151 f 1;
#X obj 226 175 * 1;
#X obj 254 175 * 1;
#X obj 283 175 * 1;
#X obj 315 222 t b;
#X connect 1 0 2 0;
#X connect 2 0 0 0;
#X connect 3 0 0 0;
#X connect 3 0 1 0;
#X connect 4 0 3 0;
#X connect 5 0 2 1;
#X connect 6 0 2 2;
#X connect 7 0 15 0;
#X connect 8 0 21 0;
#X connect 9 0 21 0;
#X connect 9 0 22 0;
#X connect 9 0 23 0;
#X connect 10 0 22 0;
#X connect 11 0 23 0;
#X connect 12 0 13 0;
#X connect 12 0 24 1;
#X connect 12 0 25 1;
#X connect 12 0 26 1;
#X connect 13 0 9 0;
#X connect 14 0 0 1;
#X connect 15 0 16 0;
#X connect 16 0 17 0;
#X connect 17 0 1 0;
#X connect 21 0 24 0;
#X connect 22 0 25 0;
#X connect 23 0 26 0;
#X connect 24 0 14 0;
#X connect 25 0 14 1;
#X connect 25 0 27 0;
#X connect 26 0 14 2;
#X connect 26 0 27 0;
#X connect 27 0 21 0;
#X restore 291 452 pd lightsource;
#X connect 2 0 3 0;
#X connect 3 0 4 0;
#X connect 3 0 14 0;
#X connect 3 1 5 0;
#X connect 3 1 6 0;
#X connect 4 0 1 0;
#X connect 5 0 1 0;
#X connect 6 0 0 0;
#X connect 7 0 9 0;
#X connect 7 0 10 0;
#X connect 8 0 9 0;
#X connect 9 0 4 0;
#X connect 9 0 14 0;
#X connect 11 0 6 0;
#X connect 11 0 5 0;
#X connect 13 0 12 0;
#X connect 14 0 0 0;
#X restore 9 26 pd gemwin;
#X msg 10 8 destroy;
#X obj 208 -76 gemhead;
#X obj 91 41 pix_image;
#X obj 91 -16 bng 15 250 50 0 empty empty empty 0 -6 0 8 -262144 -1
-1;
#N canvas 0 22 450 300 openpanel 0;
#X obj 114 62 inlet;
#X obj 121 254 outlet;
#X obj 114 125 openpanel;
#X msg 114 162 set open \$1;
#X obj 114 199 t b a;
#X connect 0 0 2 0;
#X connect 2 0 3 0;
#X connect 3 0 4 0;
#X connect 4 0 1 0;
#X connect 4 1 1 0;
#X restore 91 2 pd openpanel;
#X msg 91 22 open /Users/phillipstearns/Downloads/2000px-Flag_of_Nigeria.svg.png
;
#X obj 91 85 pix_texture;
#X obj 521 27 pix_image;
#X obj 521 -82 bng 15 250 50 0 empty empty empty 0 -6 0 8 -262144 -1
-1;
#N canvas 0 22 450 300 openpanel 0;
#X obj 114 62 inlet;
#X obj 121 254 outlet;
#X obj 114 125 openpanel;
#X msg 114 162 set open \$1;
#X obj 114 199 t b a;
#X connect 0 0 2 0;
#X connect 2 0 3 0;
#X connect 3 0 4 0;
#X connect 4 0 1 0;
#X connect 4 1 1 0;
#X restore 521 -61 pd openpanel;
#X msg 521 -33 open /Users/phillipstearns/Downloads/2000px-Flag_of_Ansaru.svg.png
;
#X obj 91 104 translateXYZ;
#X obj 91 354 rotateXYZ;
#X obj 521 347 translateXYZ;
#X obj 521 442 rotateXYZ;
#X obj 108 181 line 50;
#X obj 108 162 pack f f;
#X obj 209 483 hsl 200 15 -0.1 0.1 0 0 rotateX rotateX_UI rotateX 0
8 0 10 -262144 -1 -1 9950 0;
#X obj 125 258 line 50;
#X obj 125 239 pack f f;
#X obj 209 500 hsl 200 15 -0.1 0.1 0 0 rotateY rotateY_UI rotateY 0
8 0 10 -262144 -1 -1 10846 0;
#X obj 142 334 line 50;
#X obj 142 315 pack f f;
#X obj 142 296 * 360;
#X obj 209 517 hsl 200 15 0 1 0 0 rotateZ1 rotateZ1_UI rotateZ1 0 8
0 10 -262144 -1 -1 18447 0;
#X obj 572 423 line 50;
#X obj 572 404 pack f f;
#X obj 572 385 * 360;
#X obj 544 157 line 50;
#X obj 544 138 pack f f;
#X obj 209 432 hsl 200 15 -1 1 0 0 translateX translateX_UI translateX
0 8 0 10 -262144 -1 -1 11273 0;
#X obj 567 233 line 50;
#X obj 567 214 pack f f;
#X obj 209 449 hsl 200 15 -1 1 0 0 translateY translateY_UI translateY
0 8 0 10 -262144 -1 -1 18935 0;
#X obj 590 328 line 50;
#X obj 590 309 pack f f;
#X obj 209 466 hsl 200 15 -1 1 0 0 translateZ translateZ_UI translateZ
0 8 0 10 -262144 -1 -1 19900 0;
#X obj 590 271 * 5;
#X obj 544 119 * 5;
#X obj 125 220 * 180;
#X obj 108 142 * 180;
#X msg 178 432 0;
#X msg 176 483 0;
#X obj 106 373 r curve3d;
#X obj 91 392 curve3d 5 5;
#X obj -47 415 bng 15 250 50 0 \$0-randForm empty randomize_mesh 0
-6 0 8 -262144 -1 -1;
#X obj -44 497 hsl 128 15 0 10 0 0 zscale empty zscale 0 8 0 10 -262144
-1 -1 0 1;
#X obj -44 480 hsl 128 15 0 25 0 0 yscale empty yscale 0 8 0 10 -262144
-1 -1 12700 1;
#X obj -44 463 hsl 128 15 0 25 0 0 xscale empty xscale 0 8 0 10 -262144
-1 -1 12700 1;
#X obj 530 461 r curve3d;
#X obj 521 480 curve3d 5 5;
#X obj 209 534 hsl 200 15 0 1 0 0 rotateZ2 rotateZ2_UI rotateZ2 0 8
0 10 -262144 -1 -1 14487 0;
#X msg 176 517 0;
#X obj 521 80 pix_texture;
#X obj 590 290 min 2.5;
#X obj -47 444 hradio 15 1 0 12 \$0-renderStyle empty \$0-renderStyle
0 -8 0 10 -262144 -1 -1 10;
#N canvas 239 161 450 300 curve3dControls 0;
#N canvas 397 177 691 493 forme2 0;
#N canvas 0 22 517 428 tripleRnd 0;
#X obj 12 277 pack 0 1000;
#X obj 12 298 line;
#X obj 12 380 outlet;
#X obj 92 278 pack 0 1000;
#X obj 92 298 line;
#X obj 170 278 pack 0 1000;
#X obj 170 298 line;
#X obj 12 358 pack f f f;
#X obj 13 33 r bang_forme2;
#X obj 233 230 r speed;
#X obj 12 145 / 100;
#X obj 92 146 / 100;
#X obj 170 146 / 100;
#X obj 12 257 *;
#X obj 22 216 t b;
#X obj 27 196 r xscale;
#X obj 170 318 t b;
#X obj 92 318 t b;
#X obj 92 258 *;
#X obj 99 215 t b;
#X obj 170 259 *;
#X obj 180 218 t b;
#X obj 185 196 r zscale;
#X obj 107 196 r yscale;
#X obj 170 239 f;
#X obj 92 238 f;
#X obj 12 237 f;
#X obj 12 118 random 200;
#X obj 92 119 random 200;
#X obj 170 119 random 200;
#X obj 12 175 - 1;
#X obj 92 176 - 1;
#X obj 170 176 - 1;
#X connect 0 0 1 0;
#X connect 1 0 7 0;
#X connect 3 0 4 0;
#X connect 4 0 7 1;
#X connect 4 0 17 0;
#X connect 5 0 6 0;
#X connect 6 0 7 2;
#X connect 6 0 16 0;
#X connect 7 0 2 0;
#X connect 8 0 27 0;
#X connect 8 0 28 0;
#X connect 8 0 29 0;
#X connect 9 0 0 1;
#X connect 9 0 3 1;
#X connect 9 0 5 1;
#X connect 10 0 30 0;
#X connect 11 0 31 0;
#X connect 12 0 32 0;
#X connect 13 0 0 0;
#X connect 14 0 26 0;
#X connect 15 0 13 1;
#X connect 15 0 14 0;
#X connect 16 0 7 0;
#X connect 17 0 7 0;
#X connect 18 0 3 0;
#X connect 19 0 25 0;
#X connect 20 0 5 0;
#X connect 21 0 24 0;
#X connect 22 0 20 1;
#X connect 22 0 21 0;
#X connect 23 0 18 1;
#X connect 23 0 19 0;
#X connect 24 0 20 0;
#X connect 25 0 18 0;
#X connect 26 0 13 0;
#X connect 27 0 10 0;
#X connect 28 0 11 0;
#X connect 29 0 12 0;
#X connect 30 0 26 0;
#X connect 31 0 25 0;
#X connect 32 0 24 0;
#X restore 28 93 pd tripleRnd;
#X msg 26 270 set 2 0 \$1 \$2 \$3;
#X msg 161 270 set 2 1 \$1 \$2 \$3;
#X msg 298 270 set 2 2 \$1 \$2 \$3;
#X msg 299 193 set 1 2 \$1 \$2 \$3;
#X msg 299 114 set 0 2 \$1 \$2 \$3;
#X msg 161 114 set 0 1 \$1 \$2 \$3;
#X msg 28 114 set 0 0 \$1 \$2 \$3;
#X msg 29 193 set 1 0 \$1 \$2 \$3;
#X msg 161 193 set 1 1 \$1 \$2 \$3;
#X msg 26 337 set 3 0 \$1 \$2 \$3;
#X msg 162 337 set 3 1 \$1 \$2 \$3;
#X msg 298 337 set 3 2 \$1 \$2 \$3;
#X msg 423 114 set 0 3 \$1 \$2 \$3;
#X msg 424 193 set 1 3 \$1 \$2 \$3;
#X msg 424 270 set 2 3 \$1 \$2 \$3;
#X msg 423 337 set 3 3 \$1 \$2 \$3;
#X msg 544 114 set 0 4 \$1 \$2 \$3;
#X msg 545 193 set 1 4 \$1 \$2 \$3;
#X msg 540 270 set 2 4 \$1 \$2 \$3;
#X msg 543 337 set 3 4 \$1 \$2 \$3;
#X msg 28 399 set 4 0 \$1 \$2 \$3;
#X msg 162 399 set 4 1 \$1 \$2 \$3;
#X msg 299 399 set 4 2 \$1 \$2 \$3;
#X msg 424 399 set 4 3 \$1 \$2 \$3;
#X msg 545 399 set 4 4 \$1 \$2 \$3;
#X obj 10 445 outlet;
#X obj 36 15 inlet;
#X obj 36 39 s bang_forme2;
#N canvas 0 22 517 428 tripleRnd 0;
#X obj 12 277 pack 0 1000;
#X obj 12 298 line;
#X obj 12 380 outlet;
#X obj 92 278 pack 0 1000;
#X obj 92 298 line;
#X obj 170 278 pack 0 1000;
#X obj 170 298 line;
#X obj 12 358 pack f f f;
#X obj 13 33 r bang_forme2;
#X obj 233 230 r speed;
#X obj 12 145 / 100;
#X obj 92 146 / 100;
#X obj 170 146 / 100;
#X obj 12 257 *;
#X obj 22 216 t b;
#X obj 27 196 r xscale;
#X obj 170 318 t b;
#X obj 92 318 t b;
#X obj 92 258 *;
#X obj 99 215 t b;
#X obj 170 259 *;
#X obj 180 218 t b;
#X obj 185 196 r zscale;
#X obj 107 196 r yscale;
#X obj 170 239 f;
#X obj 92 238 f;
#X obj 12 237 f;
#X obj 12 118 random 200;
#X obj 92 119 random 200;
#X obj 170 119 random 200;
#X obj 12 175 - 1;
#X obj 92 176 - 1;
#X obj 170 176 - 1;
#X connect 0 0 1 0;
#X connect 1 0 7 0;
#X connect 3 0 4 0;
#X connect 4 0 7 1;
#X connect 4 0 17 0;
#X connect 5 0 6 0;
#X connect 6 0 7 2;
#X connect 6 0 16 0;
#X connect 7 0 2 0;
#X connect 8 0 27 0;
#X connect 8 0 28 0;
#X connect 8 0 29 0;
#X connect 9 0 0 1;
#X connect 9 0 3 1;
#X connect 9 0 5 1;
#X connect 10 0 30 0;
#X connect 11 0 31 0;
#X connect 12 0 32 0;
#X connect 13 0 0 0;
#X connect 14 0 26 0;
#X connect 15 0 13 1;
#X connect 15 0 14 0;
#X connect 16 0 7 0;
#X connect 17 0 7 0;
#X connect 18 0 3 0;
#X connect 19 0 25 0;
#X connect 20 0 5 0;
#X connect 21 0 24 0;
#X connect 22 0 20 1;
#X connect 22 0 21 0;
#X connect 23 0 18 1;
#X connect 23 0 19 0;
#X connect 24 0 20 0;
#X connect 25 0 18 0;
#X connect 26 0 13 0;
#X connect 27 0 10 0;
#X connect 28 0 11 0;
#X connect 29 0 12 0;
#X connect 30 0 26 0;
#X connect 31 0 25 0;
#X connect 32 0 24 0;
#X restore 161 93 pd tripleRnd;
#N canvas 0 22 517 428 tripleRnd 0;
#X obj 12 277 pack 0 1000;
#X obj 12 298 line;
#X obj 12 380 outlet;
#X obj 92 278 pack 0 1000;
#X obj 92 298 line;
#X obj 170 278 pack 0 1000;
#X obj 170 298 line;
#X obj 12 358 pack f f f;
#X obj 13 33 r bang_forme2;
#X obj 233 230 r speed;
#X obj 12 145 / 100;
#X obj 92 146 / 100;
#X obj 170 146 / 100;
#X obj 12 257 *;
#X obj 22 216 t b;
#X obj 27 196 r xscale;
#X obj 170 318 t b;
#X obj 92 318 t b;
#X obj 92 258 *;
#X obj 99 215 t b;
#X obj 170 259 *;
#X obj 180 218 t b;
#X obj 185 196 r zscale;
#X obj 107 196 r yscale;
#X obj 170 239 f;
#X obj 92 238 f;
#X obj 12 237 f;
#X obj 12 118 random 200;
#X obj 92 119 random 200;
#X obj 170 119 random 200;
#X obj 12 175 - 1;
#X obj 92 176 - 1;
#X obj 170 176 - 1;
#X connect 0 0 1 0;
#X connect 1 0 7 0;
#X connect 3 0 4 0;
#X connect 4 0 7 1;
#X connect 4 0 17 0;
#X connect 5 0 6 0;
#X connect 6 0 7 2;
#X connect 6 0 16 0;
#X connect 7 0 2 0;
#X connect 8 0 27 0;
#X connect 8 0 28 0;
#X connect 8 0 29 0;
#X connect 9 0 0 1;
#X connect 9 0 3 1;
#X connect 9 0 5 1;
#X connect 10 0 30 0;
#X connect 11 0 31 0;
#X connect 12 0 32 0;
#X connect 13 0 0 0;
#X connect 14 0 26 0;
#X connect 15 0 13 1;
#X connect 15 0 14 0;
#X connect 16 0 7 0;
#X connect 17 0 7 0;
#X connect 18 0 3 0;
#X connect 19 0 25 0;
#X connect 20 0 5 0;
#X connect 21 0 24 0;
#X connect 22 0 20 1;
#X connect 22 0 21 0;
#X connect 23 0 18 1;
#X connect 23 0 19 0;
#X connect 24 0 20 0;
#X connect 25 0 18 0;
#X connect 26 0 13 0;
#X connect 27 0 10 0;
#X connect 28 0 11 0;
#X connect 29 0 12 0;
#X connect 30 0 26 0;
#X connect 31 0 25 0;
#X connect 32 0 24 0;
#X restore 299 93 pd tripleRnd;
#N canvas 0 22 517 428 tripleRnd 0;
#X obj 12 277 pack 0 1000;
#X obj 12 298 line;
#X obj 12 380 outlet;
#X obj 92 278 pack 0 1000;
#X obj 92 298 line;
#X obj 170 278 pack 0 1000;
#X obj 170 298 line;
#X obj 12 358 pack f f f;
#X obj 13 33 r bang_forme2;
#X obj 233 230 r speed;
#X obj 12 145 / 100;
#X obj 92 146 / 100;
#X obj 170 146 / 100;
#X obj 12 257 *;
#X obj 22 216 t b;
#X obj 27 196 r xscale;
#X obj 170 318 t b;
#X obj 92 318 t b;
#X obj 92 258 *;
#X obj 99 215 t b;
#X obj 170 259 *;
#X obj 180 218 t b;
#X obj 185 196 r zscale;
#X obj 107 196 r yscale;
#X obj 170 239 f;
#X obj 92 238 f;
#X obj 12 237 f;
#X obj 12 118 random 200;
#X obj 92 119 random 200;
#X obj 170 119 random 200;
#X obj 12 175 - 1;
#X obj 92 176 - 1;
#X obj 170 176 - 1;
#X connect 0 0 1 0;
#X connect 1 0 7 0;
#X connect 3 0 4 0;
#X connect 4 0 7 1;
#X connect 4 0 17 0;
#X connect 5 0 6 0;
#X connect 6 0 7 2;
#X connect 6 0 16 0;
#X connect 7 0 2 0;
#X connect 8 0 27 0;
#X connect 8 0 28 0;
#X connect 8 0 29 0;
#X connect 9 0 0 1;
#X connect 9 0 3 1;
#X connect 9 0 5 1;
#X connect 10 0 30 0;
#X connect 11 0 31 0;
#X connect 12 0 32 0;
#X connect 13 0 0 0;
#X connect 14 0 26 0;
#X connect 15 0 13 1;
#X connect 15 0 14 0;
#X connect 16 0 7 0;
#X connect 17 0 7 0;
#X connect 18 0 3 0;
#X connect 19 0 25 0;
#X connect 20 0 5 0;
#X connect 21 0 24 0;
#X connect 22 0 20 1;
#X connect 22 0 21 0;
#X connect 23 0 18 1;
#X connect 23 0 19 0;
#X connect 24 0 20 0;
#X connect 25 0 18 0;
#X connect 26 0 13 0;
#X connect 27 0 10 0;
#X connect 28 0 11 0;
#X connect 29 0 12 0;
#X connect 30 0 26 0;
#X connect 31 0 25 0;
#X connect 32 0 24 0;
#X restore 423 93 pd tripleRnd;
#N canvas 0 22 517 428 tripleRnd 0;
#X obj 12 277 pack 0 1000;
#X obj 12 298 line;
#X obj 12 380 outlet;
#X obj 92 278 pack 0 1000;
#X obj 92 298 line;
#X obj 170 278 pack 0 1000;
#X obj 170 298 line;
#X obj 12 358 pack f f f;
#X obj 13 33 r bang_forme2;
#X obj 233 230 r speed;
#X obj 12 145 / 100;
#X obj 92 146 / 100;
#X obj 170 146 / 100;
#X obj 12 257 *;
#X obj 22 216 t b;
#X obj 27 196 r xscale;
#X obj 170 318 t b;
#X obj 92 318 t b;
#X obj 92 258 *;
#X obj 99 215 t b;
#X obj 170 259 *;
#X obj 180 218 t b;
#X obj 185 196 r zscale;
#X obj 107 196 r yscale;
#X obj 170 239 f;
#X obj 92 238 f;
#X obj 12 237 f;
#X obj 12 118 random 200;
#X obj 92 119 random 200;
#X obj 170 119 random 200;
#X obj 12 175 - 1;
#X obj 92 176 - 1;
#X obj 170 176 - 1;
#X connect 0 0 1 0;
#X connect 1 0 7 0;
#X connect 3 0 4 0;
#X connect 4 0 7 1;
#X connect 4 0 17 0;
#X connect 5 0 6 0;
#X connect 6 0 7 2;
#X connect 6 0 16 0;
#X connect 7 0 2 0;
#X connect 8 0 27 0;
#X connect 8 0 28 0;
#X connect 8 0 29 0;
#X connect 9 0 0 1;
#X connect 9 0 3 1;
#X connect 9 0 5 1;
#X connect 10 0 30 0;
#X connect 11 0 31 0;
#X connect 12 0 32 0;
#X connect 13 0 0 0;
#X connect 14 0 26 0;
#X connect 15 0 13 1;
#X connect 15 0 14 0;
#X connect 16 0 7 0;
#X connect 17 0 7 0;
#X connect 18 0 3 0;
#X connect 19 0 25 0;
#X connect 20 0 5 0;
#X connect 21 0 24 0;
#X connect 22 0 20 1;
#X connect 22 0 21 0;
#X connect 23 0 18 1;
#X connect 23 0 19 0;
#X connect 24 0 20 0;
#X connect 25 0 18 0;
#X connect 26 0 13 0;
#X connect 27 0 10 0;
#X connect 28 0 11 0;
#X connect 29 0 12 0;
#X connect 30 0 26 0;
#X connect 31 0 25 0;
#X connect 32 0 24 0;
#X restore 543 94 pd tripleRnd;
#N canvas 0 22 517 428 tripleRnd 0;
#X obj 12 277 pack 0 1000;
#X obj 12 298 line;
#X obj 12 380 outlet;
#X obj 92 278 pack 0 1000;
#X obj 92 298 line;
#X obj 170 278 pack 0 1000;
#X obj 170 298 line;
#X obj 12 358 pack f f f;
#X obj 13 33 r bang_forme2;
#X obj 233 230 r speed;
#X obj 12 145 / 100;
#X obj 92 146 / 100;
#X obj 170 146 / 100;
#X obj 12 257 *;
#X obj 22 216 t b;
#X obj 27 196 r xscale;
#X obj 170 318 t b;
#X obj 92 318 t b;
#X obj 92 258 *;
#X obj 99 215 t b;
#X obj 170 259 *;
#X obj 180 218 t b;
#X obj 185 196 r zscale;
#X obj 107 196 r yscale;
#X obj 170 239 f;
#X obj 92 238 f;
#X obj 12 237 f;
#X obj 12 118 random 200;
#X obj 92 119 random 200;
#X obj 170 119 random 200;
#X obj 12 175 - 1;
#X obj 92 176 - 1;
#X obj 170 176 - 1;
#X connect 0 0 1 0;
#X connect 1 0 7 0;
#X connect 3 0 4 0;
#X connect 4 0 7 1;
#X connect 4 0 17 0;
#X connect 5 0 6 0;
#X connect 6 0 7 2;
#X connect 6 0 16 0;
#X connect 7 0 2 0;
#X connect 8 0 27 0;
#X connect 8 0 28 0;
#X connect 8 0 29 0;
#X connect 9 0 0 1;
#X connect 9 0 3 1;
#X connect 9 0 5 1;
#X connect 10 0 30 0;
#X connect 11 0 31 0;
#X connect 12 0 32 0;
#X connect 13 0 0 0;
#X connect 14 0 26 0;
#X connect 15 0 13 1;
#X connect 15 0 14 0;
#X connect 16 0 7 0;
#X connect 17 0 7 0;
#X connect 18 0 3 0;
#X connect 19 0 25 0;
#X connect 20 0 5 0;
#X connect 21 0 24 0;
#X connect 22 0 20 1;
#X connect 22 0 21 0;
#X connect 23 0 18 1;
#X connect 23 0 19 0;
#X connect 24 0 20 0;
#X connect 25 0 18 0;
#X connect 26 0 13 0;
#X connect 27 0 10 0;
#X connect 28 0 11 0;
#X connect 29 0 12 0;
#X connect 30 0 26 0;
#X connect 31 0 25 0;
#X connect 32 0 24 0;
#X restore 29 167 pd tripleRnd;
#N canvas 0 22 517 428 tripleRnd 0;
#X obj 12 277 pack 0 1000;
#X obj 12 298 line;
#X obj 12 380 outlet;
#X obj 92 278 pack 0 1000;
#X obj 92 298 line;
#X obj 170 278 pack 0 1000;
#X obj 170 298 line;
#X obj 12 358 pack f f f;
#X obj 13 33 r bang_forme2;
#X obj 233 230 r speed;
#X obj 12 145 / 100;
#X obj 92 146 / 100;
#X obj 170 146 / 100;
#X obj 12 257 *;
#X obj 22 216 t b;
#X obj 27 196 r xscale;
#X obj 170 318 t b;
#X obj 92 318 t b;
#X obj 92 258 *;
#X obj 99 215 t b;
#X obj 170 259 *;
#X obj 180 218 t b;
#X obj 185 196 r zscale;
#X obj 107 196 r yscale;
#X obj 170 239 f;
#X obj 92 238 f;
#X obj 12 237 f;
#X obj 12 118 random 200;
#X obj 92 119 random 200;
#X obj 170 119 random 200;
#X obj 12 175 - 1;
#X obj 92 176 - 1;
#X obj 170 176 - 1;
#X connect 0 0 1 0;
#X connect 1 0 7 0;
#X connect 3 0 4 0;
#X connect 4 0 7 1;
#X connect 4 0 17 0;
#X connect 5 0 6 0;
#X connect 6 0 7 2;
#X connect 6 0 16 0;
#X connect 7 0 2 0;
#X connect 8 0 27 0;
#X connect 8 0 28 0;
#X connect 8 0 29 0;
#X connect 9 0 0 1;
#X connect 9 0 3 1;
#X connect 9 0 5 1;
#X connect 10 0 30 0;
#X connect 11 0 31 0;
#X connect 12 0 32 0;
#X connect 13 0 0 0;
#X connect 14 0 26 0;
#X connect 15 0 13 1;
#X connect 15 0 14 0;
#X connect 16 0 7 0;
#X connect 17 0 7 0;
#X connect 18 0 3 0;
#X connect 19 0 25 0;
#X connect 20 0 5 0;
#X connect 21 0 24 0;
#X connect 22 0 20 1;
#X connect 22 0 21 0;
#X connect 23 0 18 1;
#X connect 23 0 19 0;
#X connect 24 0 20 0;
#X connect 25 0 18 0;
#X connect 26 0 13 0;
#X connect 27 0 10 0;
#X connect 28 0 11 0;
#X connect 29 0 12 0;
#X connect 30 0 26 0;
#X connect 31 0 25 0;
#X connect 32 0 24 0;
#X restore 162 167 pd tripleRnd;
#N canvas 0 22 517 428 tripleRnd 0;
#X obj 12 277 pack 0 1000;
#X obj 12 298 line;
#X obj 12 380 outlet;
#X obj 92 278 pack 0 1000;
#X obj 92 298 line;
#X obj 170 278 pack 0 1000;
#X obj 170 298 line;
#X obj 12 358 pack f f f;
#X obj 13 33 r bang_forme2;
#X obj 233 230 r speed;
#X obj 12 145 / 100;
#X obj 92 146 / 100;
#X obj 170 146 / 100;
#X obj 12 257 *;
#X obj 22 216 t b;
#X obj 27 196 r xscale;
#X obj 170 318 t b;
#X obj 92 318 t b;
#X obj 92 258 *;
#X obj 99 215 t b;
#X obj 170 259 *;
#X obj 180 218 t b;
#X obj 185 196 r zscale;
#X obj 107 196 r yscale;
#X obj 170 239 f;
#X obj 92 238 f;
#X obj 12 237 f;
#X obj 12 118 random 200;
#X obj 92 119 random 200;
#X obj 170 119 random 200;
#X obj 12 175 - 1;
#X obj 92 176 - 1;
#X obj 170 176 - 1;
#X connect 0 0 1 0;
#X connect 1 0 7 0;
#X connect 3 0 4 0;
#X connect 4 0 7 1;
#X connect 4 0 17 0;
#X connect 5 0 6 0;
#X connect 6 0 7 2;
#X connect 6 0 16 0;
#X connect 7 0 2 0;
#X connect 8 0 27 0;
#X connect 8 0 28 0;
#X connect 8 0 29 0;
#X connect 9 0 0 1;
#X connect 9 0 3 1;
#X connect 9 0 5 1;
#X connect 10 0 30 0;
#X connect 11 0 31 0;
#X connect 12 0 32 0;
#X connect 13 0 0 0;
#X connect 14 0 26 0;
#X connect 15 0 13 1;
#X connect 15 0 14 0;
#X connect 16 0 7 0;
#X connect 17 0 7 0;
#X connect 18 0 3 0;
#X connect 19 0 25 0;
#X connect 20 0 5 0;
#X connect 21 0 24 0;
#X connect 22 0 20 1;
#X connect 22 0 21 0;
#X connect 23 0 18 1;
#X connect 23 0 19 0;
#X connect 24 0 20 0;
#X connect 25 0 18 0;
#X connect 26 0 13 0;
#X connect 27 0 10 0;
#X connect 28 0 11 0;
#X connect 29 0 12 0;
#X connect 30 0 26 0;
#X connect 31 0 25 0;
#X connect 32 0 24 0;
#X restore 300 167 pd tripleRnd;
#N canvas 0 22 517 428 tripleRnd 0;
#X obj 12 277 pack 0 1000;
#X obj 12 298 line;
#X obj 12 380 outlet;
#X obj 92 278 pack 0 1000;
#X obj 92 298 line;
#X obj 170 278 pack 0 1000;
#X obj 170 298 line;
#X obj 12 358 pack f f f;
#X obj 13 33 r bang_forme2;
#X obj 233 230 r speed;
#X obj 12 145 / 100;
#X obj 92 146 / 100;
#X obj 170 146 / 100;
#X obj 12 257 *;
#X obj 22 216 t b;
#X obj 27 196 r xscale;
#X obj 170 318 t b;
#X obj 92 318 t b;
#X obj 92 258 *;
#X obj 99 215 t b;
#X obj 170 259 *;
#X obj 180 218 t b;
#X obj 185 196 r zscale;
#X obj 107 196 r yscale;
#X obj 170 239 f;
#X obj 92 238 f;
#X obj 12 237 f;
#X obj 12 118 random 200;
#X obj 92 119 random 200;
#X obj 170 119 random 200;
#X obj 12 175 - 1;
#X obj 92 176 - 1;
#X obj 170 176 - 1;
#X connect 0 0 1 0;
#X connect 1 0 7 0;
#X connect 3 0 4 0;
#X connect 4 0 7 1;
#X connect 4 0 17 0;
#X connect 5 0 6 0;
#X connect 6 0 7 2;
#X connect 6 0 16 0;
#X connect 7 0 2 0;
#X connect 8 0 27 0;
#X connect 8 0 28 0;
#X connect 8 0 29 0;
#X connect 9 0 0 1;
#X connect 9 0 3 1;
#X connect 9 0 5 1;
#X connect 10 0 30 0;
#X connect 11 0 31 0;
#X connect 12 0 32 0;
#X connect 13 0 0 0;
#X connect 14 0 26 0;
#X connect 15 0 13 1;
#X connect 15 0 14 0;
#X connect 16 0 7 0;
#X connect 17 0 7 0;
#X connect 18 0 3 0;
#X connect 19 0 25 0;
#X connect 20 0 5 0;
#X connect 21 0 24 0;
#X connect 22 0 20 1;
#X connect 22 0 21 0;
#X connect 23 0 18 1;
#X connect 23 0 19 0;
#X connect 24 0 20 0;
#X connect 25 0 18 0;
#X connect 26 0 13 0;
#X connect 27 0 10 0;
#X connect 28 0 11 0;
#X connect 29 0 12 0;
#X connect 30 0 26 0;
#X connect 31 0 25 0;
#X connect 32 0 24 0;
#X restore 424 167 pd tripleRnd;
#N canvas 0 22 517 428 tripleRnd 0;
#X obj 12 277 pack 0 1000;
#X obj 12 298 line;
#X obj 12 380 outlet;
#X obj 92 278 pack 0 1000;
#X obj 92 298 line;
#X obj 170 278 pack 0 1000;
#X obj 170 298 line;
#X obj 12 358 pack f f f;
#X obj 13 33 r bang_forme2;
#X obj 233 230 r speed;
#X obj 12 145 / 100;
#X obj 92 146 / 100;
#X obj 170 146 / 100;
#X obj 12 257 *;
#X obj 22 216 t b;
#X obj 27 196 r xscale;
#X obj 170 318 t b;
#X obj 92 318 t b;
#X obj 92 258 *;
#X obj 99 215 t b;
#X obj 170 259 *;
#X obj 180 218 t b;
#X obj 185 196 r zscale;
#X obj 107 196 r yscale;
#X obj 170 239 f;
#X obj 92 238 f;
#X obj 12 237 f;
#X obj 12 118 random 200;
#X obj 92 119 random 200;
#X obj 170 119 random 200;
#X obj 12 175 - 1;
#X obj 92 176 - 1;
#X obj 170 176 - 1;
#X connect 0 0 1 0;
#X connect 1 0 7 0;
#X connect 3 0 4 0;
#X connect 4 0 7 1;
#X connect 4 0 17 0;
#X connect 5 0 6 0;
#X connect 6 0 7 2;
#X connect 6 0 16 0;
#X connect 7 0 2 0;
#X connect 8 0 27 0;
#X connect 8 0 28 0;
#X connect 8 0 29 0;
#X connect 9 0 0 1;
#X connect 9 0 3 1;
#X connect 9 0 5 1;
#X connect 10 0 30 0;
#X connect 11 0 31 0;
#X connect 12 0 32 0;
#X connect 13 0 0 0;
#X connect 14 0 26 0;
#X connect 15 0 13 1;
#X connect 15 0 14 0;
#X connect 16 0 7 0;
#X connect 17 0 7 0;
#X connect 18 0 3 0;
#X connect 19 0 25 0;
#X connect 20 0 5 0;
#X connect 21 0 24 0;
#X connect 22 0 20 1;
#X connect 22 0 21 0;
#X connect 23 0 18 1;
#X connect 23 0 19 0;
#X connect 24 0 20 0;
#X connect 25 0 18 0;
#X connect 26 0 13 0;
#X connect 27 0 10 0;
#X connect 28 0 11 0;
#X connect 29 0 12 0;
#X connect 30 0 26 0;
#X connect 31 0 25 0;
#X connect 32 0 24 0;
#X restore 544 168 pd tripleRnd;
#N canvas 0 22 517 428 tripleRnd 0;
#X obj 12 277 pack 0 1000;
#X obj 12 298 line;
#X obj 12 380 outlet;
#X obj 92 278 pack 0 1000;
#X obj 92 298 line;
#X obj 170 278 pack 0 1000;
#X obj 170 298 line;
#X obj 12 358 pack f f f;
#X obj 13 33 r bang_forme2;
#X obj 233 230 r speed;
#X obj 12 145 / 100;
#X obj 92 146 / 100;
#X obj 170 146 / 100;
#X obj 12 257 *;
#X obj 22 216 t b;
#X obj 27 196 r xscale;
#X obj 170 318 t b;
#X obj 92 318 t b;
#X obj 92 258 *;
#X obj 99 215 t b;
#X obj 170 259 *;
#X obj 180 218 t b;
#X obj 185 196 r zscale;
#X obj 107 196 r yscale;
#X obj 170 239 f;
#X obj 92 238 f;
#X obj 12 237 f;
#X obj 12 118 random 200;
#X obj 92 119 random 200;
#X obj 170 119 random 200;
#X obj 12 175 - 1;
#X obj 92 176 - 1;
#X obj 170 176 - 1;
#X connect 0 0 1 0;
#X connect 1 0 7 0;
#X connect 3 0 4 0;
#X connect 4 0 7 1;
#X connect 4 0 17 0;
#X connect 5 0 6 0;
#X connect 6 0 7 2;
#X connect 6 0 16 0;
#X connect 7 0 2 0;
#X connect 8 0 27 0;
#X connect 8 0 28 0;
#X connect 8 0 29 0;
#X connect 9 0 0 1;
#X connect 9 0 3 1;
#X connect 9 0 5 1;
#X connect 10 0 30 0;
#X connect 11 0 31 0;
#X connect 12 0 32 0;
#X connect 13 0 0 0;
#X connect 14 0 26 0;
#X connect 15 0 13 1;
#X connect 15 0 14 0;
#X connect 16 0 7 0;
#X connect 17 0 7 0;
#X connect 18 0 3 0;
#X connect 19 0 25 0;
#X connect 20 0 5 0;
#X connect 21 0 24 0;
#X connect 22 0 20 1;
#X connect 22 0 21 0;
#X connect 23 0 18 1;
#X connect 23 0 19 0;
#X connect 24 0 20 0;
#X connect 25 0 18 0;
#X connect 26 0 13 0;
#X connect 27 0 10 0;
#X connect 28 0 11 0;
#X connect 29 0 12 0;
#X connect 30 0 26 0;
#X connect 31 0 25 0;
#X connect 32 0 24 0;
#X restore 31 243 pd tripleRnd;
#N canvas 0 22 517 428 tripleRnd 0;
#X obj 12 277 pack 0 1000;
#X obj 12 298 line;
#X obj 12 380 outlet;
#X obj 92 278 pack 0 1000;
#X obj 92 298 line;
#X obj 170 278 pack 0 1000;
#X obj 170 298 line;
#X obj 12 358 pack f f f;
#X obj 13 33 r bang_forme2;
#X obj 233 230 r speed;
#X obj 12 145 / 100;
#X obj 92 146 / 100;
#X obj 170 146 / 100;
#X obj 12 257 *;
#X obj 22 216 t b;
#X obj 27 196 r xscale;
#X obj 170 318 t b;
#X obj 92 318 t b;
#X obj 92 258 *;
#X obj 99 215 t b;
#X obj 170 259 *;
#X obj 180 218 t b;
#X obj 185 196 r zscale;
#X obj 107 196 r yscale;
#X obj 170 239 f;
#X obj 92 238 f;
#X obj 12 237 f;
#X obj 12 118 random 200;
#X obj 92 119 random 200;
#X obj 170 119 random 200;
#X obj 12 175 - 1;
#X obj 92 176 - 1;
#X obj 170 176 - 1;
#X connect 0 0 1 0;
#X connect 1 0 7 0;
#X connect 3 0 4 0;
#X connect 4 0 7 1;
#X connect 4 0 17 0;
#X connect 5 0 6 0;
#X connect 6 0 7 2;
#X connect 6 0 16 0;
#X connect 7 0 2 0;
#X connect 8 0 27 0;
#X connect 8 0 28 0;
#X connect 8 0 29 0;
#X connect 9 0 0 1;
#X connect 9 0 3 1;
#X connect 9 0 5 1;
#X connect 10 0 30 0;
#X connect 11 0 31 0;
#X connect 12 0 32 0;
#X connect 13 0 0 0;
#X connect 14 0 26 0;
#X connect 15 0 13 1;
#X connect 15 0 14 0;
#X connect 16 0 7 0;
#X connect 17 0 7 0;
#X connect 18 0 3 0;
#X connect 19 0 25 0;
#X connect 20 0 5 0;
#X connect 21 0 24 0;
#X connect 22 0 20 1;
#X connect 22 0 21 0;
#X connect 23 0 18 1;
#X connect 23 0 19 0;
#X connect 24 0 20 0;
#X connect 25 0 18 0;
#X connect 26 0 13 0;
#X connect 27 0 10 0;
#X connect 28 0 11 0;
#X connect 29 0 12 0;
#X connect 30 0 26 0;
#X connect 31 0 25 0;
#X connect 32 0 24 0;
#X restore 164 243 pd tripleRnd;
#N canvas 0 22 517 428 tripleRnd 0;
#X obj 12 277 pack 0 1000;
#X obj 12 298 line;
#X obj 12 380 outlet;
#X obj 92 278 pack 0 1000;
#X obj 92 298 line;
#X obj 170 278 pack 0 1000;
#X obj 170 298 line;
#X obj 12 358 pack f f f;
#X obj 13 33 r bang_forme2;
#X obj 233 230 r speed;
#X obj 12 145 / 100;
#X obj 92 146 / 100;
#X obj 170 146 / 100;
#X obj 12 257 *;
#X obj 22 216 t b;
#X obj 27 196 r xscale;
#X obj 170 318 t b;
#X obj 92 318 t b;
#X obj 92 258 *;
#X obj 99 215 t b;
#X obj 170 259 *;
#X obj 180 218 t b;
#X obj 185 196 r zscale;
#X obj 107 196 r yscale;
#X obj 170 239 f;
#X obj 92 238 f;
#X obj 12 237 f;
#X obj 12 118 random 200;
#X obj 92 119 random 200;
#X obj 170 119 random 200;
#X obj 12 175 - 1;
#X obj 92 176 - 1;
#X obj 170 176 - 1;
#X connect 0 0 1 0;
#X connect 1 0 7 0;
#X connect 3 0 4 0;
#X connect 4 0 7 1;
#X connect 4 0 17 0;
#X connect 5 0 6 0;
#X connect 6 0 7 2;
#X connect 6 0 16 0;
#X connect 7 0 2 0;
#X connect 8 0 27 0;
#X connect 8 0 28 0;
#X connect 8 0 29 0;
#X connect 9 0 0 1;
#X connect 9 0 3 1;
#X connect 9 0 5 1;
#X connect 10 0 30 0;
#X connect 11 0 31 0;
#X connect 12 0 32 0;
#X connect 13 0 0 0;
#X connect 14 0 26 0;
#X connect 15 0 13 1;
#X connect 15 0 14 0;
#X connect 16 0 7 0;
#X connect 17 0 7 0;
#X connect 18 0 3 0;
#X connect 19 0 25 0;
#X connect 20 0 5 0;
#X connect 21 0 24 0;
#X connect 22 0 20 1;
#X connect 22 0 21 0;
#X connect 23 0 18 1;
#X connect 23 0 19 0;
#X connect 24 0 20 0;
#X connect 25 0 18 0;
#X connect 26 0 13 0;
#X connect 27 0 10 0;
#X connect 28 0 11 0;
#X connect 29 0 12 0;
#X connect 30 0 26 0;
#X connect 31 0 25 0;
#X connect 32 0 24 0;
#X restore 302 243 pd tripleRnd;
#N canvas 0 22 517 428 tripleRnd 0;
#X obj 12 277 pack 0 1000;
#X obj 12 298 line;
#X obj 12 380 outlet;
#X obj 92 278 pack 0 1000;
#X obj 92 298 line;
#X obj 170 278 pack 0 1000;
#X obj 170 298 line;
#X obj 12 358 pack f f f;
#X obj 13 33 r bang_forme2;
#X obj 233 230 r speed;
#X obj 12 145 / 100;
#X obj 92 146 / 100;
#X obj 170 146 / 100;
#X obj 12 257 *;
#X obj 22 216 t b;
#X obj 27 196 r xscale;
#X obj 170 318 t b;
#X obj 92 318 t b;
#X obj 92 258 *;
#X obj 99 215 t b;
#X obj 170 259 *;
#X obj 180 218 t b;
#X obj 185 196 r zscale;
#X obj 107 196 r yscale;
#X obj 170 239 f;
#X obj 92 238 f;
#X obj 12 237 f;
#X obj 12 118 random 200;
#X obj 92 119 random 200;
#X obj 170 119 random 200;
#X obj 12 175 - 1;
#X obj 92 176 - 1;
#X obj 170 176 - 1;
#X connect 0 0 1 0;
#X connect 1 0 7 0;
#X connect 3 0 4 0;
#X connect 4 0 7 1;
#X connect 4 0 17 0;
#X connect 5 0 6 0;
#X connect 6 0 7 2;
#X connect 6 0 16 0;
#X connect 7 0 2 0;
#X connect 8 0 27 0;
#X connect 8 0 28 0;
#X connect 8 0 29 0;
#X connect 9 0 0 1;
#X connect 9 0 3 1;
#X connect 9 0 5 1;
#X connect 10 0 30 0;
#X connect 11 0 31 0;
#X connect 12 0 32 0;
#X connect 13 0 0 0;
#X connect 14 0 26 0;
#X connect 15 0 13 1;
#X connect 15 0 14 0;
#X connect 16 0 7 0;
#X connect 17 0 7 0;
#X connect 18 0 3 0;
#X connect 19 0 25 0;
#X connect 20 0 5 0;
#X connect 21 0 24 0;
#X connect 22 0 20 1;
#X connect 22 0 21 0;
#X connect 23 0 18 1;
#X connect 23 0 19 0;
#X connect 24 0 20 0;
#X connect 25 0 18 0;
#X connect 26 0 13 0;
#X connect 27 0 10 0;
#X connect 28 0 11 0;
#X connect 29 0 12 0;
#X connect 30 0 26 0;
#X connect 31 0 25 0;
#X connect 32 0 24 0;
#X restore 426 243 pd tripleRnd;
#N canvas 0 22 517 428 tripleRnd 0;
#X obj 12 277 pack 0 1000;
#X obj 12 298 line;
#X obj 12 380 outlet;
#X obj 92 278 pack 0 1000;
#X obj 92 298 line;
#X obj 170 278 pack 0 1000;
#X obj 170 298 line;
#X obj 12 358 pack f f f;
#X obj 13 33 r bang_forme2;
#X obj 233 230 r speed;
#X obj 12 145 / 100;
#X obj 92 146 / 100;
#X obj 170 146 / 100;
#X obj 12 257 *;
#X obj 22 216 t b;
#X obj 27 196 r xscale;
#X obj 170 318 t b;
#X obj 92 318 t b;
#X obj 92 258 *;
#X obj 99 215 t b;
#X obj 170 259 *;
#X obj 180 218 t b;
#X obj 185 196 r zscale;
#X obj 107 196 r yscale;
#X obj 170 239 f;
#X obj 92 238 f;
#X obj 12 237 f;
#X obj 12 118 random 200;
#X obj 92 119 random 200;
#X obj 170 119 random 200;
#X obj 12 175 - 1;
#X obj 92 176 - 1;
#X obj 170 176 - 1;
#X connect 0 0 1 0;
#X connect 1 0 7 0;
#X connect 3 0 4 0;
#X connect 4 0 7 1;
#X connect 4 0 17 0;
#X connect 5 0 6 0;
#X connect 6 0 7 2;
#X connect 6 0 16 0;
#X connect 7 0 2 0;
#X connect 8 0 27 0;
#X connect 8 0 28 0;
#X connect 8 0 29 0;
#X connect 9 0 0 1;
#X connect 9 0 3 1;
#X connect 9 0 5 1;
#X connect 10 0 30 0;
#X connect 11 0 31 0;
#X connect 12 0 32 0;
#X connect 13 0 0 0;
#X connect 14 0 26 0;
#X connect 15 0 13 1;
#X connect 15 0 14 0;
#X connect 16 0 7 0;
#X connect 17 0 7 0;
#X connect 18 0 3 0;
#X connect 19 0 25 0;
#X connect 20 0 5 0;
#X connect 21 0 24 0;
#X connect 22 0 20 1;
#X connect 22 0 21 0;
#X connect 23 0 18 1;
#X connect 23 0 19 0;
#X connect 24 0 20 0;
#X connect 25 0 18 0;
#X connect 26 0 13 0;
#X connect 27 0 10 0;
#X connect 28 0 11 0;
#X connect 29 0 12 0;
#X connect 30 0 26 0;
#X connect 31 0 25 0;
#X connect 32 0 24 0;
#X restore 546 244 pd tripleRnd;
#N canvas 0 22 517 428 tripleRnd 0;
#X obj 12 277 pack 0 1000;
#X obj 12 298 line;
#X obj 12 380 outlet;
#X obj 92 278 pack 0 1000;
#X obj 92 298 line;
#X obj 170 278 pack 0 1000;
#X obj 170 298 line;
#X obj 12 358 pack f f f;
#X obj 13 33 r bang_forme2;
#X obj 233 230 r speed;
#X obj 12 145 / 100;
#X obj 92 146 / 100;
#X obj 170 146 / 100;
#X obj 12 257 *;
#X obj 22 216 t b;
#X obj 27 196 r xscale;
#X obj 170 318 t b;
#X obj 92 318 t b;
#X obj 92 258 *;
#X obj 99 215 t b;
#X obj 170 259 *;
#X obj 180 218 t b;
#X obj 185 196 r zscale;
#X obj 107 196 r yscale;
#X obj 170 239 f;
#X obj 92 238 f;
#X obj 12 237 f;
#X obj 12 118 random 200;
#X obj 92 119 random 200;
#X obj 170 119 random 200;
#X obj 12 175 - 1;
#X obj 92 176 - 1;
#X obj 170 176 - 1;
#X connect 0 0 1 0;
#X connect 1 0 7 0;
#X connect 3 0 4 0;
#X connect 4 0 7 1;
#X connect 4 0 17 0;
#X connect 5 0 6 0;
#X connect 6 0 7 2;
#X connect 6 0 16 0;
#X connect 7 0 2 0;
#X connect 8 0 27 0;
#X connect 8 0 28 0;
#X connect 8 0 29 0;
#X connect 9 0 0 1;
#X connect 9 0 3 1;
#X connect 9 0 5 1;
#X connect 10 0 30 0;
#X connect 11 0 31 0;
#X connect 12 0 32 0;
#X connect 13 0 0 0;
#X connect 14 0 26 0;
#X connect 15 0 13 1;
#X connect 15 0 14 0;
#X connect 16 0 7 0;
#X connect 17 0 7 0;
#X connect 18 0 3 0;
#X connect 19 0 25 0;
#X connect 20 0 5 0;
#X connect 21 0 24 0;
#X connect 22 0 20 1;
#X connect 22 0 21 0;
#X connect 23 0 18 1;
#X connect 23 0 19 0;
#X connect 24 0 20 0;
#X connect 25 0 18 0;
#X connect 26 0 13 0;
#X connect 27 0 10 0;
#X connect 28 0 11 0;
#X connect 29 0 12 0;
#X connect 30 0 26 0;
#X connect 31 0 25 0;
#X connect 32 0 24 0;
#X restore 29 310 pd tripleRnd;
#N canvas 0 22 517 428 tripleRnd 0;
#X obj 12 277 pack 0 1000;
#X obj 12 298 line;
#X obj 12 380 outlet;
#X obj 92 278 pack 0 1000;
#X obj 92 298 line;
#X obj 170 278 pack 0 1000;
#X obj 170 298 line;
#X obj 12 358 pack f f f;
#X obj 13 33 r bang_forme2;
#X obj 233 230 r speed;
#X obj 12 145 / 100;
#X obj 92 146 / 100;
#X obj 170 146 / 100;
#X obj 12 257 *;
#X obj 22 216 t b;
#X obj 27 196 r xscale;
#X obj 170 318 t b;
#X obj 92 318 t b;
#X obj 92 258 *;
#X obj 99 215 t b;
#X obj 170 259 *;
#X obj 180 218 t b;
#X obj 185 196 r zscale;
#X obj 107 196 r yscale;
#X obj 170 239 f;
#X obj 92 238 f;
#X obj 12 237 f;
#X obj 12 118 random 200;
#X obj 92 119 random 200;
#X obj 170 119 random 200;
#X obj 12 175 - 1;
#X obj 92 176 - 1;
#X obj 170 176 - 1;
#X connect 0 0 1 0;
#X connect 1 0 7 0;
#X connect 3 0 4 0;
#X connect 4 0 7 1;
#X connect 4 0 17 0;
#X connect 5 0 6 0;
#X connect 6 0 7 2;
#X connect 6 0 16 0;
#X connect 7 0 2 0;
#X connect 8 0 27 0;
#X connect 8 0 28 0;
#X connect 8 0 29 0;
#X connect 9 0 0 1;
#X connect 9 0 3 1;
#X connect 9 0 5 1;
#X connect 10 0 30 0;
#X connect 11 0 31 0;
#X connect 12 0 32 0;
#X connect 13 0 0 0;
#X connect 14 0 26 0;
#X connect 15 0 13 1;
#X connect 15 0 14 0;
#X connect 16 0 7 0;
#X connect 17 0 7 0;
#X connect 18 0 3 0;
#X connect 19 0 25 0;
#X connect 20 0 5 0;
#X connect 21 0 24 0;
#X connect 22 0 20 1;
#X connect 22 0 21 0;
#X connect 23 0 18 1;
#X connect 23 0 19 0;
#X connect 24 0 20 0;
#X connect 25 0 18 0;
#X connect 26 0 13 0;
#X connect 27 0 10 0;
#X connect 28 0 11 0;
#X connect 29 0 12 0;
#X connect 30 0 26 0;
#X connect 31 0 25 0;
#X connect 32 0 24 0;
#X restore 162 310 pd tripleRnd;
#N canvas 0 22 517 428 tripleRnd 0;
#X obj 12 277 pack 0 1000;
#X obj 12 298 line;
#X obj 12 380 outlet;
#X obj 92 278 pack 0 1000;
#X obj 92 298 line;
#X obj 170 278 pack 0 1000;
#X obj 170 298 line;
#X obj 12 358 pack f f f;
#X obj 13 33 r bang_forme2;
#X obj 233 230 r speed;
#X obj 12 145 / 100;
#X obj 92 146 / 100;
#X obj 170 146 / 100;
#X obj 12 257 *;
#X obj 22 216 t b;
#X obj 27 196 r xscale;
#X obj 170 318 t b;
#X obj 92 318 t b;
#X obj 92 258 *;
#X obj 99 215 t b;
#X obj 170 259 *;
#X obj 180 218 t b;
#X obj 185 196 r zscale;
#X obj 107 196 r yscale;
#X obj 170 239 f;
#X obj 92 238 f;
#X obj 12 237 f;
#X obj 12 118 random 200;
#X obj 92 119 random 200;
#X obj 170 119 random 200;
#X obj 12 175 - 1;
#X obj 92 176 - 1;
#X obj 170 176 - 1;
#X connect 0 0 1 0;
#X connect 1 0 7 0;
#X connect 3 0 4 0;
#X connect 4 0 7 1;
#X connect 4 0 17 0;
#X connect 5 0 6 0;
#X connect 6 0 7 2;
#X connect 6 0 16 0;
#X connect 7 0 2 0;
#X connect 8 0 27 0;
#X connect 8 0 28 0;
#X connect 8 0 29 0;
#X connect 9 0 0 1;
#X connect 9 0 3 1;
#X connect 9 0 5 1;
#X connect 10 0 30 0;
#X connect 11 0 31 0;
#X connect 12 0 32 0;
#X connect 13 0 0 0;
#X connect 14 0 26 0;
#X connect 15 0 13 1;
#X connect 15 0 14 0;
#X connect 16 0 7 0;
#X connect 17 0 7 0;
#X connect 18 0 3 0;
#X connect 19 0 25 0;
#X connect 20 0 5 0;
#X connect 21 0 24 0;
#X connect 22 0 20 1;
#X connect 22 0 21 0;
#X connect 23 0 18 1;
#X connect 23 0 19 0;
#X connect 24 0 20 0;
#X connect 25 0 18 0;
#X connect 26 0 13 0;
#X connect 27 0 10 0;
#X connect 28 0 11 0;
#X connect 29 0 12 0;
#X connect 30 0 26 0;
#X connect 31 0 25 0;
#X connect 32 0 24 0;
#X restore 300 310 pd tripleRnd;
#N canvas 0 22 517 428 tripleRnd 0;
#X obj 12 277 pack 0 1000;
#X obj 12 298 line;
#X obj 12 380 outlet;
#X obj 92 278 pack 0 1000;
#X obj 92 298 line;
#X obj 170 278 pack 0 1000;
#X obj 170 298 line;
#X obj 12 358 pack f f f;
#X obj 13 33 r bang_forme2;
#X obj 233 230 r speed;
#X obj 12 145 / 100;
#X obj 92 146 / 100;
#X obj 170 146 / 100;
#X obj 12 257 *;
#X obj 22 216 t b;
#X obj 27 196 r xscale;
#X obj 170 318 t b;
#X obj 92 318 t b;
#X obj 92 258 *;
#X obj 99 215 t b;
#X obj 170 259 *;
#X obj 180 218 t b;
#X obj 185 196 r zscale;
#X obj 107 196 r yscale;
#X obj 170 239 f;
#X obj 92 238 f;
#X obj 12 237 f;
#X obj 12 118 random 200;
#X obj 92 119 random 200;
#X obj 170 119 random 200;
#X obj 12 175 - 1;
#X obj 92 176 - 1;
#X obj 170 176 - 1;
#X connect 0 0 1 0;
#X connect 1 0 7 0;
#X connect 3 0 4 0;
#X connect 4 0 7 1;
#X connect 4 0 17 0;
#X connect 5 0 6 0;
#X connect 6 0 7 2;
#X connect 6 0 16 0;
#X connect 7 0 2 0;
#X connect 8 0 27 0;
#X connect 8 0 28 0;
#X connect 8 0 29 0;
#X connect 9 0 0 1;
#X connect 9 0 3 1;
#X connect 9 0 5 1;
#X connect 10 0 30 0;
#X connect 11 0 31 0;
#X connect 12 0 32 0;
#X connect 13 0 0 0;
#X connect 14 0 26 0;
#X connect 15 0 13 1;
#X connect 15 0 14 0;
#X connect 16 0 7 0;
#X connect 17 0 7 0;
#X connect 18 0 3 0;
#X connect 19 0 25 0;
#X connect 20 0 5 0;
#X connect 21 0 24 0;
#X connect 22 0 20 1;
#X connect 22 0 21 0;
#X connect 23 0 18 1;
#X connect 23 0 19 0;
#X connect 24 0 20 0;
#X connect 25 0 18 0;
#X connect 26 0 13 0;
#X connect 27 0 10 0;
#X connect 28 0 11 0;
#X connect 29 0 12 0;
#X connect 30 0 26 0;
#X connect 31 0 25 0;
#X connect 32 0 24 0;
#X restore 424 310 pd tripleRnd;
#N canvas 0 22 517 428 tripleRnd 0;
#X obj 12 277 pack 0 1000;
#X obj 12 298 line;
#X obj 12 380 outlet;
#X obj 92 278 pack 0 1000;
#X obj 92 298 line;
#X obj 170 278 pack 0 1000;
#X obj 170 298 line;
#X obj 12 358 pack f f f;
#X obj 13 33 r bang_forme2;
#X obj 233 230 r speed;
#X obj 12 145 / 100;
#X obj 92 146 / 100;
#X obj 170 146 / 100;
#X obj 12 257 *;
#X obj 22 216 t b;
#X obj 27 196 r xscale;
#X obj 170 318 t b;
#X obj 92 318 t b;
#X obj 92 258 *;
#X obj 99 215 t b;
#X obj 170 259 *;
#X obj 180 218 t b;
#X obj 185 196 r zscale;
#X obj 107 196 r yscale;
#X obj 170 239 f;
#X obj 92 238 f;
#X obj 12 237 f;
#X obj 12 118 random 200;
#X obj 92 119 random 200;
#X obj 170 119 random 200;
#X obj 12 175 - 1;
#X obj 92 176 - 1;
#X obj 170 176 - 1;
#X connect 0 0 1 0;
#X connect 1 0 7 0;
#X connect 3 0 4 0;
#X connect 4 0 7 1;
#X connect 4 0 17 0;
#X connect 5 0 6 0;
#X connect 6 0 7 2;
#X connect 6 0 16 0;
#X connect 7 0 2 0;
#X connect 8 0 27 0;
#X connect 8 0 28 0;
#X connect 8 0 29 0;
#X connect 9 0 0 1;
#X connect 9 0 3 1;
#X connect 9 0 5 1;
#X connect 10 0 30 0;
#X connect 11 0 31 0;
#X connect 12 0 32 0;
#X connect 13 0 0 0;
#X connect 14 0 26 0;
#X connect 15 0 13 1;
#X connect 15 0 14 0;
#X connect 16 0 7 0;
#X connect 17 0 7 0;
#X connect 18 0 3 0;
#X connect 19 0 25 0;
#X connect 20 0 5 0;
#X connect 21 0 24 0;
#X connect 22 0 20 1;
#X connect 22 0 21 0;
#X connect 23 0 18 1;
#X connect 23 0 19 0;
#X connect 24 0 20 0;
#X connect 25 0 18 0;
#X connect 26 0 13 0;
#X connect 27 0 10 0;
#X connect 28 0 11 0;
#X connect 29 0 12 0;
#X connect 30 0 26 0;
#X connect 31 0 25 0;
#X connect 32 0 24 0;
#X restore 544 311 pd tripleRnd;
#N canvas 0 22 517 428 tripleRnd 0;
#X obj 12 277 pack 0 1000;
#X obj 12 298 line;
#X obj 12 380 outlet;
#X obj 92 278 pack 0 1000;
#X obj 92 298 line;
#X obj 170 278 pack 0 1000;
#X obj 170 298 line;
#X obj 12 358 pack f f f;
#X obj 13 33 r bang_forme2;
#X obj 233 230 r speed;
#X obj 12 145 / 100;
#X obj 92 146 / 100;
#X obj 170 146 / 100;
#X obj 12 257 *;
#X obj 22 216 t b;
#X obj 27 196 r xscale;
#X obj 170 318 t b;
#X obj 92 318 t b;
#X obj 92 258 *;
#X obj 99 215 t b;
#X obj 170 259 *;
#X obj 180 218 t b;
#X obj 185 196 r zscale;
#X obj 107 196 r yscale;
#X obj 170 239 f;
#X obj 92 238 f;
#X obj 12 237 f;
#X obj 12 118 random 200;
#X obj 92 119 random 200;
#X obj 170 119 random 200;
#X obj 12 175 - 1;
#X obj 92 176 - 1;
#X obj 170 176 - 1;
#X connect 0 0 1 0;
#X connect 1 0 7 0;
#X connect 3 0 4 0;
#X connect 4 0 7 1;
#X connect 4 0 17 0;
#X connect 5 0 6 0;
#X connect 6 0 7 2;
#X connect 6 0 16 0;
#X connect 7 0 2 0;
#X connect 8 0 27 0;
#X connect 8 0 28 0;
#X connect 8 0 29 0;
#X connect 9 0 0 1;
#X connect 9 0 3 1;
#X connect 9 0 5 1;
#X connect 10 0 30 0;
#X connect 11 0 31 0;
#X connect 12 0 32 0;
#X connect 13 0 0 0;
#X connect 14 0 26 0;
#X connect 15 0 13 1;
#X connect 15 0 14 0;
#X connect 16 0 7 0;
#X connect 17 0 7 0;
#X connect 18 0 3 0;
#X connect 19 0 25 0;
#X connect 20 0 5 0;
#X connect 21 0 24 0;
#X connect 22 0 20 1;
#X connect 22 0 21 0;
#X connect 23 0 18 1;
#X connect 23 0 19 0;
#X connect 24 0 20 0;
#X connect 25 0 18 0;
#X connect 26 0 13 0;
#X connect 27 0 10 0;
#X connect 28 0 11 0;
#X connect 29 0 12 0;
#X connect 30 0 26 0;
#X connect 31 0 25 0;
#X connect 32 0 24 0;
#X restore 29 371 pd tripleRnd;
#N canvas 0 22 517 428 tripleRnd 0;
#X obj 12 277 pack 0 1000;
#X obj 12 298 line;
#X obj 12 380 outlet;
#X obj 92 278 pack 0 1000;
#X obj 92 298 line;
#X obj 170 278 pack 0 1000;
#X obj 170 298 line;
#X obj 12 358 pack f f f;
#X obj 13 33 r bang_forme2;
#X obj 233 230 r speed;
#X obj 12 145 / 100;
#X obj 92 146 / 100;
#X obj 170 146 / 100;
#X obj 12 257 *;
#X obj 22 216 t b;
#X obj 27 196 r xscale;
#X obj 170 318 t b;
#X obj 92 318 t b;
#X obj 92 258 *;
#X obj 99 215 t b;
#X obj 170 259 *;
#X obj 180 218 t b;
#X obj 185 196 r zscale;
#X obj 107 196 r yscale;
#X obj 170 239 f;
#X obj 92 238 f;
#X obj 12 237 f;
#X obj 12 118 random 200;
#X obj 92 119 random 200;
#X obj 170 119 random 200;
#X obj 12 175 - 1;
#X obj 92 176 - 1;
#X obj 170 176 - 1;
#X connect 0 0 1 0;
#X connect 1 0 7 0;
#X connect 3 0 4 0;
#X connect 4 0 7 1;
#X connect 4 0 17 0;
#X connect 5 0 6 0;
#X connect 6 0 7 2;
#X connect 6 0 16 0;
#X connect 7 0 2 0;
#X connect 8 0 27 0;
#X connect 8 0 28 0;
#X connect 8 0 29 0;
#X connect 9 0 0 1;
#X connect 9 0 3 1;
#X connect 9 0 5 1;
#X connect 10 0 30 0;
#X connect 11 0 31 0;
#X connect 12 0 32 0;
#X connect 13 0 0 0;
#X connect 14 0 26 0;
#X connect 15 0 13 1;
#X connect 15 0 14 0;
#X connect 16 0 7 0;
#X connect 17 0 7 0;
#X connect 18 0 3 0;
#X connect 19 0 25 0;
#X connect 20 0 5 0;
#X connect 21 0 24 0;
#X connect 22 0 20 1;
#X connect 22 0 21 0;
#X connect 23 0 18 1;
#X connect 23 0 19 0;
#X connect 24 0 20 0;
#X connect 25 0 18 0;
#X connect 26 0 13 0;
#X connect 27 0 10 0;
#X connect 28 0 11 0;
#X connect 29 0 12 0;
#X connect 30 0 26 0;
#X connect 31 0 25 0;
#X connect 32 0 24 0;
#X restore 162 371 pd tripleRnd;
#N canvas 0 22 517 428 tripleRnd 0;
#X obj 12 277 pack 0 1000;
#X obj 12 298 line;
#X obj 12 380 outlet;
#X obj 92 278 pack 0 1000;
#X obj 92 298 line;
#X obj 170 278 pack 0 1000;
#X obj 170 298 line;
#X obj 12 358 pack f f f;
#X obj 13 33 r bang_forme2;
#X obj 233 230 r speed;
#X obj 12 145 / 100;
#X obj 92 146 / 100;
#X obj 170 146 / 100;
#X obj 12 257 *;
#X obj 22 216 t b;
#X obj 27 196 r xscale;
#X obj 170 318 t b;
#X obj 92 318 t b;
#X obj 92 258 *;
#X obj 99 215 t b;
#X obj 170 259 *;
#X obj 180 218 t b;
#X obj 185 196 r zscale;
#X obj 107 196 r yscale;
#X obj 170 239 f;
#X obj 92 238 f;
#X obj 12 237 f;
#X obj 12 118 random 200;
#X obj 92 119 random 200;
#X obj 170 119 random 200;
#X obj 12 175 - 1;
#X obj 92 176 - 1;
#X obj 170 176 - 1;
#X connect 0 0 1 0;
#X connect 1 0 7 0;
#X connect 3 0 4 0;
#X connect 4 0 7 1;
#X connect 4 0 17 0;
#X connect 5 0 6 0;
#X connect 6 0 7 2;
#X connect 6 0 16 0;
#X connect 7 0 2 0;
#X connect 8 0 27 0;
#X connect 8 0 28 0;
#X connect 8 0 29 0;
#X connect 9 0 0 1;
#X connect 9 0 3 1;
#X connect 9 0 5 1;
#X connect 10 0 30 0;
#X connect 11 0 31 0;
#X connect 12 0 32 0;
#X connect 13 0 0 0;
#X connect 14 0 26 0;
#X connect 15 0 13 1;
#X connect 15 0 14 0;
#X connect 16 0 7 0;
#X connect 17 0 7 0;
#X connect 18 0 3 0;
#X connect 19 0 25 0;
#X connect 20 0 5 0;
#X connect 21 0 24 0;
#X connect 22 0 20 1;
#X connect 22 0 21 0;
#X connect 23 0 18 1;
#X connect 23 0 19 0;
#X connect 24 0 20 0;
#X connect 25 0 18 0;
#X connect 26 0 13 0;
#X connect 27 0 10 0;
#X connect 28 0 11 0;
#X connect 29 0 12 0;
#X connect 30 0 26 0;
#X connect 31 0 25 0;
#X connect 32 0 24 0;
#X restore 300 371 pd tripleRnd;
#N canvas 0 22 517 428 tripleRnd 0;
#X obj 12 277 pack 0 1000;
#X obj 12 298 line;
#X obj 12 380 outlet;
#X obj 92 278 pack 0 1000;
#X obj 92 298 line;
#X obj 170 278 pack 0 1000;
#X obj 170 298 line;
#X obj 12 358 pack f f f;
#X obj 13 33 r bang_forme2;
#X obj 233 230 r speed;
#X obj 12 145 / 100;
#X obj 92 146 / 100;
#X obj 170 146 / 100;
#X obj 12 257 *;
#X obj 22 216 t b;
#X obj 27 196 r xscale;
#X obj 170 318 t b;
#X obj 92 318 t b;
#X obj 92 258 *;
#X obj 99 215 t b;
#X obj 170 259 *;
#X obj 180 218 t b;
#X obj 185 196 r zscale;
#X obj 107 196 r yscale;
#X obj 170 239 f;
#X obj 92 238 f;
#X obj 12 237 f;
#X obj 12 118 random 200;
#X obj 92 119 random 200;
#X obj 170 119 random 200;
#X obj 12 175 - 1;
#X obj 92 176 - 1;
#X obj 170 176 - 1;
#X connect 0 0 1 0;
#X connect 1 0 7 0;
#X connect 3 0 4 0;
#X connect 4 0 7 1;
#X connect 4 0 17 0;
#X connect 5 0 6 0;
#X connect 6 0 7 2;
#X connect 6 0 16 0;
#X connect 7 0 2 0;
#X connect 8 0 27 0;
#X connect 8 0 28 0;
#X connect 8 0 29 0;
#X connect 9 0 0 1;
#X connect 9 0 3 1;
#X connect 9 0 5 1;
#X connect 10 0 30 0;
#X connect 11 0 31 0;
#X connect 12 0 32 0;
#X connect 13 0 0 0;
#X connect 14 0 26 0;
#X connect 15 0 13 1;
#X connect 15 0 14 0;
#X connect 16 0 7 0;
#X connect 17 0 7 0;
#X connect 18 0 3 0;
#X connect 19 0 25 0;
#X connect 20 0 5 0;
#X connect 21 0 24 0;
#X connect 22 0 20 1;
#X connect 22 0 21 0;
#X connect 23 0 18 1;
#X connect 23 0 19 0;
#X connect 24 0 20 0;
#X connect 25 0 18 0;
#X connect 26 0 13 0;
#X connect 27 0 10 0;
#X connect 28 0 11 0;
#X connect 29 0 12 0;
#X connect 30 0 26 0;
#X connect 31 0 25 0;
#X connect 32 0 24 0;
#X restore 424 371 pd tripleRnd;
#N canvas 0 22 517 428 tripleRnd 0;
#X obj 12 277 pack 0 1000;
#X obj 12 298 line;
#X obj 12 380 outlet;
#X obj 92 278 pack 0 1000;
#X obj 92 298 line;
#X obj 170 278 pack 0 1000;
#X obj 170 298 line;
#X obj 12 358 pack f f f;
#X obj 13 33 r bang_forme2;
#X obj 233 230 r speed;
#X obj 12 145 / 100;
#X obj 92 146 / 100;
#X obj 170 146 / 100;
#X obj 12 257 *;
#X obj 22 216 t b;
#X obj 27 196 r xscale;
#X obj 170 318 t b;
#X obj 92 318 t b;
#X obj 92 258 *;
#X obj 99 215 t b;
#X obj 170 259 *;
#X obj 180 218 t b;
#X obj 185 196 r zscale;
#X obj 107 196 r yscale;
#X obj 170 239 f;
#X obj 92 238 f;
#X obj 12 237 f;
#X obj 12 118 random 200;
#X obj 92 119 random 200;
#X obj 170 119 random 200;
#X obj 12 175 - 1;
#X obj 92 176 - 1;
#X obj 170 176 - 1;
#X connect 0 0 1 0;
#X connect 1 0 7 0;
#X connect 3 0 4 0;
#X connect 4 0 7 1;
#X connect 4 0 17 0;
#X connect 5 0 6 0;
#X connect 6 0 7 2;
#X connect 6 0 16 0;
#X connect 7 0 2 0;
#X connect 8 0 27 0;
#X connect 8 0 28 0;
#X connect 8 0 29 0;
#X connect 9 0 0 1;
#X connect 9 0 3 1;
#X connect 9 0 5 1;
#X connect 10 0 30 0;
#X connect 11 0 31 0;
#X connect 12 0 32 0;
#X connect 13 0 0 0;
#X connect 14 0 26 0;
#X connect 15 0 13 1;
#X connect 15 0 14 0;
#X connect 16 0 7 0;
#X connect 17 0 7 0;
#X connect 18 0 3 0;
#X connect 19 0 25 0;
#X connect 20 0 5 0;
#X connect 21 0 24 0;
#X connect 22 0 20 1;
#X connect 22 0 21 0;
#X connect 23 0 18 1;
#X connect 23 0 19 0;
#X connect 24 0 20 0;
#X connect 25 0 18 0;
#X connect 26 0 13 0;
#X connect 27 0 10 0;
#X connect 28 0 11 0;
#X connect 29 0 12 0;
#X connect 30 0 26 0;
#X connect 31 0 25 0;
#X connect 32 0 24 0;
#X restore 544 372 pd tripleRnd;
#X connect 0 0 7 0;
#X connect 1 0 26 0;
#X connect 2 0 26 0;
#X connect 3 0 26 0;
#X connect 4 0 26 0;
#X connect 5 0 26 0;
#X connect 6 0 26 0;
#X connect 7 0 26 0;
#X connect 8 0 26 0;
#X connect 9 0 26 0;
#X connect 10 0 26 0;
#X connect 11 0 26 0;
#X connect 12 0 26 0;
#X connect 13 0 26 0;
#X connect 14 0 26 0;
#X connect 15 0 26 0;
#X connect 16 0 26 0;
#X connect 17 0 26 0;
#X connect 18 0 26 0;
#X connect 19 0 26 0;
#X connect 20 0 26 0;
#X connect 21 0 26 0;
#X connect 22 0 26 0;
#X connect 23 0 26 0;
#X connect 24 0 26 0;
#X connect 25 0 26 0;
#X connect 27 0 28 0;
#X connect 29 0 6 0;
#X connect 30 0 5 0;
#X connect 31 0 13 0;
#X connect 32 0 17 0;
#X connect 33 0 8 0;
#X connect 34 0 9 0;
#X connect 35 0 4 0;
#X connect 36 0 14 0;
#X connect 37 0 18 0;
#X connect 38 0 1 0;
#X connect 39 0 2 0;
#X connect 40 0 3 0;
#X connect 41 0 15 0;
#X connect 42 0 19 0;
#X connect 43 0 10 0;
#X connect 44 0 11 0;
#X connect 45 0 12 0;
#X connect 46 0 16 0;
#X connect 47 0 20 0;
#X connect 48 0 21 0;
#X connect 49 0 22 0;
#X connect 50 0 23 0;
#X connect 51 0 24 0;
#X connect 52 0 25 0;
#X restore -325 98 pd forme2;
#X msg -234 97 draw line;
#X msg -234 77 draw fill;
#X msg -234 117 draw point;
#X msg -234 138 draw line1;
#X msg -234 159 draw line2;
#X msg -234 180 draw line3;
#X msg -234 201 draw line4;
#X msg -96 91 draw control_line;
#X msg -96 112 draw control_line1;
#X msg -96 133 draw control_line2;
#X msg -96 154 draw control_fill;
#X msg -96 175 draw control_point;
#X obj -248 237 s curve3d;
#X obj -325 77 r \$0-randForm;
#X obj -234 42 sel 0 1 2 3 4 5 6 7 8 9 10 11;
#X obj -234 22 r \$0-renderStyle;
#X msg -96 239 width 1;
#X obj -96 216 loadbang;
#X connect 0 0 13 0;
#X connect 1 0 13 0;
#X connect 2 0 13 0;
#X connect 4 0 13 0;
#X connect 5 0 13 0;
#X connect 6 0 13 0;
#X connect 7 0 13 0;
#X connect 8 0 13 0;
#X connect 9 0 13 0;
#X connect 10 0 13 0;
#X connect 11 0 13 0;
#X connect 12 0 13 0;
#X connect 14 0 0 0;
#X connect 15 0 2 0;
#X connect 15 1 1 0;
#X connect 15 2 3 0;
#X connect 15 3 4 0;
#X connect 15 4 5 0;
#X connect 15 5 6 0;
#X connect 15 6 7 0;
#X connect 15 7 8 0;
#X connect 15 8 9 0;
#X connect 15 9 10 0;
#X connect 15 10 11 0;
#X connect 15 11 12 0;
#X connect 16 0 15 0;
#X connect 17 0 13 0;
#X connect 18 0 17 0;
#X restore 42 567 pd curve3dControls;
#X obj 91 -36 separator;
#X obj 366 160 r speed;
#X obj 635 271 r speed;
#X obj 91 -75 tgl 15 0 empty empty empty 17 7 0 10 -262144 -1 -1 0
1;
#X obj 572 366 r rotateZ2;
#X obj 142 277 r rotateZ1;
#X obj 125 201 r rotateY;
#X obj 108 123 r rotateX;
#X obj 209 551 hsl 200 15 0 10000 0 0 speed speed_UI speed 0 8 0 10
-262144 -1 -1 0 1;
#X obj 590 252 r translateZ;
#X obj 567 176 r translateY;
#X obj 544 100 r translateX;
#X obj 567 195 * 5;
#X obj 214 -14 t b;
#X obj 281 -5 s renderSynch;
#X obj 696 192 r renderSynch;
#N canvas 156 150 450 300 route1 0;
#X obj -74 216 * 0.001;
#X obj -74 193 counter;
#X msg 43 175 1000;
#X msg -14 175 0;
#X msg 15 175 0;
#X obj -74 309 s translateX_UI;
#X obj -19 328 s translateY_UI;
#X obj 35 347 s translateZ_UI;
#X obj 253 309 s rotateZ2_UI;
#X obj 198 347 s rotateZ1_UI;
#X obj 90 309 s rotateX_UI;
#X obj 144 328 s rotateY_UI;
#X obj -41 251 sel 0;
#X msg -41 270 1;
#X msg -14 270 0;
#X obj -74 290 spigot;
#X msg 14 270 1;
#X msg 41 270 0;
#X obj -19 290 spigot;
#X msg 68 270 1;
#X msg 95 270 0;
#X obj 35 290 spigot;
#X msg 123 270 1;
#X msg 150 270 0;
#X obj 90 290 spigot;
#X msg 177 270 1;
#X msg 204 270 0;
#X obj 144 290 spigot;
#X msg 231 270 1;
#X msg 258 270 0;
#X obj 198 290 spigot;
#X msg 286 270 1;
#X msg 313 270 0;
#X obj 253 290 spigot;
#X obj 14 251 sel 1;
#X obj 68 251 sel 2;
#X obj 123 251 sel 3;
#X obj 177 251 sel 4;
#X obj 231 251 sel 5;
#X obj 286 251 sel 6;
#X obj -74 135 inlet;
#X obj 1 142 loadbang;
#X obj 101 101 cnv 15 248 33 empty empty empty 20 12 0 14 -233017 -66577
0;
#X obj 226 115 hradio 15 1 0 8 empty empty routing 0 -6 0 10 -262144
-1 -1 5;
#X obj 105 115 hradio 15 1 0 3 empty empty counter_direction 0 -6 0
10 -262144 -1 -1 2;
#X floatatom 180 115 5 0 0 0 - - -;
#X obj 163 116 bng 15 250 50 0 empty empty empty 17 7 0 10 -262144
-1 -1;
#X connect 0 0 15 0;
#X connect 0 0 18 0;
#X connect 0 0 21 0;
#X connect 0 0 24 0;
#X connect 0 0 27 0;
#X connect 0 0 30 0;
#X connect 0 0 33 0;
#X connect 1 0 0 0;
#X connect 1 0 45 0;
#X connect 2 0 1 4;
#X connect 3 0 1 2;
#X connect 4 0 1 3;
#X connect 12 0 13 0;
#X connect 12 1 14 0;
#X connect 13 0 15 1;
#X connect 14 0 15 1;
#X connect 15 0 5 0;
#X connect 16 0 18 1;
#X connect 17 0 18 1;
#X connect 18 0 6 0;
#X connect 19 0 21 1;
#X connect 20 0 21 1;
#X connect 21 0 7 0;
#X connect 22 0 24 1;
#X connect 23 0 24 1;
#X connect 24 0 10 0;
#X connect 25 0 27 1;
#X connect 26 0 27 1;
#X connect 27 0 11 0;
#X connect 28 0 30 1;
#X connect 29 0 30 1;
#X connect 30 0 9 0;
#X connect 31 0 33 1;
#X connect 32 0 33 1;
#X connect 33 0 8 0;
#X connect 34 0 16 0;
#X connect 34 1 17 0;
#X connect 35 0 19 0;
#X connect 35 1 20 0;
#X connect 36 0 22 0;
#X connect 36 1 23 0;
#X connect 37 0 25 0;
#X connect 37 1 26 0;
#X connect 38 0 28 0;
#X connect 38 1 29 0;
#X connect 39 0 31 0;
#X connect 39 1 32 0;
#X connect 40 0 1 0;
#X connect 41 0 3 0;
#X connect 41 0 4 0;
#X connect 41 0 2 0;
#X connect 43 0 12 0;
#X connect 43 0 34 0;
#X connect 43 0 35 0;
#X connect 43 0 36 0;
#X connect 43 0 37 0;
#X connect 43 0 38 0;
#X connect 43 0 39 0;
#X connect 44 0 1 1;
#X connect 46 0 4 0;
#X coords 0 -1 1 1 250 35 1 100 100;
#X restore 696 244 pd route1;
#N canvas 675 336 450 300 divider 0;
#X obj 33 103 counter;
#X msg 73 42 0;
#X obj 73 16 loadbang;
#X obj 33 135 sel 15;
#X obj 33 40 inlet;
#X obj 33 166 outlet;
#X obj 33 62 t b;
#X obj 101 101 cnv 15 248 33 empty empty empty 20 12 0 12 -118201 -66577
0;
#X obj 104 116 hradio 15 1 0 16 \$0-countDivision empty divide_by_1_through_16
0 -8 0 10 -262144 -1 -1 0;
#X connect 0 0 3 0;
#X connect 1 0 0 1;
#X connect 1 0 0 2;
#X connect 1 0 0 3;
#X connect 1 0 0 4;
#X connect 1 0 8 0;
#X connect 2 0 1 0;
#X connect 3 0 5 0;
#X connect 4 0 6 0;
#X connect 6 0 0 0;
#X connect 8 0 0 4;
#X connect 8 0 3 1;
#X coords 0 -1 1 1 250 35 1 100 100;
#X restore 696 209 pd divider;
#X msg 785 479 auto \$1;
#X obj 785 460 tgl 15 0 empty empty empty 0 -6 0 8 -262144 -1 -1 0
1;
#X obj 778 395 bng 15 250 50 0 empty empty empty 0 -6 0 8 -258699 -1
-1;
#N canvas 0 22 450 300 savepanel 0;
#X obj 114 62 inlet;
#X obj 114 254 outlet;
#X obj 114 199 t b a;
#X obj 114 125 savepanel;
#X msg 114 162 set file \$1 100;
#X connect 0 0 3 0;
#X connect 2 0 1 0;
#X connect 2 1 1 0;
#X connect 3 0 4 0;
#X connect 4 0 2 0;
#X restore 778 414 pd savepanel;
#X obj 778 501 pix_write;
#X msg 100 490 0;
#X msg 131 496 0;
#X obj 696 285 r renderSynch;
#N canvas 156 150 450 300 route1 0;
#X obj -74 216 * 0.001;
#X obj -74 193 counter;
#X msg 43 175 1000;
#X msg -14 175 0;
#X msg 15 175 0;
#X obj -74 309 s translateX_UI;
#X obj -19 328 s translateY_UI;
#X obj 35 347 s translateZ_UI;
#X obj 253 309 s rotateZ2_UI;
#X obj 198 347 s rotateZ1_UI;
#X obj 90 309 s rotateX_UI;
#X obj 144 328 s rotateY_UI;
#X obj -41 251 sel 0;
#X msg -41 270 1;
#X msg -14 270 0;
#X obj -74 290 spigot;
#X msg 14 270 1;
#X msg 41 270 0;
#X obj -19 290 spigot;
#X msg 68 270 1;
#X msg 95 270 0;
#X obj 35 290 spigot;
#X msg 123 270 1;
#X msg 150 270 0;
#X obj 90 290 spigot;
#X msg 177 270 1;
#X msg 204 270 0;
#X obj 144 290 spigot;
#X msg 231 270 1;
#X msg 258 270 0;
#X obj 198 290 spigot;
#X msg 286 270 1;
#X msg 313 270 0;
#X obj 253 290 spigot;
#X obj 14 251 sel 1;
#X obj 68 251 sel 2;
#X obj 123 251 sel 3;
#X obj 177 251 sel 4;
#X obj 231 251 sel 5;
#X obj 286 251 sel 6;
#X obj -74 135 inlet;
#X obj 1 142 loadbang;
#X obj 101 101 cnv 15 248 33 empty empty empty 20 12 0 14 -233017 -66577
0;
#X obj 226 115 hradio 15 1 0 8 empty empty routing 0 -6 0 10 -262144
-1 -1 6;
#X obj 105 115 hradio 15 1 0 3 empty empty counter_direction 0 -6 0
10 -262144 -1 -1 1;
#X floatatom 180 115 5 0 0 0 - - -;
#X obj 163 116 bng 15 250 50 0 empty empty empty 17 7 0 10 -262144
-1 -1;
#X connect 0 0 15 0;
#X connect 0 0 18 0;
#X connect 0 0 21 0;
#X connect 0 0 24 0;
#X connect 0 0 27 0;
#X connect 0 0 30 0;
#X connect 0 0 33 0;
#X connect 1 0 0 0;
#X connect 1 0 45 0;
#X connect 2 0 1 4;
#X connect 3 0 1 2;
#X connect 4 0 1 3;
#X connect 12 0 13 0;
#X connect 12 1 14 0;
#X connect 13 0 15 1;
#X connect 14 0 15 1;
#X connect 15 0 5 0;
#X connect 16 0 18 1;
#X connect 17 0 18 1;
#X connect 18 0 6 0;
#X connect 19 0 21 1;
#X connect 20 0 21 1;
#X connect 21 0 7 0;
#X connect 22 0 24 1;
#X connect 23 0 24 1;
#X connect 24 0 10 0;
#X connect 25 0 27 1;
#X connect 26 0 27 1;
#X connect 27 0 11 0;
#X connect 28 0 30 1;
#X connect 29 0 30 1;
#X connect 30 0 9 0;
#X connect 31 0 33 1;
#X connect 32 0 33 1;
#X connect 33 0 8 0;
#X connect 34 0 16 0;
#X connect 34 1 17 0;
#X connect 35 0 19 0;
#X connect 35 1 20 0;
#X connect 36 0 22 0;
#X connect 36 1 23 0;
#X connect 37 0 25 0;
#X connect 37 1 26 0;
#X connect 38 0 28 0;
#X connect 38 1 29 0;
#X connect 39 0 31 0;
#X connect 39 1 32 0;
#X connect 40 0 1 0;
#X connect 41 0 3 0;
#X connect 41 0 4 0;
#X connect 41 0 2 0;
#X connect 43 0 12 0;
#X connect 43 0 34 0;
#X connect 43 0 35 0;
#X connect 43 0 36 0;
#X connect 43 0 37 0;
#X connect 43 0 38 0;
#X connect 43 0 39 0;
#X connect 44 0 1 1;
#X connect 46 0 4 0;
#X coords 0 -1 1 1 250 35 1 100 100;
#X restore 696 337 pd route1;
#N canvas 675 336 450 300 divider 0;
#X obj 33 103 counter;
#X msg 73 42 0;
#X obj 73 16 loadbang;
#X obj 33 135 sel 15;
#X obj 33 40 inlet;
#X obj 33 166 outlet;
#X obj 33 62 t b;
#X obj 101 101 cnv 15 248 33 empty empty empty 20 12 0 12 -118201 -66577
0;
#X obj 104 116 hradio 15 1 0 16 \$0-countDivision empty divide_by_1_through_16
0 -8 0 10 -262144 -1 -1 0;
#X connect 0 0 3 0;
#X connect 1 0 0 1;
#X connect 1 0 0 2;
#X connect 1 0 0 3;
#X connect 1 0 0 4;
#X connect 1 0 8 0;
#X connect 2 0 1 0;
#X connect 3 0 5 0;
#X connect 4 0 6 0;
#X connect 6 0 0 0;
#X connect 8 0 0 4;
#X connect 8 0 3 1;
#X coords 0 -1 1 1 250 35 1 100 100;
#X restore 696 302 pd divider;
#X obj 696 8 r renderSynch;
#N canvas 156 150 450 300 route1 0;
#X obj -74 216 * 0.001;
#X obj -74 193 counter;
#X msg 43 175 1000;
#X msg -14 175 0;
#X msg 15 175 0;
#X obj -74 309 s translateX_UI;
#X obj -19 328 s translateY_UI;
#X obj 35 347 s translateZ_UI;
#X obj 253 309 s rotateZ2_UI;
#X obj 198 347 s rotateZ1_UI;
#X obj 90 309 s rotateX_UI;
#X obj 144 328 s rotateY_UI;
#X obj -41 251 sel 0;
#X msg -41 270 1;
#X msg -14 270 0;
#X obj -74 290 spigot;
#X msg 14 270 1;
#X msg 41 270 0;
#X obj -19 290 spigot;
#X msg 68 270 1;
#X msg 95 270 0;
#X obj 35 290 spigot;
#X msg 123 270 1;
#X msg 150 270 0;
#X obj 90 290 spigot;
#X msg 177 270 1;
#X msg 204 270 0;
#X obj 144 290 spigot;
#X msg 231 270 1;
#X msg 258 270 0;
#X obj 198 290 spigot;
#X msg 286 270 1;
#X msg 313 270 0;
#X obj 253 290 spigot;
#X obj 14 251 sel 1;
#X obj 68 251 sel 2;
#X obj 123 251 sel 3;
#X obj 177 251 sel 4;
#X obj 231 251 sel 5;
#X obj 286 251 sel 6;
#X obj -74 135 inlet;
#X obj 1 142 loadbang;
#X obj 101 101 cnv 15 248 33 empty empty empty 20 12 0 14 -233017 -66577
0;
#X obj 226 115 hradio 15 1 0 8 empty empty routing 0 -6 0 10 -262144
-1 -1 0;
#X obj 105 115 hradio 15 1 0 3 empty empty counter_direction 0 -6 0
10 -262144 -1 -1 1;
#X floatatom 180 115 5 0 0 0 - - -;
#X obj 163 116 bng 15 250 50 0 empty empty empty 17 7 0 10 -262144
-1 -1;
#X connect 0 0 15 0;
#X connect 0 0 18 0;
#X connect 0 0 21 0;
#X connect 0 0 24 0;
#X connect 0 0 27 0;
#X connect 0 0 30 0;
#X connect 0 0 33 0;
#X connect 1 0 0 0;
#X connect 1 0 45 0;
#X connect 2 0 1 4;
#X connect 3 0 1 2;
#X connect 4 0 1 3;
#X connect 12 0 13 0;
#X connect 12 1 14 0;
#X connect 13 0 15 1;
#X connect 14 0 15 1;
#X connect 15 0 5 0;
#X connect 16 0 18 1;
#X connect 17 0 18 1;
#X connect 18 0 6 0;
#X connect 19 0 21 1;
#X connect 20 0 21 1;
#X connect 21 0 7 0;
#X connect 22 0 24 1;
#X connect 23 0 24 1;
#X connect 24 0 10 0;
#X connect 25 0 27 1;
#X connect 26 0 27 1;
#X connect 27 0 11 0;
#X connect 28 0 30 1;
#X connect 29 0 30 1;
#X connect 30 0 9 0;
#X connect 31 0 33 1;
#X connect 32 0 33 1;
#X connect 33 0 8 0;
#X connect 34 0 16 0;
#X connect 34 1 17 0;
#X connect 35 0 19 0;
#X connect 35 1 20 0;
#X connect 36 0 22 0;
#X connect 36 1 23 0;
#X connect 37 0 25 0;
#X connect 37 1 26 0;
#X connect 38 0 28 0;
#X connect 38 1 29 0;
#X connect 39 0 31 0;
#X connect 39 1 32 0;
#X connect 40 0 1 0;
#X connect 41 0 3 0;
#X connect 41 0 4 0;
#X connect 41 0 2 0;
#X connect 43 0 12 0;
#X connect 43 0 34 0;
#X connect 43 0 35 0;
#X connect 43 0 36 0;
#X connect 43 0 37 0;
#X connect 43 0 38 0;
#X connect 43 0 39 0;
#X connect 44 0 1 1;
#X connect 46 0 4 0;
#X coords 0 -1 1 1 250 35 1 100 100;
#X restore 696 60 pd route1;
#N canvas 675 336 450 300 divider 0;
#X obj 33 103 counter;
#X msg 73 42 0;
#X obj 73 16 loadbang;
#X obj 33 135 sel 15;
#X obj 33 40 inlet;
#X obj 33 166 outlet;
#X obj 33 62 t b;
#X obj 101 101 cnv 15 248 33 empty empty empty 20 12 0 12 -118201 -66577
0;
#X obj 104 116 hradio 15 1 0 16 \$0-countDivision empty divide_by_1_through_16
0 -8 0 10 -262144 -1 -1 0;
#X connect 0 0 3 0;
#X connect 1 0 0 1;
#X connect 1 0 0 2;
#X connect 1 0 0 3;
#X connect 1 0 0 4;
#X connect 1 0 8 0;
#X connect 2 0 1 0;
#X connect 3 0 5 0;
#X connect 4 0 6 0;
#X connect 6 0 0 0;
#X connect 8 0 0 4;
#X connect 8 0 3 1;
#X coords 0 -1 1 1 250 35 1 100 100;
#X restore 696 25 pd divider;
#X obj 696 101 r renderSynch;
#N canvas 156 150 450 300 route1 0;
#X obj -74 216 * 0.001;
#X obj -74 193 counter;
#X msg 43 175 1000;
#X msg -14 175 0;
#X msg 15 175 0;
#X obj -74 309 s translateX_UI;
#X obj -19 328 s translateY_UI;
#X obj 35 347 s translateZ_UI;
#X obj 253 309 s rotateZ2_UI;
#X obj 198 347 s rotateZ1_UI;
#X obj 90 309 s rotateX_UI;
#X obj 144 328 s rotateY_UI;
#X obj -41 251 sel 0;
#X msg -41 270 1;
#X msg -14 270 0;
#X obj -74 290 spigot;
#X msg 14 270 1;
#X msg 41 270 0;
#X obj -19 290 spigot;
#X msg 68 270 1;
#X msg 95 270 0;
#X obj 35 290 spigot;
#X msg 123 270 1;
#X msg 150 270 0;
#X obj 90 290 spigot;
#X msg 177 270 1;
#X msg 204 270 0;
#X obj 144 290 spigot;
#X msg 231 270 1;
#X msg 258 270 0;
#X obj 198 290 spigot;
#X msg 286 270 1;
#X msg 313 270 0;
#X obj 253 290 spigot;
#X obj 14 251 sel 1;
#X obj 68 251 sel 2;
#X obj 123 251 sel 3;
#X obj 177 251 sel 4;
#X obj 231 251 sel 5;
#X obj 286 251 sel 6;
#X obj -74 135 inlet;
#X obj 1 142 loadbang;
#X obj 101 101 cnv 15 248 33 empty empty empty 20 12 0 14 -233017 -66577
0;
#X obj 226 115 hradio 15 1 0 8 empty empty routing 0 -6 0 10 -262144
-1 -1 1;
#X obj 105 115 hradio 15 1 0 3 empty empty counter_direction 0 -6 0
10 -262144 -1 -1 2;
#X floatatom 180 115 5 0 0 0 - - -;
#X obj 163 116 bng 15 250 50 0 empty empty empty 17 7 0 10 -262144
-1 -1;
#X connect 0 0 15 0;
#X connect 0 0 18 0;
#X connect 0 0 21 0;
#X connect 0 0 24 0;
#X connect 0 0 27 0;
#X connect 0 0 30 0;
#X connect 0 0 33 0;
#X connect 1 0 0 0;
#X connect 1 0 45 0;
#X connect 2 0 1 4;
#X connect 3 0 1 2;
#X connect 4 0 1 3;
#X connect 12 0 13 0;
#X connect 12 1 14 0;
#X connect 13 0 15 1;
#X connect 14 0 15 1;
#X connect 15 0 5 0;
#X connect 16 0 18 1;
#X connect 17 0 18 1;
#X connect 18 0 6 0;
#X connect 19 0 21 1;
#X connect 20 0 21 1;
#X connect 21 0 7 0;
#X connect 22 0 24 1;
#X connect 23 0 24 1;
#X connect 24 0 10 0;
#X connect 25 0 27 1;
#X connect 26 0 27 1;
#X connect 27 0 11 0;
#X connect 28 0 30 1;
#X connect 29 0 30 1;
#X connect 30 0 9 0;
#X connect 31 0 33 1;
#X connect 32 0 33 1;
#X connect 33 0 8 0;
#X connect 34 0 16 0;
#X connect 34 1 17 0;
#X connect 35 0 19 0;
#X connect 35 1 20 0;
#X connect 36 0 22 0;
#X connect 36 1 23 0;
#X connect 37 0 25 0;
#X connect 37 1 26 0;
#X connect 38 0 28 0;
#X connect 38 1 29 0;
#X connect 39 0 31 0;
#X connect 39 1 32 0;
#X connect 40 0 1 0;
#X connect 41 0 3 0;
#X connect 41 0 4 0;
#X connect 41 0 2 0;
#X connect 43 0 12 0;
#X connect 43 0 34 0;
#X connect 43 0 35 0;
#X connect 43 0 36 0;
#X connect 43 0 37 0;
#X connect 43 0 38 0;
#X connect 43 0 39 0;
#X connect 44 0 1 1;
#X connect 46 0 4 0;
#X coords 0 -1 1 1 250 35 1 100 100;
#X restore 696 153 pd route1;
#N canvas 675 336 450 300 divider 0;
#X obj 33 103 counter;
#X msg 73 42 0;
#X obj 73 16 loadbang;
#X obj 33 135 sel 15;
#X obj 33 40 inlet;
#X obj 33 166 outlet;
#X obj 33 62 t b;
#X obj 101 101 cnv 15 248 33 empty empty empty 20 12 0 12 -118201 -66577
0;
#X obj 104 116 hradio 15 1 0 16 \$0-countDivision empty divide_by_1_through_16
0 -8 0 10 -262144 -1 -1 0;
#X connect 0 0 3 0;
#X connect 1 0 0 1;
#X connect 1 0 0 2;
#X connect 1 0 0 3;
#X connect 1 0 0 4;
#X connect 1 0 8 0;
#X connect 2 0 1 0;
#X connect 3 0 5 0;
#X connect 4 0 6 0;
#X connect 6 0 0 0;
#X connect 8 0 0 4;
#X connect 8 0 3 1;
#X coords 0 -1 1 1 250 35 1 100 100;
#X restore 696 118 pd divider;
#X floatatom 455 485 5 0 0 0 - - -;
#X obj 459 525 * 0.001;
#X msg 859 440 file /Users/phillipstearns/PD_Output/Nigeria/002/Nigeria_002_
100;
#X floatatom 521 501 5 0 0 0 - - -;
#X obj 525 541 * 0.001;
#X floatatom 573 501 5 0 0 0 - - -;
#X obj 577 541 * 0.001;
#X obj -26 115 depth;
#X msg 23 52 1;
#X msg 23 80 0;
#X obj 423 -42 separator;
#X connect 0 0 1 0;
#X connect 1 0 0 0;
#X connect 2 0 71 0;
#X connect 2 0 99 0;
#X connect 3 0 7 0;
#X connect 4 0 5 0;
#X connect 5 0 6 0;
#X connect 6 0 3 0;
#X connect 7 0 12 0;
#X connect 8 0 54 0;
#X connect 9 0 10 0;
#X connect 10 0 11 0;
#X connect 11 0 8 0;
#X connect 12 0 13 0;
#X connect 13 0 45 0;
#X connect 14 0 15 0;
#X connect 15 0 51 0;
#X connect 16 0 13 1;
#X connect 16 0 15 1;
#X connect 17 0 16 0;
#X connect 19 0 13 2;
#X connect 19 0 15 2;
#X connect 20 0 19 0;
#X connect 22 0 13 3;
#X connect 23 0 22 0;
#X connect 24 0 23 0;
#X connect 26 0 15 3;
#X connect 27 0 26 0;
#X connect 28 0 27 0;
#X connect 29 0 14 1;
#X connect 29 0 12 1;
#X connect 30 0 29 0;
#X connect 32 0 14 2;
#X connect 32 0 12 2;
#X connect 33 0 32 0;
#X connect 35 0 14 3;
#X connect 35 0 12 3;
#X connect 36 0 35 0;
#X connect 38 0 55 0;
#X connect 39 0 30 0;
#X connect 40 0 20 0;
#X connect 41 0 17 0;
#X connect 42 0 31 0;
#X connect 42 0 34 0;
#X connect 42 0 37 0;
#X connect 43 0 18 0;
#X connect 43 0 21 0;
#X connect 44 0 45 0;
#X connect 50 0 51 0;
#X connect 53 0 25 0;
#X connect 53 0 52 0;
#X connect 54 0 14 0;
#X connect 55 0 36 0;
#X connect 58 0 3 0;
#X connect 59 0 27 1;
#X connect 59 0 23 1;
#X connect 59 0 20 1;
#X connect 59 0 17 1;
#X connect 60 0 30 1;
#X connect 60 0 33 1;
#X connect 60 0 36 1;
#X connect 61 0 2 0;
#X connect 62 0 28 0;
#X connect 63 0 24 0;
#X connect 64 0 40 0;
#X connect 65 0 41 0;
#X connect 67 0 38 0;
#X connect 68 0 70 0;
#X connect 69 0 39 0;
#X connect 70 0 33 0;
#X connect 71 0 72 0;
#X connect 73 0 75 0;
#X connect 75 0 74 0;
#X connect 76 0 80 0;
#X connect 77 0 76 0;
#X connect 78 0 79 0;
#X connect 79 0 94 0;
#X connect 81 0 18 0;
#X connect 82 0 21 0;
#X connect 83 0 85 0;
#X connect 85 0 84 0;
#X connect 86 0 88 0;
#X connect 88 0 87 0;
#X connect 89 0 91 0;
#X connect 91 0 90 0;
#X connect 92 0 93 0;
#X connect 93 0 18 0;
#X connect 93 0 21 0;
#X connect 94 0 80 0;
#X connect 95 0 96 0;
#X connect 96 0 18 0;
#X connect 97 0 98 0;
#X connect 98 0 21 0;
#X connect 99 0 58 0;
#X connect 99 0 102 0;
#X connect 99 0 80 0;
#X connect 100 0 99 0;
#X connect 101 0 99 0;
#X connect 102 0 8 0;
