#N canvas 1610 250 1175 844 10;
#N canvas 197 139 737 526 gemwin 0;
#X obj 51 169 gemwin;
#X obj -14 122 outlet;
#X obj -14 43 inlet;
#X obj -14 74 route create;
#X msg -14 103 set destroy;
#X msg 61 101 set create;
#X msg 117 145 0 \, destroy;
#X obj 167 49 key;
#X obj 193 49 gemkeyboard;
#X obj 167 73 sel 96;
#X floatatom 224 74 5 0 0 0 - - -;
#N canvas 107 24 450 300 esc 0;
#X obj 65 20 gemkeyboard;
#X obj 65 167 outlet;
#X obj 89 71 keyname;
#X obj 128 96 sel Escape;
#X obj 65 41 sel 53;
#X obj 189 47 sel Escape;
#X obj 150 22 gemkeyname;
#X connect 0 0 4 0;
#X connect 2 1 3 0;
#X connect 3 0 1 0;
#X connect 4 0 1 0;
#X connect 5 0 1 0;
#X connect 6 1 5 0;
#X restore 116 48 pd esc;
#X msg 51 124 reset \, lighting 1 \, dimen 1920 1080 \, create \, 1
;
#X connect 2 0 3 0;
#X connect 3 0 4 0;
#X connect 3 0 12 0;
#X connect 3 1 5 0;
#X connect 3 1 6 0;
#X connect 4 0 1 0;
#X connect 5 0 1 0;
#X connect 6 0 0 0;
#X connect 7 0 9 0;
#X connect 7 0 10 0;
#X connect 8 0 9 0;
#X connect 9 0 4 0;
#X connect 9 0 12 0;
#X connect 11 0 6 0;
#X connect 11 0 5 0;
#X connect 12 0 0 0;
#X restore 120 -116 pd gemwin;
#X msg 121 -134 create;
#X obj 56 -114 gemhead;
#X obj 252 484 hsl 200 15 -0.1 0.1 0 0 master_rotate_x master_rotate_x_UI
master_rotate_x 0 8 0 10 -262144 -1 -1 11243 0;
#X obj 252 433 hsl 200 15 -1 1 0 0 master_translate_x master_translate_x_UI
master_translate_x 0 8 0 10 -262144 -1 -1 16368 0;
#X msg 221 433 0;
#X msg 219 484 0;
#X obj 247 415 hsl 128 15 0 10 0 0 zscale empty zscale 0 8 0 10 -262144
-1 -1 0 1;
#X obj 247 398 hsl 128 15 0 25 0 0 yscale empty yscale 0 8 0 10 -262144
-1 -1 12700 1;
#X obj 247 381 hsl 128 15 0 25 0 0 xscale empty xscale 0 8 0 10 -262144
-1 -1 12700 1;
#X obj 56 -131 tgl 15 0 empty empty empty 17 7 0 10 -262144 -1 -1 0
1;
#X obj 252 539 hsl 200 15 0 10000 0 0 speed speed_UI speed 0 8 0 10
-262144 -1 -1 0 0;
#X obj 56 -92 t b;
#X obj 56 -72 s renderSynch;
#X obj -61 -85 s render_chain_1;
#X obj 252 450 hsl 200 15 -1 1 0 0 master_translate_y master_translate_y_UI
master_translate_y 0 8 0 10 -262144 -1 -1 16427 0;
#X obj 252 467 hsl 200 15 -1 0.25 0 0 master_translate_z master_translate_z_UI
master_translate_z 0 8 0 10 -262144 -1 -1 17200 0;
#X msg 192 354 25;
#X obj 170 349 bng 15 250 50 0 empty empty empty 17 7 0 10 -262144
-1 -1;
#X obj 252 502 hsl 200 15 -0.1 0.1 0 0 master_rotate_y master_rotate_y_UI
master_rotate_y 0 8 0 10 -262144 -1 -1 9950 0;
#X msg 191 378 0;
#X obj 199 -67 r render_chain_1;
#X obj 198 137 r render_chain_1;
#N canvas 178 428 475 468 lightsource 0;
#X obj 163 286 world_light;
#X obj 27 177 gemhead;
#X obj 27 196 rotateXYZ 0 0 0;
#X msg 163 95 1;
#X obj 163 74 loadbang;
#X obj 75 177 inlet;
#X obj 111 177 inlet;
#X obj 27 100 inlet;
#X obj 227 26 inlet;
#X obj 331 96 t b;
#X obj 255 45 inlet;
#X obj 284 65 inlet;
#X obj 324 37 inlet;
#X obj 331 73 del;
#X obj 226 260 pack f f f;
#X obj 27 119 i;
#X obj 27 138 min 1;
#X obj 27 157 max 0;
#X text 2 76 render on/off 1/0;
#X text 75 157 rotation x y;
#X text 193 5 RGB balance and Overall Brightness (0-1);
#X obj 226 151 f 1;
#X obj 254 151 f 1;
#X obj 283 151 f 1;
#X obj 226 175 * 1;
#X obj 254 175 * 1;
#X obj 283 175 * 1;
#X obj 315 222 t b;
#X connect 1 0 2 0;
#X connect 2 0 0 0;
#X connect 3 0 0 0;
#X connect 3 0 1 0;
#X connect 4 0 3 0;
#X connect 5 0 2 1;
#X connect 6 0 2 2;
#X connect 7 0 15 0;
#X connect 8 0 21 0;
#X connect 9 0 21 0;
#X connect 9 0 22 0;
#X connect 9 0 23 0;
#X connect 10 0 22 0;
#X connect 11 0 23 0;
#X connect 12 0 13 0;
#X connect 12 0 24 1;
#X connect 12 0 25 1;
#X connect 12 0 26 1;
#X connect 13 0 9 0;
#X connect 14 0 0 1;
#X connect 15 0 16 0;
#X connect 16 0 17 0;
#X connect 17 0 1 0;
#X connect 21 0 24 0;
#X connect 22 0 25 0;
#X connect 23 0 26 0;
#X connect 24 0 14 0;
#X connect 25 0 14 1;
#X connect 25 0 27 0;
#X connect 26 0 14 2;
#X connect 26 0 27 0;
#X connect 27 0 21 0;
#X restore 645 356 pd lightsource;
#X floatatom 662 322 5 0 0 0 - - -;
#X floatatom 672 332 5 0 0 0 - - -;
#X floatatom 726 331 5 0 0 0 - - -;
#X obj 530 416 bng 15 250 50 0 empty empty empty 0 -6 0 8 -258699 -1
-1;
#N canvas 0 22 450 300 savepanel 0;
#X obj 114 62 inlet;
#X obj 114 254 outlet;
#X obj 114 199 t b a;
#X obj 114 125 savepanel;
#X msg 114 162 set file \$1 100;
#X connect 0 0 3 0;
#X connect 2 0 1 0;
#X connect 2 1 1 0;
#X connect 3 0 4 0;
#X connect 4 0 2 0;
#X restore 530 435 pd savepanel;
#X obj 530 495 pix_write;
#X msg 617 459 file /Users/phillipstearns/PD_Output/Nigeria/003/Nigeria_003_
100;
#X msg 530 474 auto \$1;
#X obj 530 456 tgl 15 0 empty empty empty 17 7 0 10 -262144 -1 -1 0
1;
#X obj -61 -105 depth 0;
#X obj -61 -65 r render_chain_1;
#X obj -61 -46 z-fight_curve;
#X floatatom 502 589 5 0 0 0 - - -;
#X obj 502 608 * 0.001;
#X floatatom 550 589 5 0 0 0 - - -;
#X obj 550 608 * 0.001;
#X floatatom 598 589 5 0 0 0 - - -;
#X obj 598 608 * 0.001;
#X obj 502 639 s master_rotate_x_UI;
#X obj 502 659 s master_rotate_y_UI;
#X obj 598 533 bng 15 250 50 0 empty empty empty 17 7 0 10 -262144
-1 -1;
#X obj 598 550 random 50;
#X obj 598 569 - 25;
#X obj 550 533 bng 15 250 50 0 empty empty empty 17 7 0 10 -262144
-1 -1;
#X obj 550 550 random 50;
#X obj 550 569 - 25;
#X obj 502 533 bng 15 250 50 0 empty empty empty 17 7 0 10 -262144
-1 -1;
#X obj 502 550 random 50;
#X obj 502 569 - 25;
#X msg 519 532 0;
#X msg 567 532 0;
#X msg 615 532 0;
#X msg 642 266 0;
#X obj 198 -46 z-fight_curve;
#X obj -61 154 z-fight_curve;
#X obj 198 154 z-fight_curve;
#N canvas 947 763 727 538 route1 0;
#X obj -74 216 * 0.001;
#X obj -74 193 counter;
#X msg 43 175 1000;
#X msg -14 175 0;
#X msg 15 175 0;
#X obj -41 251 sel 0;
#X msg -41 270 1;
#X msg -14 270 0;
#X obj -74 290 spigot;
#X msg 14 270 1;
#X msg 41 270 0;
#X obj -19 290 spigot;
#X msg 68 270 1;
#X msg 95 270 0;
#X obj 35 290 spigot;
#X msg 123 270 1;
#X msg 150 270 0;
#X obj 90 290 spigot;
#X msg 177 270 1;
#X msg 204 270 0;
#X obj 144 290 spigot;
#X msg 231 270 1;
#X msg 258 270 0;
#X obj 198 290 spigot;
#X msg 286 270 1;
#X msg 313 270 0;
#X obj 253 290 spigot;
#X obj 14 251 sel 1;
#X obj 68 251 sel 2;
#X obj 123 251 sel 3;
#X obj 177 251 sel 4;
#X obj 231 251 sel 5;
#X obj 286 251 sel 6;
#X obj -74 135 inlet;
#X obj 1 142 loadbang;
#X obj 101 101 cnv 15 248 33 empty empty empty 20 12 0 14 -233017 -66577
0;
#X obj 134 117 hradio 15 1 0 3 empty empty counter_direction 0 -6 0
10 -262144 -1 -1 1;
#X floatatom 199 116 5 0 0 0 - - -;
#X obj 182 117 bng 15 250 50 0 empty empty empty 17 7 0 10 -262144
-1 -1;
#X obj 103 117 tgl 15 0 empty empty EN 17 7 0 10 -262144 -1 -1 1 1
;
#X obj -70 163 spigot;
#X obj 283 176 loadbang;
#X msg 283 196 0;
#X obj -74 315 s master_translate_x_UI;
#X obj -19 338 s master_translate_y_UI;
#X obj 84 414 s master_rotate_x_UI;
#X obj 214 414 s master_rotate_y_UI;
#X obj -2 364 s master_translate_z_UI;
#X obj 257 117 hradio 15 1 0 5 \$0-routing \$0-routing_UI routing 0
-8 0 10 -262144 -1 -1 0;
#X obj 211 394 * 0.01;
#X obj 84 393 * 0.01;
#X connect 0 0 8 0;
#X connect 0 0 11 0;
#X connect 0 0 14 0;
#X connect 0 0 17 0;
#X connect 0 0 20 0;
#X connect 0 0 23 0;
#X connect 0 0 26 0;
#X connect 1 0 0 0;
#X connect 1 0 37 0;
#X connect 2 0 1 4;
#X connect 3 0 1 2;
#X connect 4 0 1 3;
#X connect 5 0 6 0;
#X connect 5 1 7 0;
#X connect 6 0 8 1;
#X connect 7 0 8 1;
#X connect 8 0 43 0;
#X connect 9 0 11 1;
#X connect 10 0 11 1;
#X connect 11 0 44 0;
#X connect 12 0 14 1;
#X connect 13 0 14 1;
#X connect 14 0 47 0;
#X connect 15 0 17 1;
#X connect 16 0 17 1;
#X connect 17 0 50 0;
#X connect 18 0 20 1;
#X connect 19 0 20 1;
#X connect 20 0 49 0;
#X connect 21 0 23 1;
#X connect 22 0 23 1;
#X connect 24 0 26 1;
#X connect 25 0 26 1;
#X connect 27 0 9 0;
#X connect 27 1 10 0;
#X connect 28 0 12 0;
#X connect 28 1 13 0;
#X connect 29 0 15 0;
#X connect 29 1 16 0;
#X connect 30 0 18 0;
#X connect 30 1 19 0;
#X connect 31 0 21 0;
#X connect 31 1 22 0;
#X connect 32 0 24 0;
#X connect 32 1 25 0;
#X connect 33 0 40 0;
#X connect 34 0 3 0;
#X connect 34 0 4 0;
#X connect 34 0 2 0;
#X connect 36 0 1 1;
#X connect 38 0 4 0;
#X connect 39 0 40 1;
#X connect 40 0 1 0;
#X connect 41 0 42 0;
#X connect 42 0 48 0;
#X connect 48 0 5 0;
#X connect 48 0 27 0;
#X connect 48 0 28 0;
#X connect 48 0 29 0;
#X connect 48 0 30 0;
#X connect 48 0 31 0;
#X connect 48 0 32 0;
#X connect 49 0 46 0;
#X connect 50 0 45 0;
#X coords 0 -1 1 1 250 35 1 100 100;
#X restore -83 421 pd route1;
#N canvas 675 336 450 300 divider 0;
#X obj 33 103 counter;
#X msg 73 42 0;
#X obj 73 16 loadbang;
#X obj 33 135 sel 15;
#X obj 33 40 inlet;
#X obj 33 166 outlet;
#X obj 33 62 t b;
#X obj 101 101 cnv 15 248 33 empty empty empty 20 12 0 12 -118201 -66577
0;
#X obj 104 116 hradio 15 1 0 16 \$0-countDivision empty divide_by_1_through_16
0 -8 0 10 -262144 -1 -1 0;
#X connect 0 0 3 0;
#X connect 1 0 0 1;
#X connect 1 0 0 2;
#X connect 1 0 0 3;
#X connect 1 0 0 4;
#X connect 1 0 8 0;
#X connect 2 0 1 0;
#X connect 3 0 5 0;
#X connect 4 0 6 0;
#X connect 6 0 0 0;
#X connect 8 0 0 4;
#X connect 8 0 3 1;
#X coords 0 -1 1 1 250 35 1 100 100;
#X restore -83 386 pd divider;
#X obj -83 365 r renderSynch;
#N canvas 947 763 727 538 route1 0;
#X obj -74 216 * 0.001;
#X obj -74 193 counter;
#X msg 43 175 1000;
#X msg -14 175 0;
#X msg 15 175 0;
#X obj -41 251 sel 0;
#X msg -41 270 1;
#X msg -14 270 0;
#X obj -74 290 spigot;
#X msg 14 270 1;
#X msg 41 270 0;
#X obj -19 290 spigot;
#X msg 68 270 1;
#X msg 95 270 0;
#X obj 35 290 spigot;
#X msg 123 270 1;
#X msg 150 270 0;
#X obj 90 290 spigot;
#X msg 177 270 1;
#X msg 204 270 0;
#X obj 144 290 spigot;
#X msg 231 270 1;
#X msg 258 270 0;
#X obj 198 290 spigot;
#X msg 286 270 1;
#X msg 313 270 0;
#X obj 253 290 spigot;
#X obj 14 251 sel 1;
#X obj 68 251 sel 2;
#X obj 123 251 sel 3;
#X obj 177 251 sel 4;
#X obj 231 251 sel 5;
#X obj 286 251 sel 6;
#X obj -74 135 inlet;
#X obj 1 142 loadbang;
#X obj 101 101 cnv 15 248 33 empty empty empty 20 12 0 14 -233017 -66577
0;
#X obj 134 117 hradio 15 1 0 3 empty empty counter_direction 0 -6 0
10 -262144 -1 -1 2;
#X floatatom 199 116 5 0 0 0 - - -;
#X obj 182 117 bng 15 250 50 0 empty empty empty 17 7 0 10 -262144
-1 -1;
#X obj 103 117 tgl 15 0 empty empty EN 17 7 0 10 -262144 -1 -1 0 1
;
#X obj -70 163 spigot;
#X obj 283 176 loadbang;
#X msg 283 196 0;
#X obj -74 315 s master_translate_x_UI;
#X obj -19 338 s master_translate_y_UI;
#X obj 84 414 s master_rotate_x_UI;
#X obj 214 414 s master_rotate_y_UI;
#X obj -2 364 s master_translate_z_UI;
#X obj 257 117 hradio 15 1 0 5 \$0-routing \$0-routing_UI routing 0
-8 0 10 -262144 -1 -1 1;
#X obj 211 394 * 0.01;
#X obj 84 393 * 0.01;
#X connect 0 0 8 0;
#X connect 0 0 11 0;
#X connect 0 0 14 0;
#X connect 0 0 17 0;
#X connect 0 0 20 0;
#X connect 0 0 23 0;
#X connect 0 0 26 0;
#X connect 1 0 0 0;
#X connect 1 0 37 0;
#X connect 2 0 1 4;
#X connect 3 0 1 2;
#X connect 4 0 1 3;
#X connect 5 0 6 0;
#X connect 5 1 7 0;
#X connect 6 0 8 1;
#X connect 7 0 8 1;
#X connect 8 0 43 0;
#X connect 9 0 11 1;
#X connect 10 0 11 1;
#X connect 11 0 44 0;
#X connect 12 0 14 1;
#X connect 13 0 14 1;
#X connect 14 0 47 0;
#X connect 15 0 17 1;
#X connect 16 0 17 1;
#X connect 17 0 50 0;
#X connect 18 0 20 1;
#X connect 19 0 20 1;
#X connect 20 0 49 0;
#X connect 21 0 23 1;
#X connect 22 0 23 1;
#X connect 24 0 26 1;
#X connect 25 0 26 1;
#X connect 27 0 9 0;
#X connect 27 1 10 0;
#X connect 28 0 12 0;
#X connect 28 1 13 0;
#X connect 29 0 15 0;
#X connect 29 1 16 0;
#X connect 30 0 18 0;
#X connect 30 1 19 0;
#X connect 31 0 21 0;
#X connect 31 1 22 0;
#X connect 32 0 24 0;
#X connect 32 1 25 0;
#X connect 33 0 40 0;
#X connect 34 0 3 0;
#X connect 34 0 4 0;
#X connect 34 0 2 0;
#X connect 36 0 1 1;
#X connect 38 0 4 0;
#X connect 39 0 40 1;
#X connect 40 0 1 0;
#X connect 41 0 42 0;
#X connect 42 0 48 0;
#X connect 48 0 5 0;
#X connect 48 0 27 0;
#X connect 48 0 28 0;
#X connect 48 0 29 0;
#X connect 48 0 30 0;
#X connect 48 0 31 0;
#X connect 48 0 32 0;
#X connect 49 0 46 0;
#X connect 50 0 45 0;
#X coords 0 -1 1 1 250 35 1 100 100;
#X restore -83 517 pd route1;
#N canvas 675 336 450 300 divider 0;
#X obj 33 103 counter;
#X msg 73 42 0;
#X obj 73 16 loadbang;
#X obj 33 135 sel 15;
#X obj 33 40 inlet;
#X obj 33 166 outlet;
#X obj 33 62 t b;
#X obj 101 101 cnv 15 248 33 empty empty empty 20 12 0 12 -118201 -66577
0;
#X obj 104 116 hradio 15 1 0 16 \$0-countDivision empty divide_by_1_through_16
0 -8 0 10 -262144 -1 -1 0;
#X connect 0 0 3 0;
#X connect 1 0 0 1;
#X connect 1 0 0 2;
#X connect 1 0 0 3;
#X connect 1 0 0 4;
#X connect 1 0 8 0;
#X connect 2 0 1 0;
#X connect 3 0 5 0;
#X connect 4 0 6 0;
#X connect 6 0 0 0;
#X connect 8 0 0 4;
#X connect 8 0 3 1;
#X coords 0 -1 1 1 250 35 1 100 100;
#X restore -83 482 pd divider;
#X obj -83 462 r renderSynch;
#X connect 0 0 1 0;
#X connect 1 0 0 0;
#X connect 2 0 12 0;
#X connect 2 0 33 0;
#X connect 2 0 29 0;
#X connect 5 0 4 0;
#X connect 5 0 15 0;
#X connect 5 0 16 0;
#X connect 6 0 3 0;
#X connect 6 0 19 0;
#X connect 10 0 2 0;
#X connect 12 0 13 0;
#X connect 17 0 9 0;
#X connect 17 0 8 0;
#X connect 18 0 17 0;
#X connect 18 0 20 0;
#X connect 20 0 7 0;
#X connect 21 0 57 0;
#X connect 22 0 59 0;
#X connect 24 0 23 1;
#X connect 25 0 23 2;
#X connect 26 0 23 6;
#X connect 27 0 28 0;
#X connect 28 0 30 0;
#X connect 30 0 29 0;
#X connect 31 0 29 0;
#X connect 32 0 31 0;
#X connect 33 0 14 0;
#X connect 34 0 35 0;
#X connect 36 0 37 0;
#X connect 37 0 42 0;
#X connect 37 0 43 0;
#X connect 38 0 39 0;
#X connect 39 0 42 0;
#X connect 40 0 41 0;
#X connect 41 0 43 0;
#X connect 44 0 45 0;
#X connect 45 0 46 0;
#X connect 46 0 40 0;
#X connect 47 0 48 0;
#X connect 48 0 49 0;
#X connect 49 0 38 0;
#X connect 50 0 51 0;
#X connect 51 0 52 0;
#X connect 52 0 36 0;
#X connect 53 0 36 0;
#X connect 54 0 38 0;
#X connect 55 0 40 0;
#X connect 56 0 24 0;
#X connect 56 0 25 0;
#X connect 61 0 60 0;
#X connect 62 0 61 0;
#X connect 64 0 63 0;
#X connect 65 0 64 0;
